<?xml version="1.0" encoding="UTF-8" standalone="no"?>
<!-- Created with Inkscape (http://www.inkscape.org/) -->

<svg
   xmlns:dc="http://purl.org/dc/elements/1.1/"
   xmlns:cc="http://creativecommons.org/ns#"
   xmlns:rdf="http://www.w3.org/1999/02/22-rdf-syntax-ns#"
   xmlns:svg="http://www.w3.org/2000/svg"
   xmlns="http://www.w3.org/2000/svg"
   xmlns:xlink="http://www.w3.org/1999/xlink"
   xmlns:sodipodi="http://sodipodi.sourceforge.net/DTD/sodipodi-0.dtd"
   xmlns:inkscape="http://www.inkscape.org/namespaces/inkscape"
   width="320"
   height="320"
   id="svg2"
   sodipodi:version="0.32"
   inkscape:version="0.47 r22583"
   sodipodi:docname="Image.svg"
   inkscape:output_extension="org.inkscape.output.svg.inkscape"
   version="1.0">
  <defs
     id="defs4">
    <linearGradient
       id="linearGradient3269">
      <stop
         id="stop3271"
         offset="0"
         style="stop-color:#ffffff;stop-opacity:1;" />
      <stop
         style="stop-color:#8793b4;stop-opacity:1;"
         offset="0.50120121"
         id="stop3273" />
      <stop
         id="stop3275"
         offset="1"
         style="stop-color:#161640;stop-opacity:1;" />
    </linearGradient>
    <linearGradient
       id="linearGradient3272">
      <stop
         id="stop3274"
         offset="0"
         style="stop-color:#ffffff;stop-opacity:1;" />
      <stop
         style="stop-color:#bbd5c1;stop-opacity:1;"
         offset="0.5884158"
         id="stop3276" />
      <stop
         id="stop3278"
         offset="1"
         style="stop-color:#71c351;stop-opacity:1;" />
    </linearGradient>
    <linearGradient
       id="linearGradient3166">
      <stop
         style="stop-color:#d5ffff;stop-opacity:1;"
         offset="0"
         id="stop3168" />
      <stop
         id="stop3174"
         offset="0.24137931"
         style="stop-color:#87b492;stop-opacity:1;" />
      <stop
         style="stop-color:#396a25;stop-opacity:1;"
         offset="1"
         id="stop3170" />
    </linearGradient>
    <inkscape:perspective
       sodipodi:type="inkscape:persp3d"
       inkscape:vp_x="0 : 526.18109 : 1"
       inkscape:vp_y="0 : 1000 : 0"
       inkscape:vp_z="744.09448 : 526.18109 : 1"
       inkscape:persp3d-origin="372.04724 : 350.78739 : 1"
       id="perspective10" />
    <radialGradient
       inkscape:collect="always"
       xlink:href="#linearGradient3166"
       id="radialGradient2457"
       gradientUnits="userSpaceOnUse"
       gradientTransform="matrix(0.2760087,0.4901916,-1.4925249,0.8403855,1040.0088,-103.64622)"
       cx="-120.66913"
       cy="512.35571"
       fx="-120.66913"
       fy="512.35571"
       r="144.23438" />
    <radialGradient
       inkscape:collect="always"
       xlink:href="#linearGradient3272"
       id="radialGradient2474"
       gradientUnits="userSpaceOnUse"
       gradientTransform="matrix(1.1055172,-0.9264079,1.0117891,1.2074056,50.662198,261.5516)"
       cx="116.9056"
       cy="86.495285"
       fx="116.9056"
       fy="86.495285"
       r="138.84375" />
    <radialGradient
       inkscape:collect="always"
       xlink:href="#linearGradient3269"
       id="radialGradient3267"
       cx="2.0203052"
       cy="145.74869"
       fx="2.0203052"
       fy="145.74869"
       r="15.152288"
       gradientUnits="userSpaceOnUse"
       gradientTransform="matrix(0.6083335,0.4750004,-0.6154347,0.7881878,90.490086,29.911693)" />
    <filter
       inkscape:collect="always"
       id="filter3619">
      <feGaussianBlur
         inkscape:collect="always"
         stdDeviation="4.1819531"
         id="feGaussianBlur3621" />
    </filter>
    <radialGradient
       inkscape:collect="always"
       xlink:href="#linearGradient3269"
       id="radialGradient3623"
       gradientUnits="userSpaceOnUse"
       gradientTransform="matrix(0.6083335,0.4750004,-0.6154347,0.7881878,90.490086,29.911693)"
       cx="2.0203052"
       cy="145.74869"
       fx="2.0203052"
       fy="145.74869"
       r="15.152288" />
  </defs>
  <sodipodi:namedview
     id="base"
     pagecolor="#ffffff"
     bordercolor="#666666"
     borderopacity="1.0"
     inkscape:pageopacity="0.0"
     inkscape:pageshadow="2"
     inkscape:zoom="2.1956799"
     inkscape:cx="27.893464"
     inkscape:cy="154.59689"
     inkscape:document-units="px"
     inkscape:current-layer="layer1"
     showgrid="false"
     inkscape:window-width="1920"
     inkscape:window-height="1134"
     inkscape:window-x="0"
     inkscape:window-y="26"
     inkscape:window-maximized="0" />
  <metadata
     id="metadata7">
    <rdf:RDF>
      <cc:Work
         rdf:about="">
        <dc:format>image/svg+xml</dc:format>
        <dc:type
           rdf:resource="http://purl.org/dc/dcmitype/StillImage" />
      </cc:Work>
    </rdf:RDF>
  </metadata>
  <g
     inkscape:label="Ebene 1"
     inkscape:groupmode="layer"
     id="layer1"
     transform="translate(-150.51273,-167.46855)">
    <path
       id="path2845"
       d="m 325.07523,204.46855 c -76.94939,0 -139.40625,62.42562 -139.40625,139.375 0,76.94939 62.45686,139.40625 139.40625,139.40625 76.94938,1e-5 139.40624,-62.45687 139.40625,-139.40625 0,-76.94937 -62.45687,-139.375 -139.40625,-139.375 z m 0,49.59375 c 49.56136,0 89.78125,40.21989 89.78125,89.78125 -10e-6,49.56137 -40.21989,89.78125 -89.78125,89.78125 -49.56137,0 -89.8125,-40.21988 -89.8125,-89.78125 0,-49.56136 40.25114,-89.78125 89.8125,-89.78125 z"
       style="opacity:0.25;fill:#000000;fill-opacity:1;stroke:none;filter:url(#filter3619)" />
    <path
       style="fill:url(#radialGradient2457);fill-opacity:1;stroke:#000000;stroke-width:5;stroke-linecap:round;stroke-linejoin:miter;stroke-miterlimit:4;stroke-opacity:0.36267604;stroke-dasharray:none"
       d="m 305.07523,184.46855 c -76.94939,0 -139.40625,62.42562 -139.40625,139.375 0,76.94939 62.45686,139.40625 139.40625,139.40625 76.94938,1e-5 139.40624,-62.45687 139.40625,-139.40625 0,-76.94938 -62.45687,-139.375 -139.40625,-139.375 z m 0,49.59375 c 49.56136,0 89.78125,40.21989 89.78125,89.78125 -10e-6,49.56137 -40.21989,89.78125 -89.78125,89.78125 -49.56137,0 -89.8125,-40.21988 -89.8125,-89.78125 0,-49.56136 40.25114,-89.78125 89.8125,-89.78125 z"
       id="path2430" />
    <path
       style="opacity:0.25;fill:url(#radialGradient2474);fill-opacity:1;stroke:none"
       d="m 305.51273,192.46855 c -1.23841,-0.006 -2.44958,-4.9e-4 -3.6875,0.0312 -59.0774,0.38655 -114.15606,46.06678 -125.34375,104 -0.96414,4.6025 -1.61153,9.38834 -2.09375,14.09375 11.22796,5.80923 22.85341,10.65104 34.78125,14.625 -0.0431,-2.96793 0.0524,-5.93282 0.3125,-8.90625 2.68621,-47.37898 45.71651,-88.12906 93.1875,-88.21875 34.55866,-1.49608 68.12894,18.19031 85.40625,47.78125 8.39205,13.81801 12.50957,29.68095 12.75,45.65625 11.91074,-4.57725 23.4498,-10.18713 34.28125,-16.96875 -7.68332,-58.32644 -59.43797,-107.6463 -118.4375,-111.5625 -3.69889,-0.33724 -7.44102,-0.51386 -11.15625,-0.53125 z"
       id="path2434" />
    <path
       sodipodi:type="arc"
       style="fill:url(#radialGradient3623);fill-opacity:1;stroke:#000000;stroke-width:2.05993891;stroke-linecap:round;stroke-linejoin:round;stroke-miterlimit:4;stroke-opacity:1;stroke-dasharray:none"
       id="path3259"
       sodipodi:cx="7.0710678"
       sodipodi:cy="149.28423"
       sodipodi:rx="15.152288"
       sodipodi:ry="15.152288"
       d="m 22.223356,149.28423 a 15.152288,15.152288 0 1 1 -30.3045766,0 15.152288,15.152288 0 1 1 30.3045766,0 z"
       transform="matrix(0.9709026,0,0,0.9709026,159.80986,183.44938)" />
    <use
       x="0"
       y="0"
       xlink:href="#path3259"
       id="use3297"
       transform="translate(280.31733,0)"
       width="320"
       height="320" />
    <use
       x="0"
       y="0"
       xlink:href="#path3259"
       id="use3299"
       transform="translate(139.76734,-142.66574)"
       width="320"
       height="320" />
    <use
       x="0"
       y="0"
       xlink:href="#use3299"
       id="use3301"
       transform="translate(0,278.2465)"
       width="320"
       height="320" />
    <use
       x="0"
       y="0"
       xlink:href="#path3259"
       id="use3303"
       transform="translate(72.460027,-62.476646)"
       width="320"
       height="320" />
    <use
       x="0"
       y="0"
       xlink:href="#use3303"
       id="use3305"
       transform="translate(133.00441,0)"
       width="320"
       height="320" />
    <use
       x="0"
       y="0"
       xlink:href="#use3305"
       id="use3307"
       transform="translate(0,121.08876)"
       width="320"
       height="320" />
    <use
       x="0"
       y="0"
       xlink:href="#use3303"
       id="use3313"
       transform="translate(0,119.47853)"
       width="320"
       height="320" />
  </g>
</svg>
