<?xml version="1.0" encoding="UTF-8" standalone="no"?>
<!-- Created with Inkscape (http://www.inkscape.org/) -->

<svg
   xmlns:dc="http://purl.org/dc/elements/1.1/"
   xmlns:cc="http://creativecommons.org/ns#"
   xmlns:rdf="http://www.w3.org/1999/02/22-rdf-syntax-ns#"
   xmlns:svg="http://www.w3.org/2000/svg"
   xmlns="http://www.w3.org/2000/svg"
   xmlns:xlink="http://www.w3.org/1999/xlink"
   xmlns:sodipodi="http://sodipodi.sourceforge.net/DTD/sodipodi-0.dtd"
   xmlns:inkscape="http://www.inkscape.org/namespaces/inkscape"
   width="320"
   height="320"
   id="svg2"
   sodipodi:version="0.32"
   inkscape:version="0.47 r22583"
   sodipodi:docname="Image.svg"
   inkscape:output_extension="org.inkscape.output.svg.inkscape"
   version="1.0">
  <defs
     id="defs4">
    <linearGradient
       id="linearGradient3269">
      <stop
         id="stop3271"
         offset="0"
         style="stop-color:#ffffff;stop-opacity:1;" />
      <stop
         style="stop-color:#8793b4;stop-opacity:1;"
         offset="0.50120121"
         id="stop3273" />
      <stop
         id="stop3275"
         offset="1"
         style="stop-color:#161640;stop-opacity:1;" />
    </linearGradient>
    <linearGradient
       id="linearGradient3272">
      <stop
         id="stop3274"
         offset="0"
         style="stop-color:#ffffff;stop-opacity:1;" />
      <stop
         style="stop-color:#bbd5c1;stop-opacity:1;"
         offset="0.5884158"
         id="stop3276" />
      <stop
         id="stop3278"
         offset="1"
         style="stop-color:#71c351;stop-opacity:1;" />
    </linearGradient>
    <linearGradient
       id="linearGradient3166">
      <stop
         style="stop-color:#d5ffff;stop-opacity:1;"
         offset="0"
         id="stop3168" />
      <stop
         id="stop3174"
         offset="0.24137931"
         style="stop-color:#87b492;stop-opacity:1;" />
      <stop
         style="stop-color:#396a25;stop-opacity:1;"
         offset="1"
         id="stop3170" />
    </linearGradient>
    <inkscape:perspective
       sodipodi:type="inkscape:persp3d"
       inkscape:vp_x="0 : 526.18109 : 1"
       inkscape:vp_y="0 : 1000 : 0"
       inkscape:vp_z="744.09448 : 526.18109 : 1"
       inkscape:persp3d-origin="372.04724 : 350.78739 : 1"
       id="perspective10" />
    <radialGradient
       inkscape:collect="always"
       xlink:href="#linearGradient3269"
       id="radialGradient3267"
       cx="2.0203052"
       cy="145.74869"
       fx="2.0203052"
       fy="145.74869"
       r="15.152288"
       gradientUnits="userSpaceOnUse"
       gradientTransform="matrix(0.6083335,0.4750004,-0.6154347,0.7881878,90.490086,29.911693)" />
    <radialGradient
       inkscape:collect="always"
       xlink:href="#linearGradient3272"
       id="radialGradient3657"
       gradientUnits="userSpaceOnUse"
       gradientTransform="matrix(2.0003334,-1.2012399,1.3119507,2.1846911,-180.22516,252.69148)"
       cx="116.9056"
       cy="86.495285"
       fx="116.9056"
       fy="86.495285"
       r="138.84375" />
    <radialGradient
       inkscape:collect="always"
       xlink:href="#linearGradient3166"
       id="radialGradient3660"
       gradientUnits="userSpaceOnUse"
       gradientTransform="matrix(0.31729647,0.85294004,-2.5970137,0.96609763,1492.8206,-81.122597)"
       cx="-120.66913"
       cy="512.35571"
       fx="-120.66913"
       fy="512.35571"
       r="144.23438" />
    <radialGradient
       inkscape:collect="always"
       xlink:href="#linearGradient3269"
       id="radialGradient3664"
       gradientUnits="userSpaceOnUse"
       gradientTransform="matrix(0.6083335,0.4750004,-0.6154347,0.7881878,90.490086,29.911693)"
       cx="2.0203052"
       cy="145.74869"
       fx="2.0203052"
       fy="145.74869"
       r="15.152288" />
    <radialGradient
       inkscape:collect="always"
       xlink:href="#linearGradient3269"
       id="radialGradient3682"
       gradientUnits="userSpaceOnUse"
       gradientTransform="matrix(0.6083335,0.4750004,-0.6154347,0.7881878,90.490086,29.911693)"
       cx="2.0203052"
       cy="145.74869"
       fx="2.0203052"
       fy="145.74869"
       r="15.152288" />
    <radialGradient
       inkscape:collect="always"
       xlink:href="#linearGradient3272"
       id="radialGradient3733"
       gradientUnits="userSpaceOnUse"
       gradientTransform="matrix(2.0003334,-1.2012399,1.3119507,2.1846911,-526.3594,239.93917)"
       cx="116.9056"
       cy="86.495285"
       fx="116.9056"
       fy="86.495285"
       r="138.84375" />
    <filter
       inkscape:collect="always"
       id="filter3775">
      <feGaussianBlur
         inkscape:collect="always"
         stdDeviation="3.7310252"
         id="feGaussianBlur3777" />
    </filter>
    <radialGradient
       inkscape:collect="always"
       xlink:href="#linearGradient3166"
       id="radialGradient3779"
       gradientUnits="userSpaceOnUse"
       gradientTransform="matrix(0.31729647,0.85294004,-2.5970137,0.96609763,1492.8206,-81.122597)"
       cx="-120.66913"
       cy="512.35571"
       fx="-120.66913"
       fy="512.35571"
       r="144.23438" />
    <radialGradient
       inkscape:collect="always"
       xlink:href="#linearGradient3272"
       id="radialGradient3781"
       gradientUnits="userSpaceOnUse"
       gradientTransform="matrix(2.0003334,-1.2012399,1.3119507,2.1846911,-180.22516,252.69148)"
       cx="116.9056"
       cy="86.495285"
       fx="116.9056"
       fy="86.495285"
       r="138.84375" />
    <radialGradient
       inkscape:collect="always"
       xlink:href="#linearGradient3269"
       id="radialGradient3783"
       gradientUnits="userSpaceOnUse"
       gradientTransform="matrix(0.6083335,0.4750004,-0.6154347,0.7881878,90.490086,29.911693)"
       cx="2.0203052"
       cy="145.74869"
       fx="2.0203052"
       fy="145.74869"
       r="15.152288" />
    <radialGradient
       inkscape:collect="always"
       xlink:href="#linearGradient3269"
       id="radialGradient3785"
       gradientUnits="userSpaceOnUse"
       gradientTransform="matrix(0.6083335,0.4750004,-0.6154347,0.7881878,90.490086,29.911693)"
       cx="2.0203052"
       cy="145.74869"
       fx="2.0203052"
       fy="145.74869"
       r="15.152288" />
    <radialGradient
       inkscape:collect="always"
       xlink:href="#linearGradient3269"
       id="radialGradient2846"
       gradientUnits="userSpaceOnUse"
       gradientTransform="matrix(0.6083335,0.4750004,-0.6154347,0.7881878,90.490086,29.911693)"
       cx="2.0203052"
       cy="145.74869"
       fx="2.0203052"
       fy="145.74869"
       r="15.152288" />
    <inkscape:perspective
       id="perspective2979"
       inkscape:persp3d-origin="0.5 : 0.33333333 : 1"
       inkscape:vp_z="1 : 0.5 : 1"
       inkscape:vp_y="0 : 1000 : 0"
       inkscape:vp_x="0 : 0.5 : 1"
       sodipodi:type="inkscape:persp3d" />
    <radialGradient
       inkscape:collect="always"
       xlink:href="#linearGradient2959"
       id="radialGradient2951"
       gradientUnits="userSpaceOnUse"
       gradientTransform="matrix(1.9917086,2.0798198,-1.3654666,1.7024907,908.07248,777.17363)"
       cx="-322.26352"
       cy="54.506954"
       fx="-322.26352"
       fy="54.506947"
       r="152.48438" />
    <linearGradient
       id="linearGradient2959">
      <stop
         style="stop-color:#141414;stop-opacity:1;"
         offset="0"
         id="stop2961" />
      <stop
         id="stop2963"
         offset="0.79222167"
         style="stop-color:#38403d;stop-opacity:1;" />
      <stop
         style="stop-color:#5c6c67;stop-opacity:0;"
         offset="1"
         id="stop2965" />
    </linearGradient>
    <radialGradient
       inkscape:collect="always"
       xlink:href="#linearGradient3828"
       id="radialGradient2953"
       gradientUnits="userSpaceOnUse"
       gradientTransform="matrix(1.9917087,2.07982,-0.64730141,0.75074485,858.2755,942.55484)"
       cx="-345.30551"
       cy="-32.847904"
       fx="-345.30551"
       fy="-32.847919"
       r="152.48438" />
    <linearGradient
       id="linearGradient3828">
      <stop
         style="stop-color:#9490f5;stop-opacity:1;"
         offset="0"
         id="stop3830" />
      <stop
         style="stop-color:#07053a;stop-opacity:0;"
         offset="1"
         id="stop3832" />
    </linearGradient>
    <linearGradient
       inkscape:collect="always"
       xlink:href="#linearGradient3903"
       id="linearGradient3850"
       x1="28.212805"
       y1="49.168777"
       x2="277.01767"
       y2="49.168777"
       gradientUnits="userSpaceOnUse"
       spreadMethod="repeat"
       gradientTransform="matrix(1.1437639,0,0,0.87337992,139.28438,163.84835)" />
    <linearGradient
       id="linearGradient3903">
      <stop
         id="stop3911"
         offset="0"
         style="stop-color:#4168d4;stop-opacity:1;" />
      <stop
         style="stop-color:#6d6dcc;stop-opacity:1;"
         offset="0.75"
         id="stop3913" />
      <stop
         style="stop-color:#ffffff;stop-opacity:0;"
         offset="1"
         id="stop3907" />
    </linearGradient>
    <linearGradient
       y2="49.168777"
       x2="277.01767"
       y1="49.168777"
       x1="28.212805"
       spreadMethod="repeat"
       gradientTransform="matrix(1.1437639,0,0,0.87337992,139.28438,163.84835)"
       gradientUnits="userSpaceOnUse"
       id="linearGradient3000"
       xlink:href="#linearGradient3903"
       inkscape:collect="always" />
    <radialGradient
       inkscape:collect="always"
       xlink:href="#linearGradient3166"
       id="radialGradient2896"
       gradientUnits="userSpaceOnUse"
       gradientTransform="matrix(0.31729647,0.85294004,-2.5970137,0.96609763,1492.8206,-81.122597)"
       cx="-120.66913"
       cy="512.35571"
       fx="-120.66913"
       fy="512.35571"
       r="144.23438" />
    <radialGradient
       inkscape:collect="always"
       xlink:href="#linearGradient3272"
       id="radialGradient2898"
       gradientUnits="userSpaceOnUse"
       gradientTransform="matrix(2.0003334,-1.2012399,1.3119507,2.1846911,-180.22516,252.69148)"
       cx="116.9056"
       cy="86.495285"
       fx="116.9056"
       fy="86.495285"
       r="138.84375" />
    <radialGradient
       inkscape:collect="always"
       xlink:href="#linearGradient3269"
       id="radialGradient2900"
       gradientUnits="userSpaceOnUse"
       gradientTransform="matrix(0.6083335,0.4750004,-0.6154347,0.7881878,90.490086,29.911693)"
       cx="2.0203052"
       cy="145.74869"
       fx="2.0203052"
       fy="145.74869"
       r="15.152288" />
    <radialGradient
       inkscape:collect="always"
       xlink:href="#linearGradient3269"
       id="radialGradient2902"
       gradientUnits="userSpaceOnUse"
       gradientTransform="matrix(0.6083335,0.4750004,-0.6154347,0.7881878,90.490086,29.911693)"
       cx="2.0203052"
       cy="145.74869"
       fx="2.0203052"
       fy="145.74869"
       r="15.152288" />
    <radialGradient
       inkscape:collect="always"
       xlink:href="#linearGradient3269"
       id="radialGradient2904"
       gradientUnits="userSpaceOnUse"
       gradientTransform="matrix(0.6083335,0.4750004,-0.6154347,0.7881878,90.490086,29.911693)"
       cx="2.0203052"
       cy="145.74869"
       fx="2.0203052"
       fy="145.74869"
       r="15.152288" />
  </defs>
  <sodipodi:namedview
     id="base"
     pagecolor="#ffffff"
     bordercolor="#666666"
     borderopacity="1.0"
     inkscape:pageopacity="0.0"
     inkscape:pageshadow="2"
     inkscape:zoom="1.4594645"
     inkscape:cx="112.37672"
     inkscape:cy="61.108916"
     inkscape:document-units="px"
     inkscape:current-layer="g3684"
     showgrid="false"
     inkscape:window-width="1920"
     inkscape:window-height="1134"
     inkscape:window-x="0"
     inkscape:window-y="26"
     inkscape:window-maximized="0" />
  <metadata
     id="metadata7">
    <rdf:RDF>
      <cc:Work
         rdf:about="">
        <dc:format>image/svg+xml</dc:format>
        <dc:type
           rdf:resource="http://purl.org/dc/dcmitype/StillImage" />
        <dc:title />
      </cc:Work>
    </rdf:RDF>
  </metadata>
  <g
     inkscape:label="Ebene 1"
     inkscape:groupmode="layer"
     id="layer1"
     transform="translate(-150.51273,-167.46855)">
    <path
       style="font-size:medium;font-style:normal;font-variant:normal;font-weight:normal;font-stretch:normal;text-indent:0;text-align:start;text-decoration:none;line-height:normal;letter-spacing:normal;word-spacing:normal;text-transform:none;direction:ltr;block-progression:tb;writing-mode:lr-tb;text-anchor:start;opacity:0.18999999;color:#000000;fill:#000000;fill-opacity:1;fill-rule:nonzero;stroke:none;stroke-width:8.08850098;marker:none;visibility:visible;display:inline;overflow:visible;filter:url(#filter3775);enable-background:accumulate;font-family:Bitstream Vera Sans;-inkscape-font-specification:Bitstream Vera Sans"
       d="m 237.11909,218.22425 -0.0312,20.84375 c -9.08891,2.71298 -16.29864,10.42748 -17.875,20.40625 -2.00518,12.69329 5.79847,24.68467 17.78125,28.28125 l -0.28125,176.21875 -0.0312,14.03125 12.1875,-7.03125 146.53125,-84.65625 c 3.63016,3.53313 8.34099,6.02547 13.71875,6.875 13.84619,2.1873 26.90645,-7.31008 29.09375,-21.15625 0.55383,-3.50586 0.35656,-6.94915 -0.46875,-10.1875 l 18.84375,-10.90625 -2.125,-3.6875 0.96875,-0.5625 -1.84375,-3.46875 c -15.27843,-29.07852 -36.67655,-54.74412 -62.78125,-75 0.40651,-1.25298 0.69427,-2.56438 0.90625,-3.90625 2.18729,-13.84619 -7.27881,-26.8752 -21.125,-29.0625 -1.73077,-0.27341 -3.47036,-0.38944 -5.15625,-0.3125 -6.41764,0.29288 -12.34845,3.02691 -16.75,7.40625 -19.36135,-9.18264 -40.33636,-15.80142 -62.5625,-19.3125 -11.02948,-1.74234 -21.97164,-2.66484 -32.8125,-2.8125 l 0,-2 -16.1875,0 z m 16.03125,90.34375 c 6.34654,0.13174 12.73227,0.66775 19.1875,1.6875 44.30146,6.99833 80.47221,33.91154 100.9375,70.15625 L 252.93159,449.943 253.15034,308.568 z"
       id="path3694" />
    <g
       id="g3684"
       transform="translate(19.185118,12.33329)">
      <g
         transform="translate(-20.762215,-12.57975)"
         id="g2967">
        <path
           id="rect3023"
           d="m 159.38045,175.25641 0,306.54696 305.89881,0 0,-306.54696 -305.89881,0 z"
           style="fill:url(#radialGradient2951);fill-opacity:1;stroke:url(#radialGradient2953);stroke-width:3.19914794;stroke-linejoin:round;stroke-miterlimit:4;stroke-opacity:1;stroke-dasharray:none;stroke-dashoffset:0" />
        <path
           style="font-size:medium;font-style:normal;font-variant:normal;font-weight:normal;font-stretch:normal;text-indent:0;text-align:start;text-decoration:none;line-height:normal;letter-spacing:normal;word-spacing:normal;text-transform:none;direction:ltr;block-progression:tb;writing-mode:lr-tb;text-anchor:start;color:#000000;fill:url(#linearGradient3000);fill-opacity:1;fill-rule:nonzero;stroke:none;stroke-width:6.82610226;marker:none;visibility:visible;display:inline;overflow:visible;enable-background:accumulate;font-family:Bitstream Vera Sans;-inkscape-font-specification:Bitstream Vera Sans"
           d="m 443.62864,187.0204 c -1.19811,-0.011 -2.28388,-0.003 -3.32876,0.007 -0.0542,6.6e-4 -0.11918,-6.5e-4 -0.17285,0 -0.0402,6.6e-4 -0.0897,-6.5e-4 -0.12955,0 -18.84902,0.12566 -38.08924,-0.0274 -57.45364,0.031 -0.0289,9e-5 -0.0575,-9e-5 -0.0866,0 -67.54298,0.0183 -135.15463,-0.0333 -202.70897,0.031 -0.52839,-2.5e-4 -1.05694,0.0155 -1.55631,0.0465 -2.25521,0.14358 -4.27815,0.43632 -5.31738,0.78348 -1.03924,0.34718 -1.16602,0.68373 -1.16723,0.95415 -0.001,0.54084 0.12753,0.93981 0.12959,0.93863 -0.14008,0.0802 -0.21323,0.16418 -0.21616,0.24823 -0.14748,11.6787 -0.001,23.35628 -0.0431,35.03181 5.9e-4,0.16428 0.27468,0.32822 0.77816,0.46543 1.59851,0.43939 4.03322,0.72502 6.39816,0.86107 2.36493,0.13603 4.66079,0.15216 6.83045,0.14738 4.33926,-0.01 8.4667,-0.10504 10.72121,-0.0466 0.21484,0.005 0.43166,0.008 0.64847,0.007 l 249.78725,0 c 0.55718,0.001 1.11621,-0.0138 1.64277,-0.0465 2.74085,-0.18212 5.04471,-0.50532 6.31171,-0.9076 1.26697,-0.40228 1.46754,-0.81681 1.42659,-1.15583 -0.0819,-0.67806 -0.60213,-1.19918 -0.43232,-1.31873 0.0914,-0.0685 0.13525,-0.13904 0.12955,-0.20946 l 0,-34.3957 c -0.007,-0.1061 -0.12386,-0.21198 -0.34582,-0.31029 -1.5083,-0.67315 -4.95152,-0.94473 -7.73832,-1.06275 -1.39341,-0.059 -2.79992,-0.0889 -4.1069,-0.10084 l 0,2e-5 -1e-4,3e-5 z"
           id="path3927"
           sodipodi:nodetypes="csscsccssssccsssscccsssccssccc" />
      </g>
      <g
         id="g2888"
         transform="matrix(0.71372927,0,0,0.71372927,86.326212,118.11863)">
        <path
           style="fill:url(#radialGradient2896);fill-opacity:1;stroke:#000000;stroke-width:8.08850098;stroke-linecap:round;stroke-linejoin:miter;stroke-miterlimit:4;stroke-opacity:0.36267604;stroke-dasharray:none"
           d="m 245.75501,193.74037 c -12.41846,-1.96175 -24.74899,-2.8438 -36.92504,-2.76227 l -1.05722,80.23678 c 8.39079,-0.15466 16.88965,0.41617 25.46383,1.77064 47.90192,7.5671 86.62126,37.78405 106.97759,78.00826 l 70.06366,-39.19076 C 378.26941,250.88324 318.91333,205.29726 245.75501,193.74037 z"
           id="path2430" />
        <path
           style="opacity:0.25;fill:url(#radialGradient2898);fill-opacity:1;stroke:none"
           d="m 242.96364,206.09475 c -8.17881,-1.07136 -16.5457,-2.04298 -24.69637,-2.41711 -0.23885,19.22304 -0.47766,38.44605 -0.71651,57.66905 51.49995,2.21 100.63211,32.01303 126.53628,76.33825 16.6974,-9.33747 33.41954,-18.58423 50.0785,-28.01743 -31.60766,-54.00473 -88.14031,-95.00279 -151.2019,-103.57276 z"
           id="path2434" />
        <path
           transform="matrix(1.5513913,0.24507462,-0.24507462,1.5513913,352.48517,-6.2695941)"
           d="m 22.223356,149.28423 c 0,8.36837 -6.78391,15.15228 -15.1522882,15.15228 -8.3683778,0 -15.1522884,-6.78391 -15.1522884,-15.15228 0,-8.36838 6.7839106,-15.15229 15.1522884,-15.15229 8.3683782,0 15.1522882,6.78391 15.1522882,15.15229 z"
           sodipodi:ry="15.152288"
           sodipodi:rx="15.152288"
           sodipodi:cy="149.28423"
           sodipodi:cx="7.0710678"
           id="use3299"
           style="fill:url(#radialGradient2900);fill-opacity:1;stroke:#000000;stroke-width:2.05993891;stroke-linecap:round;stroke-linejoin:round;stroke-miterlimit:4;stroke-opacity:1;stroke-dasharray:none"
           sodipodi:type="arc" />
        <path
           style="fill:none;stroke:#3f38ee;stroke-width:16.17700195;stroke-miterlimit:4;stroke-opacity:1"
           d="M 415.53335,309.28852 205.06394,430.69328 205.47451,184.93812"
           id="path3625"
           sodipodi:nodetypes="ccc" />
        <path
           transform="matrix(1.5513913,0.24507462,-0.24507462,1.5513913,398.96639,101.46554)"
           d="m 22.223356,149.28423 c 0,8.36837 -6.78391,15.15228 -15.1522882,15.15228 -8.3683778,0 -15.1522884,-6.78391 -15.1522884,-15.15228 0,-8.36838 6.7839106,-15.15229 15.1522884,-15.15229 8.3683782,0 15.1522882,6.78391 15.1522882,15.15229 z"
           sodipodi:ry="15.152288"
           sodipodi:rx="15.152288"
           sodipodi:cy="149.28423"
           sodipodi:cx="7.0710678"
           id="use3303"
           style="fill:url(#radialGradient2902);fill-opacity:1;stroke:#000000;stroke-width:2.05993891;stroke-linecap:round;stroke-linejoin:round;stroke-miterlimit:4;stroke-opacity:1;stroke-dasharray:none"
           sodipodi:type="arc" />
        <path
           sodipodi:type="arc"
           style="fill:url(#radialGradient2904);fill-opacity:1;stroke:#000000;stroke-width:2.05993891;stroke-linecap:round;stroke-linejoin:round;stroke-miterlimit:4;stroke-opacity:1;stroke-dasharray:none"
           id="path2844"
           sodipodi:cx="7.0710678"
           sodipodi:cy="149.28423"
           sodipodi:rx="15.152288"
           sodipodi:ry="15.152288"
           d="m 22.223356,149.28423 c 0,8.36837 -6.78391,15.15228 -15.1522882,15.15228 -8.3683778,0 -15.1522884,-6.78391 -15.1522884,-15.15228 0,-8.36838 6.7839106,-15.15229 15.1522884,-15.15229 8.3683782,0 15.1522882,6.78391 15.1522882,15.15229 z"
           transform="matrix(1.5513913,0.24507462,-0.24507462,1.5513913,230.52263,-2.1584972)" />
      </g>
    </g>
  </g>
</svg>
