<?xml version="1.0" encoding="UTF-8" standalone="no"?>
<!-- Created with Inkscape (http://www.inkscape.org/) -->

<svg
   xmlns:dc="http://purl.org/dc/elements/1.1/"
   xmlns:cc="http://creativecommons.org/ns#"
   xmlns:rdf="http://www.w3.org/1999/02/22-rdf-syntax-ns#"
   xmlns:svg="http://www.w3.org/2000/svg"
   xmlns="http://www.w3.org/2000/svg"
   xmlns:xlink="http://www.w3.org/1999/xlink"
   xmlns:sodipodi="http://sodipodi.sourceforge.net/DTD/sodipodi-0.dtd"
   xmlns:inkscape="http://www.inkscape.org/namespaces/inkscape"
   width="256"
   height="256"
   id="svg2"
   version="1.1"
   inkscape:version="0.91pre2 r13516"
   sodipodi:docname="Camera.svg">
  <defs
     id="defs4">
    <inkscape:path-effect
       effect="bend_path"
       id="path-effect5030"
       is_visible="true"
       bendpath="m 211.01565,364.22841 c 10.26449,-9.98458 31.57838,-19.7671 50.71569,11.60714"
       prop_scale="1"
       scale_y_rel="false"
       vertical="false"
       bendpath-nodetypes="cc" />
    <inkscape:path-effect
       bendpath-nodetypes="cc"
       vertical="false"
       scale_y_rel="false"
       prop_scale="1"
       bendpath="m 211.01565,364.22841 c 10.26449,-9.98458 31.57838,-19.7671 50.71569,11.60714"
       is_visible="true"
       id="path-effect5012"
       effect="bend_path" />
    <inkscape:path-effect
       bendpath-nodetypes="cc"
       vertical="false"
       scale_y_rel="false"
       prop_scale="1"
       bendpath="m 211.01565,364.22841 c 10.26449,-9.98458 31.57838,-19.7671 50.71569,11.60714"
       is_visible="true"
       id="path-effect4966"
       effect="bend_path" />
    <inkscape:path-effect
       effect="bend_path"
       id="path-effect4948"
       is_visible="true"
       bendpath="m 211.01565,364.22841 c 10.26449,-9.98458 31.57838,-19.7671 50.71569,11.60714"
       prop_scale="1"
       scale_y_rel="false"
       vertical="false"
       bendpath-nodetypes="cc" />
    <linearGradient
       id="linearGradient4798">
      <stop
         id="stop4800"
         offset="0"
         style="stop-color:#af8122;stop-opacity:1" />
      <stop
         style="stop-color:#674e1f;stop-opacity:1"
         offset="0.58256721"
         id="stop4802" />
      <stop
         style="stop-color:#714c17;stop-opacity:1"
         offset="1"
         id="stop4804" />
    </linearGradient>
    <linearGradient
       id="linearGradient4735">
      <stop
         id="stop4737"
         offset="0"
         style="stop-color:#ffffff;stop-opacity:1;" />
      <stop
         style="stop-color:#d0edfb;stop-opacity:1;"
         offset="0.12951541"
         id="stop4741" />
      <stop
         id="stop4739"
         offset="1"
         style="stop-color:#262c58;stop-opacity:1" />
    </linearGradient>
    <linearGradient
       id="linearGradient4047">
      <stop
         id="stop4049"
         offset="0"
         style="stop-color:#f0f4ff;stop-opacity:1;" />
      <stop
         style="stop-color:#788195;stop-opacity:1;"
         offset="0.3382346"
         id="stop4051" />
      <stop
         id="stop4053"
         offset="1"
         style="stop-color:#252525;stop-opacity:1;" />
    </linearGradient>
    <linearGradient
       id="linearGradient4002">
      <stop
         id="stop4004"
         offset="0"
         style="stop-color:#000000;stop-opacity:1;" />
      <stop
         style="stop-color:#788195;stop-opacity:1;"
         offset="0.4844172"
         id="stop4006" />
      <stop
         id="stop4008"
         offset="1"
         style="stop-color:#000000;stop-opacity:1;" />
    </linearGradient>
    <linearGradient
       id="linearGradient3996">
      <stop
         id="stop3998"
         offset="0"
         style="stop-color:#757575;stop-opacity:1;" />
      <stop
         id="stop4000"
         offset="1"
         style="stop-color:#000000;stop-opacity:1;" />
    </linearGradient>
    <linearGradient
       id="linearGradient3938">
      <stop
         id="stop3940"
         offset="0"
         style="stop-color:#000000;stop-opacity:1;" />
      <stop
         style="stop-color:#788195;stop-opacity:1;"
         offset="0.47733417"
         id="stop3942" />
      <stop
         id="stop3944"
         offset="1"
         style="stop-color:#000000;stop-opacity:1;" />
    </linearGradient>
    <linearGradient
       id="linearGradient3918">
      <stop
         style="stop-color:#000000;stop-opacity:1;"
         offset="0"
         id="stop3920" />
      <stop
         id="stop3926"
         offset="0.48549983"
         style="stop-color:#788195;stop-opacity:1;" />
      <stop
         style="stop-color:#000000;stop-opacity:1;"
         offset="1"
         id="stop3922" />
    </linearGradient>
    <linearGradient
       id="linearGradient3890">
      <stop
         style="stop-color:#ffffff;stop-opacity:1;"
         offset="0"
         id="stop3892" />
      <stop
         style="stop-color:#b1e1f9;stop-opacity:1;"
         offset="1"
         id="stop3894" />
    </linearGradient>
    <linearGradient
       id="linearGradient3882">
      <stop
         style="stop-color:#757575;stop-opacity:1;"
         offset="0"
         id="stop3884" />
      <stop
         style="stop-color:#2d2d2d;stop-opacity:1;"
         offset="1"
         id="stop3886" />
    </linearGradient>
    <radialGradient
       inkscape:collect="always"
       xlink:href="#linearGradient3890"
       id="radialGradient3898"
       cx="269.78601"
       cy="452.34402"
       fx="269.78601"
       fy="452.34402"
       r="28.142857"
       gradientTransform="matrix(1,0,0,2.3959392,0,-646.42661)"
       gradientUnits="userSpaceOnUse" />
    <linearGradient
       inkscape:collect="always"
       xlink:href="#linearGradient3918"
       id="linearGradient3924"
       x1="274.7276"
       y1="393.78149"
       x2="287.06216"
       y2="467.6076"
       gradientUnits="userSpaceOnUse"
       gradientTransform="matrix(0.98555016,-0.16938382,0.16938382,0.98555016,-132.94955,62.192845)" />
    <radialGradient
       inkscape:collect="always"
       xlink:href="#linearGradient3882"
       id="radialGradient3928"
       cx="204.22624"
       cy="493.53448"
       fx="204.22624"
       fy="493.53448"
       r="56.714287"
       gradientTransform="matrix(1,0,0,1.5919395,0,-274.11326)"
       gradientUnits="userSpaceOnUse" />
    <linearGradient
       inkscape:collect="always"
       xlink:href="#linearGradient3938"
       id="linearGradient3936"
       x1="289.95792"
       y1="399.14972"
       x2="294.61115"
       y2="442.31238"
       gradientUnits="userSpaceOnUse"
       gradientTransform="matrix(0.98555016,-0.16938382,0.16938382,0.98555016,-74.378126,52.192845)" />
    <linearGradient
       inkscape:collect="always"
       xlink:href="#linearGradient4002"
       id="linearGradient3976"
       x1="411.3038"
       y1="278.27097"
       x2="427.8161"
       y2="352.5567"
       gradientUnits="userSpaceOnUse"
       gradientTransform="matrix(0.86801593,0,0,0.86836305,70.255771,54.846928)" />
    <linearGradient
       inkscape:collect="always"
       xlink:href="#linearGradient3938"
       id="linearGradient3984"
       x1="348.3812"
       y1="244.12094"
       x2="392.7699"
       y2="296.10333"
       gradientUnits="userSpaceOnUse"
       gradientTransform="matrix(0.86805324,0,0,0.86836305,74.367038,30.462856)" />
    <linearGradient
       inkscape:collect="always"
       xlink:href="#linearGradient3996"
       id="linearGradient3994"
       x1="-569.80609"
       y1="633.21771"
       x2="-520.50653"
       y2="539.54315"
       gradientUnits="userSpaceOnUse"
       gradientTransform="matrix(0.86739032,0,0,0.86228518,-71.745863,71.585546)" />
    <linearGradient
       y2="457.79208"
       x2="283.62433"
       y1="393.78149"
       x1="274.7276"
       gradientTransform="matrix(0.98555016,-0.16938382,0.16938382,0.98555016,-13.420877,39.530915)"
       gradientUnits="userSpaceOnUse"
       id="linearGradient4026"
       xlink:href="#linearGradient4047"
       inkscape:collect="always" />
    <linearGradient
       inkscape:collect="always"
       xlink:href="#linearGradient3918"
       id="linearGradient3049"
       gradientUnits="userSpaceOnUse"
       gradientTransform="matrix(0.98555016,-0.16938382,0.16938382,0.98555016,-132.94955,62.192845)"
       x1="274.7276"
       y1="393.78149"
       x2="287.06216"
       y2="467.6076" />
    <linearGradient
       inkscape:collect="always"
       xlink:href="#linearGradient3938"
       id="linearGradient3052"
       gradientUnits="userSpaceOnUse"
       gradientTransform="matrix(0.98555016,-0.16938382,0.16938382,0.98555016,-119.32991,59.768989)"
       x1="289.95792"
       y1="399.14972"
       x2="294.61115"
       y2="442.31238" />
    <linearGradient
       inkscape:collect="always"
       xlink:href="#linearGradient4047"
       id="linearGradient3055"
       gradientUnits="userSpaceOnUse"
       gradientTransform="matrix(0.98555016,-0.16938382,0.16938382,0.98555016,-61.908199,48.622288)"
       x1="274.7276"
       y1="393.78149"
       x2="283.62433"
       y2="457.79208" />
    <linearGradient
       inkscape:collect="always"
       xlink:href="#linearGradient3996"
       id="linearGradient3058"
       gradientUnits="userSpaceOnUse"
       gradientTransform="matrix(0.82333978,0,0,0.86228518,-48.035522,71.728805)"
       x1="-569.80609"
       y1="633.21771"
       x2="-520.50653"
       y2="539.54315" />
    <linearGradient
       inkscape:collect="always"
       xlink:href="#linearGradient4002"
       id="linearGradient3061"
       gradientUnits="userSpaceOnUse"
       gradientTransform="matrix(0.8779225,0,0,0.86836305,27.06325,58.887538)"
       x1="411.3038"
       y1="278.27097"
       x2="427.8161"
       y2="352.5567" />
    <linearGradient
       inkscape:collect="always"
       xlink:href="#linearGradient3938"
       id="linearGradient3064"
       gradientUnits="userSpaceOnUse"
       gradientTransform="matrix(0.86805324,0,0,0.86836305,31.596429,48.527443)"
       x1="348.3812"
       y1="244.12094"
       x2="392.7699"
       y2="296.10333" />
    <linearGradient
       inkscape:collect="always"
       xlink:href="#linearGradient3938"
       id="linearGradient3088"
       gradientUnits="userSpaceOnUse"
       gradientTransform="matrix(1.0831031,0.04369533,-0.03033398,1.1715937,-21.967084,-125.64266)"
       x1="288.41815"
       y1="385.53879"
       x2="296.81656"
       y2="461.11304" />
    <linearGradient
       inkscape:collect="always"
       xlink:href="#linearGradient3918"
       id="linearGradient3090"
       gradientUnits="userSpaceOnUse"
       gradientTransform="matrix(1.0831031,0.04369533,-0.03033398,1.1715937,-36.952566,-126.15118)"
       x1="274.7276"
       y1="393.78149"
       x2="281.08118"
       y2="457.49203" />
    <radialGradient
       inkscape:collect="always"
       xlink:href="#linearGradient3882"
       id="radialGradient3092"
       gradientUnits="userSpaceOnUse"
       gradientTransform="matrix(1.083984,0,0,1.8657315,-40.209479,-445.82908)"
       cx="204.22624"
       cy="493.53448"
       fx="204.22624"
       fy="493.53448"
       r="56.714287" />
    <radialGradient
       inkscape:collect="always"
       xlink:href="#linearGradient4735"
       id="radialGradient3094"
       gradientUnits="userSpaceOnUse"
       gradientTransform="matrix(1.3590729,-0.06739811,0.20322572,2.8272155,-221.04753,-838.99185)"
       cx="248.03619"
       cy="443.13773"
       fx="248.03619"
       fy="443.13773"
       r="28.142857" />
    <linearGradient
       inkscape:collect="always"
       xlink:href="#linearGradient3365"
       id="linearGradient3517"
       gradientUnits="userSpaceOnUse"
       x1="419.16095"
       y1="415.44797"
       x2="199.35327"
       y2="196.64275"
       gradientTransform="matrix(0.91563848,0.05399573,-0.0144117,1.5536015,-39.525803,-13.946207)" />
    <linearGradient
       id="linearGradient3365">
      <stop
         style="stop-color:#b08123;stop-opacity:1;"
         offset="0"
         id="stop3367" />
      <stop
         id="stop3377"
         offset="0.36598176"
         style="stop-color:#c79940;stop-opacity:1;" />
      <stop
         id="stop3369"
         offset="0.38967475"
         style="stop-color:#ebd09d;stop-opacity:1;" />
      <stop
         style="stop-color:#4e547a;stop-opacity:1;"
         offset="0.44260192"
         id="stop3373" />
      <stop
         style="stop-color:#161640;stop-opacity:1;"
         offset="1"
         id="stop3371" />
    </linearGradient>
    <linearGradient
       id="linearGradient3331">
      <stop
         style="stop-color:#ffffff;stop-opacity:1;"
         offset="0"
         id="stop3333" />
      <stop
         id="stop3339"
         offset="0.40627211"
         style="stop-color:#f4dc95;stop-opacity:0.49803922;" />
      <stop
         style="stop-color:#f4dc95;stop-opacity:0;"
         offset="1"
         id="stop3335" />
    </linearGradient>
    <radialGradient
       inkscape:collect="always"
       xlink:href="#linearGradient3331"
       id="radialGradient3511"
       gradientUnits="userSpaceOnUse"
       gradientTransform="matrix(1.675782,0.27598085,-0.1246475,2.7073239,-220.81169,-381.22594)"
       cx="266.46283"
       cy="284.81717"
       fx="266.46283"
       fy="284.81717"
       r="88.634109" />
    <radialGradient
       inkscape:collect="always"
       xlink:href="#linearGradient3404"
       id="radialGradient3508"
       gradientUnits="userSpaceOnUse"
       gradientTransform="matrix(1.2466804,-0.04707925,-0.2545274,-1.0087487,344.46144,785.71881)"
       cx="-39.632404"
       cy="351.98849"
       fx="-39.632404"
       fy="351.98849"
       r="69.28125" />
    <linearGradient
       id="linearGradient3404">
      <stop
         id="stop3406"
         offset="0"
         style="stop-color:#000000;stop-opacity:0;" />
      <stop
         style="stop-color:#000000;stop-opacity:0;"
         offset="0.5"
         id="stop3410" />
      <stop
         id="stop3408"
         offset="1"
         style="stop-color:#000000;stop-opacity:1;" />
    </linearGradient>
    <radialGradient
       inkscape:collect="always"
       xlink:href="#linearGradient3416"
       id="radialGradient3505"
       gradientUnits="userSpaceOnUse"
       gradientTransform="matrix(0.15615635,0.41748005,0.47555618,-0.61075386,46.403843,656.1031)"
       cx="-76.426811"
       cy="333.60074"
       fx="-76.426811"
       fy="333.60074"
       r="69.28125" />
    <linearGradient
       id="linearGradient3416">
      <stop
         style="stop-color:#ffffff;stop-opacity:1;"
         offset="0"
         id="stop3418" />
      <stop
         style="stop-color:#ffffff;stop-opacity:0;"
         offset="1"
         id="stop3422" />
    </linearGradient>
    <linearGradient
       inkscape:collect="always"
       xlink:href="#linearGradient4047"
       id="linearGradient4879"
       gradientUnits="userSpaceOnUse"
       gradientTransform="matrix(0.8732406,0.04062005,-0.02120736,1.0463517,85.046855,-65.909516)"
       x1="289.95792"
       y1="399.14972"
       x2="304.39334"
       y2="529.69989" />
    <filter
       inkscape:collect="always"
       style="color-interpolation-filters:sRGB"
       id="filter4992"
       x="-0.0088462476"
       width="1.0176924"
       y="-0.01864823"
       height="1.0372965">
      <feGaussianBlur
         inkscape:collect="always"
         stdDeviation="0.18940668"
         id="feGaussianBlur4994" />
    </filter>
    <filter
       inkscape:collect="always"
       style="color-interpolation-filters:sRGB"
       id="filter5048"
       x="-0.069883553"
       width="1.1397671"
       y="-0.052565693"
       height="1.1051314">
      <feGaussianBlur
         inkscape:collect="always"
         stdDeviation="4.7089367"
         id="feGaussianBlur5050" />
    </filter>
  </defs>
  <sodipodi:namedview
     id="base"
     pagecolor="#ffffff"
     bordercolor="#666666"
     borderopacity="1.0"
     inkscape:pageopacity="0.0"
     inkscape:pageshadow="2"
     inkscape:zoom="1.4"
     inkscape:cx="92.071226"
     inkscape:cy="52.498927"
     inkscape:document-units="px"
     inkscape:current-layer="layer1"
     showgrid="false"
     inkscape:window-width="1920"
     inkscape:window-height="1178"
     inkscape:window-x="-8"
     inkscape:window-y="-8"
     inkscape:window-maximized="1"
     fit-margin-top="0"
     fit-margin-left="0"
     fit-margin-right="0"
     fit-margin-bottom="0" />
  <metadata
     id="metadata7">
    <rdf:RDF>
      <cc:Work
         rdf:about="">
        <dc:format>image/svg+xml</dc:format>
        <dc:type
           rdf:resource="http://purl.org/dc/dcmitype/StillImage" />
        <dc:title></dc:title>
      </cc:Work>
    </rdf:RDF>
  </metadata>
  <g
     inkscape:label="Layer 1"
     inkscape:groupmode="layer"
     id="layer1"
     transform="translate(-143.63285,-299.37303)">
    <path
       style="color:#000000;display:inline;overflow:visible;visibility:visible;opacity:0.3;fill:#000000;fill-opacity:1;fill-rule:nonzero;stroke:none;stroke-width:1.99310684;stroke-linecap:round;stroke-linejoin:round;stroke-miterlimit:4;stroke-dashoffset:0;stroke-opacity:1;marker:none;filter:url(#filter5048);enable-background:accumulate"
       d="m 312.03125,321.47656 c -22.65974,0.54398 -46.98122,8.7709 -61.03711,27.36719 -15.96243,25.73027 -19.1529,57.30439 -17.44141,86.94141 2.06158,26.49921 6.91643,53.61776 19.73633,77.17968 7.38971,12.74715 20.48647,22.09232 35.31377,23.42578 17.35336,4.33865 35.50781,5.19815 53.12569,2.24805 21.75174,-1.54299 36.9166,-20.90708 44.19891,-39.87883 15.51004,-37.24667 15.8943,-79.54675 6.8128,-118.43953 -5.17483,-19.63668 -14.33372,-40.1288 -31.83984,-51.65625 -13.44497,-7.02675 -29.1824,-5.32529 -43.63867,-7.15234 -1.74296,-0.05 -3.487,-0.0673 -5.23047,-0.0352 z"
       id="path5032"
       inkscape:connector-curvature="0"
       transform="matrix(1.2293812,0,0,1.0165807,-97.314518,0.67114647)" />
    <path
       sodipodi:nodetypes="sssasss"
       inkscape:connector-curvature="0"
       id="path4877"
       d="m 384.92499,430.09281 c -1.03861,51.24369 -22.55116,91.42527 -51.15444,91.60739 -13.72868,0.0874 -12.96874,6.18998 -58.22969,-3.46724 -30.22217,-6.44846 -39.64162,-57.31867 -41.99001,-91.9827 -1.86983,-27.60018 8.00083,-67.09606 23.20268,-77.77196 32.96354,-23.14953 62.89778,-14.29425 81.72996,-13.41822 26.68753,1.24137 47.48009,43.789 46.4415,95.03273 z"
       style="color:#000000;display:inline;overflow:visible;visibility:visible;fill:url(#linearGradient4879);fill-opacity:1;fill-rule:nonzero;stroke:#1a1a1a;stroke-width:1;stroke-linecap:round;stroke-linejoin:round;stroke-miterlimit:4;stroke-dashoffset:0;stroke-opacity:1;marker:none;enable-background:accumulate;stroke-dasharray:none" />
    <path
       style="color:#000000;display:inline;overflow:visible;visibility:visible;fill:url(#linearGradient3088);fill-opacity:1;fill-rule:nonzero;stroke:#1a1a1a;stroke-width:2.23878074;stroke-linecap:round;stroke-linejoin:round;stroke-miterlimit:4;stroke-dashoffset:0;stroke-opacity:1;marker:none;enable-background:accumulate"
       d="m 348.12469,429.09472 c -1.48555,57.37724 -37.01112,99.19985 -65.38992,102.69972 -12.51116,1.01946 -43.17278,5.33944 -70.64074,-3.78983 -37.47799,-7.0996 -48.95509,-64.09592 -51.7349,-102.90282 -2.21335,-30.89877 10.18324,-75.14063 29.08228,-87.12501 40.98051,-25.98683 78.08001,-16.13315 101.43807,-15.19082 33.10124,1.33539 58.73078,48.93143 57.24521,106.30876 z"
       id="path2985-3-0"
       inkscape:connector-curvature="0"
       sodipodi:nodetypes="sccasss" />
    <path
       style="color:#000000;display:inline;overflow:visible;visibility:visible;fill:url(#linearGradient3090);fill-opacity:1;fill-rule:nonzero;stroke:#1a1a1a;stroke-width:2.23878074;stroke-linecap:round;stroke-linejoin:round;stroke-miterlimit:4;stroke-dashoffset:0;stroke-opacity:1;marker:none;enable-background:accumulate"
       d="m 299.01321,428.11481 c -1.48555,57.3773 -28.3266,102.41064 -63.80983,102.67303 -33.07768,0.24463 -70.67589,20.55474 -67.5863,-107.97389 2.78515,-115.86563 41.04967,-102.34327 74.15095,-101.00789 33.1012,1.33543 58.73075,48.93143 57.24518,106.30875 z"
       id="path2985-3"
       inkscape:connector-curvature="0"
       sodipodi:nodetypes="sssss" />
    <ellipse
       ry="104.64165"
       rx="60.393394"
       cy="418.14734"
       cx="218.39816"
       style="color:#000000;display:inline;overflow:visible;visibility:visible;fill:url(#radialGradient3092);fill-opacity:1;fill-rule:nonzero;stroke:#666666;stroke-width:2.25425339;stroke-linecap:round;stroke-linejoin:round;stroke-miterlimit:4;stroke-dasharray:none;stroke-dashoffset:0;stroke-opacity:1;marker:none;enable-background:accumulate"
       id="path2985"
       transform="matrix(0.99918722,0.04030994,-0.02588251,0.99966499,0,0)" />
    <ellipse
       ry="77.853378"
       rx="44.975849"
       cy="420.61053"
       cx="219.43744"
       style="color:#000000;display:inline;overflow:visible;visibility:visible;fill:url(#radialGradient3094);fill-opacity:1;fill-rule:nonzero;stroke:#00180f;stroke-width:2.25416636;stroke-linecap:round;stroke-linejoin:round;stroke-miterlimit:4;stroke-dasharray:none;stroke-dashoffset:0;stroke-opacity:1;marker:none;enable-background:accumulate"
       id="path2987"
       transform="matrix(0.99918722,0.04030994,-0.02588251,0.99966499,0,0)" />
    <path
       style="fill:none;stroke:#000000;stroke-width:1.1270678px;stroke-linecap:butt;stroke-linejoin:miter;stroke-opacity:1"
       d="M 277.48098,412.04586 Z"
       id="path2991"
       inkscape:connector-curvature="0" />
    <path
       style="opacity:0.3;fill:#000000;fill-opacity:1;fill-rule:evenodd;stroke:none;stroke-width:2.87962794;stroke-linecap:butt;stroke-linejoin:miter;stroke-miterlimit:4;stroke-dasharray:none;stroke-opacity:0.68661972"
       d="m 215.15335,348.04486 c -20.99266,-3.90083 -38.51316,10.48867 -46.67979,25.48422 -19.3131,33.51062 -19.26202,75.77742 -0.72011,111.4615 8.87788,15.70964 29.53986,29.17721 49.47917,24.21012 21.36879,-5.53647 31.30603,-24.97001 38.27721,-41.96757 10.92672,-29.79949 8.62259,-64.05051 -6.66768,-93.73806 -6.78317,-11.83828 -18.28492,-23.07428 -33.6888,-25.45021 z m -3.46689,26.87362 c 18.96749,7.01421 24.02443,26.98817 26.01155,42.84019 2.11899,22.35671 -2.78031,47.3498 -21.50851,62.97295 -7.93999,5.29472 -19.06597,1.06494 -23.77062,-6.39978 -14.67894,-18.26824 -16.1746,-41.45626 -12.68029,-61.68809 3.02406,-14.02544 8.79242,-29.67437 23.35989,-37.09517 2.64355,-0.97338 5.6908,-1.34189 8.58798,-0.6301 z"
       id="path3925"
       inkscape:connector-curvature="0" />
    <path
       style="fill:url(#linearGradient3517);fill-opacity:1;fill-rule:evenodd;stroke:#000000;stroke-width:3.57908392;stroke-linecap:butt;stroke-linejoin:miter;stroke-miterlimit:4;stroke-dasharray:none;stroke-opacity:0.38380283"
       d="m 170.9875,354.61521 c -27.83607,41.69333 -24.59033,126.69658 6.98292,158.45247 19.69445,21.67223 48.1574,22.83796 67.43168,-2.18081 5.69411,-7.39117 10.72673,-16.47873 15.68231,-27.08784 22.52762,-48.22802 9.59285,-128.41091 -23.63661,-150.0803 -21.65464,-15.50904 -49.35281,-8.49622 -66.4603,20.89648 z m 16.02411,22.85244 c 19.35955,-30.25533 55.21145,-15.26617 62.29258,27.37189 8.58931,39.31486 -11.22418,89.29793 -36.63871,88.85018 -23.51028,2.20966 -44.87505,-37.61389 -38.93764,-77.32462 1.68892,-14.83645 6.46724,-28.72758 13.28377,-38.89745 z"
       id="path2424"
       inkscape:connector-curvature="0"
       sodipodi:nodetypes="ccssccccccc" />
    <path
       id="path3347"
       d="m 215.53273,334.47926 c -0.78757,-0.0558 -1.55688,-0.0856 -2.34676,-0.0899 -30.69622,-1.6465 -58.28267,45.67846 -56.25066,98.11083 0.33121,34.83481 13.64003,70.31778 33.83441,80.83507 16.50534,10.39049 36.27196,7.72845 50.19241,-9.81576 6.12233,-7.71607 11.12797,-17.27439 15.7712,-27.39013 20.0559,-43.69386 7.10016,-119.81247 -24.95812,-136.51478 -5.26204,-3.08112 -10.72942,-4.74668 -16.24249,-5.13541 z m -3.79248,16.87531 c 0.66422,0.0225 1.33413,0.0865 2.00251,0.16658 20.61511,0.59136 40.84613,28.70841 42.28551,64.81739 3.40725,47.90622 -23.42816,94.59039 -51.98096,85.34408 -24.11807,-5.69951 -43.15586,-51.2748 -35.85768,-91.10689 4.5777,-33.40211 22.96031,-59.92123 43.55062,-59.22124 z"
       style="fill:url(#radialGradient3511);fill-opacity:1;fill-rule:evenodd;stroke:#a97b58;stroke-width:3.57908392;stroke-linecap:butt;stroke-linejoin:miter;stroke-miterlimit:4;stroke-dasharray:none;stroke-opacity:0.68661972"
       sodipodi:nodetypes="ccccsscccccccc"
       inkscape:connector-curvature="0" />
    <path
       style="fill:url(#radialGradient3508);fill-opacity:1;stroke:none;stroke-width:3;stroke-miterlimit:4;stroke-dasharray:none;stroke-opacity:0.68661972"
       d="m 227.8801,489.65686 c -18.81642,15.61782 -41.42658,3.01176 -50.47014,-28.11505 -2.47254,-8.51024 -3.66867,-17.53265 -3.72793,-26.46577 20.98016,27.82438 38.3953,32.93581 52.3002,21.3539 6.3732,-5.30846 17.32078,-11.58141 22.93007,-15.11308 -1.76959,20.08653 -9.27191,38.57888 -21.0322,48.34 z"
       id="path3391"
       sodipodi:nodetypes="cscscc"
       inkscape:connector-curvature="0" />
    <path
       style="fill:url(#radialGradient3505);fill-opacity:1;stroke:none;stroke-width:3;stroke-miterlimit:4;stroke-dasharray:none;stroke-opacity:0.68661972"
       d="m 230.57676,374.65685 c -17.46219,-16.65562 -38.99118,-7.39485 -48.05639,20.64936 -2.47848,7.66744 -3.76286,15.95406 -3.9742,24.28316 10.17688,-30.34289 35.2382,-38.78726 56.25005,-18.74593 5.91859,5.64521 10.88546,12.96998 14.7614,21.24793 -1.31816,-18.93898 -8.06699,-37.02476 -18.98086,-47.43452 z"
       id="path3412"
       inkscape:connector-curvature="0" />
    <g
       id="g4899"
       transform="matrix(1.0428275,-0.01762919,0.0310427,0.97551707,-40.518371,0.42893366)">
      <path
         sodipodi:nodetypes="cc"
         inkscape:connector-curvature="0"
         id="path4881"
         d="m 333.67749,387.8352 13.82191,0.34993"
         style="fill:none;fill-rule:evenodd;stroke:#ffffff;stroke-width:0.69280934;stroke-linecap:butt;stroke-linejoin:miter;stroke-miterlimit:4;stroke-dasharray:none;stroke-opacity:1" />
      <path
         sodipodi:nodetypes="cc"
         style="fill:none;fill-rule:evenodd;stroke:#ffffff;stroke-width:0.27712372;stroke-linecap:butt;stroke-linejoin:miter;stroke-miterlimit:4;stroke-dasharray:none;stroke-opacity:1"
         d="m 340.82328,393.50265 c 3.55544,0.10046 8.06481,0.22495 8.58134,0.22495"
         id="path4883"
         inkscape:connector-curvature="0" />
      <path
         sodipodi:nodetypes="cc"
         inkscape:connector-curvature="0"
         id="path4885"
         d="m 342.30779,398.94987 c 3.17196,0.0303 7.71285,0.0727 8.19093,0.0727"
         style="fill:none;fill-rule:evenodd;stroke:#ffffff;stroke-width:0.27712372;stroke-linecap:butt;stroke-linejoin:miter;stroke-miterlimit:4;stroke-dasharray:none;stroke-opacity:1" />
      <path
         sodipodi:nodetypes="cc"
         style="fill:none;fill-rule:evenodd;stroke:#ffffff;stroke-width:0.69280934;stroke-linecap:butt;stroke-linejoin:miter;stroke-miterlimit:4;stroke-dasharray:none;stroke-opacity:1"
         d="m 341.3199,404.66408 10.1261,0.0247"
         id="path4887"
         inkscape:connector-curvature="0" />
      <path
         sodipodi:nodetypes="cc"
         inkscape:connector-curvature="0"
         id="path4889"
         d="m 344.04009,409.99683 c 3.50551,-0.006 7.70976,-0.0125 8.13577,-0.0125"
         style="fill:none;fill-rule:evenodd;stroke:#ffffff;stroke-width:0.27712372;stroke-linecap:butt;stroke-linejoin:miter;stroke-miterlimit:4;stroke-dasharray:none;stroke-opacity:1" />
      <path
         sodipodi:nodetypes="cc"
         style="fill:none;fill-rule:evenodd;stroke:#ffffff;stroke-width:0.27712372;stroke-linecap:butt;stroke-linejoin:miter;stroke-miterlimit:4;stroke-dasharray:none;stroke-opacity:1"
         d="m 344.90793,415.69157 8.13394,0.20593"
         id="path4891"
         inkscape:connector-curvature="0" />
      <path
         sodipodi:nodetypes="cc"
         inkscape:connector-curvature="0"
         id="path4893"
         d="m 339.21997,421.09005 14.31676,0.22621"
         style="fill:none;fill-rule:evenodd;stroke:#ffffff;stroke-width:0.69280934;stroke-linecap:butt;stroke-linejoin:miter;stroke-miterlimit:4;stroke-dasharray:none;stroke-opacity:1" />
    </g>
    <g
       id="g4908"
       transform="matrix(0.49628541,-0.00838979,-0.02278022,-0.71586842,130.41609,727.78466)"
       style="stroke:#808080">
      <path
         style="fill:none;fill-rule:evenodd;stroke:#808080;stroke-width:0.69280934;stroke-linecap:butt;stroke-linejoin:miter;stroke-miterlimit:4;stroke-dasharray:none;stroke-opacity:1"
         d="m 333.67749,387.8352 13.82191,0.34993"
         id="path4910"
         inkscape:connector-curvature="0"
         sodipodi:nodetypes="cc" />
      <path
         inkscape:connector-curvature="0"
         id="path4912"
         d="m 340.82328,393.50265 c 3.55544,0.10046 8.06481,0.22495 8.58134,0.22495"
         style="fill:none;fill-rule:evenodd;stroke:#808080;stroke-width:0.27712372;stroke-linecap:butt;stroke-linejoin:miter;stroke-miterlimit:4;stroke-dasharray:none;stroke-opacity:1"
         sodipodi:nodetypes="cc" />
      <path
         style="fill:none;fill-rule:evenodd;stroke:#808080;stroke-width:0.27712372;stroke-linecap:butt;stroke-linejoin:miter;stroke-miterlimit:4;stroke-dasharray:none;stroke-opacity:1"
         d="m 342.30779,398.94987 c 3.17196,0.0303 7.71285,0.0727 8.19093,0.0727"
         id="path4914"
         inkscape:connector-curvature="0"
         sodipodi:nodetypes="cc" />
      <path
         inkscape:connector-curvature="0"
         id="path4916"
         d="m 341.3199,404.66408 10.1261,0.0247"
         style="fill:none;fill-rule:evenodd;stroke:#808080;stroke-width:0.69280934;stroke-linecap:butt;stroke-linejoin:miter;stroke-miterlimit:4;stroke-dasharray:none;stroke-opacity:1"
         sodipodi:nodetypes="cc" />
      <path
         style="fill:none;fill-rule:evenodd;stroke:#808080;stroke-width:0.27712372;stroke-linecap:butt;stroke-linejoin:miter;stroke-miterlimit:4;stroke-dasharray:none;stroke-opacity:1"
         d="m 344.04009,409.99683 c 3.50551,-0.006 7.70976,-0.0125 8.13577,-0.0125"
         id="path4918"
         inkscape:connector-curvature="0"
         sodipodi:nodetypes="cc" />
      <path
         inkscape:connector-curvature="0"
         id="path4920"
         d="m 344.90793,415.69157 8.13394,0.20593"
         style="fill:none;fill-rule:evenodd;stroke:#808080;stroke-width:0.27712372;stroke-linecap:butt;stroke-linejoin:miter;stroke-miterlimit:4;stroke-dasharray:none;stroke-opacity:1"
         sodipodi:nodetypes="cc" />
      <path
         style="fill:none;fill-rule:evenodd;stroke:#808080;stroke-width:0.69280934;stroke-linecap:butt;stroke-linejoin:miter;stroke-miterlimit:4;stroke-dasharray:none;stroke-opacity:1"
         d="m 339.21997,421.09005 14.31676,0.22621"
         id="path4922"
         inkscape:connector-curvature="0"
         sodipodi:nodetypes="cc" />
    </g>
    <g
       style="font-style:normal;font-weight:normal;font-size:6.65164423px;line-height:125%;font-family:sans-serif;letter-spacing:0px;word-spacing:0px;fill:#2aff80;fill-opacity:1;stroke:none;stroke-width:1px;stroke-linecap:butt;stroke-linejoin:miter;stroke-opacity:1"
       id="text4929"
       inkscape:path-effect="#path-effect4948"
       transform="matrix(1.0428275,-0.01762919,0.0310427,0.97551707,-40.723992,-0.17761567)">
      <path
         d="m 218.88244,361.11311 c -0.34741,0.21464 -0.69118,0.43593 -1.03118,0.66356 -0.48498,-0.21591 -0.97748,-0.42266 -1.47701,-0.62017 -1.06146,0.74868 -2.08419,1.55565 -3.06473,2.41231 0.0735,0.53272 0.15687,1.06121 0.24971,1.5852 -0.2898,0.26477 -0.5757,0.53408 -0.85758,0.80766 -0.3639,-1.89324 -0.60535,-3.84946 -0.70436,-5.85466 0.45024,-0.36948 0.90866,-0.72968 1.37501,-1.07998 1.92645,0.56967 3.7712,1.26628 5.51014,2.08608 z m -3.13152,-0.19038 c -0.89633,-0.32976 -1.81406,-0.63017 -2.75046,-0.90077 0.0415,0.97487 0.11711,1.93851 0.22464,2.88931 0.81416,-0.698 1.65672,-1.36238 2.52582,-1.98854 z"
         id="path4934"
         inkscape:original-d="m 214.94735,362.62857 -0.6853,0 -0.47419,-1.34787 -2.09163,0 -0.47419,1.34787 -0.65282,0 1.76034,-4.83608 0.85744,0 1.76035,4.83608 z m -1.35761,-1.90001 -0.8477,-2.37419 -0.85094,2.37419 1.69864,0 z"
         inkscape:connector-curvature="0" />
      <path
         d="m 225.98304,357.53366 c -0.18865,0.10877 -0.35886,0.21178 -0.50961,0.30676 -0.14839,0.0946 -0.34322,0.20677 -0.58852,0.34346 -0.20748,0.1144 -0.43463,0.23171 -0.68223,0.35409 -0.24334,0.12314 -0.51609,0.24511 -0.81987,0.36944 -0.57283,0.23444 -1.10342,0.42028 -1.6076,0.55319 -0.0589,0.0152 -0.11727,0.0295 -0.17518,0.0429 -0.43614,0.10232 -0.84487,0.15389 -1.2316,0.15064 -0.42896,-0.004 -0.81534,-0.0853 -1.16059,-0.25217 -0.34584,-0.16852 -0.6284,-0.43076 -0.84002,-0.79331 -0.20074,-0.34393 -0.28699,-0.70614 -0.24951,-1.08929 0.0374,-0.38258 0.19064,-0.77385 0.46631,-1.16742 0.23904,-0.34145 0.56579,-0.67884 0.98165,-1.00337 0.0488,-0.0381 0.0988,-0.076 0.15,-0.11376 0.49394,-0.36266 1.08481,-0.69284 1.76813,-0.97348 0.50017,-0.20542 1.01572,-0.36824 1.54223,-0.48682 0.53005,-0.11992 1.13521,-0.20063 1.80517,-0.22868 l 0.21186,0.73388 c -0.0313,0.009 -0.0627,0.0181 -0.094,0.0272 -0.57658,-0.0645 -1.13883,-0.0547 -1.67702,0.0259 -0.53817,0.0805 -1.09465,0.23635 -1.65955,0.47007 -0.46232,0.19129 -0.85942,0.41185 -1.18894,0.65324 -0.21361,0.15547 -0.40044,0.32287 -0.56021,0.50057 -0.0843,0.0937 -0.16102,0.19032 -0.23031,0.28964 -0.1945,0.27936 -0.3058,0.5693 -0.33669,0.86683 -0.0282,0.29394 0.037,0.58315 0.19025,0.86944 0.1603,0.29953 0.3749,0.51614 0.63879,0.65354 0.26775,0.13566 0.55447,0.21154 0.86111,0.2302 0.0989,0.006 0.19968,0.007 0.30251,0.003 0.22978,-0.008 0.46944,-0.0406 0.7205,-0.0964 0.36596,-0.0843 0.73338,-0.20372 1.10768,-0.35787 0.51476,-0.21199 0.98156,-0.44447 1.40766,-0.7057 0.42583,-0.26105 0.81358,-0.55146 1.16861,-0.87682 0.0266,-0.008 0.0533,-0.0156 0.0799,-0.0233 l 0.20916,0.72451 c 0,0 -1e-4,-2e-5 -1e-4,-2e-5 z"
         id="path4936"
         inkscape:original-d="m 219.41642,362.2778 q -0.17863,0.0779 -0.32478,0.14615 -0.14291,0.0682 -0.37676,0.14291 -0.19812,0.0617 -0.43196,0.10393 -0.2306,0.0455 -0.50992,0.0455 -0.52616,0 -0.95812,-0.14615 -0.42872,-0.1494 -0.74701,-0.46445 -0.3118,-0.30854 -0.48719,-0.78273 -0.17538,-0.47744 -0.17538,-1.10753 0,-0.59761 0.16889,-1.06855 0.16889,-0.47094 0.48718,-0.79573 0.30855,-0.31504 0.74376,-0.48068 0.43847,-0.16565 0.97112,-0.16565 0.38974,0 0.77624,0.0942 0.38974,0.0942 0.86393,0.33129 l 0,0.76325 -0.0487,0 q -0.39948,-0.33453 -0.79248,-0.48718 -0.39299,-0.15265 -0.8412,-0.15265 -0.36701,0 -0.66256,0.12017 -0.29231,0.11692 -0.52291,0.36701 -0.2241,0.24359 -0.35077,0.61709 -0.12342,0.37026 -0.12342,0.85744 0,0.50992 0.13641,0.87693 0.13966,0.36701 0.35727,0.59761 0.22735,0.24034 0.5294,0.35726 0.3053,0.11368 0.64308,0.11368 0.46445,0 0.87043,-0.15915 0.40598,-0.15914 0.76,-0.47744 l 0.0455,0 0,0.75351 z"
         inkscape:connector-curvature="0" />
      <path
         d="m 233.0255,352.67514 c -1.68934,-0.0335 -3.36817,0.10101 -5.01706,0.38272 l 0.23083,1.34266 c 1.34706,-0.23119 2.71173,-0.3579 4.08171,-0.36688 l 0.003,0.57105 c -1.337,0.008 -2.67058,0.13183 -3.98841,0.35847 l 0.39407,2.2921 c -0.36686,0.0637 -0.73297,0.13633 -1.09796,0.21755 l -1.04088,-4.72054 c 2.10216,-0.45998 4.26426,-0.69016 6.44717,-0.64854 z"
         id="path4938"
         inkscape:original-d="m 223.42105,358.36411 -2.44565,0 0,1.36411 2.10138,0 0,0.57163 -2.10138,0 0,2.32872 -0.64308,0 0,-4.83608 3.08873,0 0,0.57162 z"
         inkscape:connector-curvature="0" />
      <path
         d="m 243.07759,359.72389 c -1.58818,-0.84166 -3.25067,-1.52317 -4.95132,-2.00163 l 1.29665,-4.6486 c 0.43297,0.11991 0.86269,0.25011 1.28883,0.3902 l -1.339,4.04447 c 1.36141,0.45357 2.69166,1.03038 3.97295,1.70929 z"
         id="path4940"
         inkscape:original-d="m 229.54979,362.62857 -3.0595,0 0,-4.83608 0.64308,0 0,4.26445 2.41642,0 0,0.57163 z"
         inkscape:connector-curvature="0" />
      <path
         d="m 248.681,363.57225 c -0.92151,-0.78489 -1.87879,-1.52045 -2.87528,-2.19876 -0.56578,-0.3863 -1.14539,-0.7531 -1.73685,-1.09805 l 2.44553,-4.18355 c 0.69553,0.40738 1.37409,0.84092 2.03371,1.29827 1.13388,0.78837 2.21867,1.62971 3.25781,2.5161 l -0.36937,0.43331 c -1.02523,-0.87438 -2.09494,-1.70322 -3.21258,-2.47859 -0.29008,-0.2008 -0.58382,-0.39695 -0.88106,-0.58822 l -0.7161,1.11689 c 0.28517,0.18304 0.56714,0.37071 0.84571,0.56281 1.07999,0.74521 2.11477,1.54506 3.10777,2.39164 l -0.36936,0.43331 c -0.9791,-0.83457 -1.99881,-1.62193 -3.06256,-2.35412 -0.27361,-0.18834 -0.55049,-0.37236 -0.83046,-0.55185 l -0.97059,1.51381 c 0.26362,0.16833 0.52453,0.34087 0.78256,0.51741 1.01272,0.69132 1.98507,1.43938 2.92049,2.23626 z"
         id="path4942"
         inkscape:original-d="m 233.37903,362.62857 -3.18616,0 0,-4.83608 3.18616,0 0,0.57162 -2.54309,0 0,1.32514 2.54309,0 0,0.57162 -2.54309,0 0,1.79607 2.54309,0 0,0.57163 z"
         inkscape:connector-curvature="0" />
      <path
         d="m 254.58303,369.76131 c -0.3043,-0.38226 -0.61289,-0.75974 -0.92598,-1.13197 0.20019,-2.00433 0.28251,-4.0511 0.20786,-6.14354 l -3.03177,3.06819 c -0.25734,-0.25517 -0.5176,-0.50655 -0.78085,-0.75392 l 3.29582,-3.51528 c 0.48991,0.45841 0.96916,0.92679 1.43814,1.40418 0.0453,1.92011 -0.0373,3.80142 -0.21798,5.6464 l 3.03773,-2.53176 c 0.25776,0.30796 0.51211,0.61848 0.76314,0.93134 z"
         id="path4944"
         inkscape:original-d="m 238.09169,362.62857 -0.79573,0 -2.29299,-4.32617 0,4.32617 -0.60086,0 0,-4.83608 0.9971,0 2.09163,3.94941 0,-3.94941 0.60085,0 0,4.83608 z"
         inkscape:connector-curvature="0" />
      <path
         d="m 260.84547,376.3759 c -0.16087,0.0981 -0.36369,0.1232 -0.60859,0.077 -0.24281,-0.0427 -0.4968,-0.15643 -0.76315,-0.33992 -0.29081,-0.20192 -0.58538,-0.46382 -0.88618,-0.78529 -0.29903,-0.31852 -0.61379,-0.72839 -0.95188,-1.23082 -0.36252,-0.53875 -0.66787,-1.03663 -0.91464,-1.4983 -0.24453,-0.45851 -0.47375,-0.94007 -0.69086,-1.44699 l 0.64816,-0.48308 c 2e-5,3e-5 0.0512,0.0688 0.0512,0.0689 0.11103,0.49235 0.29561,1.01387 0.55183,1.56914 0.25637,0.55559 0.52907,1.0511 0.82401,1.48978 0.41759,0.62111 0.79518,1.0667 1.14706,1.3368 0.35308,0.27276 0.63404,0.34573 0.84545,0.2127 0.18172,-0.11434 0.26216,-0.28398 0.23976,-0.50957 -0.0201,-0.22167 -0.11692,-0.52145 -0.29305,-0.89605 -0.13288,-0.2842 -0.28877,-0.5868 -0.46816,-0.90619 -0.17761,-0.31693 -0.36243,-0.65349 -0.55857,-1.01446 -0.39276,-0.72996 -0.62459,-1.31543 -0.68431,-1.77025 -0.0553,-0.4515 0.0548,-0.78414 0.33921,-0.9957 0.32522,-0.24195 0.79525,-0.17313 1.40344,0.22703 0.60904,0.3983 1.21608,1.03327 1.79721,1.90333 0.37516,0.5617 0.68435,1.09954 0.92971,1.60769 0.24533,0.50807 0.43801,0.97226 0.58048,1.38824 l -0.64767,0.39856 c 2e-5,4e-5 -0.0464,-0.0756 -0.0463,-0.0756 -0.0547,-0.38691 -0.19496,-0.8596 -0.42586,-1.41262 -0.227,-0.55113 -0.51273,-1.08619 -0.85717,-1.60155 -0.37762,-0.565 -0.74939,-0.97589 -1.10461,-1.23261 -0.35323,-0.25357 -0.62309,-0.31132 -0.80678,-0.18013 -0.16457,0.11754 -0.2344,0.29242 -0.21164,0.52392 0.0228,0.23215 0.15532,0.572 0.39238,1.02543 0.13121,0.24711 0.30635,0.56646 0.54794,1.01045 0.23637,0.43451 0.42756,0.81172 0.5736,1.12326 0.29371,0.63422 0.44613,1.15405 0.46511,1.55079 0.019,0.39781 -0.12148,0.68583 -0.41707,0.86613 z"
         id="path4946"
         inkscape:original-d="m 242.89205,361.24822 q 0,0.28257 -0.13316,0.55864 -0.12992,0.27607 -0.36701,0.46769 -0.25983,0.20787 -0.60735,0.32479 -0.34428,0.11692 -0.83146,0.11692 -0.52291,0 -0.94188,-0.0974 -0.41573,-0.0974 -0.8477,-0.28906 l 0,-0.80548 0.0455,0 q 0.36701,0.3053 0.8477,0.47095 0.48068,0.16564 0.90291,0.16564 0.5976,0 0.92889,-0.22411 0.33453,-0.2241 0.33453,-0.59761 0,-0.32153 -0.15915,-0.47418 -0.15589,-0.15265 -0.47743,-0.2371 -0.24359,-0.065 -0.52941,-0.10718 -0.28256,-0.0422 -0.60085,-0.10718 -0.64308,-0.13641 -0.95488,-0.46444 -0.30855,-0.33129 -0.30855,-0.86069 0,-0.60735 0.51317,-0.99385 0.51316,-0.38975 1.30239,-0.38975 0.50992,0 0.93539,0.0974 0.42547,0.0974 0.75351,0.24034 l 0,0.76001 -0.0455,0 q -0.27607,-0.23385 -0.72753,-0.3865 -0.4482,-0.1559 -0.91914,-0.1559 -0.51642,0 -0.83146,0.21436 -0.3118,0.21436 -0.3118,0.55214 0,0.30205 0.1559,0.47419 0.1559,0.17214 0.54889,0.26308 0.20787,0.0455 0.59112,0.11042 0.38325,0.065 0.64957,0.13317 0.53915,0.1429 0.81197,0.43196 0.27282,0.28906 0.27282,0.80872 z"
         inkscape:connector-curvature="0" />
    </g>
    <g
       transform="matrix(1.0428275,-0.01762919,0.0310427,0.97551707,-41.006092,-0.25999393)"
       inkscape:path-effect="#path-effect4966"
       id="g4950"
       style="font-style:normal;font-weight:normal;font-size:6.65164423px;line-height:125%;font-family:sans-serif;letter-spacing:0px;word-spacing:0px;opacity:0.40700001;fill:#000000;fill-opacity:1;stroke:none;stroke-width:1px;stroke-linecap:butt;stroke-linejoin:miter;stroke-opacity:1;filter:url(#filter4992)">
      <path
         inkscape:connector-curvature="0"
         inkscape:original-d="m 214.94735,362.62857 -0.6853,0 -0.47419,-1.34787 -2.09163,0 -0.47419,1.34787 -0.65282,0 1.76034,-4.83608 0.85744,0 1.76035,4.83608 z m -1.35761,-1.90001 -0.8477,-2.37419 -0.85094,2.37419 1.69864,0 z"
         id="path4952"
         d="m 218.88244,361.11311 c -0.34741,0.21464 -0.69118,0.43593 -1.03118,0.66356 -0.48498,-0.21591 -0.97748,-0.42266 -1.47701,-0.62017 -1.06146,0.74868 -2.08419,1.55565 -3.06473,2.41231 0.0735,0.53272 0.15687,1.06121 0.24971,1.5852 -0.2898,0.26477 -0.5757,0.53408 -0.85758,0.80766 -0.3639,-1.89324 -0.60535,-3.84946 -0.70436,-5.85466 0.45024,-0.36948 0.90866,-0.72968 1.37501,-1.07998 1.92645,0.56967 3.7712,1.26628 5.51014,2.08608 z m -3.13152,-0.19038 c -0.89633,-0.32976 -1.81406,-0.63017 -2.75046,-0.90077 0.0415,0.97487 0.11711,1.93851 0.22464,2.88931 0.81416,-0.698 1.65672,-1.36238 2.52582,-1.98854 z"
         style="fill:#000000" />
      <path
         inkscape:connector-curvature="0"
         inkscape:original-d="m 219.41642,362.2778 q -0.17863,0.0779 -0.32478,0.14615 -0.14291,0.0682 -0.37676,0.14291 -0.19812,0.0617 -0.43196,0.10393 -0.2306,0.0455 -0.50992,0.0455 -0.52616,0 -0.95812,-0.14615 -0.42872,-0.1494 -0.74701,-0.46445 -0.3118,-0.30854 -0.48719,-0.78273 -0.17538,-0.47744 -0.17538,-1.10753 0,-0.59761 0.16889,-1.06855 0.16889,-0.47094 0.48718,-0.79573 0.30855,-0.31504 0.74376,-0.48068 0.43847,-0.16565 0.97112,-0.16565 0.38974,0 0.77624,0.0942 0.38974,0.0942 0.86393,0.33129 l 0,0.76325 -0.0487,0 q -0.39948,-0.33453 -0.79248,-0.48718 -0.39299,-0.15265 -0.8412,-0.15265 -0.36701,0 -0.66256,0.12017 -0.29231,0.11692 -0.52291,0.36701 -0.2241,0.24359 -0.35077,0.61709 -0.12342,0.37026 -0.12342,0.85744 0,0.50992 0.13641,0.87693 0.13966,0.36701 0.35727,0.59761 0.22735,0.24034 0.5294,0.35726 0.3053,0.11368 0.64308,0.11368 0.46445,0 0.87043,-0.15915 0.40598,-0.15914 0.76,-0.47744 l 0.0455,0 0,0.75351 z"
         id="path4954"
         d="m 225.98304,357.53366 c -0.18865,0.10877 -0.35886,0.21178 -0.50961,0.30676 -0.14839,0.0946 -0.34322,0.20677 -0.58852,0.34346 -0.20748,0.1144 -0.43463,0.23171 -0.68223,0.35409 -0.24334,0.12314 -0.51609,0.24511 -0.81987,0.36944 -0.57283,0.23444 -1.10342,0.42028 -1.6076,0.55319 -0.0589,0.0152 -0.11727,0.0295 -0.17518,0.0429 -0.43614,0.10232 -0.84487,0.15389 -1.2316,0.15064 -0.42896,-0.004 -0.81534,-0.0853 -1.16059,-0.25217 -0.34584,-0.16852 -0.6284,-0.43076 -0.84002,-0.79331 -0.20074,-0.34393 -0.28699,-0.70614 -0.24951,-1.08929 0.0374,-0.38258 0.19064,-0.77385 0.46631,-1.16742 0.23904,-0.34145 0.56579,-0.67884 0.98165,-1.00337 0.0488,-0.0381 0.0988,-0.076 0.15,-0.11376 0.49394,-0.36266 1.08481,-0.69284 1.76813,-0.97348 0.50017,-0.20542 1.01572,-0.36824 1.54223,-0.48682 0.53005,-0.11992 1.13521,-0.20063 1.80517,-0.22868 l 0.21186,0.73388 c -0.0313,0.009 -0.0627,0.0181 -0.094,0.0272 -0.57658,-0.0645 -1.13883,-0.0547 -1.67702,0.0259 -0.53817,0.0805 -1.09465,0.23635 -1.65955,0.47007 -0.46232,0.19129 -0.85942,0.41185 -1.18894,0.65324 -0.21361,0.15547 -0.40044,0.32287 -0.56021,0.50057 -0.0843,0.0937 -0.16102,0.19032 -0.23031,0.28964 -0.1945,0.27936 -0.3058,0.5693 -0.33669,0.86683 -0.0282,0.29394 0.037,0.58315 0.19025,0.86944 0.1603,0.29953 0.3749,0.51614 0.63879,0.65354 0.26775,0.13566 0.55447,0.21154 0.86111,0.2302 0.0989,0.006 0.19968,0.007 0.30251,0.003 0.22978,-0.008 0.46944,-0.0406 0.7205,-0.0964 0.36596,-0.0843 0.73338,-0.20372 1.10768,-0.35787 0.51476,-0.21199 0.98156,-0.44447 1.40766,-0.7057 0.42583,-0.26105 0.81358,-0.55146 1.16861,-0.87682 0.0266,-0.008 0.0533,-0.0156 0.0799,-0.0233 l 0.20916,0.72451 c 0,0 -1e-4,-2e-5 -1e-4,-2e-5 z"
         style="fill:#000000" />
      <path
         inkscape:connector-curvature="0"
         inkscape:original-d="m 223.42105,358.36411 -2.44565,0 0,1.36411 2.10138,0 0,0.57163 -2.10138,0 0,2.32872 -0.64308,0 0,-4.83608 3.08873,0 0,0.57162 z"
         id="path4956"
         d="m 233.0255,352.67514 c -1.68934,-0.0335 -3.36817,0.10101 -5.01706,0.38272 l 0.23083,1.34266 c 1.34706,-0.23119 2.71173,-0.3579 4.08171,-0.36688 l 0.003,0.57105 c -1.337,0.008 -2.67058,0.13183 -3.98841,0.35847 l 0.39407,2.2921 c -0.36686,0.0637 -0.73297,0.13633 -1.09796,0.21755 l -1.04088,-4.72054 c 2.10216,-0.45998 4.26426,-0.69016 6.44717,-0.64854 z"
         style="fill:#000000" />
      <path
         inkscape:connector-curvature="0"
         inkscape:original-d="m 229.54979,362.62857 -3.0595,0 0,-4.83608 0.64308,0 0,4.26445 2.41642,0 0,0.57163 z"
         id="path4958"
         d="m 243.07759,359.72389 c -1.58818,-0.84166 -3.25067,-1.52317 -4.95132,-2.00163 l 1.29665,-4.6486 c 0.43297,0.11991 0.86269,0.25011 1.28883,0.3902 l -1.339,4.04447 c 1.36141,0.45357 2.69166,1.03038 3.97295,1.70929 z"
         style="fill:#000000" />
      <path
         inkscape:connector-curvature="0"
         inkscape:original-d="m 233.37903,362.62857 -3.18616,0 0,-4.83608 3.18616,0 0,0.57162 -2.54309,0 0,1.32514 2.54309,0 0,0.57162 -2.54309,0 0,1.79607 2.54309,0 0,0.57163 z"
         id="path4960"
         d="m 248.681,363.57225 c -0.92151,-0.78489 -1.87879,-1.52045 -2.87528,-2.19876 -0.56578,-0.3863 -1.14539,-0.7531 -1.73685,-1.09805 l 2.44553,-4.18355 c 0.69553,0.40738 1.37409,0.84092 2.03371,1.29827 1.13388,0.78837 2.21867,1.62971 3.25781,2.5161 l -0.36937,0.43331 c -1.02523,-0.87438 -2.09494,-1.70322 -3.21258,-2.47859 -0.29008,-0.2008 -0.58382,-0.39695 -0.88106,-0.58822 l -0.7161,1.11689 c 0.28517,0.18304 0.56714,0.37071 0.84571,0.56281 1.07999,0.74521 2.11477,1.54506 3.10777,2.39164 l -0.36936,0.43331 c -0.9791,-0.83457 -1.99881,-1.62193 -3.06256,-2.35412 -0.27361,-0.18834 -0.55049,-0.37236 -0.83046,-0.55185 l -0.97059,1.51381 c 0.26362,0.16833 0.52453,0.34087 0.78256,0.51741 1.01272,0.69132 1.98507,1.43938 2.92049,2.23626 z"
         style="fill:#000000" />
      <path
         inkscape:connector-curvature="0"
         inkscape:original-d="m 238.09169,362.62857 -0.79573,0 -2.29299,-4.32617 0,4.32617 -0.60086,0 0,-4.83608 0.9971,0 2.09163,3.94941 0,-3.94941 0.60085,0 0,4.83608 z"
         id="path4962"
         d="m 254.58303,369.76131 c -0.3043,-0.38226 -0.61289,-0.75974 -0.92598,-1.13197 0.20019,-2.00433 0.28251,-4.0511 0.20786,-6.14354 l -3.03177,3.06819 c -0.25734,-0.25517 -0.5176,-0.50655 -0.78085,-0.75392 l 3.29582,-3.51528 c 0.48991,0.45841 0.96916,0.92679 1.43814,1.40418 0.0453,1.92011 -0.0373,3.80142 -0.21798,5.6464 l 3.03773,-2.53176 c 0.25776,0.30796 0.51211,0.61848 0.76314,0.93134 z"
         style="fill:#000000" />
      <path
         inkscape:connector-curvature="0"
         inkscape:original-d="m 242.89205,361.24822 q 0,0.28257 -0.13316,0.55864 -0.12992,0.27607 -0.36701,0.46769 -0.25983,0.20787 -0.60735,0.32479 -0.34428,0.11692 -0.83146,0.11692 -0.52291,0 -0.94188,-0.0974 -0.41573,-0.0974 -0.8477,-0.28906 l 0,-0.80548 0.0455,0 q 0.36701,0.3053 0.8477,0.47095 0.48068,0.16564 0.90291,0.16564 0.5976,0 0.92889,-0.22411 0.33453,-0.2241 0.33453,-0.59761 0,-0.32153 -0.15915,-0.47418 -0.15589,-0.15265 -0.47743,-0.2371 -0.24359,-0.065 -0.52941,-0.10718 -0.28256,-0.0422 -0.60085,-0.10718 -0.64308,-0.13641 -0.95488,-0.46444 -0.30855,-0.33129 -0.30855,-0.86069 0,-0.60735 0.51317,-0.99385 0.51316,-0.38975 1.30239,-0.38975 0.50992,0 0.93539,0.0974 0.42547,0.0974 0.75351,0.24034 l 0,0.76001 -0.0455,0 q -0.27607,-0.23385 -0.72753,-0.3865 -0.4482,-0.1559 -0.91914,-0.1559 -0.51642,0 -0.83146,0.21436 -0.3118,0.21436 -0.3118,0.55214 0,0.30205 0.1559,0.47419 0.1559,0.17214 0.54889,0.26308 0.20787,0.0455 0.59112,0.11042 0.38325,0.065 0.64957,0.13317 0.53915,0.1429 0.81197,0.43196 0.27282,0.28906 0.27282,0.80872 z"
         id="path4964"
         d="m 260.84547,376.3759 c -0.16087,0.0981 -0.36369,0.1232 -0.60859,0.077 -0.24281,-0.0427 -0.4968,-0.15643 -0.76315,-0.33992 -0.29081,-0.20192 -0.58538,-0.46382 -0.88618,-0.78529 -0.29903,-0.31852 -0.61379,-0.72839 -0.95188,-1.23082 -0.36252,-0.53875 -0.66787,-1.03663 -0.91464,-1.4983 -0.24453,-0.45851 -0.47375,-0.94007 -0.69086,-1.44699 l 0.64816,-0.48308 c 2e-5,3e-5 0.0512,0.0688 0.0512,0.0689 0.11103,0.49235 0.29561,1.01387 0.55183,1.56914 0.25637,0.55559 0.52907,1.0511 0.82401,1.48978 0.41759,0.62111 0.79518,1.0667 1.14706,1.3368 0.35308,0.27276 0.63404,0.34573 0.84545,0.2127 0.18172,-0.11434 0.26216,-0.28398 0.23976,-0.50957 -0.0201,-0.22167 -0.11692,-0.52145 -0.29305,-0.89605 -0.13288,-0.2842 -0.28877,-0.5868 -0.46816,-0.90619 -0.17761,-0.31693 -0.36243,-0.65349 -0.55857,-1.01446 -0.39276,-0.72996 -0.62459,-1.31543 -0.68431,-1.77025 -0.0553,-0.4515 0.0548,-0.78414 0.33921,-0.9957 0.32522,-0.24195 0.79525,-0.17313 1.40344,0.22703 0.60904,0.3983 1.21608,1.03327 1.79721,1.90333 0.37516,0.5617 0.68435,1.09954 0.92971,1.60769 0.24533,0.50807 0.43801,0.97226 0.58048,1.38824 l -0.64767,0.39856 c 2e-5,4e-5 -0.0464,-0.0756 -0.0463,-0.0756 -0.0547,-0.38691 -0.19496,-0.8596 -0.42586,-1.41262 -0.227,-0.55113 -0.51273,-1.08619 -0.85717,-1.60155 -0.37762,-0.565 -0.74939,-0.97589 -1.10461,-1.23261 -0.35323,-0.25357 -0.62309,-0.31132 -0.80678,-0.18013 -0.16457,0.11754 -0.2344,0.29242 -0.21164,0.52392 0.0228,0.23215 0.15532,0.572 0.39238,1.02543 0.13121,0.24711 0.30635,0.56646 0.54794,1.01045 0.23637,0.43451 0.42756,0.81172 0.5736,1.12326 0.29371,0.63422 0.44613,1.15405 0.46511,1.55079 0.019,0.39781 -0.12148,0.68583 -0.41707,0.86613 z"
         style="fill:#000000" />
    </g>
    <g
       transform="matrix(-1.0428275,0.01762919,-0.0310427,-0.97551707,463.13457,853.4846)"
       inkscape:path-effect="#path-effect5012"
       id="g4996"
       style="font-style:normal;font-weight:normal;font-size:6.65164423px;line-height:125%;font-family:sans-serif;letter-spacing:0px;word-spacing:0px;fill:#2aff80;fill-opacity:1;stroke:none;stroke-width:1px;stroke-linecap:butt;stroke-linejoin:miter;stroke-opacity:1">
      <path
         inkscape:connector-curvature="0"
         inkscape:original-d="m 214.94735,362.62857 -0.6853,0 -0.47419,-1.34787 -2.09163,0 -0.47419,1.34787 -0.65282,0 1.76034,-4.83608 0.85744,0 1.76035,4.83608 z m -1.35761,-1.90001 -0.8477,-2.37419 -0.85094,2.37419 1.69864,0 z"
         id="path4998"
         d="m 218.88244,361.11311 c -0.34741,0.21464 -0.69118,0.43593 -1.03118,0.66356 -0.48498,-0.21591 -0.97748,-0.42266 -1.47701,-0.62017 -1.06146,0.74868 -2.08419,1.55565 -3.06473,2.41231 0.0735,0.53272 0.15687,1.06121 0.24971,1.5852 -0.2898,0.26477 -0.5757,0.53408 -0.85758,0.80766 -0.3639,-1.89324 -0.60535,-3.84946 -0.70436,-5.85466 0.45024,-0.36948 0.90866,-0.72968 1.37501,-1.07998 1.92645,0.56967 3.7712,1.26628 5.51014,2.08608 z m -3.13152,-0.19038 c -0.89633,-0.32976 -1.81406,-0.63017 -2.75046,-0.90077 0.0415,0.97487 0.11711,1.93851 0.22464,2.88931 0.81416,-0.698 1.65672,-1.36238 2.52582,-1.98854 z" />
      <path
         inkscape:connector-curvature="0"
         inkscape:original-d="m 219.41642,362.2778 q -0.17863,0.0779 -0.32478,0.14615 -0.14291,0.0682 -0.37676,0.14291 -0.19812,0.0617 -0.43196,0.10393 -0.2306,0.0455 -0.50992,0.0455 -0.52616,0 -0.95812,-0.14615 -0.42872,-0.1494 -0.74701,-0.46445 -0.3118,-0.30854 -0.48719,-0.78273 -0.17538,-0.47744 -0.17538,-1.10753 0,-0.59761 0.16889,-1.06855 0.16889,-0.47094 0.48718,-0.79573 0.30855,-0.31504 0.74376,-0.48068 0.43847,-0.16565 0.97112,-0.16565 0.38974,0 0.77624,0.0942 0.38974,0.0942 0.86393,0.33129 l 0,0.76325 -0.0487,0 q -0.39948,-0.33453 -0.79248,-0.48718 -0.39299,-0.15265 -0.8412,-0.15265 -0.36701,0 -0.66256,0.12017 -0.29231,0.11692 -0.52291,0.36701 -0.2241,0.24359 -0.35077,0.61709 -0.12342,0.37026 -0.12342,0.85744 0,0.50992 0.13641,0.87693 0.13966,0.36701 0.35727,0.59761 0.22735,0.24034 0.5294,0.35726 0.3053,0.11368 0.64308,0.11368 0.46445,0 0.87043,-0.15915 0.40598,-0.15914 0.76,-0.47744 l 0.0455,0 0,0.75351 z"
         id="path5000"
         d="m 225.98304,357.53366 c -0.18865,0.10877 -0.35886,0.21178 -0.50961,0.30676 -0.14839,0.0946 -0.34322,0.20677 -0.58852,0.34346 -0.20748,0.1144 -0.43463,0.23171 -0.68223,0.35409 -0.24334,0.12314 -0.51609,0.24511 -0.81987,0.36944 -0.57283,0.23444 -1.10342,0.42028 -1.6076,0.55319 -0.0589,0.0152 -0.11727,0.0295 -0.17518,0.0429 -0.43614,0.10232 -0.84487,0.15389 -1.2316,0.15064 -0.42896,-0.004 -0.81534,-0.0853 -1.16059,-0.25217 -0.34584,-0.16852 -0.6284,-0.43076 -0.84002,-0.79331 -0.20074,-0.34393 -0.28699,-0.70614 -0.24951,-1.08929 0.0374,-0.38258 0.19064,-0.77385 0.46631,-1.16742 0.23904,-0.34145 0.56579,-0.67884 0.98165,-1.00337 0.0488,-0.0381 0.0988,-0.076 0.15,-0.11376 0.49394,-0.36266 1.08481,-0.69284 1.76813,-0.97348 0.50017,-0.20542 1.01572,-0.36824 1.54223,-0.48682 0.53005,-0.11992 1.13521,-0.20063 1.80517,-0.22868 l 0.21186,0.73388 c -0.0313,0.009 -0.0627,0.0181 -0.094,0.0272 -0.57658,-0.0645 -1.13883,-0.0547 -1.67702,0.0259 -0.53817,0.0805 -1.09465,0.23635 -1.65955,0.47007 -0.46232,0.19129 -0.85942,0.41185 -1.18894,0.65324 -0.21361,0.15547 -0.40044,0.32287 -0.56021,0.50057 -0.0843,0.0937 -0.16102,0.19032 -0.23031,0.28964 -0.1945,0.27936 -0.3058,0.5693 -0.33669,0.86683 -0.0282,0.29394 0.037,0.58315 0.19025,0.86944 0.1603,0.29953 0.3749,0.51614 0.63879,0.65354 0.26775,0.13566 0.55447,0.21154 0.86111,0.2302 0.0989,0.006 0.19968,0.007 0.30251,0.003 0.22978,-0.008 0.46944,-0.0406 0.7205,-0.0964 0.36596,-0.0843 0.73338,-0.20372 1.10768,-0.35787 0.51476,-0.21199 0.98156,-0.44447 1.40766,-0.7057 0.42583,-0.26105 0.81358,-0.55146 1.16861,-0.87682 0.0266,-0.008 0.0533,-0.0156 0.0799,-0.0233 l 0.20916,0.72451 c 0,0 -1e-4,-2e-5 -1e-4,-2e-5 z" />
      <path
         inkscape:connector-curvature="0"
         inkscape:original-d="m 223.42105,358.36411 -2.44565,0 0,1.36411 2.10138,0 0,0.57163 -2.10138,0 0,2.32872 -0.64308,0 0,-4.83608 3.08873,0 0,0.57162 z"
         id="path5002"
         d="m 233.0255,352.67514 c -1.68934,-0.0335 -3.36817,0.10101 -5.01706,0.38272 l 0.23083,1.34266 c 1.34706,-0.23119 2.71173,-0.3579 4.08171,-0.36688 l 0.003,0.57105 c -1.337,0.008 -2.67058,0.13183 -3.98841,0.35847 l 0.39407,2.2921 c -0.36686,0.0637 -0.73297,0.13633 -1.09796,0.21755 l -1.04088,-4.72054 c 2.10216,-0.45998 4.26426,-0.69016 6.44717,-0.64854 z" />
      <path
         inkscape:connector-curvature="0"
         inkscape:original-d="m 229.54979,362.62857 -3.0595,0 0,-4.83608 0.64308,0 0,4.26445 2.41642,0 0,0.57163 z"
         id="path5004"
         d="m 243.07759,359.72389 c -1.58818,-0.84166 -3.25067,-1.52317 -4.95132,-2.00163 l 1.29665,-4.6486 c 0.43297,0.11991 0.86269,0.25011 1.28883,0.3902 l -1.339,4.04447 c 1.36141,0.45357 2.69166,1.03038 3.97295,1.70929 z" />
      <path
         inkscape:connector-curvature="0"
         inkscape:original-d="m 233.37903,362.62857 -3.18616,0 0,-4.83608 3.18616,0 0,0.57162 -2.54309,0 0,1.32514 2.54309,0 0,0.57162 -2.54309,0 0,1.79607 2.54309,0 0,0.57163 z"
         id="path5006"
         d="m 248.681,363.57225 c -0.92151,-0.78489 -1.87879,-1.52045 -2.87528,-2.19876 -0.56578,-0.3863 -1.14539,-0.7531 -1.73685,-1.09805 l 2.44553,-4.18355 c 0.69553,0.40738 1.37409,0.84092 2.03371,1.29827 1.13388,0.78837 2.21867,1.62971 3.25781,2.5161 l -0.36937,0.43331 c -1.02523,-0.87438 -2.09494,-1.70322 -3.21258,-2.47859 -0.29008,-0.2008 -0.58382,-0.39695 -0.88106,-0.58822 l -0.7161,1.11689 c 0.28517,0.18304 0.56714,0.37071 0.84571,0.56281 1.07999,0.74521 2.11477,1.54506 3.10777,2.39164 l -0.36936,0.43331 c -0.9791,-0.83457 -1.99881,-1.62193 -3.06256,-2.35412 -0.27361,-0.18834 -0.55049,-0.37236 -0.83046,-0.55185 l -0.97059,1.51381 c 0.26362,0.16833 0.52453,0.34087 0.78256,0.51741 1.01272,0.69132 1.98507,1.43938 2.92049,2.23626 z" />
      <path
         inkscape:connector-curvature="0"
         inkscape:original-d="m 238.09169,362.62857 -0.79573,0 -2.29299,-4.32617 0,4.32617 -0.60086,0 0,-4.83608 0.9971,0 2.09163,3.94941 0,-3.94941 0.60085,0 0,4.83608 z"
         id="path5008"
         d="m 254.58303,369.76131 c -0.3043,-0.38226 -0.61289,-0.75974 -0.92598,-1.13197 0.20019,-2.00433 0.28251,-4.0511 0.20786,-6.14354 l -3.03177,3.06819 c -0.25734,-0.25517 -0.5176,-0.50655 -0.78085,-0.75392 l 3.29582,-3.51528 c 0.48991,0.45841 0.96916,0.92679 1.43814,1.40418 0.0453,1.92011 -0.0373,3.80142 -0.21798,5.6464 l 3.03773,-2.53176 c 0.25776,0.30796 0.51211,0.61848 0.76314,0.93134 z" />
      <path
         inkscape:connector-curvature="0"
         inkscape:original-d="m 242.89205,361.24822 q 0,0.28257 -0.13316,0.55864 -0.12992,0.27607 -0.36701,0.46769 -0.25983,0.20787 -0.60735,0.32479 -0.34428,0.11692 -0.83146,0.11692 -0.52291,0 -0.94188,-0.0974 -0.41573,-0.0974 -0.8477,-0.28906 l 0,-0.80548 0.0455,0 q 0.36701,0.3053 0.8477,0.47095 0.48068,0.16564 0.90291,0.16564 0.5976,0 0.92889,-0.22411 0.33453,-0.2241 0.33453,-0.59761 0,-0.32153 -0.15915,-0.47418 -0.15589,-0.15265 -0.47743,-0.2371 -0.24359,-0.065 -0.52941,-0.10718 -0.28256,-0.0422 -0.60085,-0.10718 -0.64308,-0.13641 -0.95488,-0.46444 -0.30855,-0.33129 -0.30855,-0.86069 0,-0.60735 0.51317,-0.99385 0.51316,-0.38975 1.30239,-0.38975 0.50992,0 0.93539,0.0974 0.42547,0.0974 0.75351,0.24034 l 0,0.76001 -0.0455,0 q -0.27607,-0.23385 -0.72753,-0.3865 -0.4482,-0.1559 -0.91914,-0.1559 -0.51642,0 -0.83146,0.21436 -0.3118,0.21436 -0.3118,0.55214 0,0.30205 0.1559,0.47419 0.1559,0.17214 0.54889,0.26308 0.20787,0.0455 0.59112,0.11042 0.38325,0.065 0.64957,0.13317 0.53915,0.1429 0.81197,0.43196 0.27282,0.28906 0.27282,0.80872 z"
         id="path5010"
         d="m 260.84547,376.3759 c -0.16087,0.0981 -0.36369,0.1232 -0.60859,0.077 -0.24281,-0.0427 -0.4968,-0.15643 -0.76315,-0.33992 -0.29081,-0.20192 -0.58538,-0.46382 -0.88618,-0.78529 -0.29903,-0.31852 -0.61379,-0.72839 -0.95188,-1.23082 -0.36252,-0.53875 -0.66787,-1.03663 -0.91464,-1.4983 -0.24453,-0.45851 -0.47375,-0.94007 -0.69086,-1.44699 l 0.64816,-0.48308 c 2e-5,3e-5 0.0512,0.0688 0.0512,0.0689 0.11103,0.49235 0.29561,1.01387 0.55183,1.56914 0.25637,0.55559 0.52907,1.0511 0.82401,1.48978 0.41759,0.62111 0.79518,1.0667 1.14706,1.3368 0.35308,0.27276 0.63404,0.34573 0.84545,0.2127 0.18172,-0.11434 0.26216,-0.28398 0.23976,-0.50957 -0.0201,-0.22167 -0.11692,-0.52145 -0.29305,-0.89605 -0.13288,-0.2842 -0.28877,-0.5868 -0.46816,-0.90619 -0.17761,-0.31693 -0.36243,-0.65349 -0.55857,-1.01446 -0.39276,-0.72996 -0.62459,-1.31543 -0.68431,-1.77025 -0.0553,-0.4515 0.0548,-0.78414 0.33921,-0.9957 0.32522,-0.24195 0.79525,-0.17313 1.40344,0.22703 0.60904,0.3983 1.21608,1.03327 1.79721,1.90333 0.37516,0.5617 0.68435,1.09954 0.92971,1.60769 0.24533,0.50807 0.43801,0.97226 0.58048,1.38824 l -0.64767,0.39856 c 2e-5,4e-5 -0.0464,-0.0756 -0.0463,-0.0756 -0.0547,-0.38691 -0.19496,-0.8596 -0.42586,-1.41262 -0.227,-0.55113 -0.51273,-1.08619 -0.85717,-1.60155 -0.37762,-0.565 -0.74939,-0.97589 -1.10461,-1.23261 -0.35323,-0.25357 -0.62309,-0.31132 -0.80678,-0.18013 -0.16457,0.11754 -0.2344,0.29242 -0.21164,0.52392 0.0228,0.23215 0.15532,0.572 0.39238,1.02543 0.13121,0.24711 0.30635,0.56646 0.54794,1.01045 0.23637,0.43451 0.42756,0.81172 0.5736,1.12326 0.29371,0.63422 0.44613,1.15405 0.46511,1.55079 0.019,0.39781 -0.12148,0.68583 -0.41707,0.86613 z" />
    </g>
    <g
       style="font-style:normal;font-weight:normal;font-size:6.65164423px;line-height:125%;font-family:sans-serif;letter-spacing:0px;word-spacing:0px;opacity:0.40700001;fill:#000000;fill-opacity:1;stroke:none;stroke-width:1px;stroke-linecap:butt;stroke-linejoin:miter;stroke-opacity:1;filter:url(#filter4992)"
       id="g5014"
       inkscape:path-effect="#path-effect5030"
       transform="matrix(-1.0428275,0.01762919,-0.0310427,-0.97551707,463.41667,853.56698)">
      <path
         style="fill:#000000"
         d="m 218.88244,361.11311 c -0.34741,0.21464 -0.69118,0.43593 -1.03118,0.66356 -0.48498,-0.21591 -0.97748,-0.42266 -1.47701,-0.62017 -1.06146,0.74868 -2.08419,1.55565 -3.06473,2.41231 0.0735,0.53272 0.15687,1.06121 0.24971,1.5852 -0.2898,0.26477 -0.5757,0.53408 -0.85758,0.80766 -0.3639,-1.89324 -0.60535,-3.84946 -0.70436,-5.85466 0.45024,-0.36948 0.90866,-0.72968 1.37501,-1.07998 1.92645,0.56967 3.7712,1.26628 5.51014,2.08608 z m -3.13152,-0.19038 c -0.89633,-0.32976 -1.81406,-0.63017 -2.75046,-0.90077 0.0415,0.97487 0.11711,1.93851 0.22464,2.88931 0.81416,-0.698 1.65672,-1.36238 2.52582,-1.98854 z"
         id="path5016"
         inkscape:original-d="m 214.94735,362.62857 -0.6853,0 -0.47419,-1.34787 -2.09163,0 -0.47419,1.34787 -0.65282,0 1.76034,-4.83608 0.85744,0 1.76035,4.83608 z m -1.35761,-1.90001 -0.8477,-2.37419 -0.85094,2.37419 1.69864,0 z"
         inkscape:connector-curvature="0" />
      <path
         style="fill:#000000"
         d="m 225.98304,357.53366 c -0.18865,0.10877 -0.35886,0.21178 -0.50961,0.30676 -0.14839,0.0946 -0.34322,0.20677 -0.58852,0.34346 -0.20748,0.1144 -0.43463,0.23171 -0.68223,0.35409 -0.24334,0.12314 -0.51609,0.24511 -0.81987,0.36944 -0.57283,0.23444 -1.10342,0.42028 -1.6076,0.55319 -0.0589,0.0152 -0.11727,0.0295 -0.17518,0.0429 -0.43614,0.10232 -0.84487,0.15389 -1.2316,0.15064 -0.42896,-0.004 -0.81534,-0.0853 -1.16059,-0.25217 -0.34584,-0.16852 -0.6284,-0.43076 -0.84002,-0.79331 -0.20074,-0.34393 -0.28699,-0.70614 -0.24951,-1.08929 0.0374,-0.38258 0.19064,-0.77385 0.46631,-1.16742 0.23904,-0.34145 0.56579,-0.67884 0.98165,-1.00337 0.0488,-0.0381 0.0988,-0.076 0.15,-0.11376 0.49394,-0.36266 1.08481,-0.69284 1.76813,-0.97348 0.50017,-0.20542 1.01572,-0.36824 1.54223,-0.48682 0.53005,-0.11992 1.13521,-0.20063 1.80517,-0.22868 l 0.21186,0.73388 c -0.0313,0.009 -0.0627,0.0181 -0.094,0.0272 -0.57658,-0.0645 -1.13883,-0.0547 -1.67702,0.0259 -0.53817,0.0805 -1.09465,0.23635 -1.65955,0.47007 -0.46232,0.19129 -0.85942,0.41185 -1.18894,0.65324 -0.21361,0.15547 -0.40044,0.32287 -0.56021,0.50057 -0.0843,0.0937 -0.16102,0.19032 -0.23031,0.28964 -0.1945,0.27936 -0.3058,0.5693 -0.33669,0.86683 -0.0282,0.29394 0.037,0.58315 0.19025,0.86944 0.1603,0.29953 0.3749,0.51614 0.63879,0.65354 0.26775,0.13566 0.55447,0.21154 0.86111,0.2302 0.0989,0.006 0.19968,0.007 0.30251,0.003 0.22978,-0.008 0.46944,-0.0406 0.7205,-0.0964 0.36596,-0.0843 0.73338,-0.20372 1.10768,-0.35787 0.51476,-0.21199 0.98156,-0.44447 1.40766,-0.7057 0.42583,-0.26105 0.81358,-0.55146 1.16861,-0.87682 0.0266,-0.008 0.0533,-0.0156 0.0799,-0.0233 l 0.20916,0.72451 c 0,0 -1e-4,-2e-5 -1e-4,-2e-5 z"
         id="path5018"
         inkscape:original-d="m 219.41642,362.2778 q -0.17863,0.0779 -0.32478,0.14615 -0.14291,0.0682 -0.37676,0.14291 -0.19812,0.0617 -0.43196,0.10393 -0.2306,0.0455 -0.50992,0.0455 -0.52616,0 -0.95812,-0.14615 -0.42872,-0.1494 -0.74701,-0.46445 -0.3118,-0.30854 -0.48719,-0.78273 -0.17538,-0.47744 -0.17538,-1.10753 0,-0.59761 0.16889,-1.06855 0.16889,-0.47094 0.48718,-0.79573 0.30855,-0.31504 0.74376,-0.48068 0.43847,-0.16565 0.97112,-0.16565 0.38974,0 0.77624,0.0942 0.38974,0.0942 0.86393,0.33129 l 0,0.76325 -0.0487,0 q -0.39948,-0.33453 -0.79248,-0.48718 -0.39299,-0.15265 -0.8412,-0.15265 -0.36701,0 -0.66256,0.12017 -0.29231,0.11692 -0.52291,0.36701 -0.2241,0.24359 -0.35077,0.61709 -0.12342,0.37026 -0.12342,0.85744 0,0.50992 0.13641,0.87693 0.13966,0.36701 0.35727,0.59761 0.22735,0.24034 0.5294,0.35726 0.3053,0.11368 0.64308,0.11368 0.46445,0 0.87043,-0.15915 0.40598,-0.15914 0.76,-0.47744 l 0.0455,0 0,0.75351 z"
         inkscape:connector-curvature="0" />
      <path
         style="fill:#000000"
         d="m 233.0255,352.67514 c -1.68934,-0.0335 -3.36817,0.10101 -5.01706,0.38272 l 0.23083,1.34266 c 1.34706,-0.23119 2.71173,-0.3579 4.08171,-0.36688 l 0.003,0.57105 c -1.337,0.008 -2.67058,0.13183 -3.98841,0.35847 l 0.39407,2.2921 c -0.36686,0.0637 -0.73297,0.13633 -1.09796,0.21755 l -1.04088,-4.72054 c 2.10216,-0.45998 4.26426,-0.69016 6.44717,-0.64854 z"
         id="path5020"
         inkscape:original-d="m 223.42105,358.36411 -2.44565,0 0,1.36411 2.10138,0 0,0.57163 -2.10138,0 0,2.32872 -0.64308,0 0,-4.83608 3.08873,0 0,0.57162 z"
         inkscape:connector-curvature="0" />
      <path
         style="fill:#000000"
         d="m 243.07759,359.72389 c -1.58818,-0.84166 -3.25067,-1.52317 -4.95132,-2.00163 l 1.29665,-4.6486 c 0.43297,0.11991 0.86269,0.25011 1.28883,0.3902 l -1.339,4.04447 c 1.36141,0.45357 2.69166,1.03038 3.97295,1.70929 z"
         id="path5022"
         inkscape:original-d="m 229.54979,362.62857 -3.0595,0 0,-4.83608 0.64308,0 0,4.26445 2.41642,0 0,0.57163 z"
         inkscape:connector-curvature="0" />
      <path
         style="fill:#000000"
         d="m 248.681,363.57225 c -0.92151,-0.78489 -1.87879,-1.52045 -2.87528,-2.19876 -0.56578,-0.3863 -1.14539,-0.7531 -1.73685,-1.09805 l 2.44553,-4.18355 c 0.69553,0.40738 1.37409,0.84092 2.03371,1.29827 1.13388,0.78837 2.21867,1.62971 3.25781,2.5161 l -0.36937,0.43331 c -1.02523,-0.87438 -2.09494,-1.70322 -3.21258,-2.47859 -0.29008,-0.2008 -0.58382,-0.39695 -0.88106,-0.58822 l -0.7161,1.11689 c 0.28517,0.18304 0.56714,0.37071 0.84571,0.56281 1.07999,0.74521 2.11477,1.54506 3.10777,2.39164 l -0.36936,0.43331 c -0.9791,-0.83457 -1.99881,-1.62193 -3.06256,-2.35412 -0.27361,-0.18834 -0.55049,-0.37236 -0.83046,-0.55185 l -0.97059,1.51381 c 0.26362,0.16833 0.52453,0.34087 0.78256,0.51741 1.01272,0.69132 1.98507,1.43938 2.92049,2.23626 z"
         id="path5024"
         inkscape:original-d="m 233.37903,362.62857 -3.18616,0 0,-4.83608 3.18616,0 0,0.57162 -2.54309,0 0,1.32514 2.54309,0 0,0.57162 -2.54309,0 0,1.79607 2.54309,0 0,0.57163 z"
         inkscape:connector-curvature="0" />
      <path
         style="fill:#000000"
         d="m 254.58303,369.76131 c -0.3043,-0.38226 -0.61289,-0.75974 -0.92598,-1.13197 0.20019,-2.00433 0.28251,-4.0511 0.20786,-6.14354 l -3.03177,3.06819 c -0.25734,-0.25517 -0.5176,-0.50655 -0.78085,-0.75392 l 3.29582,-3.51528 c 0.48991,0.45841 0.96916,0.92679 1.43814,1.40418 0.0453,1.92011 -0.0373,3.80142 -0.21798,5.6464 l 3.03773,-2.53176 c 0.25776,0.30796 0.51211,0.61848 0.76314,0.93134 z"
         id="path5026"
         inkscape:original-d="m 238.09169,362.62857 -0.79573,0 -2.29299,-4.32617 0,4.32617 -0.60086,0 0,-4.83608 0.9971,0 2.09163,3.94941 0,-3.94941 0.60085,0 0,4.83608 z"
         inkscape:connector-curvature="0" />
      <path
         style="fill:#000000"
         d="m 260.84547,376.3759 c -0.16087,0.0981 -0.36369,0.1232 -0.60859,0.077 -0.24281,-0.0427 -0.4968,-0.15643 -0.76315,-0.33992 -0.29081,-0.20192 -0.58538,-0.46382 -0.88618,-0.78529 -0.29903,-0.31852 -0.61379,-0.72839 -0.95188,-1.23082 -0.36252,-0.53875 -0.66787,-1.03663 -0.91464,-1.4983 -0.24453,-0.45851 -0.47375,-0.94007 -0.69086,-1.44699 l 0.64816,-0.48308 c 2e-5,3e-5 0.0512,0.0688 0.0512,0.0689 0.11103,0.49235 0.29561,1.01387 0.55183,1.56914 0.25637,0.55559 0.52907,1.0511 0.82401,1.48978 0.41759,0.62111 0.79518,1.0667 1.14706,1.3368 0.35308,0.27276 0.63404,0.34573 0.84545,0.2127 0.18172,-0.11434 0.26216,-0.28398 0.23976,-0.50957 -0.0201,-0.22167 -0.11692,-0.52145 -0.29305,-0.89605 -0.13288,-0.2842 -0.28877,-0.5868 -0.46816,-0.90619 -0.17761,-0.31693 -0.36243,-0.65349 -0.55857,-1.01446 -0.39276,-0.72996 -0.62459,-1.31543 -0.68431,-1.77025 -0.0553,-0.4515 0.0548,-0.78414 0.33921,-0.9957 0.32522,-0.24195 0.79525,-0.17313 1.40344,0.22703 0.60904,0.3983 1.21608,1.03327 1.79721,1.90333 0.37516,0.5617 0.68435,1.09954 0.92971,1.60769 0.24533,0.50807 0.43801,0.97226 0.58048,1.38824 l -0.64767,0.39856 c 2e-5,4e-5 -0.0464,-0.0756 -0.0463,-0.0756 -0.0547,-0.38691 -0.19496,-0.8596 -0.42586,-1.41262 -0.227,-0.55113 -0.51273,-1.08619 -0.85717,-1.60155 -0.37762,-0.565 -0.74939,-0.97589 -1.10461,-1.23261 -0.35323,-0.25357 -0.62309,-0.31132 -0.80678,-0.18013 -0.16457,0.11754 -0.2344,0.29242 -0.21164,0.52392 0.0228,0.23215 0.15532,0.572 0.39238,1.02543 0.13121,0.24711 0.30635,0.56646 0.54794,1.01045 0.23637,0.43451 0.42756,0.81172 0.5736,1.12326 0.29371,0.63422 0.44613,1.15405 0.46511,1.55079 0.019,0.39781 -0.12148,0.68583 -0.41707,0.86613 z"
         id="path5028"
         inkscape:original-d="m 242.89205,361.24822 q 0,0.28257 -0.13316,0.55864 -0.12992,0.27607 -0.36701,0.46769 -0.25983,0.20787 -0.60735,0.32479 -0.34428,0.11692 -0.83146,0.11692 -0.52291,0 -0.94188,-0.0974 -0.41573,-0.0974 -0.8477,-0.28906 l 0,-0.80548 0.0455,0 q 0.36701,0.3053 0.8477,0.47095 0.48068,0.16564 0.90291,0.16564 0.5976,0 0.92889,-0.22411 0.33453,-0.2241 0.33453,-0.59761 0,-0.32153 -0.15915,-0.47418 -0.15589,-0.15265 -0.47743,-0.2371 -0.24359,-0.065 -0.52941,-0.10718 -0.28256,-0.0422 -0.60085,-0.10718 -0.64308,-0.13641 -0.95488,-0.46444 -0.30855,-0.33129 -0.30855,-0.86069 0,-0.60735 0.51317,-0.99385 0.51316,-0.38975 1.30239,-0.38975 0.50992,0 0.93539,0.0974 0.42547,0.0974 0.75351,0.24034 l 0,0.76001 -0.0455,0 q -0.27607,-0.23385 -0.72753,-0.3865 -0.4482,-0.1559 -0.91914,-0.1559 -0.51642,0 -0.83146,0.21436 -0.3118,0.21436 -0.3118,0.55214 0,0.30205 0.1559,0.47419 0.1559,0.17214 0.54889,0.26308 0.20787,0.0455 0.59112,0.11042 0.38325,0.065 0.64957,0.13317 0.53915,0.1429 0.81197,0.43196 0.27282,0.28906 0.27282,0.80872 z"
         inkscape:connector-curvature="0" />
    </g>
  </g>
</svg>
