<?xml version="1.0" encoding="UTF-8" standalone="no"?>
<!-- Created with Inkscape (http://www.inkscape.org/) -->

<svg
   xmlns:dc="http://purl.org/dc/elements/1.1/"
   xmlns:cc="http://creativecommons.org/ns#"
   xmlns:rdf="http://www.w3.org/1999/02/22-rdf-syntax-ns#"
   xmlns:svg="http://www.w3.org/2000/svg"
   xmlns="http://www.w3.org/2000/svg"
   xmlns:xlink="http://www.w3.org/1999/xlink"
   xmlns:sodipodi="http://sodipodi.sourceforge.net/DTD/sodipodi-0.dtd"
   xmlns:inkscape="http://www.inkscape.org/namespaces/inkscape"
   width="400"
   height="400"
   id="svg2"
   version="1.1"
   inkscape:version="0.48.2 r9819"
   sodipodi:docname="AppLogo.svg"
   inkscape:export-filename="AppIcon.png"
   inkscape:export-xdpi="14.4"
   inkscape:export-ydpi="14.4">
  <defs
     id="defs4">
    <linearGradient
       id="linearGradient4114">
      <stop
         id="stop4116"
         offset="0"
         style="stop-color:#000000;stop-opacity:1;" />
      <stop
         id="stop4118"
         offset="1"
         style="stop-color:#000000;stop-opacity:0;" />
    </linearGradient>
    <linearGradient
       id="linearGradient4078">
      <stop
         style="stop-color:#ffffff;stop-opacity:1;"
         offset="0"
         id="stop4080" />
      <stop
         style="stop-color:#ffffff;stop-opacity:0;"
         offset="1"
         id="stop4082" />
    </linearGradient>
    <linearGradient
       id="linearGradient3627">
      <stop
         style="stop-color:#ffff00;stop-opacity:1;"
         offset="0"
         id="stop3629" />
      <stop
         style="stop-color:#ffff00;stop-opacity:0;"
         offset="1"
         id="stop3631" />
    </linearGradient>
    <linearGradient
       id="linearGradient3613">
      <stop
         id="stop3615"
         offset="0"
         style="stop-color:#00ffff;stop-opacity:1;" />
      <stop
         id="stop3617"
         offset="1"
         style="stop-color:#00ffff;stop-opacity:0;" />
    </linearGradient>
    <linearGradient
       id="linearGradient3593">
      <stop
         style="stop-color:#ff00ff;stop-opacity:1;"
         offset="0"
         id="stop3595" />
      <stop
         style="stop-color:#ff00ff;stop-opacity:0;"
         offset="1"
         id="stop3597" />
    </linearGradient>
    <inkscape:perspective
       sodipodi:type="inkscape:persp3d"
       inkscape:vp_x="0 : 526.18109 : 1"
       inkscape:vp_y="0 : 1000 : 0"
       inkscape:vp_z="744.09448 : 526.18109 : 1"
       inkscape:persp3d-origin="372.04724 : 350.78739 : 1"
       id="perspective10" />
    <radialGradient
       inkscape:collect="always"
       xlink:href="#linearGradient3613"
       id="radialGradient3599"
       cx="546.42419"
       cy="483.09094"
       fx="546.42419"
       fy="483.09094"
       r="188.5625"
       gradientTransform="matrix(-0.69329871,-0.72065033,1.5947253,-1.5341989,154.86195,1618.021)"
       gradientUnits="userSpaceOnUse" />
    <radialGradient
       inkscape:collect="always"
       xlink:href="#linearGradient3613"
       id="radialGradient3611"
       gradientUnits="userSpaceOnUse"
       gradientTransform="matrix(-0.27745214,0.96073946,-2.1260179,-0.61397317,1469.6553,308.66902)"
       cx="546.42419"
       cy="483.09094"
       fx="546.42419"
       fy="483.09094"
       r="188.5625" />
    <radialGradient
       inkscape:collect="always"
       xlink:href="#linearGradient3593"
       id="radialGradient3623"
       gradientUnits="userSpaceOnUse"
       gradientTransform="matrix(-0.27745214,0.96073946,-2.1260179,-0.61397317,1469.6451,308.67479)"
       cx="546.42419"
       cy="483.09094"
       fx="546.42419"
       fy="483.09094"
       r="188.5625" />
    <radialGradient
       inkscape:collect="always"
       xlink:href="#linearGradient3627"
       id="radialGradient3625"
       gradientUnits="userSpaceOnUse"
       gradientTransform="matrix(0.97075085,-0.24008913,0.53129259,2.1481721,-321.68368,-175.29366)"
       cx="546.42419"
       cy="483.09094"
       fx="546.42419"
       fy="483.09094"
       r="188.5625" />
    <radialGradient
       inkscape:collect="always"
       xlink:href="#linearGradient3627"
       id="radialGradient4020"
       gradientUnits="userSpaceOnUse"
       gradientTransform="matrix(0.97075085,-0.24008913,0.53129259,2.1481721,-441.68368,-175.29366)"
       cx="546.42419"
       cy="483.09094"
       fx="546.42419"
       fy="483.09094"
       r="188.5625" />
    <radialGradient
       inkscape:collect="always"
       xlink:href="#linearGradient3593"
       id="radialGradient4022"
       gradientUnits="userSpaceOnUse"
       gradientTransform="matrix(-0.27745214,0.96073946,-2.1260179,-0.61397317,1349.6451,308.67479)"
       cx="546.42419"
       cy="483.09094"
       fx="546.42419"
       fy="483.09094"
       r="188.5625" />
    <radialGradient
       inkscape:collect="always"
       xlink:href="#linearGradient3613"
       id="radialGradient4024"
       gradientUnits="userSpaceOnUse"
       gradientTransform="matrix(-0.69329871,-0.72065033,1.5947253,-1.5341989,34.86195,1618.021)"
       cx="546.42419"
       cy="483.09094"
       fx="546.42419"
       fy="483.09094"
       r="188.5625" />
    <radialGradient
       inkscape:collect="always"
       xlink:href="#linearGradient3613"
       id="radialGradient4039"
       gradientUnits="userSpaceOnUse"
       gradientTransform="matrix(-0.69329871,-0.72065033,1.5947253,-1.5341989,34.86195,1618.021)"
       cx="546.42419"
       cy="483.09094"
       fx="546.42419"
       fy="483.09094"
       r="188.5625" />
    <radialGradient
       inkscape:collect="always"
       xlink:href="#linearGradient3593"
       id="radialGradient4041"
       gradientUnits="userSpaceOnUse"
       gradientTransform="matrix(-0.27745214,0.96073946,-2.1260179,-0.61397317,1349.6451,308.67479)"
       cx="546.42419"
       cy="483.09094"
       fx="546.42419"
       fy="483.09094"
       r="188.5625" />
    <radialGradient
       inkscape:collect="always"
       xlink:href="#linearGradient3627"
       id="radialGradient4043"
       gradientUnits="userSpaceOnUse"
       gradientTransform="matrix(0.97075085,-0.24008913,0.53129259,2.1481721,-441.68368,-175.29366)"
       cx="546.42419"
       cy="483.09094"
       fx="546.42419"
       fy="483.09094"
       r="188.5625" />
    <radialGradient
       inkscape:collect="always"
       xlink:href="#linearGradient3627"
       id="radialGradient4046"
       gradientUnits="userSpaceOnUse"
       gradientTransform="matrix(0.97075085,-0.24008913,0.53129259,2.1481721,458.31632,-175.29366)"
       cx="546.42419"
       cy="483.09094"
       fx="546.42419"
       fy="483.09094"
       r="188.5625" />
    <radialGradient
       inkscape:collect="always"
       xlink:href="#linearGradient3593"
       id="radialGradient4049"
       gradientUnits="userSpaceOnUse"
       gradientTransform="matrix(-0.27745214,0.96073946,-2.1260179,-0.61397317,2249.6451,308.67479)"
       cx="546.42419"
       cy="483.09094"
       fx="546.42419"
       fy="483.09094"
       r="188.5625" />
    <radialGradient
       inkscape:collect="always"
       xlink:href="#linearGradient3613"
       id="radialGradient4052"
       gradientUnits="userSpaceOnUse"
       gradientTransform="matrix(-0.69329871,-0.72065033,1.5947253,-1.5341989,934.86195,1618.021)"
       cx="546.42419"
       cy="483.09094"
       fx="546.42419"
       fy="483.09094"
       r="188.5625" />
    <radialGradient
       inkscape:collect="always"
       xlink:href="#linearGradient4078"
       id="radialGradient4084"
       cx="198.6714"
       cy="475.05429"
       fx="198.6714"
       fy="475.05429"
       r="168.77167"
       gradientTransform="matrix(1,0,0,0.99889186,0,0.64687271)"
       gradientUnits="userSpaceOnUse" />
    <radialGradient
       inkscape:collect="always"
       xlink:href="#linearGradient4078"
       id="radialGradient4088"
       gradientUnits="userSpaceOnUse"
       gradientTransform="matrix(-0.7714579,0,0,-0.77060302,556.92101,1033.5827)"
       cx="198.6714"
       cy="475.05429"
       fx="198.6714"
       fy="475.05429"
       r="168.77167" />
    <radialGradient
       inkscape:collect="always"
       xlink:href="#linearGradient4078"
       id="radialGradient4092"
       gradientUnits="userSpaceOnUse"
       gradientTransform="matrix(-0.7714579,0,0,-0.77060302,556.92101,1033.5827)"
       cx="198.6714"
       cy="475.05429"
       fx="198.6714"
       fy="475.05429"
       r="168.77167" />
    <radialGradient
       inkscape:collect="always"
       xlink:href="#linearGradient4078"
       id="radialGradient4096"
       gradientUnits="userSpaceOnUse"
       gradientTransform="matrix(-0.7714579,0,0,-0.77060302,556.92101,1033.5827)"
       cx="198.6714"
       cy="475.05429"
       fx="198.6714"
       fy="475.05429"
       r="168.77167" />
    <radialGradient
       inkscape:collect="always"
       xlink:href="#linearGradient4078"
       id="radialGradient4100"
       gradientUnits="userSpaceOnUse"
       gradientTransform="matrix(-0.7714579,0,0,-0.77060302,556.92101,1033.5827)"
       cx="198.6714"
       cy="475.05429"
       fx="198.6714"
       fy="475.05429"
       r="168.77167" />
    <radialGradient
       inkscape:collect="always"
       xlink:href="#linearGradient4078"
       id="radialGradient4104"
       gradientUnits="userSpaceOnUse"
       gradientTransform="matrix(-0.7714579,0,0,-0.77060302,556.92101,1033.5827)"
       cx="198.6714"
       cy="475.05429"
       fx="198.6714"
       fy="475.05429"
       r="168.77167" />
    <radialGradient
       inkscape:collect="always"
       xlink:href="#linearGradient4078"
       id="radialGradient4108"
       gradientUnits="userSpaceOnUse"
       gradientTransform="matrix(-0.7714579,0,0,-0.77060302,556.92101,1033.5827)"
       cx="198.6714"
       cy="475.05429"
       fx="198.6714"
       fy="475.05429"
       r="168.77167" />
    <radialGradient
       inkscape:collect="always"
       xlink:href="#linearGradient4114"
       id="radialGradient4112"
       gradientUnits="userSpaceOnUse"
       gradientTransform="matrix(-1.210941,0,0,-1.2095991,694.99967,1289.8419)"
       cx="198.6714"
       cy="475.05429"
       fx="198.6714"
       fy="475.05429"
       r="168.77167" />
    <radialGradient
       inkscape:collect="always"
       xlink:href="#linearGradient4114"
       id="radialGradient4122"
       gradientUnits="userSpaceOnUse"
       gradientTransform="matrix(0.77145788,0,0,0.77060299,72.161239,133.92049)"
       cx="198.6714"
       cy="475.05429"
       fx="198.6714"
       fy="475.05429"
       r="168.77167" />
    <radialGradient
       inkscape:collect="always"
       xlink:href="#linearGradient3613"
       id="radialGradient4124"
       gradientUnits="userSpaceOnUse"
       gradientTransform="matrix(-0.69329871,-0.72065033,1.5947253,-1.5341989,34.86195,1618.021)"
       cx="546.42419"
       cy="483.09094"
       fx="546.42419"
       fy="483.09094"
       r="188.5625" />
    <radialGradient
       inkscape:collect="always"
       xlink:href="#linearGradient3593"
       id="radialGradient4126"
       gradientUnits="userSpaceOnUse"
       gradientTransform="matrix(-0.27745214,0.96073946,-2.1260179,-0.61397317,1349.6451,308.67479)"
       cx="546.42419"
       cy="483.09094"
       fx="546.42419"
       fy="483.09094"
       r="188.5625" />
    <radialGradient
       inkscape:collect="always"
       xlink:href="#linearGradient3627"
       id="radialGradient4128"
       gradientUnits="userSpaceOnUse"
       gradientTransform="matrix(0.97075085,-0.24008913,0.53129259,2.1481721,-441.68368,-175.29366)"
       cx="546.42419"
       cy="483.09094"
       fx="546.42419"
       fy="483.09094"
       r="188.5625" />
    <radialGradient
       inkscape:collect="always"
       xlink:href="#linearGradient3613"
       id="radialGradient4140"
       gradientUnits="userSpaceOnUse"
       gradientTransform="matrix(-0.69329871,-0.72065033,1.5947253,-1.5341989,34.86195,1618.021)"
       cx="546.42419"
       cy="483.09094"
       fx="546.42419"
       fy="483.09094"
       r="188.5625" />
    <radialGradient
       inkscape:collect="always"
       xlink:href="#linearGradient3593"
       id="radialGradient4142"
       gradientUnits="userSpaceOnUse"
       gradientTransform="matrix(-0.27745214,0.96073946,-2.1260179,-0.61397317,1349.6451,308.67479)"
       cx="546.42419"
       cy="483.09094"
       fx="546.42419"
       fy="483.09094"
       r="188.5625" />
    <radialGradient
       inkscape:collect="always"
       xlink:href="#linearGradient3627"
       id="radialGradient4144"
       gradientUnits="userSpaceOnUse"
       gradientTransform="matrix(0.97075085,-0.24008913,0.53129259,2.1481721,-441.68368,-175.29366)"
       cx="546.42419"
       cy="483.09094"
       fx="546.42419"
       fy="483.09094"
       r="188.5625" />
    <radialGradient
       inkscape:collect="always"
       xlink:href="#linearGradient4078"
       id="radialGradient4146"
       gradientUnits="userSpaceOnUse"
       gradientTransform="matrix(1,0,0,0.99889186,0,0.64687271)"
       cx="198.6714"
       cy="475.05429"
       fx="198.6714"
       fy="475.05429"
       r="168.77167" />
    <radialGradient
       inkscape:collect="always"
       xlink:href="#linearGradient4078"
       id="radialGradient4148"
       gradientUnits="userSpaceOnUse"
       gradientTransform="matrix(-0.7714579,0,0,-0.77060302,556.92101,1033.5827)"
       cx="198.6714"
       cy="475.05429"
       fx="198.6714"
       fy="475.05429"
       r="168.77167" />
    <radialGradient
       inkscape:collect="always"
       xlink:href="#linearGradient4114"
       id="radialGradient4150"
       gradientUnits="userSpaceOnUse"
       gradientTransform="matrix(-1.210941,0,0,-1.2095991,694.99967,1289.8419)"
       cx="198.6714"
       cy="475.05429"
       fx="198.6714"
       fy="475.05429"
       r="168.77167" />
    <radialGradient
       inkscape:collect="always"
       xlink:href="#linearGradient4114"
       id="radialGradient4152"
       gradientUnits="userSpaceOnUse"
       gradientTransform="matrix(0.77145788,0,0,0.77060299,72.161239,133.92049)"
       cx="198.6714"
       cy="475.05429"
       fx="198.6714"
       fy="475.05429"
       r="168.77167" />
    <inkscape:perspective
       id="perspective4170"
       inkscape:persp3d-origin="0.5 : 0.33333333 : 1"
       inkscape:vp_z="1 : 0.5 : 1"
       inkscape:vp_y="0 : 1000 : 0"
       inkscape:vp_x="0 : 0.5 : 1"
       sodipodi:type="inkscape:persp3d" />
    <radialGradient
       inkscape:collect="always"
       xlink:href="#linearGradient3627-2"
       id="radialGradient4144-5"
       gradientUnits="userSpaceOnUse"
       gradientTransform="matrix(0.97075085,-0.24008913,0.53129259,2.1481721,-441.68368,-175.29366)"
       cx="546.42419"
       cy="483.09094"
       fx="546.42419"
       fy="483.09094"
       r="188.5625" />
    <linearGradient
       id="linearGradient3627-2">
      <stop
         style="stop-color:#ffff00;stop-opacity:1;"
         offset="0"
         id="stop3629-3" />
      <stop
         style="stop-color:#ffff00;stop-opacity:0;"
         offset="1"
         id="stop3631-1" />
    </linearGradient>
    <filter
       inkscape:collect="always"
       id="filter4202">
      <feGaussianBlur
         inkscape:collect="always"
         stdDeviation="1.8860205"
         id="feGaussianBlur4204" />
    </filter>
    <radialGradient
       inkscape:collect="always"
       xlink:href="#linearGradient3613"
       id="radialGradient4219"
       gradientUnits="userSpaceOnUse"
       gradientTransform="matrix(-0.69329871,-0.72065033,1.5947253,-1.5341989,34.86195,1618.021)"
       cx="546.42419"
       cy="483.09094"
       fx="546.42419"
       fy="483.09094"
       r="188.5625" />
    <radialGradient
       inkscape:collect="always"
       xlink:href="#linearGradient3593"
       id="radialGradient4221"
       gradientUnits="userSpaceOnUse"
       gradientTransform="matrix(-0.27745214,0.96073946,-2.1260179,-0.61397317,1349.6451,308.67479)"
       cx="546.42419"
       cy="483.09094"
       fx="546.42419"
       fy="483.09094"
       r="188.5625" />
    <radialGradient
       inkscape:collect="always"
       xlink:href="#linearGradient3627"
       id="radialGradient4223"
       gradientUnits="userSpaceOnUse"
       gradientTransform="matrix(0.97075085,-0.24008913,0.53129259,2.1481721,-441.68368,-175.29366)"
       cx="546.42419"
       cy="483.09094"
       fx="546.42419"
       fy="483.09094"
       r="188.5625" />
    <radialGradient
       inkscape:collect="always"
       xlink:href="#linearGradient4078"
       id="radialGradient4225"
       gradientUnits="userSpaceOnUse"
       gradientTransform="matrix(0.5,0.8660254,-0.86506573,0.49944593,662.37497,20.060229)"
       cx="198.6714"
       cy="475.05429"
       fx="198.6714"
       fy="475.05429"
       r="168.77167" />
    <radialGradient
       inkscape:collect="always"
       xlink:href="#linearGradient4078"
       id="radialGradient4227"
       gradientUnits="userSpaceOnUse"
       gradientTransform="matrix(-1.0516505,-0.71417444,0.8247997,-1.2145505,135.42584,1424.9194)"
       cx="198.6714"
       cy="475.05429"
       fx="198.6714"
       fy="475.05429"
       r="168.77167" />
    <radialGradient
       inkscape:collect="always"
       xlink:href="#linearGradient4114"
       id="radialGradient4229"
       gradientUnits="userSpaceOnUse"
       gradientTransform="matrix(-0.6054705,-1.0487057,1.0475435,-0.60479955,-106.76859,1266.4209)"
       cx="198.6714"
       cy="475.05429"
       fx="198.6714"
       fy="475.05429"
       r="168.77167" />
    <radialGradient
       inkscape:collect="always"
       xlink:href="#linearGradient4114"
       id="radialGradient4231"
       gradientUnits="userSpaceOnUse"
       gradientTransform="matrix(0,0.74850387,-0.74767441,0,751.06754,348.51257)"
       cx="198.6714"
       cy="475.05429"
       fx="198.6714"
       fy="475.05429"
       r="168.77167" />
    <radialGradient
       inkscape:collect="always"
       xlink:href="#linearGradient4114"
       id="radialGradient4235"
       gradientUnits="userSpaceOnUse"
       gradientTransform="matrix(0,0.77107538,-0.77022091,0,764.22802,341.41822)"
       cx="198.6714"
       cy="475.05429"
       fx="198.6714"
       fy="475.05429"
       r="168.77167" />
  </defs>
  <sodipodi:namedview
     id="base"
     pagecolor="#ffffff"
     bordercolor="#666666"
     borderopacity="1.0"
     inkscape:pageopacity="0.0"
     inkscape:pageshadow="2"
     inkscape:zoom="0.35"
     inkscape:cx="426.9779"
     inkscape:cy="109.19557"
     inkscape:document-units="px"
     inkscape:current-layer="g4208"
     showgrid="false"
     inkscape:window-width="1920"
     inkscape:window-height="1177"
     inkscape:window-x="-9"
     inkscape:window-y="-9"
     inkscape:window-maximized="1" />
  <metadata
     id="metadata7">
    <rdf:RDF>
      <cc:Work
         rdf:about="">
        <dc:format>image/svg+xml</dc:format>
        <dc:type
           rdf:resource="http://purl.org/dc/dcmitype/StillImage" />
        <dc:title></dc:title>
      </cc:Work>
    </rdf:RDF>
  </metadata>
  <g
     inkscape:label="Layer 1"
     inkscape:groupmode="layer"
     id="layer1"
     transform="translate(-125.60109,-372.40646)">
    <g
       id="g4130"
       transform="translate(3.059965,-19.402012)">
      <path
         style="fill:#000000;fill-opacity:1;stroke:none;opacity:0.20000000000000001;filter:url(#filter4202)"
         d="M 493.28271,691.86835 C 545.35526,601.67603 514.45635,486.35974 424.26403,434.28718 334.07171,382.21462 218.72836,413.0979 166.6558,503.29022 c -52.07256,90.19232 -21.14659,205.52423 69.04573,257.59679 90.19232,52.07256 205.50861,21.17366 257.58118,-69.01866 z m -69.28204,-40.00001 c -29.98117,51.92891 -96.37023,69.71781 -148.29914,39.73664 -51.92891,-29.98117 -69.74486,-96.38585 -39.76369,-148.31476 29.98117,-51.92891 96.39729,-69.70218 148.32619,-39.72101 51.92891,29.98117 69.71781,96.37022 39.73664,148.29913 z"
         id="path3621-6" />
      <g
         id="g4208"
         transform="matrix(0.5,-0.8660254,0.8660254,0.5,-348.38219,563.74017)">
        <path
           id="path4200"
           d="m 309.90625,393.03125 c -60.49582,0.93992 -119.5261,32.75915 -153.1875,82.84375 -33.02827,47.50435 -42.33357,110.7364 -24.25,165.78125 17.84639,57.29769 64.45619,104.24518 121.4375,122.8125 60.69562,20.74291 131.28435,7.59701 180.53125,-33.15625 49.40349,-39.71693 76.60443,-105.49111 68.95207,-168.83763 -6.24291,-59.32293 -42.25314,-114.5533 -94.13957,-143.94362 -29.95523,-17.31621 -64.65077,-26.348 -99.34375,-25.5 z M 313.03125,477 c 42.85966,-0.92892 84.39475,26.89356 99.84375,66.84375 14.78762,35.64203 7.7531,79.27143 -17.46875,108.5625 -26.47843,31.99731 -72.44994,45.68912 -112.18027,33.22528 -36.2731,-10.4653 -65.88419,-42.42396 -73.38223,-79.44403 -9.42009,-40.49429 8.00815,-85.45974 41.9375,-109.15625 17.70157,-12.84302 39.39717,-19.79823 61.25,-20.03125 z"
           style="fill:#000000;fill-opacity:1;stroke:none" />
        <g
           id="g4026">
          <path
             id="path2816"
             d="m 314.28125,395.21875 c -104.14512,0 -188.5625,84.41738 -188.5625,188.5625 0,104.14512 84.41738,188.59375 188.5625,188.59375 104.14512,0 188.5625,-84.44863 188.5625,-188.59375 0,-104.14512 -84.41738,-188.5625 -188.5625,-188.5625 z m 0,80 c 59.96234,0 108.5625,48.60016 108.5625,108.5625 0,59.96234 -48.60016,108.59375 -108.5625,108.59375 -59.96234,0 -108.5625,-48.63141 -108.5625,-108.59375 0,-59.96234 48.60016,-108.5625 108.5625,-108.5625 z"
             style="fill:url(#radialGradient4219);fill-opacity:1;stroke:none" />
          <path
             style="fill:url(#radialGradient4221);fill-opacity:1;stroke:none"
             d="m 150.95761,678.0917 c 52.07256,90.19232 167.38884,121.09123 257.58116,69.01867 C 498.73109,695.03781 529.65706,579.7059 477.5845,489.51358 425.51194,399.32126 310.16859,368.43798 219.97627,420.51054 129.78395,472.5831 98.88505,587.89938 150.95761,678.0917 z m 69.28203,-40 c -29.98117,-51.92891 -12.19228,-118.31796 39.73663,-148.29913 51.92891,-29.98117 118.34503,-12.2079 148.3262,39.72101 29.98117,51.92891 12.16521,118.33359 -39.7637,148.31476 -51.92891,29.98117 -118.31796,12.19227 -148.29913,-39.73664 z"
             id="path3619" />
          <path
             id="path3621"
             d="M 477.5845,678.09171 C 529.65706,587.89939 498.75815,472.5831 408.56583,420.51054 318.37351,368.43798 203.03016,399.32126 150.9576,489.51358 98.88504,579.7059 129.81101,695.03781 220.00333,747.11037 310.19565,799.18293 425.51194,768.28403 477.5845,678.09171 z M 408.30247,638.0917 c -29.98117,51.92891 -96.37023,69.71781 -148.29914,39.73664 -51.92891,-29.98117 -69.74486,-96.38585 -39.76369,-148.31476 29.98117,-51.92891 96.39728,-69.70218 148.32619,-39.72101 51.92891,29.98117 69.71781,96.37022 39.73664,148.29913 z"
             style="fill:url(#radialGradient4223);fill-opacity:1;stroke:none" />
        </g>
        <path
           style="fill:url(#radialGradient4225);fill-opacity:1;stroke:none"
           d="M 459.93476,498.50475 C 422.83733,432.65272 337.725,399.21381 265.86596,422.11773 200.46832,441.68084 149.69225,503.58197 146.2023,571.85419 c -5.19577,66.40624 32.99747,134.82758 93.67636,163.25222 54.8369,27.41475 124.9465,22.14488 174.14313,-15.11301 45.18051,-32.76419 72.5063,-88.83751 68.80175,-144.55104 -1.28833,-26.92315 -8.90314,-53.71892 -22.88878,-76.93761 z m -33.97558,20.59008 c 33.43993,55.86429 15.72995,135.43775 -38.71215,171.19859 -49.2217,33.66884 -121.92176,28.35396 -163.43803,-15.08297 -39.51931,-38.84905 -50.38989,-104.50917 -22.44068,-152.7434 24.42408,-45.51708 78.22489,-74.39876 129.67799,-66.2289 38.96539,5.20794 75.18404,28.5939 94.91287,62.85668 z"
           id="path4054" />
        <path
           style="fill:url(#radialGradient4227);fill-opacity:1;stroke:none"
           d="M 395.97123,495.51291 C 353.8523,454.3128 280.14238,453.22463 236.38297,492.23605 c -37.58096,32.07746 -52.98093,88.05199 -34.1811,134.15791 14.92983,39.77615 52.23805,70.89436 94.85838,76.06701 41.55339,6.27417 86.74506,-10.36338 112.03665,-44.62286 29.15931,-37.39339 34.73875,-92.39197 9.86733,-133.33041 -6.17165,-10.74575 -14.02248,-20.40935 -22.993,-28.99479 z m -4.04377,11.11484 c 35.91672,35.09775 42.82429,95.8726 13.92397,137.19654 -24.4261,37.56227 -73.05082,57.7467 -116.54284,46.29767 -42.01767,-9.59397 -77.44052,-46.44181 -82.64311,-89.75837 -6.8171,-42.79888 13.72471,-90.02235 52.67946,-110.97157 40.62067,-23.78141 97.12797,-18.91298 130.60556,15.3234 0.65882,0.63761 1.3187,1.27415 1.97696,1.91233 z"
           id="path4086" />
        <path
           id="path4110"
           d="M 473.85541,483.08453 C 426.73304,403.50585 315.41665,371.91038 233.22004,413.28142 163.20816,446.6493 117.11847,525.26106 126.89153,602.80421 c 6.47694,66.37377 50.40125,128.71192 112.92043,153.86972 60.45402,26.39445 135.73252,19.52839 187.99781,-22.14056 59.4027,-44.84926 90.20609,-125.97102 69.12798,-198.14594 -4.99183,-18.79994 -12.96924,-36.64133 -23.08234,-53.3029 z m -10.64668,15.20941 c 40.19778,67.8066 25.98043,162.75929 -34.62641,213.67326 -52.29485,47.02823 -134.21949,57.87731 -195.51049,22.84919 -59.80924,-31.61652 -98.54721,-101.87594 -88.83743,-169.66585 7.05155,-67.6609 57.38204,-130.91543 124.95584,-146.85263 71.2503,-19.55454 154.94842,10.78373 191.79795,76.2934 0.73982,1.23441 1.48172,2.46762 2.22051,3.70265 z"
           style="fill:url(#radialGradient4229);fill-opacity:1;stroke:none" />
        <path
           style="fill:url(#radialGradient4235);fill-opacity:1;stroke:none"
           d="m 311.88798,461.3862 c -51.08661,1.3523 -100.31252,36.85716 -114.11323,86.52617 -9.48945,32.44471 -6.50888,69.12224 11.62828,97.9085 22.41586,37.58138 65.14139,62.65444 109.37332,60.13786 47.46931,-1.6984 93.23011,-32.70503 109.5514,-77.71953 16.79958,-42.16574 7.98289,-93.57365 -23.50043,-126.58036 -23.29822,-25.70807 -57.92271,-41.49819 -92.93934,-40.27264 z m 1.38427,15.1626 c 40.18914,-0.6071 80.2417,22.83134 97.38189,59.55586 18.96292,37.71372 13.52623,86.66963 -15.41743,117.99203 -26.90769,31.25227 -73.49249,45.9612 -112.98179,31.84143 -43.39494,-13.6736 -77.04814,-57.20689 -74.83114,-103.47646 -0.26283,-50.53129 40.19368,-98.40011 90.57615,-104.66043 5.01178,-0.80682 10.14655,-1.19604 15.27232,-1.25243 z"
           id="path4120" />
      </g>
    </g>
  </g>
</svg>
