<?xml version="1.0" encoding="UTF-8" standalone="no"?>
<!-- Created with Inkscape (http://www.inkscape.org/) -->

<svg
   xmlns:dc="http://purl.org/dc/elements/1.1/"
   xmlns:cc="http://creativecommons.org/ns#"
   xmlns:rdf="http://www.w3.org/1999/02/22-rdf-syntax-ns#"
   xmlns:svg="http://www.w3.org/2000/svg"
   xmlns="http://www.w3.org/2000/svg"
   xmlns:xlink="http://www.w3.org/1999/xlink"
   xmlns:sodipodi="http://sodipodi.sourceforge.net/DTD/sodipodi-0.dtd"
   xmlns:inkscape="http://www.inkscape.org/namespaces/inkscape"
   width="320"
   height="320"
   id="svg2"
   sodipodi:version="0.32"
   inkscape:version="0.48.2 r9819"
   sodipodi:docname="Grid.svg"
   inkscape:output_extension="org.inkscape.output.svg.inkscape"
   version="1.0">
  <defs
     id="defs4">
    <linearGradient
       inkscape:collect="always"
       id="linearGradient4116">
      <stop
         style="stop-color:#ffffff;stop-opacity:1;"
         offset="0"
         id="stop4118" />
      <stop
         style="stop-color:#ffffff;stop-opacity:0;"
         offset="1"
         id="stop4120" />
    </linearGradient>
    <linearGradient
       id="linearGradient3480">
      <stop
         id="stop3482"
         offset="0"
         style="stop-color:#ff9393;stop-opacity:1;" />
      <stop
         style="stop-color:#ff4949;stop-opacity:1;"
         offset="0.26206896"
         id="stop3496" />
      <stop
         id="stop3484"
         offset="1"
         style="stop-color:#c80000;stop-opacity:1;" />
    </linearGradient>
    <linearGradient
       id="linearGradient3416">
      <stop
         style="stop-color:#ffffff;stop-opacity:1;"
         offset="0"
         id="stop3418" />
      <stop
         style="stop-color:#ffffff;stop-opacity:0;"
         offset="1"
         id="stop3422" />
    </linearGradient>
    <linearGradient
       id="linearGradient3404">
      <stop
         id="stop3406"
         offset="0"
         style="stop-color:#000000;stop-opacity:0;" />
      <stop
         style="stop-color:#000000;stop-opacity:0;"
         offset="0.5"
         id="stop3410" />
      <stop
         id="stop3408"
         offset="1"
         style="stop-color:#000000;stop-opacity:1;" />
    </linearGradient>
    <linearGradient
       id="linearGradient3365">
      <stop
         style="stop-color:#b08123;stop-opacity:1;"
         offset="0"
         id="stop3367" />
      <stop
         id="stop3377"
         offset="0.36598176"
         style="stop-color:#c79940;stop-opacity:1;" />
      <stop
         id="stop3369"
         offset="0.38967475"
         style="stop-color:#ebd09d;stop-opacity:1;" />
      <stop
         style="stop-color:#4e547a;stop-opacity:1;"
         offset="0.44260192"
         id="stop3373" />
      <stop
         style="stop-color:#161640;stop-opacity:1;"
         offset="1"
         id="stop3371" />
    </linearGradient>
    <linearGradient
       id="linearGradient3331">
      <stop
         style="stop-color:#ffffff;stop-opacity:1;"
         offset="0"
         id="stop3333" />
      <stop
         id="stop3339"
         offset="0.40627211"
         style="stop-color:#f4dc95;stop-opacity:0.49803922;" />
      <stop
         style="stop-color:#f4dc95;stop-opacity:0;"
         offset="1"
         id="stop3335" />
    </linearGradient>
    <linearGradient
       id="linearGradient3269">
      <stop
         id="stop3271"
         offset="0"
         style="stop-color:#ffffff;stop-opacity:1;" />
      <stop
         style="stop-color:#8793b4;stop-opacity:1;"
         offset="0.50120121"
         id="stop3273" />
      <stop
         id="stop3275"
         offset="1"
         style="stop-color:#161640;stop-opacity:1;" />
    </linearGradient>
    <radialGradient
       inkscape:collect="always"
       xlink:href="#linearGradient3269"
       id="radialGradient3325"
       gradientUnits="userSpaceOnUse"
       gradientTransform="matrix(0.6083335,0.4750004,-0.6154347,0.7881878,90.490086,29.911693)"
       cx="2.0203052"
       cy="145.74869"
       fx="2.0203052"
       fy="145.74869"
       r="15.152288" />
    <linearGradient
       id="linearGradient3272">
      <stop
         id="stop3274"
         offset="0"
         style="stop-color:#ffffff;stop-opacity:1;" />
      <stop
         style="stop-color:#bbd5c1;stop-opacity:1;"
         offset="0.5884158"
         id="stop3276" />
      <stop
         id="stop3278"
         offset="1"
         style="stop-color:#71c351;stop-opacity:1;" />
    </linearGradient>
    <linearGradient
       id="linearGradient3166">
      <stop
         style="stop-color:#d5ffff;stop-opacity:1;"
         offset="0"
         id="stop3168" />
      <stop
         id="stop3174"
         offset="0.24137931"
         style="stop-color:#87b492;stop-opacity:1;" />
      <stop
         style="stop-color:#396a25;stop-opacity:1;"
         offset="1"
         id="stop3170" />
    </linearGradient>
    <inkscape:perspective
       sodipodi:type="inkscape:persp3d"
       inkscape:vp_x="0 : 526.18109 : 1"
       inkscape:vp_y="0 : 1000 : 0"
       inkscape:vp_z="744.09448 : 526.18109 : 1"
       inkscape:persp3d-origin="372.04724 : 350.78739 : 1"
       id="perspective10" />
    <radialGradient
       inkscape:collect="always"
       xlink:href="#linearGradient3331"
       id="radialGradient3049"
       gradientUnits="userSpaceOnUse"
       gradientTransform="matrix(-0.00150515,0.38410663,-0.2090546,4.4993808e-6,447.3386,317.47998)"
       cx="364.35959"
       cy="280.03323"
       fx="364.35959"
       fy="280.03323"
       r="88.634109" />
    <radialGradient
       inkscape:collect="always"
       xlink:href="#linearGradient3331"
       id="radialGradient3072"
       gradientUnits="userSpaceOnUse"
       gradientTransform="matrix(-0.00150515,0.38410663,-0.2090546,4.4993808e-6,367.3386,317.47998)"
       cx="364.35959"
       cy="280.03323"
       fx="364.35959"
       fy="280.03323"
       r="88.634109" />
    <radialGradient
       inkscape:collect="always"
       xlink:href="#linearGradient3331"
       id="radialGradient3076"
       gradientUnits="userSpaceOnUse"
       gradientTransform="matrix(-0.00150515,0.38410663,-0.2090546,4.4993808e-6,287.3386,317.47998)"
       cx="364.35959"
       cy="280.03323"
       fx="364.35959"
       fy="280.03323"
       r="88.634109" />
    <radialGradient
       inkscape:collect="always"
       xlink:href="#linearGradient3331"
       id="radialGradient3084"
       gradientUnits="userSpaceOnUse"
       gradientTransform="matrix(-0.00150515,0.38410663,-0.2090546,4.4993808e-6,447.3386,237.47998)"
       cx="364.35959"
       cy="280.03323"
       fx="364.35959"
       fy="280.03323"
       r="88.634109" />
    <radialGradient
       inkscape:collect="always"
       xlink:href="#linearGradient3331"
       id="radialGradient3086"
       gradientUnits="userSpaceOnUse"
       gradientTransform="matrix(-0.00150515,0.38410663,-0.2090546,4.4993808e-6,367.3386,237.47998)"
       cx="364.35959"
       cy="280.03323"
       fx="364.35959"
       fy="280.03323"
       r="88.634109" />
    <radialGradient
       inkscape:collect="always"
       xlink:href="#linearGradient3331"
       id="radialGradient3088"
       gradientUnits="userSpaceOnUse"
       gradientTransform="matrix(-0.00150515,0.38410663,-0.2090546,4.4993808e-6,287.3386,237.47998)"
       cx="364.35959"
       cy="280.03323"
       fx="364.35959"
       fy="280.03323"
       r="88.634109" />
    <radialGradient
       inkscape:collect="always"
       xlink:href="#linearGradient3331"
       id="radialGradient3096"
       gradientUnits="userSpaceOnUse"
       gradientTransform="matrix(-0.00150515,0.38410663,-0.2090546,4.4993808e-6,447.3386,157.47998)"
       cx="364.35959"
       cy="280.03323"
       fx="364.35959"
       fy="280.03323"
       r="88.634109" />
    <radialGradient
       inkscape:collect="always"
       xlink:href="#linearGradient3331"
       id="radialGradient3098"
       gradientUnits="userSpaceOnUse"
       gradientTransform="matrix(-0.00150515,0.38410663,-0.2090546,4.4993808e-6,367.3386,157.47998)"
       cx="364.35959"
       cy="280.03323"
       fx="364.35959"
       fy="280.03323"
       r="88.634109" />
    <radialGradient
       inkscape:collect="always"
       xlink:href="#linearGradient3331"
       id="radialGradient3100"
       gradientUnits="userSpaceOnUse"
       gradientTransform="matrix(-0.00150515,0.38410663,-0.2090546,4.4993808e-6,287.3386,157.47998)"
       cx="364.35959"
       cy="280.03323"
       fx="364.35959"
       fy="280.03323"
       r="88.634109" />
    <radialGradient
       inkscape:collect="always"
       xlink:href="#linearGradient3331"
       id="radialGradient3112"
       gradientUnits="userSpaceOnUse"
       gradientTransform="matrix(-0.00150515,0.38410663,-0.2090546,4.4993808e-6,287.3386,77.47998)"
       cx="346.69315"
       cy="298.95251"
       fx="346.69315"
       fy="298.95251"
       r="88.634109" />
    <radialGradient
       inkscape:collect="always"
       xlink:href="#linearGradient3331"
       id="radialGradient3116"
       gradientUnits="userSpaceOnUse"
       gradientTransform="matrix(-0.38410663,-0.00150515,-4.4993808e-6,-0.2090546,316.96129,465.72886)"
       cx="364.35959"
       cy="280.03323"
       fx="364.35959"
       fy="280.03323"
       r="88.634109" />
    <radialGradient
       inkscape:collect="always"
       xlink:href="#linearGradient3331"
       id="radialGradient3120"
       gradientUnits="userSpaceOnUse"
       gradientTransform="matrix(-0.38410663,-0.00150515,-4.4993808e-6,-0.2090546,396.96129,465.72886)"
       cx="364.35959"
       cy="280.03323"
       fx="364.35959"
       fy="280.03323"
       r="88.634109" />
    <radialGradient
       inkscape:collect="always"
       xlink:href="#linearGradient3331"
       id="radialGradient3124"
       gradientUnits="userSpaceOnUse"
       gradientTransform="matrix(-0.38410663,-0.00150515,-4.4993808e-6,-0.2090546,476.96129,465.72886)"
       cx="364.35959"
       cy="280.03323"
       fx="364.35959"
       fy="280.03323"
       r="88.634109" />
    <radialGradient
       inkscape:collect="always"
       xlink:href="#linearGradient3331"
       id="radialGradient3128"
       gradientUnits="userSpaceOnUse"
       gradientTransform="matrix(-0.38410663,-0.00150515,-4.4993808e-6,-0.2090546,556.96129,465.72886)"
       cx="364.35959"
       cy="280.03323"
       fx="364.35959"
       fy="280.03323"
       r="88.634109" />
    <radialGradient
       inkscape:collect="always"
       xlink:href="#linearGradient3331"
       id="radialGradient3138"
       gradientUnits="userSpaceOnUse"
       gradientTransform="matrix(-0.38410663,-0.00150515,-4.4993808e-6,-0.2090546,316.96129,385.72886)"
       cx="364.35959"
       cy="280.03323"
       fx="364.35959"
       fy="280.03323"
       r="88.634109" />
    <radialGradient
       inkscape:collect="always"
       xlink:href="#linearGradient3331"
       id="radialGradient3140"
       gradientUnits="userSpaceOnUse"
       gradientTransform="matrix(-0.38410663,-0.00150515,-4.4993808e-6,-0.2090546,396.96129,385.72886)"
       cx="364.35959"
       cy="280.03323"
       fx="364.35959"
       fy="280.03323"
       r="88.634109" />
    <radialGradient
       inkscape:collect="always"
       xlink:href="#linearGradient3331"
       id="radialGradient3142"
       gradientUnits="userSpaceOnUse"
       gradientTransform="matrix(-0.38410663,-0.00150515,-4.4993808e-6,-0.2090546,476.96129,385.72886)"
       cx="364.35959"
       cy="280.03323"
       fx="364.35959"
       fy="280.03323"
       r="88.634109" />
    <radialGradient
       inkscape:collect="always"
       xlink:href="#linearGradient3331"
       id="radialGradient3144"
       gradientUnits="userSpaceOnUse"
       gradientTransform="matrix(-0.38410663,-0.00150515,-4.4993808e-6,-0.2090546,556.96129,385.72886)"
       cx="364.35959"
       cy="280.03323"
       fx="364.35959"
       fy="280.03323"
       r="88.634109" />
    <radialGradient
       inkscape:collect="always"
       xlink:href="#linearGradient3331"
       id="radialGradient3154"
       gradientUnits="userSpaceOnUse"
       gradientTransform="matrix(-0.38410663,-0.00150515,-4.4993808e-6,-0.2090546,316.96129,305.72886)"
       cx="364.35959"
       cy="280.03323"
       fx="364.35959"
       fy="280.03323"
       r="88.634109" />
    <radialGradient
       inkscape:collect="always"
       xlink:href="#linearGradient3331"
       id="radialGradient3156"
       gradientUnits="userSpaceOnUse"
       gradientTransform="matrix(-0.38410663,-0.00150515,-4.4993808e-6,-0.2090546,396.96129,305.72886)"
       cx="364.35959"
       cy="280.03323"
       fx="364.35959"
       fy="280.03323"
       r="88.634109" />
    <radialGradient
       inkscape:collect="always"
       xlink:href="#linearGradient3331"
       id="radialGradient3158"
       gradientUnits="userSpaceOnUse"
       gradientTransform="matrix(-0.38410663,-0.00150515,-4.4993808e-6,-0.2090546,476.96129,305.72886)"
       cx="364.35959"
       cy="280.03323"
       fx="364.35959"
       fy="280.03323"
       r="88.634109" />
    <radialGradient
       inkscape:collect="always"
       xlink:href="#linearGradient3331"
       id="radialGradient3160"
       gradientUnits="userSpaceOnUse"
       gradientTransform="matrix(-0.38410663,-0.00150515,-4.4993808e-6,-0.2090546,556.96129,305.72886)"
       cx="364.35959"
       cy="280.03323"
       fx="364.35959"
       fy="280.03323"
       r="88.634109" />
    <radialGradient
       inkscape:collect="always"
       xlink:href="#linearGradient3404"
       id="radialGradient3176"
       gradientUnits="userSpaceOnUse"
       gradientTransform="matrix(0.24490585,-0.24762934,0.12402352,0.17313419,103.71947,297.41134)"
       cx="377.18204"
       cy="247.98886"
       fx="377.18204"
       fy="247.98886"
       r="88.634109" />
    <radialGradient
       inkscape:collect="always"
       xlink:href="#linearGradient3404"
       id="radialGradient3980"
       gradientUnits="userSpaceOnUse"
       gradientTransform="matrix(0.24490585,-0.24762934,0.12402352,0.17313419,183.71947,297.41134)"
       cx="377.18204"
       cy="247.98886"
       fx="377.18204"
       fy="247.98886"
       r="88.634109" />
    <radialGradient
       inkscape:collect="always"
       xlink:href="#linearGradient3404"
       id="radialGradient3984"
       gradientUnits="userSpaceOnUse"
       gradientTransform="matrix(0.24490585,-0.24762934,0.12402352,0.17313419,263.71947,297.41134)"
       cx="377.18204"
       cy="247.98886"
       fx="377.18204"
       fy="247.98886"
       r="88.634109" />
    <radialGradient
       inkscape:collect="always"
       xlink:href="#linearGradient3404"
       id="radialGradient3992"
       gradientUnits="userSpaceOnUse"
       gradientTransform="matrix(0.24490585,-0.24762934,0.12402352,0.17313419,103.71947,377.41134)"
       cx="377.18204"
       cy="247.98886"
       fx="377.18204"
       fy="247.98886"
       r="88.634109" />
    <radialGradient
       inkscape:collect="always"
       xlink:href="#linearGradient3404"
       id="radialGradient3994"
       gradientUnits="userSpaceOnUse"
       gradientTransform="matrix(0.24490585,-0.24762934,0.12402352,0.17313419,183.71947,377.41134)"
       cx="377.18204"
       cy="247.98886"
       fx="377.18204"
       fy="247.98886"
       r="88.634109" />
    <radialGradient
       inkscape:collect="always"
       xlink:href="#linearGradient3404"
       id="radialGradient3996"
       gradientUnits="userSpaceOnUse"
       gradientTransform="matrix(0.24490585,-0.24762934,0.12402352,0.17313419,263.71947,377.41134)"
       cx="377.18204"
       cy="247.98886"
       fx="377.18204"
       fy="247.98886"
       r="88.634109" />
    <radialGradient
       inkscape:collect="always"
       xlink:href="#linearGradient3404"
       id="radialGradient4004"
       gradientUnits="userSpaceOnUse"
       gradientTransform="matrix(0.24490585,-0.24762934,0.12402352,0.17313419,103.71947,457.41134)"
       cx="377.18204"
       cy="247.98886"
       fx="377.18204"
       fy="247.98886"
       r="88.634109" />
    <radialGradient
       inkscape:collect="always"
       xlink:href="#linearGradient3404"
       id="radialGradient4006"
       gradientUnits="userSpaceOnUse"
       gradientTransform="matrix(0.24490585,-0.24762934,0.12402352,0.17313419,183.71947,457.41134)"
       cx="377.18204"
       cy="247.98886"
       fx="377.18204"
       fy="247.98886"
       r="88.634109" />
    <radialGradient
       inkscape:collect="always"
       xlink:href="#linearGradient3404"
       id="radialGradient4008"
       gradientUnits="userSpaceOnUse"
       gradientTransform="matrix(0.24490585,-0.24762934,0.12402352,0.17313419,263.71947,457.41134)"
       cx="377.18204"
       cy="247.98886"
       fx="377.18204"
       fy="247.98886"
       r="88.634109" />
    <radialGradient
       inkscape:collect="always"
       xlink:href="#linearGradient3331"
       id="radialGradient4012"
       gradientUnits="userSpaceOnUse"
       gradientTransform="matrix(-0.00150515,0.38410663,-0.2090546,4.4993808e-6,367.3386,77.47998)"
       cx="346.69315"
       cy="298.95251"
       fx="346.69315"
       fy="298.95251"
       r="88.634109" />
    <radialGradient
       inkscape:collect="always"
       xlink:href="#linearGradient3331"
       id="radialGradient4016"
       gradientUnits="userSpaceOnUse"
       gradientTransform="matrix(-0.00150515,0.38410663,-0.2090546,4.4993808e-6,447.3386,77.47998)"
       cx="346.69315"
       cy="298.95251"
       fx="346.69315"
       fy="298.95251"
       r="88.634109" />
    <radialGradient
       inkscape:collect="always"
       xlink:href="#linearGradient4116"
       id="radialGradient4122"
       cx="69.642853"
       cy="75.714294"
       fx="69.642853"
       fy="75.714294"
       r="4.6428571"
       gradientTransform="matrix(1,0,0,0.92307691,0,5.8241777)"
       gradientUnits="userSpaceOnUse" />
    <radialGradient
       inkscape:collect="always"
       xlink:href="#linearGradient4116"
       id="radialGradient4126"
       gradientUnits="userSpaceOnUse"
       gradientTransform="matrix(1,0,0,0.92307691,0,5.8241777)"
       cx="69.642853"
       cy="75.714294"
       fx="69.642853"
       fy="75.714294"
       r="4.6428571" />
    <radialGradient
       inkscape:collect="always"
       xlink:href="#linearGradient4116"
       id="radialGradient4130"
       gradientUnits="userSpaceOnUse"
       gradientTransform="matrix(1,0,0,0.92307691,0,5.8241777)"
       cx="69.642853"
       cy="75.714294"
       fx="69.642853"
       fy="75.714294"
       r="4.6428571" />
    <radialGradient
       inkscape:collect="always"
       xlink:href="#linearGradient4116"
       id="radialGradient4138"
       gradientUnits="userSpaceOnUse"
       gradientTransform="matrix(1,0,0,0.92307691,0,5.8241777)"
       cx="69.642853"
       cy="75.714294"
       fx="69.642853"
       fy="75.714294"
       r="4.6428571" />
    <radialGradient
       inkscape:collect="always"
       xlink:href="#linearGradient4116"
       id="radialGradient4140"
       gradientUnits="userSpaceOnUse"
       gradientTransform="matrix(1,0,0,0.92307691,0,5.8241777)"
       cx="69.642853"
       cy="75.714294"
       fx="69.642853"
       fy="75.714294"
       r="4.6428571" />
    <radialGradient
       inkscape:collect="always"
       xlink:href="#linearGradient4116"
       id="radialGradient4142"
       gradientUnits="userSpaceOnUse"
       gradientTransform="matrix(1,0,0,0.92307691,0,5.8241777)"
       cx="69.642853"
       cy="75.714294"
       fx="69.642853"
       fy="75.714294"
       r="4.6428571" />
    <radialGradient
       inkscape:collect="always"
       xlink:href="#linearGradient4116"
       id="radialGradient4150"
       gradientUnits="userSpaceOnUse"
       gradientTransform="matrix(1,0,0,0.92307691,0,5.8241777)"
       cx="69.642853"
       cy="75.714294"
       fx="69.642853"
       fy="75.714294"
       r="4.6428571" />
    <radialGradient
       inkscape:collect="always"
       xlink:href="#linearGradient4116"
       id="radialGradient4152"
       gradientUnits="userSpaceOnUse"
       gradientTransform="matrix(1,0,0,0.92307691,0,5.8241777)"
       cx="69.642853"
       cy="75.714294"
       fx="69.642853"
       fy="75.714294"
       r="4.6428571" />
    <radialGradient
       inkscape:collect="always"
       xlink:href="#linearGradient4116"
       id="radialGradient4154"
       gradientUnits="userSpaceOnUse"
       gradientTransform="matrix(1,0,0,0.92307691,0,5.8241777)"
       cx="69.642853"
       cy="75.714294"
       fx="69.642853"
       fy="75.714294"
       r="4.6428571" />
    <filter
       inkscape:collect="always"
       id="filter4191">
      <feGaussianBlur
         inkscape:collect="always"
         stdDeviation="4.4789055"
         id="feGaussianBlur4193" />
    </filter>
    <filter
       inkscape:collect="always"
       id="filter3930"
       x="-0.12453067"
       width="1.2490613"
       y="-0.071601975"
       height="1.1432039">
      <feGaussianBlur
         inkscape:collect="always"
         stdDeviation="1.4416027"
         id="feGaussianBlur3932" />
    </filter>
    <filter
       inkscape:collect="always"
       id="filter3934"
       x="-0.071601975"
       width="1.1432039"
       y="-0.12453067"
       height="1.2490613">
      <feGaussianBlur
         inkscape:collect="always"
         stdDeviation="1.4416027"
         id="feGaussianBlur3936" />
    </filter>
    <filter
       inkscape:collect="always"
       id="filter3938"
       x="-0.071601975"
       width="1.1432039"
       y="-0.12453067"
       height="1.2490613">
      <feGaussianBlur
         inkscape:collect="always"
         stdDeviation="1.4416027"
         id="feGaussianBlur3940" />
    </filter>
    <filter
       inkscape:collect="always"
       id="filter3942"
       x="-0.12453067"
       width="1.2490613"
       y="-0.071601975"
       height="1.1432039">
      <feGaussianBlur
         inkscape:collect="always"
         stdDeviation="1.4416027"
         id="feGaussianBlur3944" />
    </filter>
    <filter
       inkscape:collect="always"
       id="filter3946"
       x="-0.071601975"
       width="1.1432039"
       y="-0.12453067"
       height="1.2490613">
      <feGaussianBlur
         inkscape:collect="always"
         stdDeviation="1.4416027"
         id="feGaussianBlur3948" />
    </filter>
    <filter
       inkscape:collect="always"
       id="filter3950"
       x="-0.12453067"
       width="1.2490613"
       y="-0.071601975"
       height="1.1432039">
      <feGaussianBlur
         inkscape:collect="always"
         stdDeviation="1.4416027"
         id="feGaussianBlur3952" />
    </filter>
    <filter
       inkscape:collect="always"
       id="filter3954"
       x="-0.071601975"
       width="1.1432039"
       y="-0.12453067"
       height="1.2490613">
      <feGaussianBlur
         inkscape:collect="always"
         stdDeviation="1.4416027"
         id="feGaussianBlur3956" />
    </filter>
    <filter
       inkscape:collect="always"
       id="filter3958"
       x="-0.12453067"
       width="1.2490613"
       y="-0.071601975"
       height="1.1432039">
      <feGaussianBlur
         inkscape:collect="always"
         stdDeviation="1.4416027"
         id="feGaussianBlur3960" />
    </filter>
    <filter
       inkscape:collect="always"
       id="filter3962"
       x="-0.12453067"
       width="1.2490613"
       y="-0.071601975"
       height="1.1432039">
      <feGaussianBlur
         inkscape:collect="always"
         stdDeviation="1.4416027"
         id="feGaussianBlur3964" />
    </filter>
    <filter
       inkscape:collect="always"
       id="filter3966"
       x="-0.12453067"
       width="1.2490613"
       y="-0.071601975"
       height="1.1432039">
      <feGaussianBlur
         inkscape:collect="always"
         stdDeviation="1.4416027"
         id="feGaussianBlur3968" />
    </filter>
    <filter
       inkscape:collect="always"
       id="filter3970"
       x="-0.071601975"
       width="1.1432039"
       y="-0.12453067"
       height="1.2490613">
      <feGaussianBlur
         inkscape:collect="always"
         stdDeviation="1.4416027"
         id="feGaussianBlur3972" />
    </filter>
    <filter
       inkscape:collect="always"
       id="filter3975"
       x="-0.071601975"
       width="1.1432039"
       y="-0.12453067"
       height="1.2490613">
      <feGaussianBlur
         inkscape:collect="always"
         stdDeviation="1.4416027"
         id="feGaussianBlur3977" />
    </filter>
    <filter
       inkscape:collect="always"
       id="filter3979"
       x="-0.071601975"
       width="1.1432039"
       y="-0.12453067"
       height="1.2490613">
      <feGaussianBlur
         inkscape:collect="always"
         stdDeviation="1.4416027"
         id="feGaussianBlur3981" />
    </filter>
    <filter
       inkscape:collect="always"
       id="filter3983"
       x="-0.071601975"
       width="1.1432039"
       y="-0.12453067"
       height="1.2490613">
      <feGaussianBlur
         inkscape:collect="always"
         stdDeviation="1.4416027"
         id="feGaussianBlur3985" />
    </filter>
    <filter
       inkscape:collect="always"
       id="filter3987"
       x="-0.12453067"
       width="1.2490613"
       y="-0.071601975"
       height="1.1432039">
      <feGaussianBlur
         inkscape:collect="always"
         stdDeviation="1.4416027"
         id="feGaussianBlur3989" />
    </filter>
    <filter
       inkscape:collect="always"
       id="filter3991"
       x="-0.12453067"
       width="1.2490613"
       y="-0.071601975"
       height="1.1432039">
      <feGaussianBlur
         inkscape:collect="always"
         stdDeviation="1.4416027"
         id="feGaussianBlur3993" />
    </filter>
    <filter
       inkscape:collect="always"
       id="filter3995"
       x="-0.12453067"
       width="1.2490613"
       y="-0.071601975"
       height="1.1432039">
      <feGaussianBlur
         inkscape:collect="always"
         stdDeviation="1.4416027"
         id="feGaussianBlur3997" />
    </filter>
    <filter
       inkscape:collect="always"
       id="filter3999"
       x="-0.071601975"
       width="1.1432039"
       y="-0.12453067"
       height="1.2490613">
      <feGaussianBlur
         inkscape:collect="always"
         stdDeviation="1.4416027"
         id="feGaussianBlur4001" />
    </filter>
    <filter
       inkscape:collect="always"
       id="filter4003"
       x="-0.071601975"
       width="1.1432039"
       y="-0.12453067"
       height="1.2490613">
      <feGaussianBlur
         inkscape:collect="always"
         stdDeviation="1.4416027"
         id="feGaussianBlur4005" />
    </filter>
    <filter
       inkscape:collect="always"
       id="filter4007"
       x="-0.12453067"
       width="1.2490613"
       y="-0.071601975"
       height="1.1432039">
      <feGaussianBlur
         inkscape:collect="always"
         stdDeviation="1.4416027"
         id="feGaussianBlur4009" />
    </filter>
    <filter
       inkscape:collect="always"
       id="filter4011"
       x="-0.12453067"
       width="1.2490613"
       y="-0.071601975"
       height="1.1432039">
      <feGaussianBlur
         inkscape:collect="always"
         stdDeviation="1.4416027"
         id="feGaussianBlur4013" />
    </filter>
    <filter
       inkscape:collect="always"
       id="filter4015"
       x="-0.071601975"
       width="1.1432039"
       y="-0.12453067"
       height="1.2490613">
      <feGaussianBlur
         inkscape:collect="always"
         stdDeviation="1.4416027"
         id="feGaussianBlur4017" />
    </filter>
    <filter
       inkscape:collect="always"
       id="filter4019"
       x="-0.12453067"
       width="1.2490613"
       y="-0.071601975"
       height="1.1432039">
      <feGaussianBlur
         inkscape:collect="always"
         stdDeviation="1.4416027"
         id="feGaussianBlur4021" />
    </filter>
    <filter
       inkscape:collect="always"
       id="filter4023"
       x="-0.071601975"
       width="1.1432039"
       y="-0.12453067"
       height="1.2490613">
      <feGaussianBlur
         inkscape:collect="always"
         stdDeviation="1.4416027"
         id="feGaussianBlur4025" />
    </filter>
  </defs>
  <sodipodi:namedview
     id="base"
     pagecolor="#ffffff"
     bordercolor="#666666"
     borderopacity="1.0"
     inkscape:pageopacity="0.0"
     inkscape:pageshadow="2"
     inkscape:zoom="0.98994949"
     inkscape:cx="37.750471"
     inkscape:cy="122.13046"
     inkscape:document-units="px"
     inkscape:current-layer="layer1"
     showgrid="false"
     inkscape:window-width="1280"
     inkscape:window-height="1001"
     inkscape:window-x="1591"
     inkscape:window-y="-9"
     inkscape:window-maximized="1" />
  <metadata
     id="metadata7">
    <rdf:RDF>
      <cc:Work
         rdf:about="">
        <dc:format>image/svg+xml</dc:format>
        <dc:type
           rdf:resource="http://purl.org/dc/dcmitype/StillImage" />
        <dc:title />
      </cc:Work>
    </rdf:RDF>
  </metadata>
  <g
     inkscape:groupmode="layer"
     id="layer5"
     inkscape:label="Shadows"
     style="display:inline">
    <path
       style="opacity:0.29999999999999999;fill:#000000;fill-opacity:1;fill-rule:evenodd;stroke:none;display:inline;filter:url(#filter4191)"
       d="m 80.875,16.5 c -5.13152,2.797292 -10.516584,5.395266 -16.40625,6.03125 0,14.729167 0,29.458333 0,44.1875 -12.816965,-0.08865 -25.775637,-0.003 -38.5,0.0625 -1.817899,-0.05634 -7.545663,-2.582885 -6.3125,1.40625 1.30102,6.655998 -2.571172,12.692307 -5.34375,18.40625 3.084801,5.51905 5.9835,11.366462 6.8125,17.71875 14.447917,0 28.895833,0 43.34375,0 0,14.13542 0,28.27083 0,42.40625 -12.816965,-0.0887 -25.775637,-0.003 -38.5,0.0625 -1.817899,-0.0563 -7.545663,-2.58288 -6.3125,1.40625 1.30102,6.656 -2.571172,12.69231 -5.34375,18.40625 3.084801,5.51905 5.9835,11.36646 6.8125,17.71875 14.447917,0 28.895833,0 43.34375,0 0,14.13542 0,28.27083 0,42.40625 -12.816965,-0.0887 -25.775637,-0.003 -38.5,0.0625 -1.817899,-0.0563 -7.545663,-2.58288 -6.3125,1.40625 1.30102,6.656 -2.571172,12.69231 -5.34375,18.40625 3.084801,5.51905 5.9835,11.36646 6.8125,17.71875 14.447917,0 28.895833,0 43.34375,0 0.211249,14.39267 -0.420573,29.54832 0.3125,43.46875 6.35807,0.63094 12.150145,4.10718 17.6875,6.59375 6.051194,-2.79566 12.324812,-6.06665 19.1875,-5.34375 0.0199,-14.90625 0.0475,-29.8125 0.0625,-44.71875 14.25,0 28.5,0 42.75,0 0.21125,14.39267 -0.42057,29.54832 0.3125,43.46875 6.35807,0.63094 12.15014,4.10718 17.6875,6.59375 6.05119,-2.79566 12.32481,-6.06665 19.1875,-5.34375 0.0298,-14.90625 0.0712,-29.81249 0.0937,-44.71875 14.23958,0 28.47917,0 42.71875,0 0.21125,14.39267 -0.42057,29.54832 0.3125,43.46875 6.35807,0.63094 12.15014,4.10718 17.6875,6.59375 6.05119,-2.79566 12.32481,-6.06665 19.1875,-5.34375 0.0298,-14.90625 0.0713,-29.81249 0.0937,-44.71875 14.76835,-0.18963 30.21435,0.37785 44.5625,-0.28125 0.60746,-6.38437 4.15193,-12.15951 6.59375,-17.71875 -2.78801,-6.04703 -6.07336,-12.31814 -5.34375,-19.1875 -15.25,-0.0199 -30.5,-0.0474 -45.75,-0.0625 0.0134,-14.25001 0.0491,-28.49999 0.0625,-42.75 14.72643,-0.18991 30.13135,0.37823 44.4375,-0.28125 0.60746,-6.38437 4.15193,-12.15951 6.59375,-17.71875 -2.78801,-6.04703 -6.07336,-12.31814 -5.34375,-19.1875 -15.20833,-0.0199 -30.41666,-0.0474 -45.625,-0.0625 0.0134,-14.25001 0.0491,-28.49999 0.0625,-42.75 14.68462,-0.19008 30.04821,0.37845 44.3125,-0.28125 0.60746,-6.384367 4.15193,-12.159513 6.59375,-17.71875 -2.78801,-6.047034 -6.07336,-12.318142 -5.34375,-19.1875 -15.16667,-0.01987 -30.33333,-0.04743 -45.5,-0.0625 0.2666,-13.558024 -0.30981,-27.262384 0.0937,-40.71875 0.41713,-1.637468 1.92175,-6.569632 -1.5625,-5.21875 -6.64057,1.298306 -12.69073,-2.581483 -18.40625,-5.34375 -5.5513,3.071556 -11.32225,6.054553 -17.71875,6.75 0,14.8125 0,29.625 0,44.4375 -14.13542,-0.01331 -28.27083,-0.04922 -42.40625,-0.0625 0.26643,-13.505804 -0.30951,-27.158431 0.0937,-40.5625 0.41713,-1.637468 1.92175,-6.569632 -1.5625,-5.21875 -6.64057,1.298306 -12.69073,-2.581483 -18.40625,-5.34375 -5.5513,3.071556 -11.32225,6.054553 -17.71875,6.75 0,14.770833 0,29.541667 0,44.3125 -14.13542,-0.01331 -28.27083,-0.04922 -42.40625,-0.0625 0.26631,-13.464025 -0.3093,-27.075273 0.0937,-40.4375 0.41713,-1.637468 1.92175,-6.569632 -1.5625,-5.21875 C 93.95318,22.423306 87.903021,18.543517 82.1875,15.78125 L 81.310404,16.261565 80.875,16.5 z M 104,104.3125 c 13.48958,0 26.97917,0 40.46875,0 0,14.17708 0,28.35417 0,42.53125 -14.17709,-0.0134 -28.35416,-0.0492 -42.53125,-0.0625 0.0133,-14.15626 0.0492,-28.31249 0.0625,-42.46875 l 1,0 1,0 z m 80,0 c 13.48958,0 26.97917,0 40.46875,0 0,14.21875 0,28.4375 0,42.65625 -14.17709,-0.0134 -28.35416,-0.0492 -42.53125,-0.0625 0.0134,-14.19792 0.0491,-28.39583 0.0625,-42.59375 l 1,0 1,0 z m -80.125,80 c 13.53125,0 27.0625,0 40.59375,0 0,14.17708 0,28.35417 0,42.53125 -14.21876,-0.0134 -28.43749,-0.0491 -42.65625,-0.0625 0.0133,-14.15626 0.0492,-28.31249 0.0625,-42.46875 l 1,0 1,0 z m 80,0 c 13.53125,0 27.0625,0 40.59375,0 0,14.21875 0,28.4375 0,42.65625 -14.21876,-0.0134 -28.43749,-0.0491 -42.65625,-0.0625 0.0134,-14.19792 0.0491,-28.39583 0.0625,-42.59375 l 1,0 1,0 z"
       id="path4180"
       inkscape:connector-curvature="0" />
  </g>
  <g
     inkscape:label="Zoom"
     inkscape:groupmode="layer"
     id="layer1"
     transform="translate(-150.51273,-167.46855)"
     style="display:inline">
    <path
       style="fill:#aa4400;fill-opacity:1;fill-rule:evenodd;stroke:#000000;stroke-width:4.14007998;stroke-linecap:butt;stroke-linejoin:miter;stroke-miterlimit:4;stroke-opacity:0.38380283;stroke-dasharray:none"
       d="M 225.375,177.96875 C 220.28664,180.76748 214.87281,183.34203 209,184 c 0,14.72917 0,29.45833 0,44.1875 -12.78516,-0.0935 -25.93474,0.004 -38.53125,0.0625 -2.14879,-0.39248 -8.28067,-2.47615 -6.15625,2.15625 0.82284,6.43559 -2.81285,12.1162 -5.46875,17.65625 3.04657,5.56591 5.99784,11.35533 6.78125,17.71875 14.45833,0 28.91667,0 43.375,0 0,14.13542 0,28.27083 0,42.40625 -12.78516,-0.0935 -25.93474,0.004 -38.53125,0.0625 -2.14879,-0.39248 -8.28067,-2.47615 -6.15625,2.15625 0.82284,6.43559 -2.81285,12.1162 -5.46875,17.65625 3.04657,5.56591 5.99784,11.35533 6.78125,17.71875 14.45833,0 28.91667,0 43.375,0 0,14.13542 0,28.27083 0,42.40625 -12.78516,-0.0935 -25.93474,0.004 -38.53125,0.0625 -2.14879,-0.39248 -8.28067,-2.47615 -6.15625,2.15625 0.82284,6.43559 -2.81285,12.1162 -5.46875,17.65625 3.04657,5.56591 5.99784,11.35533 6.78125,17.71875 14.45833,0 28.91667,0 43.375,0 0.18996,14.40347 -0.37829,29.48557 0.28125,43.46875 6.37039,0.62231 12.18647,4.14383 17.71875,6.59375 6.02992,-2.78991 12.32392,-6.07244 19.1875,-5.34375 0.0199,-14.90625 0.0475,-29.8125 0.0625,-44.71875 14.25,0 28.5,0 42.75,0 0.18996,14.40347 -0.37829,29.48557 0.28125,43.46875 6.37039,0.62231 12.18647,4.14383 17.71875,6.59375 6.02992,-2.78991 12.32392,-6.07244 19.1875,-5.34375 0.0298,-14.90625 0.0713,-29.81249 0.0937,-44.71875 14.23958,0 28.47917,0 42.71875,0 0.18996,14.40347 -0.37829,29.48557 0.28125,43.46875 6.37039,0.62231 12.18647,4.14383 17.71875,6.59375 6.02992,-2.78991 12.32392,-6.07244 19.1875,-5.34375 0.0298,-14.90625 0.0713,-29.81249 0.0937,-44.71875 14.76345,-0.19018 30.15901,0.37858 44.53125,-0.28125 0.67253,-6.34343 4.06791,-12.18519 6.625,-17.65625 -2.73446,-6.03536 -6.13169,-12.40212 -5.34375,-19.25 -15.25,-0.0199 -30.5,-0.0474 -45.75,-0.0625 0.0134,-14.25001 0.0491,-28.49999 0.0625,-42.75 14.72159,-0.19041 30.07594,0.3789 44.40625,-0.28125 0.67253,-6.34343 4.06791,-12.18519 6.625,-17.65625 -2.73446,-6.03536 -6.13169,-12.40212 -5.34375,-19.25 -15.20833,-0.0199 -30.41666,-0.0474 -45.625,-0.0625 0.0134,-14.25001 0.0491,-28.49999 0.0625,-42.75 14.67982,-0.19053 29.99274,0.37906 44.28125,-0.28125 0.67253,-6.34343 4.06791,-12.18519 6.625,-17.65625 -2.73446,-6.03536 -6.13169,-12.40212 -5.34375,-19.25 -15.16667,-0.0199 -30.33333,-0.0474 -45.5,-0.0625 0.0832,-13.19152 0.0105,-26.52622 -0.0625,-39.625 0.0788,-1.82914 2.5125,-7.56278 -1.40625,-6.3125 -6.63754,1.2899 -12.70042,-2.55449 -18.40625,-5.34375 -5.53901,3.05283 -11.32125,6.03623 -17.71875,6.75 0,14.8125 0,29.625 0,44.4375 -14.13542,-0.0133 -28.27083,-0.0492 -42.40625,-0.0625 0.0828,-13.13923 0.0111,-26.42236 -0.0625,-39.46875 0.0788,-1.82914 2.5125,-7.56278 -1.40625,-6.3125 -6.63754,1.2899 -12.70042,-2.55449 -18.40625,-5.34375 -5.53901,3.05283 -11.32125,6.03623 -17.71875,6.75 0,14.77083 0,29.54167 0,44.3125 -14.13542,-0.0133 -28.27083,-0.0492 -42.40625,-0.0625 0.0825,-13.0974 0.0116,-26.33927 -0.0625,-39.34375 0.0788,-1.82914 2.5125,-7.56278 -1.40625,-6.3125 -6.63754,1.2899 -12.70042,-2.55449 -18.40625,-5.34375 l -0.88178,0.47165 -0.46197,0.2471 z m 23.15625,87.8125 c 13.48958,0 26.97917,0 40.46875,0 0,14.17708 0,28.35417 0,42.53125 -14.17709,-0.0134 -28.35416,-0.0492 -42.53125,-0.0625 0.0133,-14.15626 0.0492,-28.31249 0.0625,-42.46875 l 1,0 1,0 z m 80,0 c 13.48958,0 26.97917,0 40.46875,0 0,14.21875 0,28.4375 0,42.65625 -14.17709,-0.0134 -28.35416,-0.0492 -42.53125,-0.0625 0.0134,-14.19792 0.0491,-28.39583 0.0625,-42.59375 l 1,0 1,0 z m -80.125,80 c 13.53125,0 27.0625,0 40.59375,0 0,14.17708 0,28.35417 0,42.53125 -14.21876,-0.0134 -28.43749,-0.0491 -42.65625,-0.0625 0.0133,-14.15626 0.0492,-28.31249 0.0625,-42.46875 l 1,0 1,0 z m 80,0 c 13.53125,0 27.0625,0 40.59375,0 0,14.21875 0,28.4375 0,42.65625 -14.21876,-0.0134 -28.43749,-0.0491 -42.65625,-0.0625 0.0134,-14.19792 0.0491,-28.39583 0.0625,-42.59375 l 1,0 1,0 z"
       id="path2424"
       inkscape:connector-curvature="0" />
    <path
       style="opacity:0.2;fill:#ffffff;fill-opacity:1;fill-rule:evenodd;stroke:none"
       d="m 300.21875,184.90625 c -4.24462,-0.0309 -7.1794,4.41208 -5.36878,8.2493 0.44687,13.77759 0.0343,27.56347 0.15003,41.34445 -19.61669,-1.64352 -39.90602,2.34559 -59.09375,-2.3125 -4.66127,-1.24195 -9.19072,-5.45705 -7.43978,-10.65583 0.37472,-11.35202 0.28313,-22.71863 -0.27897,-34.06292 -3.88235,-1.95867 -10.1159,-3.96404 -13.125,0.21875 -0.4569,14.07692 0.21106,28.20242 -0.0625,42.25 -0.23528,3.8219 -3.25324,5.60052 -7.03048,4.39011 -13.0295,-0.29087 -26.08135,-0.51982 -39.09452,0.35989 -1.85663,3.88758 -4.21612,12.16153 2,13.15625 12.47797,0.11524 25.02858,-0.88825 37.46875,0.6875 -0.0346,8.40818 9.33277,14.73398 6.65625,23.5625 0,14.11458 0,28.22917 0,42.34375 -15.37233,-0.24377 -30.76906,-0.79858 -46.125,0.25 -1.85663,3.88758 -4.21612,12.16153 2,13.15625 12.47797,0.11524 25.02858,-0.88825 37.46875,0.6875 -0.0346,8.40818 9.33277,14.73398 6.65625,23.5625 0,14.11458 0,28.22917 0,42.34375 -15.37233,-0.24377 -30.76906,-0.79858 -46.125,0.25 -1.85663,3.88758 -4.21612,12.16153 2,13.15625 12.46692,0.1363 25.00693,-0.89794 37.4375,0.65625 -0.09,8.44069 9.26019,14.60836 6.71875,23.46875 0.52328,7.61842 -1.7036,16.03421 1.28125,23.0625 3.71098,1.78695 10.91167,2.08106 12.10175,-2.53098 0.26531,-7.37736 -1.31458,-14.951 0.3045,-22.15652 1.73834,-5.73934 9.15448,-4.77322 12.09375,-9.5625 3.31353,-3.52932 4.99891,-8.27018 5.15625,-13.03125 14.11263,0.37502 28.25447,-0.58685 42.34375,0.59375 -0.22952,8.51496 9.29152,14.71055 6.71875,23.625 0.68171,7.62317 -2.02604,16.34501 1.59375,23.25 3.58426,1.54354 10.00292,1.68069 11.78125,-2.125 0.15146,-8.69397 -1.18708,-17.54442 0.90625,-26.09375 9.29908,-1.26652 16.61248,-9.93839 16.71875,-19.25 14.09178,0.37499 28.21284,-0.58692 42.28125,0.59375 -0.22952,8.51496 9.29152,14.71055 6.71875,23.625 0.68171,7.62317 -2.02604,16.34501 1.59375,23.25 3.58426,1.54354 10.00292,1.68069 11.78125,-2.125 0.15146,-8.69397 -1.18708,-17.54442 0.90625,-26.09375 9.23624,-1.25741 16.7716,-9.91847 16.5625,-19.28125 10.18861,-0.54819 21.31672,1.85679 30.875,-1.3125 1.62547,-3.61789 1.58623,-9.55022 -1.71875,-12 -14.72953,-0.95315 -31.6039,3.81453 -44.59375,-5.15625 -5.07776,-5.73816 -0.53217,-13.65765 -2.01958,-20.3431 -0.21213,-7.32228 -0.4011,-14.74986 0.98833,-21.93815 9.25569,-1.2842 16.53337,-9.93244 16.53125,-19.21875 10.15492,-0.54813 20.84569,1.65893 30.625,-1.09375 1.91118,-3.75004 1.87021,-10.23024 -1.875,-12.375 -11.56577,0.0206 -23.46944,1.60062 -34.90625,-0.78125 -5.77089,-1.27654 -12.7011,-4.90003 -11.5625,-11.875 1.18276,-11.48711 -0.85103,-23.17346 1.1875,-34.65625 9.17998,-1.32218 16.65044,-9.87855 16.4375,-19.21875 10.1861,-0.55391 20.9085,1.66356 30.71875,-1.09375 1.93838,-3.77505 1.74906,-9.7552 -1.5625,-12.34375 -11.62519,-0.11731 -23.50387,1.51186 -35.03125,-0.6875 -5.75686,-1.31721 -12.91383,-5.05337 -11.71875,-12.09375 0.82421,-11.37018 0.9539,-23.19446 -0.5,-34.375 -3.85406,-2.40872 -12.65749,-3.92298 -12.96875,2.6875 0.749,14.92263 0.0481,29.81813 0.21875,44.78125 -19.69172,-1.64431 -39.98679,2.40226 -59.28125,-2.40625 -4.80875,-1.4727 -9.10884,-6.13135 -7.35913,-11.43737 -0.0906,-11.0493 1.76093,-22.78577 -1.07837,-33.40638 -2.2701,-0.9814 -4.46372,-2.62941 -7.0625,-2.46875 z m -52.46875,62.875 c 13.5625,0 27.125,0 40.6875,0 -0.74038,8.79456 9.29888,15.21061 6.5625,24.21875 0,14.13542 0,28.27083 0,42.40625 -19.70285,-1.38775 -39.94988,2.32541 -59.28125,-2.1875 -5.13459,-1.41844 -9.41464,-6.59527 -7.25804,-12.02977 0.46061,-11.06956 -0.88346,-22.27513 0.97679,-33.25148 9.16399,-1.27384 16.51205,-9.8562 16.53125,-19.15625 l 1,0 0.78125,0 z m 80.0625,0 c 13.54167,0 27.08333,0 40.625,0 -0.74038,8.79456 9.29888,15.21061 6.5625,24.21875 0,14.20833 0,28.41667 0,42.625 -19.6885,-1.64727 -40.00271,2.40596 -59.28125,-2.40625 -4.9769,-1.52212 -9.43066,-6.48003 -7.28929,-11.87352 0.53592,-11.12502 -0.9261,-22.38369 1.03929,-33.40773 9.25183,-1.30983 16.39427,-9.8783 16.5625,-19.15625 l 1,0 0.78125,0 z m -80,80 c 13.54167,0 27.08333,0 40.625,0 -0.74038,8.79456 9.29888,15.21061 6.5625,24.21875 0,14.14583 0,28.29167 0,42.4375 -19.67449,-1.405 -39.92791,2.24853 -59.21875,-2.15625 -4.99862,-1.47498 -9.4344,-6.394 -7.40116,-11.81184 0.3189,-11.16397 -0.84291,-22.40733 0.90116,-33.50066 9.31664,-1.14035 16.63425,-9.97475 16.75,-19.1875 l 1,0 0.78125,0 z m 80,0 c 13.54167,0 27.08333,0 40.625,0 -0.74038,8.79456 9.29888,15.21061 6.5625,24.21875 0,14.20833 0,28.41667 0,42.625 -19.68261,-1.62254 -39.94854,2.34862 -59.25,-2.34375 -5.12325,-1.46692 -9.54321,-6.62473 -7.40181,-12.12436 0.4127,-11.0516 -0.88431,-22.23298 0.99556,-33.18814 9.30103,-1.21511 16.58639,-9.98704 16.6875,-19.1875 l 1,0 0.78125,0 z"
       id="path3158"
       inkscape:connector-curvature="0" />
    <path
       inkscape:connector-curvature="0"
       style="opacity:0.55800000000000005;fill:url(#radialGradient3049);fill-opacity:1;fill-rule:evenodd;stroke:none;filter:url(#filter4007)"
       d="m 391.53386,421.26599 -5.45851,-0.0105 c -1.69376,1.46865 -4.45281,2.73516 -8.48479,3.604 -5.90972,0.48143 -0.96804,4.07871 -2.75652,5.92946 -0.35843,11.37651 -3.02584,22.76707 -0.86182,34.02821 6.24493,0.65258 8.16318,6.49028 14.28777,4.24933 5.90985,-3.66441 11.28936,0.80308 11.97047,-5.44608 l 0.68659,-37.84986 c -4.67794,-1.01579 -7.76203,-2.64379 -9.38319,-4.50459 z"
       id="path3323"
       sodipodi:nodetypes="cccccccccc"
       transform="matrix(1,0,0,-1,-2.14871,655.00435)" />
    <path
       sodipodi:nodetypes="cccccccccc"
       id="path3070"
       d="m 311.53386,421.26599 -5.45851,-0.0105 c -1.69376,1.46865 -4.45281,2.73516 -8.48479,3.604 -5.90972,0.48143 -0.96804,4.07871 -2.75652,5.92946 -0.35843,11.37651 -3.02584,22.76707 -0.86182,34.02821 6.24493,0.65258 8.16318,6.49028 14.28777,4.24933 5.90985,-3.66441 11.28936,0.80308 11.97047,-5.44608 l 0.68659,-37.84986 c -4.67794,-1.01579 -7.76203,-2.64379 -9.38319,-4.50459 z"
       style="opacity:0.55800000000000005;fill:url(#radialGradient3072);fill-opacity:1;fill-rule:evenodd;stroke:none;filter:url(#filter4011)"
       inkscape:connector-curvature="0"
       transform="matrix(1,0,0,-1,-2.14871,655.00435)" />
    <path
       inkscape:connector-curvature="0"
       style="opacity:0.55800000000000005;fill:url(#radialGradient3076);fill-opacity:1;fill-rule:evenodd;stroke:none;filter:url(#filter4019)"
       d="m 231.53386,421.26599 -5.45851,-0.0105 c -1.69376,1.46865 -4.45281,2.73516 -8.48479,3.604 -5.90972,0.48143 -0.96804,4.07871 -2.75652,5.92946 -0.35843,11.37651 -3.02584,22.76707 -0.86182,34.02821 6.24493,0.65258 8.16318,6.49028 14.28777,4.24933 5.90985,-3.66441 11.28936,0.80308 11.97047,-5.44608 l 0.68659,-37.84986 c -4.67794,-1.01579 -7.76203,-2.64379 -9.38319,-4.50459 z"
       id="path3074"
       sodipodi:nodetypes="cccccccccc"
       transform="matrix(1,0,0,-1,-2.14871,655.00435)" />
    <path
       sodipodi:nodetypes="cccccccccc"
       id="path3078"
       d="m 391.53386,341.26599 -5.45851,-0.0105 c -1.69376,1.46865 -4.45281,2.73516 -8.48479,3.604 -5.90972,0.48143 -0.96804,4.07871 -2.75652,5.92946 -0.35843,11.37651 -3.02584,22.76707 -0.86182,34.02821 6.24493,0.65258 8.16318,6.49028 14.28777,4.24933 5.90985,-3.66441 11.28936,0.80308 11.97047,-5.44608 l 0.68659,-37.84986 c -4.67794,-1.01579 -7.76203,-2.64379 -9.38319,-4.50459 z"
       style="opacity:0.55800000000000005;fill:url(#radialGradient3084);fill-opacity:1;fill-rule:evenodd;stroke:none;filter:url(#filter3995)"
       inkscape:connector-curvature="0"
       transform="matrix(1,0,0,-1,-2.14871,655.00435)" />
    <path
       inkscape:connector-curvature="0"
       style="opacity:0.55800000000000005;fill:url(#radialGradient3086);fill-opacity:1;fill-rule:evenodd;stroke:none;filter:url(#filter3991)"
       d="m 311.53386,341.26599 -5.45851,-0.0105 c -1.69376,1.46865 -4.45281,2.73516 -8.48479,3.604 -5.90972,0.48143 -0.96804,4.07871 -2.75652,5.92946 -0.35843,11.37651 -3.02584,22.76707 -0.86182,34.02821 6.24493,0.65258 8.16318,6.49028 14.28777,4.24933 5.90985,-3.66441 11.28936,0.80308 11.97047,-5.44608 l 0.68659,-37.84986 c -4.67794,-1.01579 -7.76203,-2.64379 -9.38319,-4.50459 z"
       id="path3080"
       sodipodi:nodetypes="cccccccccc"
       transform="matrix(1,0,0,-1,-2.14871,655.00435)" />
    <path
       sodipodi:nodetypes="cccccccccc"
       id="path3082"
       d="m 231.53386,341.26599 -5.45851,-0.0105 c -1.69376,1.46865 -4.45281,2.73516 -8.48479,3.604 -5.90972,0.48143 -0.96804,4.07871 -2.75652,5.92946 -0.35843,11.37651 -3.02584,22.76707 -0.86182,34.02821 6.24493,0.65258 8.16318,6.49028 14.28777,4.24933 5.90985,-3.66441 11.28936,0.80308 11.97047,-5.44608 l 0.68659,-37.84986 c -4.67794,-1.01579 -7.76203,-2.64379 -9.38319,-4.50459 z"
       style="opacity:0.55800000000000005;fill:url(#radialGradient3088);fill-opacity:1;fill-rule:evenodd;stroke:none;filter:url(#filter3987)"
       inkscape:connector-curvature="0"
       transform="matrix(1,0,0,-1,-2.14871,655.00435)" />
    <path
       inkscape:connector-curvature="0"
       style="opacity:0.55800000000000005;fill:url(#radialGradient3096);fill-opacity:1;fill-rule:evenodd;stroke:none;filter:url(#filter3966)"
       d="m 391.53386,261.26599 -5.45851,-0.0105 c -1.69376,1.46865 -4.45281,2.73516 -8.48479,3.604 -5.90972,0.48143 -0.96804,4.07871 -2.75652,5.92946 -0.35843,11.37651 -3.02584,22.76707 -0.86182,34.02821 6.24493,0.65258 8.16318,6.49028 14.28777,4.24933 5.90985,-3.66441 11.28936,0.80308 11.97047,-5.44608 l 0.68659,-37.84986 c -4.67794,-1.01579 -7.76203,-2.64379 -9.38319,-4.50459 z"
       id="path3090"
       sodipodi:nodetypes="cccccccccc"
       transform="matrix(1,0,0,-1,-2.14871,655.00435)" />
    <path
       sodipodi:nodetypes="cccccccccc"
       id="path3092"
       d="m 311.53386,261.26599 -5.45851,-0.0105 c -1.69376,1.46865 -4.45281,2.73516 -8.48479,3.604 -5.90972,0.48143 -0.96804,4.07871 -2.75652,5.92946 -0.35843,11.37651 -3.02584,22.76707 -0.86182,34.02821 6.24493,0.65258 8.16318,6.49028 14.28777,4.24933 5.90985,-3.66441 11.28936,0.80308 11.97047,-5.44608 l 0.68659,-37.84986 c -4.67794,-1.01579 -7.76203,-2.64379 -9.38319,-4.50459 z"
       style="opacity:0.55800000000000005;fill:url(#radialGradient3098);fill-opacity:1;fill-rule:evenodd;stroke:none;filter:url(#filter3962)"
       inkscape:connector-curvature="0"
       transform="matrix(1,0,0,-1,-2.14871,655.00435)" />
    <path
       inkscape:connector-curvature="0"
       style="opacity:0.55800000000000005;fill:url(#radialGradient3100);fill-opacity:1;fill-rule:evenodd;stroke:none;filter:url(#filter3958)"
       d="m 231.53386,261.26599 -5.45851,-0.0105 c -1.69376,1.46865 -4.45281,2.73516 -8.48479,3.604 -5.90972,0.48143 -0.96804,4.07871 -2.75652,5.92946 -0.35843,11.37651 -3.02584,22.76707 -0.86182,34.02821 6.24493,0.65258 8.16318,6.49028 14.28777,4.24933 5.90985,-3.66441 11.28936,0.80308 11.97047,-5.44608 l 0.68659,-37.84986 c -4.67794,-1.01579 -7.76203,-2.64379 -9.38319,-4.50459 z"
       id="path3094"
       sodipodi:nodetypes="cccccccccc"
       transform="matrix(1,0,0,-1,-2.14871,655.00435)" />
    <path
       sodipodi:nodetypes="cccccccccc"
       id="path3106"
       d="m 231.53386,181.26599 -5.45851,-0.0105 c -1.69376,1.46865 -4.45281,2.73516 -8.48479,3.604 -5.90972,0.48143 -0.96804,4.07871 -2.75652,5.92946 -0.35843,11.37651 -3.02584,22.76707 -0.86182,34.02821 6.24493,0.65258 8.16318,6.49028 14.28777,4.24933 5.90985,-3.66441 11.28936,0.80308 11.97047,-5.44608 l 0.68659,-37.84986 c -4.67794,-1.01579 -7.76203,-2.64379 -9.38319,-4.50459 z"
       style="opacity:0.55800000000000005;fill:url(#radialGradient3112);fill-opacity:1;fill-rule:evenodd;stroke:none;filter:url(#filter3950)"
       inkscape:connector-curvature="0"
       transform="matrix(1,0,0,-1,-2.14871,655.00435)" />
    <path
       sodipodi:nodetypes="cccccccccc"
       id="path3114"
       d="m 213.17528,409.92412 0.0105,-5.45851 c -1.46865,-1.69376 -2.73516,-4.45281 -3.604,-8.48479 -0.48143,-5.90972 -4.07871,-0.96804 -5.92946,-2.75652 -11.37651,-0.35843 -22.76707,-3.02584 -34.02821,-0.86182 -0.65258,6.24493 -6.49028,8.16318 -4.24933,14.28777 3.66441,5.90985 -0.80308,11.28936 5.44608,11.97047 l 37.84986,0.68659 c 1.01579,-4.67794 2.64379,-7.76203 4.50459,-9.38319 z"
       style="opacity:0.55800000000000005;fill:url(#radialGradient3116);fill-opacity:1;fill-rule:evenodd;stroke:none;filter:url(#filter4023)"
       inkscape:connector-curvature="0"
       transform="matrix(1,0,0,-1,-2.14871,655.00435)" />
    <path
       inkscape:connector-curvature="0"
       style="opacity:0.55800000000000005;fill:url(#radialGradient3120);fill-opacity:1;fill-rule:evenodd;stroke:none;filter:url(#filter4015)"
       d="m 293.17528,409.92412 0.0105,-5.45851 c -1.46865,-1.69376 -2.73516,-4.45281 -3.604,-8.48479 -0.48143,-5.90972 -4.07871,-0.96804 -5.92946,-2.75652 -11.37651,-0.35843 -22.76707,-3.02584 -34.02821,-0.86182 -0.65258,6.24493 -6.49028,8.16318 -4.24933,14.28777 3.66441,5.90985 -0.80308,11.28936 5.44608,11.97047 l 37.84986,0.68659 c 1.01579,-4.67794 2.64379,-7.76203 4.50459,-9.38319 z"
       id="path3118"
       sodipodi:nodetypes="cccccccccc"
       transform="matrix(1,0,0,-1,-2.14871,655.00435)" />
    <path
       sodipodi:nodetypes="cccccccccc"
       id="path3122"
       d="m 373.17528,409.92412 0.0105,-5.45851 c -1.46865,-1.69376 -2.73516,-4.45281 -3.604,-8.48479 -0.48143,-5.90972 -4.07871,-0.96804 -5.92946,-2.75652 -11.37651,-0.35843 -22.76707,-3.02584 -34.02821,-0.86182 -0.65258,6.24493 -6.49028,8.16318 -4.24933,14.28777 3.66441,5.90985 -0.80308,11.28936 5.44608,11.97047 l 37.84986,0.68659 c 1.01579,-4.67794 2.64379,-7.76203 4.50459,-9.38319 z"
       style="opacity:0.55800000000000005;fill:url(#radialGradient3124);fill-opacity:1;fill-rule:evenodd;stroke:none;filter:url(#filter4003)"
       inkscape:connector-curvature="0"
       transform="matrix(1,0,0,-1,-2.14871,655.00435)" />
    <path
       inkscape:connector-curvature="0"
       style="opacity:0.55800000000000005;fill:url(#radialGradient3128);fill-opacity:1;fill-rule:evenodd;stroke:none;filter:url(#filter3999)"
       d="m 453.17528,409.92412 0.0105,-5.45851 c -1.46865,-1.69376 -2.73516,-4.45281 -3.604,-8.48479 -0.48143,-5.90972 -4.07871,-0.96804 -5.92946,-2.75652 -11.37651,-0.35843 -22.76707,-3.02584 -34.02821,-0.86182 -0.65258,6.24493 -6.49028,8.16318 -4.24933,14.28777 3.66441,5.90985 -0.80308,11.28936 5.44608,11.97047 l 37.84986,0.68659 c 1.01579,-4.67794 2.64379,-7.76203 4.50459,-9.38319 z"
       id="path3126"
       sodipodi:nodetypes="cccccccccc"
       transform="matrix(1,0,0,-1,-2.14871,655.00435)" />
    <path
       inkscape:connector-curvature="0"
       style="opacity:0.55800000000000005;fill:url(#radialGradient3138);fill-opacity:1;fill-rule:evenodd;stroke:none;filter:url(#filter3983)"
       d="m 213.17528,329.92412 0.0105,-5.45851 c -1.46865,-1.69376 -2.73516,-4.45281 -3.604,-8.48479 -0.48143,-5.90972 -4.07871,-0.96804 -5.92946,-2.75652 -11.37651,-0.35843 -22.76707,-3.02584 -34.02821,-0.86182 -0.65258,6.24493 -6.49028,8.16318 -4.24933,14.28777 3.66441,5.90985 -0.80308,11.28936 5.44608,11.97047 l 37.84986,0.68659 c 1.01579,-4.67794 2.64379,-7.76203 4.50459,-9.38319 z"
       id="path3130"
       sodipodi:nodetypes="cccccccccc"
       transform="matrix(1,0,0,-1,-2.14871,655.00435)" />
    <path
       sodipodi:nodetypes="cccccccccc"
       id="path3132"
       d="m 293.17528,329.92412 0.0105,-5.45851 c -1.46865,-1.69376 -2.73516,-4.45281 -3.604,-8.48479 -0.48143,-5.90972 -4.07871,-0.96804 -5.92946,-2.75652 -11.37651,-0.35843 -22.76707,-3.02584 -34.02821,-0.86182 -0.65258,6.24493 -6.49028,8.16318 -4.24933,14.28777 3.66441,5.90985 -0.80308,11.28936 5.44608,11.97047 l 37.84986,0.68659 c 1.01579,-4.67794 2.64379,-7.76203 4.50459,-9.38319 z"
       style="opacity:0.55800000000000005;fill:url(#radialGradient3140);fill-opacity:1;fill-rule:evenodd;stroke:none;filter:url(#filter3979)"
       inkscape:connector-curvature="0"
       transform="matrix(1,0,0,-1,-2.14871,655.00435)" />
    <path
       inkscape:connector-curvature="0"
       style="opacity:0.55800000000000005;fill:url(#radialGradient3142);fill-opacity:1;fill-rule:evenodd;stroke:none;filter:url(#filter3975)"
       d="m 373.17528,329.92412 0.0105,-5.45851 c -1.46865,-1.69376 -2.73516,-4.45281 -3.604,-8.48479 -0.48143,-5.90972 -4.07871,-0.96804 -5.92946,-2.75652 -11.37651,-0.35843 -22.76707,-3.02584 -34.02821,-0.86182 -0.65258,6.24493 -6.49028,8.16318 -4.24933,14.28777 3.66441,5.90985 -0.80308,11.28936 5.44608,11.97047 l 37.84986,0.68659 c 1.01579,-4.67794 2.64379,-7.76203 4.50459,-9.38319 z"
       id="path3134"
       sodipodi:nodetypes="cccccccccc"
       transform="matrix(1,0,0,-1,-2.14871,655.00435)" />
    <path
       sodipodi:nodetypes="cccccccccc"
       id="path3136"
       d="m 453.17528,329.92412 0.0105,-5.45851 c -1.46865,-1.69376 -2.73516,-4.45281 -3.604,-8.48479 -0.48143,-5.90972 -4.07871,-0.96804 -5.92946,-2.75652 -11.37651,-0.35843 -22.76707,-3.02584 -34.02821,-0.86182 -0.65258,6.24493 -6.49028,8.16318 -4.24933,14.28777 3.66441,5.90985 -0.80308,11.28936 5.44608,11.97047 l 37.84986,0.68659 c 1.01579,-4.67794 2.64379,-7.76203 4.50459,-9.38319 z"
       style="opacity:0.55800000000000005;fill:url(#radialGradient3144);fill-opacity:1;fill-rule:evenodd;stroke:none;filter:url(#filter3970)"
       inkscape:connector-curvature="0"
       transform="matrix(1,0,0,-1,-2.14871,655.00435)" />
    <path
       sodipodi:nodetypes="cccccccccc"
       id="path3146"
       d="m 213.17528,249.92412 0.0105,-5.45851 c -1.46865,-1.69376 -2.73516,-4.45281 -3.604,-8.48479 -0.48143,-5.90972 -4.07871,-0.96804 -5.92946,-2.75652 -11.37651,-0.35843 -22.76707,-3.02584 -34.02821,-0.86182 -0.65258,6.24493 -6.49028,8.16318 -4.24933,14.28777 3.66441,5.90985 -0.80308,11.28936 5.44608,11.97047 l 37.84986,0.68659 c 1.01579,-4.67794 2.64379,-7.76203 4.50459,-9.38319 z"
       style="opacity:0.55800000000000005;fill:url(#radialGradient3154);fill-opacity:1;fill-rule:evenodd;stroke:none;filter:url(#filter3954)"
       inkscape:connector-curvature="0"
       transform="matrix(1,0,0,-1,-2.14871,655.00435)" />
    <path
       inkscape:connector-curvature="0"
       style="opacity:0.55800000000000005;fill:url(#radialGradient3156);fill-opacity:1;fill-rule:evenodd;stroke:none;filter:url(#filter3946)"
       d="m 293.17528,249.92412 0.0105,-5.45851 c -1.46865,-1.69376 -2.73516,-4.45281 -3.604,-8.48479 -0.48143,-5.90972 -4.07871,-0.96804 -5.92946,-2.75652 -11.37651,-0.35843 -22.76707,-3.02584 -34.02821,-0.86182 -0.65258,6.24493 -6.49028,8.16318 -4.24933,14.28777 3.66441,5.90985 -0.80308,11.28936 5.44608,11.97047 l 37.84986,0.68659 c 1.01579,-4.67794 2.64379,-7.76203 4.50459,-9.38319 z"
       id="path3148"
       sodipodi:nodetypes="cccccccccc"
       transform="matrix(1,0,0,-1,-2.14871,655.00435)" />
    <path
       sodipodi:nodetypes="cccccccccc"
       id="path3150"
       d="m 373.17528,249.92412 0.0105,-5.45851 c -1.46865,-1.69376 -2.73516,-4.45281 -3.604,-8.48479 -0.48143,-5.90972 -4.07871,-0.96804 -5.92946,-2.75652 -11.37651,-0.35843 -22.76707,-3.02584 -34.02821,-0.86182 -0.65258,6.24493 -6.49028,8.16318 -4.24933,14.28777 3.66441,5.90985 -0.80308,11.28936 5.44608,11.97047 l 37.84986,0.68659 c 1.01579,-4.67794 2.64379,-7.76203 4.50459,-9.38319 z"
       style="opacity:0.55800000000000005;fill:url(#radialGradient3158);fill-opacity:1;fill-rule:evenodd;stroke:none;filter:url(#filter3938)"
       inkscape:connector-curvature="0"
       transform="matrix(1,0,0,-1,-2.14871,655.00435)" />
    <path
       inkscape:connector-curvature="0"
       style="opacity:0.55800000000000005;fill:url(#radialGradient3160);fill-opacity:1;fill-rule:evenodd;stroke:none;filter:url(#filter3934)"
       d="m 453.17528,249.92412 0.0105,-5.45851 c -1.46865,-1.69376 -2.73516,-4.45281 -3.604,-8.48479 -0.48143,-5.90972 -4.07871,-0.96804 -5.92946,-2.75652 -11.37651,-0.35843 -22.76707,-3.02584 -34.02821,-0.86182 -0.65258,6.24493 -6.49028,8.16318 -4.24933,14.28777 3.66441,5.90985 -0.80308,11.28936 5.44608,11.97047 l 37.84986,0.68659 c 1.01579,-4.67794 2.64379,-7.76203 4.50459,-9.38319 z"
       id="path3152"
       sodipodi:nodetypes="cccccccccc"
       transform="matrix(1,0,0,-1,-2.14871,655.00435)" />
    <path
       style="opacity:0.50000000000000000;fill:url(#radialGradient3176);fill-opacity:1;fill-rule:evenodd;stroke:none;"
       d="m 226.76094,264.62062 c 9.08952,0 16.44974,-7.52775 16.44974,-16.80555 0,-5.35335 -2.46299,-10.11633 -6.28221,-13.19445 0.34784,1.55076 0.54123,3.1873 0.54123,4.86112 0,10.81191 -7.70639,19.58332 -17.22294,19.58332 -2.50492,0 -4.88866,-0.62096 -7.03608,-1.71296 2.97255,4.38952 7.93053,7.26852 13.55026,7.26852 z"
       id="path3162"
       inkscape:connector-curvature="0" />
    <path
       inkscape:connector-curvature="0"
       id="path3978"
       d="m 306.76094,264.62062 c 9.08952,0 16.44974,-7.52775 16.44974,-16.80555 0,-5.35335 -2.46299,-10.11633 -6.28221,-13.19445 0.34784,1.55076 0.54123,3.1873 0.54123,4.86112 0,10.81191 -7.70639,19.58332 -17.22294,19.58332 -2.50492,0 -4.88866,-0.62096 -7.03608,-1.71296 2.97255,4.38952 7.93053,7.26852 13.55026,7.26852 z"
       style="opacity:0.50000000000000000;fill:url(#radialGradient3980);fill-opacity:1;fill-rule:evenodd;stroke:none;" />
    <path
       style="opacity:0.50000000000000000;fill:url(#radialGradient3984);fill-opacity:1;fill-rule:evenodd;stroke:none;"
       d="m 386.76094,264.62062 c 9.08952,0 16.44974,-7.52775 16.44974,-16.80555 0,-5.35335 -2.46299,-10.11633 -6.28221,-13.19445 0.34784,1.55076 0.54123,3.1873 0.54123,4.86112 0,10.81191 -7.70639,19.58332 -17.22294,19.58332 -2.50492,0 -4.88866,-0.62096 -7.03608,-1.71296 2.97255,4.38952 7.93053,7.26852 13.55026,7.26852 z"
       id="path3982"
       inkscape:connector-curvature="0" />
    <path
       inkscape:connector-curvature="0"
       id="path3986"
       d="m 226.76094,344.62062 c 9.08952,0 16.44974,-7.52775 16.44974,-16.80555 0,-5.35335 -2.46299,-10.11633 -6.28221,-13.19445 0.34784,1.55076 0.54123,3.1873 0.54123,4.86112 0,10.81191 -7.70639,19.58332 -17.22294,19.58332 -2.50492,0 -4.88866,-0.62096 -7.03608,-1.71296 2.97255,4.38952 7.93053,7.26852 13.55026,7.26852 z"
       style="opacity:0.50000000000000000;fill:url(#radialGradient3992);fill-opacity:1;fill-rule:evenodd;stroke:none;" />
    <path
       style="opacity:0.50000000000000000;fill:url(#radialGradient3994);fill-opacity:1;fill-rule:evenodd;stroke:none;"
       d="m 306.76094,344.62062 c 9.08952,0 16.44974,-7.52775 16.44974,-16.80555 0,-5.35335 -2.46299,-10.11633 -6.28221,-13.19445 0.34784,1.55076 0.54123,3.1873 0.54123,4.86112 0,10.81191 -7.70639,19.58332 -17.22294,19.58332 -2.50492,0 -4.88866,-0.62096 -7.03608,-1.71296 2.97255,4.38952 7.93053,7.26852 13.55026,7.26852 z"
       id="path3988"
       inkscape:connector-curvature="0" />
    <path
       inkscape:connector-curvature="0"
       id="path3990"
       d="m 386.76094,344.62062 c 9.08952,0 16.44974,-7.52775 16.44974,-16.80555 0,-5.35335 -2.46299,-10.11633 -6.28221,-13.19445 0.34784,1.55076 0.54123,3.1873 0.54123,4.86112 0,10.81191 -7.70639,19.58332 -17.22294,19.58332 -2.50492,0 -4.88866,-0.62096 -7.03608,-1.71296 2.97255,4.38952 7.93053,7.26852 13.55026,7.26852 z"
       style="opacity:0.50000000000000000;fill:url(#radialGradient3996);fill-opacity:1;fill-rule:evenodd;stroke:none;" />
    <path
       style="opacity:0.50000000000000000;fill:url(#radialGradient4004);fill-opacity:1;fill-rule:evenodd;stroke:none;"
       d="m 226.76094,424.62062 c 9.08952,0 16.44974,-7.52775 16.44974,-16.80555 0,-5.35335 -2.46299,-10.11633 -6.28221,-13.19445 0.34784,1.55076 0.54123,3.1873 0.54123,4.86112 0,10.81191 -7.70639,19.58332 -17.22294,19.58332 -2.50492,0 -4.88866,-0.62096 -7.03608,-1.71296 2.97255,4.38952 7.93053,7.26852 13.55026,7.26852 z"
       id="path3998"
       inkscape:connector-curvature="0" />
    <path
       inkscape:connector-curvature="0"
       id="path4000"
       d="m 306.76094,424.62062 c 9.08952,0 16.44974,-7.52775 16.44974,-16.80555 0,-5.35335 -2.46299,-10.11633 -6.28221,-13.19445 0.34784,1.55076 0.54123,3.1873 0.54123,4.86112 0,10.81191 -7.70639,19.58332 -17.22294,19.58332 -2.50492,0 -4.88866,-0.62096 -7.03608,-1.71296 2.97255,4.38952 7.93053,7.26852 13.55026,7.26852 z"
       style="opacity:0.50000000000000000;fill:url(#radialGradient4006);fill-opacity:1;fill-rule:evenodd;stroke:none;" />
    <path
       style="opacity:0.50000000000000000;fill:url(#radialGradient4008);fill-opacity:1;fill-rule:evenodd;stroke:none;"
       d="m 386.76094,424.62062 c 9.08952,0 16.44974,-7.52775 16.44974,-16.80555 0,-5.35335 -2.46299,-10.11633 -6.28221,-13.19445 0.34784,1.55076 0.54123,3.1873 0.54123,4.86112 0,10.81191 -7.70639,19.58332 -17.22294,19.58332 -2.50492,0 -4.88866,-0.62096 -7.03608,-1.71296 2.97255,4.38952 7.93053,7.26852 13.55026,7.26852 z"
       id="path4002"
       inkscape:connector-curvature="0" />
    <path
       inkscape:connector-curvature="0"
       style="opacity:0.55800000000000005;fill:url(#radialGradient4012);fill-opacity:1;fill-rule:evenodd;stroke:none;filter:url(#filter3942)"
       d="m 311.53386,181.26599 -5.45851,-0.0105 c -1.69376,1.46865 -4.45281,2.73516 -8.48479,3.604 -5.90972,0.48143 -0.96804,4.07871 -2.75652,5.92946 -0.35843,11.37651 -3.02584,22.76707 -0.86182,34.02821 6.24493,0.65258 8.16318,6.49028 14.28777,4.24933 5.90985,-3.66441 11.28936,0.80308 11.97047,-5.44608 l 0.68659,-37.84986 c -4.67794,-1.01579 -7.76203,-2.64379 -9.38319,-4.50459 z"
       id="path4010"
       sodipodi:nodetypes="cccccccccc"
       transform="matrix(1,0,0,-1,-2.14871,655.00435)" />
    <path
       sodipodi:nodetypes="cccccccccc"
       id="path4014"
       d="m 391.53386,181.26599 -5.45851,-0.0105 c -1.69376,1.46865 -4.45281,2.73516 -8.48479,3.604 -5.90972,0.48143 -0.96804,4.07871 -2.75652,5.92946 -0.35843,11.37651 -3.02584,22.76707 -0.86182,34.02821 6.24493,0.65258 8.16318,6.49028 14.28777,4.24933 5.90985,-3.66441 11.28936,0.80308 11.97047,-5.44608 l 0.68659,-37.84986 c -4.67794,-1.01579 -7.76203,-2.64379 -9.38319,-4.50459 z"
       style="opacity:0.55800000000000005;fill:url(#radialGradient4016);fill-opacity:1;fill-rule:evenodd;stroke:none;filter:url(#filter3930)"
       inkscape:connector-curvature="0"
       transform="matrix(1,0,0,-1,-2.14871,655.00435)" />
    <path
       sodipodi:type="arc"
       style="fill:url(#radialGradient4122);fill-opacity:1;stroke:none"
       id="path4114"
       sodipodi:cx="69.642853"
       sodipodi:cy="75.714294"
       sodipodi:rx="4.6428571"
       sodipodi:ry="4.2857141"
       d="m 74.28571,75.714294 a 4.6428571,4.2857141 0 1 1 -9.285714,0 4.6428571,4.2857141 0 1 1 9.285714,0 z"
       transform="matrix(2,0,0,2,85.287157,95.062216)" />
    <path
       transform="matrix(2,0,0,2,165.28716,95.062216)"
       d="m 74.28571,75.714294 a 4.6428571,4.2857141 0 1 1 -9.285714,0 4.6428571,4.2857141 0 1 1 9.285714,0 z"
       sodipodi:ry="4.2857141"
       sodipodi:rx="4.6428571"
       sodipodi:cy="75.714294"
       sodipodi:cx="69.642853"
       id="path4124"
       style="fill:url(#radialGradient4126);fill-opacity:1;stroke:none"
       sodipodi:type="arc" />
    <path
       sodipodi:type="arc"
       style="fill:url(#radialGradient4130);fill-opacity:1;stroke:none"
       id="path4128"
       sodipodi:cx="69.642853"
       sodipodi:cy="75.714294"
       sodipodi:rx="4.6428571"
       sodipodi:ry="4.2857141"
       d="m 74.28571,75.714294 a 4.6428571,4.2857141 0 1 1 -9.285714,0 4.6428571,4.2857141 0 1 1 9.285714,0 z"
       transform="matrix(2,0,0,2,245.28716,95.062216)" />
    <path
       transform="matrix(2,0,0,2,85.287157,175.06222)"
       d="m 74.28571,75.714294 a 4.6428571,4.2857141 0 1 1 -9.285714,0 4.6428571,4.2857141 0 1 1 9.285714,0 z"
       sodipodi:ry="4.2857141"
       sodipodi:rx="4.6428571"
       sodipodi:cy="75.714294"
       sodipodi:cx="69.642853"
       id="path4132"
       style="fill:url(#radialGradient4138);fill-opacity:1;stroke:none"
       sodipodi:type="arc" />
    <path
       sodipodi:type="arc"
       style="fill:url(#radialGradient4140);fill-opacity:1;stroke:none"
       id="path4134"
       sodipodi:cx="69.642853"
       sodipodi:cy="75.714294"
       sodipodi:rx="4.6428571"
       sodipodi:ry="4.2857141"
       d="m 74.28571,75.714294 a 4.6428571,4.2857141 0 1 1 -9.285714,0 4.6428571,4.2857141 0 1 1 9.285714,0 z"
       transform="matrix(2,0,0,2,165.28716,175.06222)" />
    <path
       transform="matrix(2,0,0,2,245.28716,175.06222)"
       d="m 74.28571,75.714294 a 4.6428571,4.2857141 0 1 1 -9.285714,0 4.6428571,4.2857141 0 1 1 9.285714,0 z"
       sodipodi:ry="4.2857141"
       sodipodi:rx="4.6428571"
       sodipodi:cy="75.714294"
       sodipodi:cx="69.642853"
       id="path4136"
       style="fill:url(#radialGradient4142);fill-opacity:1;stroke:none"
       sodipodi:type="arc" />
    <path
       sodipodi:type="arc"
       style="fill:url(#radialGradient4150);fill-opacity:1;stroke:none"
       id="path4144"
       sodipodi:cx="69.642853"
       sodipodi:cy="75.714294"
       sodipodi:rx="4.6428571"
       sodipodi:ry="4.2857141"
       d="m 74.28571,75.714294 a 4.6428571,4.2857141 0 1 1 -9.285714,0 4.6428571,4.2857141 0 1 1 9.285714,0 z"
       transform="matrix(2,0,0,2,85.287157,255.06222)" />
    <path
       transform="matrix(2,0,0,2,165.28716,255.06222)"
       d="m 74.28571,75.714294 a 4.6428571,4.2857141 0 1 1 -9.285714,0 4.6428571,4.2857141 0 1 1 9.285714,0 z"
       sodipodi:ry="4.2857141"
       sodipodi:rx="4.6428571"
       sodipodi:cy="75.714294"
       sodipodi:cx="69.642853"
       id="path4146"
       style="fill:url(#radialGradient4152);fill-opacity:1;stroke:none"
       sodipodi:type="arc" />
    <path
       sodipodi:type="arc"
       style="fill:url(#radialGradient4154);fill-opacity:1;stroke:none"
       id="path4148"
       sodipodi:cx="69.642853"
       sodipodi:cy="75.714294"
       sodipodi:rx="4.6428571"
       sodipodi:ry="4.2857141"
       d="m 74.28571,75.714294 a 4.6428571,4.2857141 0 1 1 -9.285714,0 4.6428571,4.2857141 0 1 1 9.285714,0 z"
       transform="matrix(2,0,0,2,245.28716,255.06222)" />
  </g>
  <g
     inkscape:groupmode="layer"
     id="layer4"
     inkscape:label="Symbol"
     style="display:inline" />
</svg>
