<?xml version="1.0" encoding="UTF-8" standalone="no"?>
<!-- Created with Inkscape (http://www.inkscape.org/) -->

<svg
   xmlns:dc="http://purl.org/dc/elements/1.1/"
   xmlns:cc="http://creativecommons.org/ns#"
   xmlns:rdf="http://www.w3.org/1999/02/22-rdf-syntax-ns#"
   xmlns:svg="http://www.w3.org/2000/svg"
   xmlns="http://www.w3.org/2000/svg"
   xmlns:xlink="http://www.w3.org/1999/xlink"
   xmlns:sodipodi="http://sodipodi.sourceforge.net/DTD/sodipodi-0.dtd"
   xmlns:inkscape="http://www.inkscape.org/namespaces/inkscape"
   width="320"
   height="320"
   id="svg2"
   sodipodi:version="0.32"
   inkscape:version="0.48.2 r9819"
   sodipodi:docname="ZoomToFit.svg"
   inkscape:output_extension="org.inkscape.output.svg.inkscape"
   version="1.0">
  <defs
     id="defs4">
    <linearGradient
       id="linearGradient3480">
      <stop
         id="stop3482"
         offset="0"
         style="stop-color:#ff9393;stop-opacity:1;" />
      <stop
         style="stop-color:#ff4949;stop-opacity:1;"
         offset="0.26206896"
         id="stop3496" />
      <stop
         id="stop3484"
         offset="1"
         style="stop-color:#c80000;stop-opacity:1;" />
    </linearGradient>
    <linearGradient
       id="linearGradient3416">
      <stop
         style="stop-color:#ffffff;stop-opacity:1;"
         offset="0"
         id="stop3418" />
      <stop
         style="stop-color:#ffffff;stop-opacity:0;"
         offset="1"
         id="stop3422" />
    </linearGradient>
    <linearGradient
       id="linearGradient3404">
      <stop
         id="stop3406"
         offset="0"
         style="stop-color:#000000;stop-opacity:0;" />
      <stop
         style="stop-color:#000000;stop-opacity:0;"
         offset="0.5"
         id="stop3410" />
      <stop
         id="stop3408"
         offset="1"
         style="stop-color:#000000;stop-opacity:1;" />
    </linearGradient>
    <linearGradient
       id="linearGradient3365">
      <stop
         style="stop-color:#b08123;stop-opacity:1;"
         offset="0"
         id="stop3367" />
      <stop
         id="stop3377"
         offset="0.36598176"
         style="stop-color:#c79940;stop-opacity:1;" />
      <stop
         id="stop3369"
         offset="0.38967475"
         style="stop-color:#ebd09d;stop-opacity:1;" />
      <stop
         style="stop-color:#4e547a;stop-opacity:1;"
         offset="0.44260192"
         id="stop3373" />
      <stop
         style="stop-color:#161640;stop-opacity:1;"
         offset="1"
         id="stop3371" />
    </linearGradient>
    <linearGradient
       id="linearGradient3331">
      <stop
         style="stop-color:#ffffff;stop-opacity:1;"
         offset="0"
         id="stop3333" />
      <stop
         id="stop3339"
         offset="0.40627211"
         style="stop-color:#f4dc95;stop-opacity:0.49803922;" />
      <stop
         style="stop-color:#f4dc95;stop-opacity:0;"
         offset="1"
         id="stop3335" />
    </linearGradient>
    <linearGradient
       id="linearGradient3269">
      <stop
         id="stop3271"
         offset="0"
         style="stop-color:#ffffff;stop-opacity:1;" />
      <stop
         style="stop-color:#8793b4;stop-opacity:1;"
         offset="0.50120121"
         id="stop3273" />
      <stop
         id="stop3275"
         offset="1"
         style="stop-color:#161640;stop-opacity:1;" />
    </linearGradient>
    <radialGradient
       inkscape:collect="always"
       xlink:href="#linearGradient3269"
       id="radialGradient3325"
       gradientUnits="userSpaceOnUse"
       gradientTransform="matrix(0.6083335,0.4750004,-0.6154347,0.7881878,90.490086,29.911693)"
       cx="2.0203052"
       cy="145.74869"
       fx="2.0203052"
       fy="145.74869"
       r="15.152288" />
    <linearGradient
       id="linearGradient3272">
      <stop
         id="stop3274"
         offset="0"
         style="stop-color:#ffffff;stop-opacity:1;" />
      <stop
         style="stop-color:#bbd5c1;stop-opacity:1;"
         offset="0.5884158"
         id="stop3276" />
      <stop
         id="stop3278"
         offset="1"
         style="stop-color:#71c351;stop-opacity:1;" />
    </linearGradient>
    <linearGradient
       id="linearGradient3166">
      <stop
         style="stop-color:#d5ffff;stop-opacity:1;"
         offset="0"
         id="stop3168" />
      <stop
         id="stop3174"
         offset="0.24137931"
         style="stop-color:#87b492;stop-opacity:1;" />
      <stop
         style="stop-color:#396a25;stop-opacity:1;"
         offset="1"
         id="stop3170" />
    </linearGradient>
    <inkscape:perspective
       sodipodi:type="inkscape:persp3d"
       inkscape:vp_x="0 : 526.18109 : 1"
       inkscape:vp_y="0 : 1000 : 0"
       inkscape:vp_z="744.09448 : 526.18109 : 1"
       inkscape:persp3d-origin="372.04724 : 350.78739 : 1"
       id="perspective10" />
    <filter
       inkscape:collect="always"
       id="filter3383">
      <feGaussianBlur
         inkscape:collect="always"
         stdDeviation="4.8342829"
         id="feGaussianBlur3385" />
    </filter>
    <radialGradient
       inkscape:collect="always"
       xlink:href="#linearGradient3480"
       id="radialGradient3500"
       gradientUnits="userSpaceOnUse"
       gradientTransform="matrix(3.1983622,1.9443422,-1.3543296,2.2278158,-925.74501,-936.69506)"
       cx="388.55649"
       cy="163.59795"
       fx="388.55649"
       fy="163.59795"
       r="31.147089" />
    <radialGradient
       inkscape:collect="always"
       xlink:href="#linearGradient3480"
       id="radialGradient3502"
       gradientUnits="userSpaceOnUse"
       gradientTransform="matrix(3.7478503,7.8935197e-7,-8.7849552e-7,4.1711048,-1371.0056,-512.33681)"
       cx="373.41327"
       cy="167.72707"
       fx="373.41327"
       fy="167.72707"
       r="31.147089" />
    <radialGradient
       inkscape:collect="always"
       xlink:href="#linearGradient3416"
       id="radialGradient3505"
       gradientUnits="userSpaceOnUse"
       gradientTransform="matrix(0.1746776,0.2626466,0.512903,-0.4109473,100.57993,427.79203)"
       cx="-76.426811"
       cy="333.60074"
       fx="-76.426811"
       fy="333.60074"
       r="69.28125" />
    <radialGradient
       inkscape:collect="always"
       xlink:href="#linearGradient3404"
       id="radialGradient3508"
       gradientUnits="userSpaceOnUse"
       gradientTransform="matrix(1.360321,-0.07758153,-0.2880401,-0.6392859,427.23325,499.8683)"
       cx="-39.632404"
       cy="351.98849"
       fx="-39.632404"
       fy="351.98849"
       r="69.28125" />
    <radialGradient
       inkscape:collect="always"
       xlink:href="#linearGradient3331"
       id="radialGradient3511"
       gradientUnits="userSpaceOnUse"
       gradientTransform="matrix(1.8319726,0.1139688,-0.1086445,1.7463873,-200.14518,-231.93224)"
       cx="287.50708"
       cy="274.46075"
       fx="287.50708"
       fy="274.46075"
       r="88.634109" />
    <radialGradient
       inkscape:collect="always"
       xlink:href="#linearGradient3331"
       id="radialGradient3514"
       gradientUnits="userSpaceOnUse"
       gradientTransform="matrix(0.4895959,0.4903407,-0.1071982,0.1070353,233.35047,167.45962)"
       cx="364.35959"
       cy="280.03323"
       fx="364.35959"
       fy="280.03323"
       r="88.634109" />
    <linearGradient
       inkscape:collect="always"
       xlink:href="#linearGradient3365"
       id="linearGradient3517"
       gradientUnits="userSpaceOnUse"
       x1="419.16095"
       y1="415.44797"
       x2="199.35327"
       y2="196.64275" />
    <radialGradient
       inkscape:collect="always"
       xlink:href="#linearGradient3480"
       id="radialGradient3857"
       gradientUnits="userSpaceOnUse"
       gradientTransform="matrix(3.1983622,1.9443422,-1.3543296,2.2278158,-925.74501,-936.69506)"
       cx="388.55649"
       cy="163.59795"
       fx="388.55649"
       fy="163.59795"
       r="31.147089" />
    <radialGradient
       inkscape:collect="always"
       xlink:href="#linearGradient3480"
       id="radialGradient3859"
       gradientUnits="userSpaceOnUse"
       gradientTransform="matrix(3.7478503,7.8935197e-7,-8.7849552e-7,4.1711048,-1371.0056,-512.33681)"
       cx="373.41327"
       cy="167.72707"
       fx="373.41327"
       fy="167.72707"
       r="31.147089" />
    <radialGradient
       inkscape:collect="always"
       xlink:href="#linearGradient3480"
       id="radialGradient3862"
       gradientUnits="userSpaceOnUse"
       gradientTransform="matrix(3.1983622,1.9443422,-1.3543296,2.2278158,-925.74501,-936.69506)"
       cx="388.55649"
       cy="163.59795"
       fx="388.55649"
       fy="163.59795"
       r="31.147089" />
    <radialGradient
       inkscape:collect="always"
       xlink:href="#linearGradient3480"
       id="radialGradient3864"
       gradientUnits="userSpaceOnUse"
       gradientTransform="matrix(3.7478503,7.8935197e-7,-8.7849552e-7,4.1711048,-1371.0056,-512.33681)"
       cx="373.41327"
       cy="167.72707"
       fx="373.41327"
       fy="167.72707"
       r="31.147089" />
    <filter
       inkscape:collect="always"
       id="filter3874">
      <feGaussianBlur
         inkscape:collect="always"
         stdDeviation="3.9596251"
         id="feGaussianBlur3876" />
    </filter>
  </defs>
  <sodipodi:namedview
     id="base"
     pagecolor="#ffffff"
     bordercolor="#666666"
     borderopacity="1.0"
     inkscape:pageopacity="0.0"
     inkscape:pageshadow="2"
     inkscape:zoom="0.98994952"
     inkscape:cx="185.73743"
     inkscape:cy="-18.069015"
     inkscape:document-units="px"
     inkscape:current-layer="layer1"
     showgrid="false"
     inkscape:window-width="1920"
     inkscape:window-height="1138"
     inkscape:window-x="-8"
     inkscape:window-y="-8"
     inkscape:window-maximized="1" />
  <metadata
     id="metadata7">
    <rdf:RDF>
      <cc:Work
         rdf:about="">
        <dc:format>image/svg+xml</dc:format>
        <dc:type
           rdf:resource="http://purl.org/dc/dcmitype/StillImage" />
        <dc:title></dc:title>
      </cc:Work>
    </rdf:RDF>
  </metadata>
  <g
     inkscape:groupmode="layer"
     id="layer5"
     inkscape:label="Shadows"
     style="display:inline">
    <path
       transform="matrix(1.2529658,0,0,1.2479592,-220.29169,-211.77829)"
       style="opacity:0.2;fill:#000000;fill-opacity:1;fill-rule:evenodd;stroke:none;display:inline;filter:url(#filter3383)"
       d="m 272.72321,214.36161 c -35.4794,0.36711 -67.67128,30.26781 -69.9375,65.8125 -2.62204,27.27429 11.60202,56.42608 37.5625,67.0625 22.23191,10.09547 49.76408,7.63362 69.78125,-6.40625 3.89424,1.33671 10.06561,6.21961 5.84375,10.46875 -2.60661,3.81229 -0.30147,8.71816 3.50216,10.53664 18.59439,19.26121 36.6196,39.08282 55.87284,57.65086 3.91547,-5.99705 11.11727,-8.23226 17.6875,-9.875 1.59592,-5.56313 3.47933,-11.33081 8.21875,-14.78125 3.26819,-6.84904 -5.96515,-9.94791 -9.125,-14.34375 -16.78639,-17.01431 -32.40811,-35.41496 -50.28125,-51.375 -4.55157,6.75985 -15.45466,0.39321 -13.09375,-6.75 2.66913,-5.82449 7.35421,-10.58572 8.94897,-16.93478 12.87468,-33.42987 -4.8273,-77.10269 -40.16772,-87.53397 -7.96544,-2.66471 -16.40757,-3.82022 -24.8125,-3.53125 z m 1,31.0625 c 17.92273,-0.40891 35.74709,13.37566 36.9375,31.625 2.9922,24.39405 -19.84432,49.28306 -44.875,45.3125 -21.0755,-2.30025 -37.90776,-25.47303 -31.15625,-46.03125 4.2155,-17.55561 20.63522,-31.68176 39.09375,-30.90625 z"
       id="path3379"
       inkscape:connector-curvature="0" />
  </g>
  <g
     inkscape:label="Zoom"
     inkscape:groupmode="layer"
     id="layer1"
     transform="translate(-150.51273,-167.46855)"
     style="display:inline">
    <g
       id="g3519"
       transform="matrix(1.3789038,0,0,1.3811504,-98.995823,-90.651252)">
      <path
         id="path2424"
         d="m 233.51489,229.11447 c -29.96192,27.87788 -25.55837,82.43849 9.22654,101.66972 21.71665,13.1949 52.36629,12.32064 73.58209,-3.96108 6.2071,2.05229 14.9989,7.64732 11.29499,15.48585 -1.0766,1.46075 -3.38254,4.5595 -0.34303,5.14156 18.23482,18.91645 36.19676,38.59673 54.85821,56.79379 3.90004,-4.24522 9.77717,-5.96275 14.77751,-7.37788 1.77212,-4.57979 2.51624,-10.12485 7.32561,-12.70406 2.85506,-3.65047 -3.89655,-4.81465 -5.09781,-7.62747 -17.29881,-16.70171 -33.07151,-35.901 -50.60564,-51.74817 -9.42359,6.91576 -21.79518,-6.7492 -15.3663,-15.98453 23.89162,-32.03737 9.17073,-82.97242 -27.31986,-95.65202 -23.7939,-9.15567 -53.95644,-3.59346 -72.33231,15.96429 z m 17.72232,14.09337 c 20.8253,-20.1981 60.11077,-11.91547 68.2718,15.24554 9.77364,24.96595 -11.34741,57.87239 -39.09285,58.54849 -25.63997,2.3134 -49.36364,-22.49512 -43.28483,-48.26683 1.69329,-9.60856 6.76836,-18.72619 14.10588,-25.5272 z"
         style="fill:url(#linearGradient3517);fill-opacity:1;fill-rule:evenodd;stroke:#000000;stroke-width:3;stroke-linecap:butt;stroke-linejoin:miter;stroke-miterlimit:4;stroke-opacity:0.38380283;stroke-dasharray:none"
         inkscape:connector-curvature="0" />
      <path
         sodipodi:nodetypes="ccccccccc"
         id="path3323"
         d="m 337.23148,328.3123 -2.8125,2.78125 c 1.00638,2.73905 1.20841,5.76585 0.25,8.9375 -2.41592,3.6392 4.71065,5.6942 6.15625,8.96875 14.33997,14.68365 27.5138,30.56732 43,43.8125 4.03553,-2.36546 10.65769,-2.2894 10.9375,-8.28125 0.44328,-2.50038 5.26153,-5.02672 1,-6.6875 -16.69294,-15.31016 -30.65235,-34.46969 -47.96875,-48.59375 -3.69567,1.10027 -7.35558,0.60423 -10.5625,-0.9375 z"
         style="fill:url(#radialGradient3514);fill-opacity:1;fill-rule:evenodd;stroke:none"
         inkscape:connector-curvature="0" />
      <path
         sodipodi:nodetypes="ccccsscccccccc"
         style="fill:url(#radialGradient3511);fill-opacity:1;fill-rule:evenodd;stroke:#a97b58;stroke-width:3;stroke-linecap:butt;stroke-linejoin:miter;stroke-miterlimit:4;stroke-opacity:0.68661972;stroke-dasharray:none"
         d="m 283.38773,211.9373 c -0.86023,-0.006 -1.70027,0.004 -2.5625,0.0312 -33.52272,0.1053 -63.15518,31.59662 -60.40625,65.25 0.71427,22.39715 15.6006,44.71894 37.75,50.71875 18.1214,6.05818 39.67044,3.59578 54.6875,-8.21875 6.60461,-5.19611 11.97168,-11.53501 16.9375,-18.21875 21.44935,-28.86971 6.53694,-77.34635 -28.625,-86.875 -5.77489,-1.7825 -11.75962,-2.64657 -17.78125,-2.6875 z m -3.96875,11 c 0.72523,-0.0107 1.45711,0.005 2.1875,0.0312 22.50812,-0.40163 44.87572,16.91896 46.8125,40.09375 4.20421,30.68947 -24.61494,61.74007 -55.875,56.875 -26.38348,-2.75162 -47.62541,-31.3486 -40.0625,-57.25 4.65853,-21.66169 24.4553,-39.41918 46.9375,-39.75 z"
         id="path3347"
         inkscape:connector-curvature="0" />
      <path
         sodipodi:nodetypes="cscscc"
         id="path3391"
         d="m 296.98265,313.83028 c -20.38071,10.76099 -45.18816,3.5091 -55.3747,-16.17213 -2.78506,-5.38095 -4.18204,-11.13982 -4.33716,-16.88436 23.18236,17.10388 42.24337,19.73146 57.30381,11.75316 6.90284,-3.65679 18.78901,-8.10757 24.876,-10.59235 -1.7282,12.98908 -9.73001,25.17007 -22.46795,31.89568 z"
         style="fill:url(#radialGradient3508);fill-opacity:1;stroke:none"
         inkscape:connector-curvature="0" />
      <path
         id="path3412"
         d="m 298.76172,239.7469 c -19.22928,-10.05233 -42.6352,-3.27801 -52.24624,15.10712 -2.62771,5.02659 -3.94577,10.40621 -4.09212,15.77245 10.80121,-19.90608 38.07106,-26.28919 61.20921,-14.19345 6.51751,3.4071 12.01321,7.9308 16.32774,13.10909 -1.63056,-12.1337 -9.1803,-23.51251 -21.19859,-29.79521 z"
         style="fill:url(#radialGradient3505);fill-opacity:1;stroke:none"
         inkscape:connector-curvature="0" />
    </g>
  </g>
  <g
     inkscape:groupmode="layer"
     id="layer4"
     inkscape:label="Symbol"
     style="display:inline" />
</svg>
