<?xml version="1.0" encoding="UTF-8" standalone="no"?>
<!-- Created with Inkscape (http://www.inkscape.org/) -->
<svg
   xmlns:dc="http://purl.org/dc/elements/1.1/"
   xmlns:cc="http://creativecommons.org/ns#"
   xmlns:rdf="http://www.w3.org/1999/02/22-rdf-syntax-ns#"
   xmlns:svg="http://www.w3.org/2000/svg"
   xmlns="http://www.w3.org/2000/svg"
   xmlns:xlink="http://www.w3.org/1999/xlink"
   xmlns:sodipodi="http://sodipodi.sourceforge.net/DTD/sodipodi-0.dtd"
   xmlns:inkscape="http://www.inkscape.org/namespaces/inkscape"
   width="320"
   height="320"
   id="svg2"
   sodipodi:version="0.32"
   inkscape:version="0.46"
   sodipodi:docname="RotateLeft.svg"
   inkscape:output_extension="org.inkscape.output.svg.inkscape"
   version="1.0">
  <defs
     id="defs4">
    <linearGradient
       id="linearGradient3272">
      <stop
         id="stop3274"
         offset="0"
         style="stop-color:#ffffff;stop-opacity:1;" />
      <stop
         style="stop-color:#bbd5c1;stop-opacity:1;"
         offset="0.5884158"
         id="stop3276" />
      <stop
         id="stop3278"
         offset="1"
         style="stop-color:#71c351;stop-opacity:1;" />
    </linearGradient>
    <linearGradient
       id="linearGradient3166">
      <stop
         style="stop-color:#d5ffff;stop-opacity:1;"
         offset="0"
         id="stop3168" />
      <stop
         id="stop3174"
         offset="0.24137931"
         style="stop-color:#87b492;stop-opacity:1;" />
      <stop
         style="stop-color:#396a25;stop-opacity:1;"
         offset="1"
         id="stop3170" />
    </linearGradient>
    <inkscape:perspective
       sodipodi:type="inkscape:persp3d"
       inkscape:vp_x="0 : 526.18109 : 1"
       inkscape:vp_y="0 : 1000 : 0"
       inkscape:vp_z="744.09448 : 526.18109 : 1"
       inkscape:persp3d-origin="372.04724 : 350.78739 : 1"
       id="perspective10" />
    <radialGradient
       inkscape:collect="always"
       xlink:href="#linearGradient3166"
       id="radialGradient3222"
       gradientUnits="userSpaceOnUse"
       gradientTransform="matrix(0.2760087,0.4901916,-1.4925249,0.8403855,631.89679,-99.621029)"
       cx="282.71207"
       cy="293.89413"
       fx="282.71207"
       fy="293.89413"
       r="144.23438" />
    <filter
       inkscape:collect="always"
       id="filter3232">
      <feGaussianBlur
         inkscape:collect="always"
         stdDeviation="3.9667969"
         id="feGaussianBlur3234" />
    </filter>
    <radialGradient
       inkscape:collect="always"
       xlink:href="#linearGradient3272"
       id="radialGradient3308"
       gradientUnits="userSpaceOnUse"
       gradientTransform="matrix(0.9979716,-6.366085e-2,8.2062696e-2,1.2864459,-24.395619,-82.435449)"
       cx="271.80307"
       cy="271.74475"
       fx="271.80307"
       fy="271.74475"
       r="184.64285" />
  </defs>
  <sodipodi:namedview
     id="base"
     pagecolor="#ffffff"
     bordercolor="#666666"
     borderopacity="1.0"
     inkscape:pageopacity="0.0"
     inkscape:pageshadow="2"
     inkscape:zoom="0.98994949"
     inkscape:cx="284.90054"
     inkscape:cy="130.21901"
     inkscape:document-units="px"
     inkscape:current-layer="layer1"
     showgrid="false"
     inkscape:window-width="1920"
     inkscape:window-height="1134"
     inkscape:window-x="-4"
     inkscape:window-y="-4" />
  <metadata
     id="metadata7">
    <rdf:RDF>
      <cc:Work
         rdf:about="">
        <dc:format>image/svg+xml</dc:format>
        <dc:type
           rdf:resource="http://purl.org/dc/dcmitype/StillImage" />
      </cc:Work>
    </rdf:RDF>
  </metadata>
  <g
     inkscape:label="Ebene 1"
     inkscape:groupmode="layer"
     id="layer1"
     transform="translate(-150.51273,-167.46855)">
    <path
       style="opacity:0.3;fill:#000000;fill-opacity:1;stroke:none;stroke-width:5;stroke-linecap:round;stroke-linejoin:miter;stroke-miterlimit:4;stroke-dasharray:none;stroke-opacity:0.36267604;filter:url(#filter3232)"
       d="M 341.44196,217.37053 C 279.84151,217.37053 228.96457,263.58586 221.62946,323.21428 L 174.69196,323.21428 L 209.84821,384.08928 L 245.00446,444.96428 L 280.16071,384.08928 L 315.28571,323.21428 L 270.62946,323.21428 C 277.49902,290.41437 306.61082,265.74553 341.44196,265.74553 C 381.37542,265.74554 413.78571,298.15583 413.78571,338.08928 C 413.7857,377.79194 381.74479,410.03009 342.12946,410.40178 L 342.12946,458.80803 C 408.44834,458.43813 462.1607,404.49461 462.16071,338.08928 C 462.16071,271.455 408.07625,217.37054 341.44196,217.37053 z"
       id="path2383" />
    <path
       id="path3220"
       d="M 330.01339,202.37053 C 268.41294,202.37053 217.536,248.58586 210.20089,308.21428 L 163.26339,308.21428 L 198.41964,369.08928 L 233.57589,429.96428 L 268.73214,369.08928 L 303.85714,308.21428 L 259.20089,308.21428 C 266.07045,275.41437 295.18225,250.74553 330.01339,250.74553 C 369.94685,250.74554 402.35714,283.15583 402.35714,323.08928 C 402.35713,362.79194 370.31622,395.03009 330.70089,395.40178 L 330.70089,443.80803 C 397.01977,443.43813 450.73213,389.49461 450.73214,323.08928 C 450.73214,256.455 396.64768,202.37054 330.01339,202.37053 z"
       style="opacity:1;fill:url(#radialGradient3222);fill-opacity:1;stroke:#000000;stroke-width:5;stroke-linecap:round;stroke-linejoin:miter;stroke-miterlimit:4;stroke-dasharray:none;stroke-opacity:0.36267604" />
    <path
       style="opacity:0.50000000000000000;fill:url(#radialGradient3308);fill-opacity:1;stroke:none;stroke-width:5;stroke-linecap:round;stroke-linejoin:miter;stroke-miterlimit:4;stroke-dasharray:none;stroke-opacity:0.36267603999999998"
       d="M 327.28125,208.40625 C 271.79542,208.39992 220.97983,255.09428 215.84375,310.21875 C 212.53899,317.18329 203.51032,313.83988 197.5,314.3125 C 194.25669,314.75631 186.94192,312.01552 187.09375,317.375 C 194.97543,322.65775 204.74851,325.05348 213.59375,328.4375 C 234.40961,335.21809 256.00911,339.26065 277.78125,341.4375 C 282.97768,332.32797 288.28612,323.2823 293.5625,314.21875 C 279.6875,314.21875 265.8125,314.21875 251.9375,314.21875 C 255.73472,269.75925 304.07217,235.1266 347.38613,246.48085 C 385.21255,254.68977 413.46359,294.07181 408.09375,332.65625 C 420.49791,328.70559 432.98806,325.0853 444.75,319.46875 C 444.18659,261.3153 392.47771,208.84009 334.12565,208.46388 C 331.84591,208.3629 329.56232,208.33889 327.28125,208.40625 z"
       id="path3236" />
  </g>
</svg>
