<?xml version="1.0" encoding="UTF-8" standalone="no"?>
<!-- Created with Inkscape (http://www.inkscape.org/) -->
<svg
   xmlns:dc="http://purl.org/dc/elements/1.1/"
   xmlns:cc="http://creativecommons.org/ns#"
   xmlns:rdf="http://www.w3.org/1999/02/22-rdf-syntax-ns#"
   xmlns:svg="http://www.w3.org/2000/svg"
   xmlns="http://www.w3.org/2000/svg"
   xmlns:xlink="http://www.w3.org/1999/xlink"
   xmlns:sodipodi="http://sodipodi.sourceforge.net/DTD/sodipodi-0.dtd"
   xmlns:inkscape="http://www.inkscape.org/namespaces/inkscape"
   width="320"
   height="320"
   id="svg2"
   sodipodi:version="0.32"
   inkscape:version="0.46"
   sodipodi:docname="Settings.svg"
   inkscape:output_extension="org.inkscape.output.svg.inkscape"
   version="1.0">
  <defs
     id="defs4">
    <linearGradient
       id="linearGradient3269">
      <stop
         id="stop3271"
         offset="0"
         style="stop-color:#ffffff;stop-opacity:1;" />
      <stop
         style="stop-color:#8793b4;stop-opacity:1;"
         offset="0.50120121"
         id="stop3273" />
      <stop
         id="stop3275"
         offset="1"
         style="stop-color:#161640;stop-opacity:1;" />
    </linearGradient>
    <radialGradient
       inkscape:collect="always"
       xlink:href="#linearGradient3269"
       id="radialGradient3325"
       gradientUnits="userSpaceOnUse"
       gradientTransform="matrix(0.6083335,0.4750004,-0.6154347,0.7881878,90.490086,29.911693)"
       cx="2.0203052"
       cy="145.74869"
       fx="2.0203052"
       fy="145.74869"
       r="15.152288" />
    <linearGradient
       id="linearGradient3272">
      <stop
         id="stop3274"
         offset="0"
         style="stop-color:#ffffff;stop-opacity:1;" />
      <stop
         style="stop-color:#a5ecb5;stop-opacity:1;"
         offset="0.5884158"
         id="stop3276" />
      <stop
         id="stop3278"
         offset="1"
         style="stop-color:#6ad440;stop-opacity:0;" />
    </linearGradient>
    <linearGradient
       id="linearGradient3166">
      <stop
         style="stop-color:#e4e4f2;stop-opacity:1;"
         offset="0"
         id="stop3168" />
      <stop
         id="stop3174"
         offset="0.24137931"
         style="stop-color:#6874d4;stop-opacity:1;" />
      <stop
         style="stop-color:#292b64;stop-opacity:1;"
         offset="1"
         id="stop3170" />
    </linearGradient>
    <inkscape:perspective
       sodipodi:type="inkscape:persp3d"
       inkscape:vp_x="0 : 526.18109 : 1"
       inkscape:vp_y="0 : 1000 : 0"
       inkscape:vp_z="744.09448 : 526.18109 : 1"
       inkscape:persp3d-origin="372.04724 : 350.78739 : 1"
       id="perspective10" />
    <radialGradient
       inkscape:collect="always"
       xlink:href="#linearGradient3166"
       id="radialGradient3314"
       gradientUnits="userSpaceOnUse"
       gradientTransform="matrix(0.4455139,0.7522594,-1.8061445,1.0696609,1223.4279,-184.1994)"
       cx="-140.2345"
       cy="514.15198"
       fx="-140.2345"
       fy="514.15198"
       r="144.23438" />
    <linearGradient
       inkscape:collect="always"
       xlink:href="#linearGradient3166"
       id="linearGradient3325"
       gradientUnits="userSpaceOnUse"
       gradientTransform="matrix(0.9219784,0,0,0.9219784,210.75836,217.90663)"
       x1="347.91574"
       y1="361.24612"
       x2="90.733574"
       y2="104.285" />
    <radialGradient
       inkscape:collect="always"
       xlink:href="#linearGradient3269"
       id="radialGradient3335"
       cx="317.80841"
       cy="340.9429"
       fx="317.80841"
       fy="340.9429"
       r="46.985882"
       gradientTransform="matrix(1.0298587,2.6342428e-7,-3.6182792e-7,1.4085176,-15.434758,-154.48358)"
       gradientUnits="userSpaceOnUse" />
    <filter
       inkscape:collect="always"
       id="filter3343">
      <feGaussianBlur
         inkscape:collect="always"
         stdDeviation="6.8519531"
         id="feGaussianBlur3345" />
    </filter>
    <radialGradient
       inkscape:collect="always"
       xlink:href="#linearGradient3166"
       id="radialGradient3384"
       gradientUnits="userSpaceOnUse"
       gradientTransform="matrix(0.5069956,0.792841,-1.904075,1.2175932,1246,-292.16115)"
       cx="95.709755"
       cy="491.52563"
       fx="95.709755"
       fy="491.52563"
       r="144.23438" />
    <radialGradient
       inkscape:collect="always"
       xlink:href="#linearGradient3272"
       id="radialGradient3196"
       gradientUnits="userSpaceOnUse"
       gradientTransform="matrix(0.6589336,-0.2771669,0.1297573,0.3084838,218.05155,260.8998)"
       cx="87.994423"
       cy="81.913292"
       fx="87.994423"
       fy="81.913292"
       r="138.84375" />
  </defs>
  <sodipodi:namedview
     id="base"
     pagecolor="#ffffff"
     bordercolor="#666666"
     borderopacity="1.0"
     inkscape:pageopacity="0.0"
     inkscape:pageshadow="2"
     inkscape:zoom="0.35"
     inkscape:cx="-34.661516"
     inkscape:cy="4.2221009"
     inkscape:document-units="px"
     inkscape:current-layer="layer1"
     showgrid="false"
     inkscape:window-width="1150"
     inkscape:window-height="906"
     inkscape:window-x="-16"
     inkscape:window-y="136" />
  <metadata
     id="metadata7">
    <rdf:RDF>
      <cc:Work
         rdf:about="">
        <dc:format>image/svg+xml</dc:format>
        <dc:type
           rdf:resource="http://purl.org/dc/dcmitype/StillImage" />
      </cc:Work>
    </rdf:RDF>
  </metadata>
  <g
     inkscape:groupmode="layer"
     id="layer2"
     inkscape:label="Shadow">
    <path
       transform="matrix(1.0200611,0,0,1.0200611,-156.80486,-174.14017)"
       style="opacity:0.3;fill:#000000;fill-opacity:1;stroke:none;stroke-width:5;stroke-linecap:round;stroke-linejoin:miter;stroke-miterlimit:4;stroke-dasharray:none;stroke-opacity:0.36267604;filter:url(#filter3343)"
       d="M 350.68907,204.72301 C 349.80172,205.82983 349.12885,207.13653 348.78282,208.66051 C 342.04222,218.68706 337.95659,230.25147 330.78282,240.00426 C 325.76454,239.53858 317.74202,242.2403 315.75157,235.59801 C 310.59417,225.15293 304.81498,214.64801 298.47032,204.84801 C 291.61475,206.16311 284.93008,207.97397 278.47032,210.25426 C 278.20419,211.72873 278.22644,213.28584 278.62657,214.87926 C 278.16483,226.91887 280.60679,239.08422 278.50157,251.03551 C 274.05551,253.11107 268.50704,259.31782 263.68907,254.31676 C 253.93649,248.1251 244.07485,241.17887 233.43907,236.50426 C 228.21596,241.04651 223.34239,245.99127 218.84532,251.25426 C 219.44784,253.23624 220.53447,255.05966 222.22032,256.47301 C 227.81891,266.65715 235.4004,275.67872 239.62657,286.56676 C 235.74209,289.9655 235.3164,298.84555 228.06407,296.69176 C 216.56244,296.38945 204.36427,294.58798 192.97032,296.50426 C 190.76979,302.91989 189.00283,309.54902 187.75157,316.34801 C 189.02419,317.42906 190.55636,318.21085 192.31407,318.62926 C 202.42549,324.76634 213.4858,329.42195 223.25157,336.31676 C 222.21911,341.20925 225.34967,349.18519 218.62657,351.03551 C 208.06145,356.01744 197.6296,361.77943 188.03282,368.53551 C 189.34565,375.26002 191.16489,381.8186 193.40782,388.16051 C 194.61128,388.30278 195.87497,388.23921 197.15782,387.87926 C 209.35497,388.95273 221.57853,386.79365 233.78282,387.72301 C 235.88195,392.23219 242.27842,397.91559 237.37657,402.94176 C 231.39501,412.71574 224.05807,422.45597 219.62657,433.09801 C 224.19761,438.35583 229.16945,443.26311 234.47032,447.78551 C 235.52652,447.29789 236.50164,446.60771 237.37657,445.69176 C 248.28693,440.193 257.87552,432.44776 268.87657,427.19176 C 272.98874,429.91828 281.02657,431.42805 279.59532,438.03551 C 278.8099,449.73696 278.37941,461.69846 279.28282,473.47301 C 285.75743,475.71427 292.44737,477.51213 299.31407,478.78551 C 299.928,477.89893 300.39785,476.86809 300.72032,475.72301 C 307.45191,465.31345 311.89159,453.66355 319.22032,443.66051 C 324.1575,444.0871 332.15005,441.44318 333.93907,448.12926 C 338.98805,458.60133 344.65359,468.85759 351.00157,478.66051 C 357.91303,477.34742 364.64745,475.51691 371.15782,473.22301 C 371.24001,472.16516 371.1314,471.04863 370.84532,469.91051 C 371.62333,457.50416 369.88557,445.10278 370.50157,432.69176 C 375.41111,431.28717 380.56015,424.66788 385.72032,429.41051 C 395.55154,435.49183 405.29733,442.96927 416.22032,447.00426 C 421.40286,442.50439 426.21924,437.61969 430.68907,432.41051 C 430.0534,430.54599 428.97756,428.85903 427.47032,427.53551 C 422.31217,417.26074 414.77064,408.32355 410.03282,397.91051 C 412.90261,393.79118 414.76247,385.5719 421.53282,387.28551 C 433.0599,387.71128 444.99952,388.85024 456.53282,387.56676 C 458.78169,381.11505 460.55812,374.44105 461.84532,367.59801 C 460.68717,366.66591 459.35158,365.93389 457.78282,365.53551 C 447.82333,359.01867 436.45494,354.82622 426.75157,347.87926 C 427.21575,342.84837 424.38169,334.80571 431.15782,332.91051 C 441.624,327.77174 452.06173,322.10433 461.84532,315.66051 C 460.56654,308.90411 458.7811,302.31586 456.56407,295.94176 C 455.80094,295.90574 455.00521,295.98876 454.18907,296.16051 C 441.41888,294.73759 428.48046,297.99921 415.78282,295.62926 C 413.3036,291.13596 407.23458,284.73697 413.18907,280.19176 C 418.80658,270.4649 426.20557,261.01549 430.31407,250.56676 C 425.82776,245.38317 420.97802,240.54016 415.78282,236.06676 C 414.44856,236.58185 413.212,237.38196 412.15782,238.50426 C 401.2667,243.71574 391.95644,251.79435 380.90782,256.69176 C 377.02091,253.4726 368.75438,252.31773 370.12657,245.53551 C 370.58319,233.88045 371.9321,221.5872 370.37657,209.94176 C 364.01175,207.74303 357.43302,205.98759 350.68907,204.72301 z M 324.78282,302.44176 C 346.47549,302.44176 364.09532,320.06159 364.09532,341.75426 C 364.09533,363.44694 346.47549,381.06676 324.78282,381.06676 C 303.09014,381.06676 285.50157,363.44693 285.50157,341.75426 C 285.50157,320.06159 303.09015,302.44176 324.78282,302.44176 z"
       id="path3337" />
  </g>
  <g
     inkscape:label="Ebene 1"
     inkscape:groupmode="layer"
     id="layer1"
     transform="translate(-150.51273,-167.46855)">
    <path
       style="opacity:1;fill:url(#radialGradient3314);fill-opacity:1;stroke:#000000;stroke-width:5.10030556;stroke-linecap:round;stroke-linejoin:miter;stroke-miterlimit:4;stroke-dasharray:none;stroke-opacity:0.36267604"
       d="M 331.23358,185.96035 C 330.32843,187.08937 329.64206,188.42228 329.28909,189.97684 C 322.41327,200.20453 318.24568,212.00093 310.92799,221.94938 C 305.80904,221.47436 297.62557,224.23027 295.5952,217.45473 C 290.33433,206.80011 284.43921,196.08445 277.96726,186.08786 C 270.97416,187.42933 264.15539,189.27653 257.56604,191.60256 C 257.29458,193.10661 257.31727,194.69496 257.72543,196.32035 C 257.25442,208.60148 259.74537,221.01088 257.59792,233.20193 C 253.06267,235.31912 247.40289,241.65039 242.48827,236.549 C 232.54003,230.23313 222.48055,223.14756 211.63141,218.37917 C 206.30352,223.01253 201.33218,228.0565 196.7449,233.42507 C 197.3595,235.44681 198.46793,237.30681 200.1876,238.74851 C 205.8985,249.13695 213.63209,258.33951 217.94304,269.44598 C 213.98063,272.9129 213.54641,281.97109 206.14859,279.77409 C 194.41621,279.46572 181.97334,277.62811 170.35082,279.58283 C 168.10613,286.12716 166.30373,292.88928 165.02737,299.82467 C 166.32552,300.9274 167.88843,301.72488 169.68141,302.15168 C 179.99566,308.41188 191.27786,313.16088 201.23954,320.19402 C 200.18637,325.18465 203.37973,333.3206 196.52176,335.20803 C 185.74469,340.28991 175.10356,346.16749 165.31426,353.05911 C 166.65343,359.91852 168.50917,366.60867 170.79709,373.07781 C 172.02469,373.22293 173.31373,373.15808 174.62233,372.79091 C 187.06415,373.88592 199.53294,371.68353 211.98206,372.63153 C 214.12329,377.23117 220.64809,383.02859 215.64791,388.15558 C 209.54634,398.12564 202.06222,408.06127 197.54182,418.9168 C 202.20456,424.2801 207.27614,429.28583 212.68335,433.89895 C 213.76074,433.40155 214.75542,432.69753 215.64791,431.7632 C 226.77713,426.15413 236.55809,418.25351 247.77983,412.89207 C 251.9745,415.67329 260.17358,417.21334 258.71362,423.95336 C 257.91244,435.88955 257.47331,448.09101 258.39484,460.10177 C 264.99934,462.38799 271.82349,464.22192 278.82794,465.52085 C 279.45419,464.61648 279.93347,463.56496 280.26241,462.39691 C 287.12904,451.77852 291.65778,439.89491 299.13353,429.6912 C 304.16976,430.12635 312.32265,427.42938 314.14756,434.2496 C 319.29783,444.93175 325.07702,455.39376 331.55235,465.39334 C 338.60247,464.05391 345.47199,462.18668 352.11296,459.84676 C 352.1968,458.76769 352.086,457.62876 351.79419,456.4678 C 352.58781,443.81257 350.81518,431.16241 351.44354,418.50241 C 356.45158,417.06964 361.70391,410.31756 366.9676,415.15533 C 376.99604,421.35865 386.93735,428.98609 398.07946,433.10203 C 403.36597,428.51189 408.27898,423.52919 412.83848,418.21551 C 412.19005,416.31358 411.09263,414.59278 409.55515,413.24271 C 404.29352,402.76182 396.6007,393.64534 391.76783,383.0234 C 394.6952,378.82144 396.59236,370.43727 403.49854,372.18526 C 415.25686,372.61957 427.43601,373.78137 439.20068,372.47214 C 441.49466,365.89101 443.30673,359.08312 444.61976,352.1028 C 443.43837,351.152 442.07598,350.40529 440.47575,349.99893 C 430.31646,343.35135 418.72001,339.07479 408.82198,331.98848 C 409.29547,326.85666 406.40456,318.65265 413.31662,316.71943 C 423.99277,311.47757 434.63989,305.69647 444.61976,299.12337 C 443.31531,292.23143 441.49406,285.51101 439.23255,279.00905 C 438.45412,278.9723 437.64242,279.05699 436.80991,279.23219 C 423.78353,277.78072 410.58556,281.10777 397.63319,278.69028 C 395.10423,274.10684 388.91346,267.57947 394.9874,262.94309 C 400.71761,253.0211 408.26502,243.38212 412.45595,232.72378 C 407.87964,227.4362 402.93261,222.49603 397.63319,217.93289 C 396.27216,218.4583 395.0108,219.27447 393.93546,220.41929 C 382.82586,225.73531 373.32882,233.97599 362.05855,238.97165 C 358.09367,235.6879 349.6613,234.50987 351.06102,227.59159 C 351.5268,215.70272 352.90277,203.16286 351.31604,191.28379 C 344.82353,189.04095 338.11282,187.2503 331.23358,185.96035 z M 304.80762,285.63944 C 326.93547,285.63944 344.90878,303.61274 344.90878,325.7406 C 344.90879,347.86846 326.93547,365.84175 304.80762,365.84175 C 282.67977,365.84175 264.73835,347.86845 264.73835,325.7406 C 264.73835,303.61274 282.67978,285.63944 304.80762,285.63944 z"
       id="path2430" />
    <path
       style="opacity:1;fill:url(#radialGradient3384);fill-opacity:1.0;stroke:none;stroke-width:5;stroke-linecap:round;stroke-linejoin:miter;stroke-miterlimit:4;stroke-dasharray:none;stroke-opacity:0.36267603999999998"
       d="M 272.75834,193.29224 C 268.42969,193.72028 261.74577,195.9375 263.2909,201.64399 C 265.12121,213.35549 265.18745,225.53205 263.09964,237.18674 C 256.1227,242.72189 244.8194,247.95942 237.3246,240.66714 C 229.42234,235.33875 221.60827,229.79126 212.766,226.18921 C 207.94902,228.2534 202.52406,235.33043 207.63381,239.83252 C 214.38737,249.55771 221.4072,259.78002 224.94298,271.16753 C 219.43877,276.35021 216.23031,287.54284 206.87005,286.19436 C 196.24301,285.59896 185.40718,283.6616 174.89623,285.79903 C 172.9221,289.86059 170.3844,297.5503 176.52195,299.31485 C 187.47496,304.37691 197.94473,310.59432 207.98446,317.3253 C 206.99173,325.19249 208.7293,337.01753 199.63271,340.56356 C 190.09864,345.16778 180.40295,349.55878 172.21857,356.37451 C 172.99521,360.75803 174.16779,368.82235 180.50657,367.18079 C 192.46206,367.46876 205.64448,363.50513 216.71873,369.0934 C 224.08464,375.86809 225.81956,388.82034 218.06313,395.88835 C 213.3012,403.00458 208.22677,409.87756 205.14742,417.92883 C 207.77832,421.64336 212.86412,428.12313 217.77068,423.92169 C 227.50525,417.31275 237.50265,411.07783 248.08562,405.9431 C 256.32455,409.14847 267.11215,415.88018 264.82919,426.24719 C 264.22613,435.98058 262.96865,445.90521 265.01226,455.54358 C 268.9919,457.77757 276.91292,460.25425 278.30493,453.82223 C 283.8913,443.51001 288.93804,432.74024 296.15599,423.41166 C 305.03879,422.29649 317.82189,423.04117 320.63427,433.31975 C 325.08004,441.66164 328.47349,451.72487 335.61961,457.80684 C 340.5789,458.72607 348.16905,455.14585 345.88397,449.13632 C 345.92181,437.36587 344.3407,425.55982 345.72459,413.81671 C 353.16375,411.30117 362.29151,404 369.82353,409.57708 C 378.58876,415.23432 386.92876,421.55973 396.56826,425.64304 C 400.46023,423.22781 407.31756,418.08322 402.97552,412.98791 C 396.96826,402.43109 385.97281,392.81204 386.65455,379.70841 C 389.18741,369.96506 399.96279,363.18676 409.73045,366.23856 C 418.36217,366.92766 427.19189,367.77045 435.71311,365.81008 C 436.30945,361.32931 439.04689,353.44443 432.42979,351.9755 C 422.23977,346.3248 409.37894,342.81005 402.91177,332.59433 C 399.86014,323.01293 404.90001,310.86225 415.33583,308.90823 C 422.85887,305.23932 430.20477,301.03554 437.2432,296.41405 C 438.0525,291.21801 435.05198,282.59872 428.38142,285.00211 C 416.87762,285.2663 404.68768,286.87278 393.60371,284.10956 C 387.85259,277.22615 383.03551,265.76039 390.29222,258.30908 C 395.76283,250.37345 401.32109,242.44791 405.01564,233.5209 C 402.15589,230.11335 397.35858,223.6434 392.45614,227.71931 C 382.00066,233.74106 372.39497,243.7643 359.90981,244.45468 C 350.01239,242.1103 341.85339,231.73024 345.07527,221.47488 C 345.77546,213.00539 346.56195,204.44214 345.46958,195.9699 C 341.31484,194.43703 334.17976,190.83304 331.69875,196.76682 C 325.49224,207.53271 322.43783,221.89933 310.72375,228.06995 C 301.28529,230.78362 290.02859,225.36161 287.57936,215.51847 C 283.74416,207.49032 279.70615,199.58553 274.25656,192.59095 L 273.3327,193.02339 L 272.75834,193.29224 z M 305.14529,279.32802 C 335.1245,278.34424 360.08111,313.30144 348.62539,341.16922 C 339.98323,367.00092 305.29982,380.90481 281.93889,366.12885 C 258.93556,353.24773 250.38625,318.99347 267.78554,298.16728 C 276.4238,286.49898 290.68102,279.27745 305.14529,279.32802 z"
       id="path3347" />
    <path
       style="opacity:0.40000000000000002;fill:url(#radialGradient3196);fill-opacity:1;stroke:none;stroke-width:5;stroke-linecap:round;stroke-linejoin:miter;stroke-miterlimit:4;stroke-dasharray:none;stroke-opacity:0.36267603999999998"
       d="M 274.26955,192.59074 L 273.34511,193.03702 L 272.77133,193.29204 C 268.44268,193.72008 261.75875,195.93728 263.30389,201.64379 C 265.1342,213.35529 265.20043,225.53184 263.11262,237.18654 C 256.13568,242.72169 244.81901,247.9534 237.32421,240.66112 C 229.42196,235.33274 221.62126,229.79105 212.77899,226.189 C 207.96201,228.2532 202.53705,235.33023 207.6468,239.83232 C 214.40035,249.55751 221.42018,259.77982 224.95596,271.16733 C 219.45176,276.35 216.24201,287.52982 206.88175,286.18136 C 196.25472,285.58594 185.42016,283.6614 174.90921,285.79883 C 172.93509,289.86039 170.39738,297.55009 176.53494,299.31463 C 187.48794,304.3767 197.95772,310.59412 207.99745,317.32509 L 207.67868,321.24596 C 220.99349,325.24271 234.63522,328.44089 248.35362,330.96841 C 248.1962,329.24735 248.09861,327.50249 248.09861,325.7406 C 248.09861,294.42414 273.49118,268.9997 304.80762,268.9997 C 336.12407,268.9997 361.54852,294.42415 361.54852,325.7406 C 361.54852,326.69798 361.53172,327.66373 361.48477,328.60952 C 375.53662,325.64981 389.37287,321.70681 402.82912,316.78319 C 404.24178,315.44529 405.78534,314.2631 407.38752,313.1811 C 409.29557,311.24951 411.66166,309.79689 414.46419,309.10085 C 417.57012,307.52627 420.76554,306.08245 423.80413,304.4787 C 424.39864,304.16491 424.97521,303.84959 425.55736,303.52239 C 427.30379,302.54077 428.98454,301.47786 430.56203,300.30282 C 432.89349,299.07919 435.12113,297.70528 437.25618,296.25445 C 437.98462,291.04442 435.00039,282.62179 428.39441,285.00191 C 416.8906,285.26609 404.70066,286.87258 393.61669,284.10935 C 387.86557,277.22595 383.04479,265.77224 390.3015,258.32093 C 395.77211,250.3853 401.33407,242.44771 405.02863,233.52069 C 402.16888,230.11315 397.37156,223.64318 392.46912,227.71909 C 382.01365,233.74086 372.40795,243.7641 359.9228,244.45447 C 350.02538,242.1101 341.84628,231.72659 345.06816,221.47123 C 345.76834,213.00174 346.57493,204.44194 345.48256,195.9697 C 341.32782,194.43682 334.19274,190.83283 331.71174,196.76662 C 325.50523,207.5325 322.45081,221.89913 310.73673,228.06974 C 301.29827,230.78342 290.04332,225.35337 287.5941,215.51024 C 283.75889,207.48208 279.71914,199.58533 274.26955,192.59074 z"
       id="path2434"
       sodipodi:nodetypes="cccccccccccccccsssccccsscccccccccccccc" />
    <use
       x="0"
       y="0"
       xlink:href="#path3259"
       id="use3299"
       transform="translate(183.2039,-533.59478)"
       width="320"
       height="320" />
    <path
       style="fill:url(#radialGradient3335);fill-opacity:1;stroke:url(#linearGradient3325);stroke-width:4.60989189000000010;stroke-miterlimit:4;stroke-dasharray:none;opacity:0.5"
       d="M 304.80914,280.10268 C 279.61831,280.10268 259.20004,300.54975 259.20004,325.7406 C 259.20004,350.93146 279.61831,371.37851 304.80914,371.37851 C 330,371.37851 350.4471,350.93146 350.44709,325.7406 C 350.44709,300.54974 329.99999,280.10268 304.80914,280.10268 z M 304.80914,289.49533 C 324.80933,289.49533 341.05442,305.74043 341.05442,325.7406 C 341.05443,345.74077 324.80933,361.98587 304.80914,361.98587 C 284.80896,361.98587 268.5927,345.74077 268.5927,325.7406 C 268.5927,305.74043 284.80898,289.49533 304.80914,289.49533 z"
       id="path3292" />
  </g>
</svg>
