<?xml version="1.0" encoding="UTF-8" standalone="no"?>
<!-- Created with Inkscape (http://www.inkscape.org/) -->

<svg
   xmlns:dc="http://purl.org/dc/elements/1.1/"
   xmlns:cc="http://creativecommons.org/ns#"
   xmlns:rdf="http://www.w3.org/1999/02/22-rdf-syntax-ns#"
   xmlns:svg="http://www.w3.org/2000/svg"
   xmlns="http://www.w3.org/2000/svg"
   xmlns:xlink="http://www.w3.org/1999/xlink"
   xmlns:sodipodi="http://sodipodi.sourceforge.net/DTD/sodipodi-0.dtd"
   xmlns:inkscape="http://www.inkscape.org/namespaces/inkscape"
   width="320"
   height="320"
   id="svg2"
   sodipodi:version="0.32"
   inkscape:version="0.47 r22583"
   sodipodi:docname="Shutdown.svg"
   inkscape:output_extension="org.inkscape.output.svg.inkscape"
   version="1.0">
  <defs
     id="defs4">
    <linearGradient
       id="linearGradient3617">
      <stop
         style="stop-color:#ffffff;stop-opacity:1;"
         offset="0"
         id="stop3619" />
      <stop
         style="stop-color:#ffffff;stop-opacity:0.39215687;"
         offset="1"
         id="stop3621" />
    </linearGradient>
    <linearGradient
       id="linearGradient3269">
      <stop
         id="stop3271"
         offset="0"
         style="stop-color:#ffffff;stop-opacity:1;" />
      <stop
         style="stop-color:#8793b4;stop-opacity:1;"
         offset="0.50120121"
         id="stop3273" />
      <stop
         id="stop3275"
         offset="1"
         style="stop-color:#161640;stop-opacity:1;" />
    </linearGradient>
    <radialGradient
       inkscape:collect="always"
       xlink:href="#linearGradient3269"
       id="radialGradient3325"
       gradientUnits="userSpaceOnUse"
       gradientTransform="matrix(0.6083335,0.4750004,-0.6154347,0.7881878,90.490086,29.911693)"
       cx="2.0203052"
       cy="145.74869"
       fx="2.0203052"
       fy="145.74869"
       r="15.152288" />
    <linearGradient
       id="linearGradient3272">
      <stop
         id="stop3274"
         offset="0"
         style="stop-color:#ffffff;stop-opacity:1;" />
      <stop
         style="stop-color:#bbd5c1;stop-opacity:1;"
         offset="0.5884158"
         id="stop3276" />
      <stop
         id="stop3278"
         offset="1"
         style="stop-color:#71c351;stop-opacity:1;" />
    </linearGradient>
    <linearGradient
       id="linearGradient3166">
      <stop
         style="stop-color:#ffd5d5;stop-opacity:1;"
         offset="0"
         id="stop3168" />
      <stop
         id="stop3174"
         offset="0.24137931"
         style="stop-color:#f44848;stop-opacity:1;" />
      <stop
         style="stop-color:#8a0404;stop-opacity:1;"
         offset="1"
         id="stop3170" />
    </linearGradient>
    <inkscape:perspective
       sodipodi:type="inkscape:persp3d"
       inkscape:vp_x="0 : 526.18109 : 1"
       inkscape:vp_y="0 : 1000 : 0"
       inkscape:vp_z="744.09448 : 526.18109 : 1"
       inkscape:persp3d-origin="372.04724 : 350.78739 : 1"
       id="perspective10" />
    <radialGradient
       inkscape:collect="always"
       xlink:href="#linearGradient3166"
       id="radialGradient2432"
       gradientUnits="userSpaceOnUse"
       gradientTransform="matrix(0.29958575,0.53206445,-1.6200185,0.91217241,1102.7886,-138.16305)"
       cx="-120.66913"
       cy="512.35571"
       fx="-120.66913"
       fy="512.35571"
       r="144.23438" />
    <radialGradient
       inkscape:collect="always"
       xlink:href="#linearGradient3272"
       id="radialGradient3231"
       gradientUnits="userSpaceOnUse"
       gradientTransform="matrix(1.199952,-1.005543,1.0982175,1.3105439,28.930663,258.23048)"
       cx="116.9056"
       cy="86.495285"
       fx="116.9056"
       fy="86.495285"
       r="138.84375" />
    <filter
       inkscape:collect="always"
       id="filter3550">
      <feGaussianBlur
         inkscape:collect="always"
         stdDeviation="4.2569531"
         id="feGaussianBlur3552" />
    </filter>
    <radialGradient
       inkscape:collect="always"
       xlink:href="#linearGradient3166"
       id="radialGradient2835"
       gradientUnits="userSpaceOnUse"
       gradientTransform="matrix(0.19958928,0.35447067,-1.0792847,0.60770525,686.0101,-150.75413)"
       cx="-120.66913"
       cy="512.35571"
       fx="-120.66913"
       fy="512.35571"
       r="144.23438" />
    <radialGradient
       inkscape:collect="always"
       xlink:href="#linearGradient3617"
       id="radialGradient3623"
       cx="222.41965"
       cy="227.68689"
       fx="222.41965"
       fy="227.68689"
       r="102.62032"
       gradientTransform="matrix(1.0854214,0,0,1.0852561,137.31057,153.96607)"
       gradientUnits="userSpaceOnUse" />
    <filter
       inkscape:collect="always"
       id="filter3634">
      <feGaussianBlur
         inkscape:collect="always"
         stdDeviation="2.229023"
         id="feGaussianBlur3636" />
    </filter>
    <filter
       inkscape:collect="always"
       id="filter3642">
      <feGaussianBlur
         inkscape:collect="always"
         stdDeviation="2.2683578"
         id="feGaussianBlur3644" />
    </filter>
  </defs>
  <sodipodi:namedview
     id="base"
     pagecolor="#ffffff"
     bordercolor="#666666"
     borderopacity="1.0"
     inkscape:pageopacity="0.0"
     inkscape:pageshadow="2"
     inkscape:zoom="0.49497475"
     inkscape:cx="-752.78136"
     inkscape:cy="192.51258"
     inkscape:document-units="px"
     inkscape:current-layer="layer1"
     showgrid="false"
     inkscape:window-width="1920"
     inkscape:window-height="1134"
     inkscape:window-x="0"
     inkscape:window-y="26"
     inkscape:window-maximized="0" />
  <metadata
     id="metadata7">
    <rdf:RDF>
      <cc:Work
         rdf:about="">
        <dc:format>image/svg+xml</dc:format>
        <dc:type
           rdf:resource="http://purl.org/dc/dcmitype/StillImage" />
        <dc:title></dc:title>
      </cc:Work>
    </rdf:RDF>
  </metadata>
  <g
     inkscape:label="Ebene 1"
     inkscape:groupmode="layer"
     id="layer1"
     transform="translate(-150.51273,-167.46855)">
    <path
       style="opacity:0.3;fill:#000000;fill-opacity:1;stroke:#000000;stroke-width:5;stroke-linecap:round;stroke-linejoin:miter;stroke-miterlimit:4;stroke-opacity:0.36267604;stroke-dasharray:none;filter:url(#filter3550)"
       d="m 324.25897,203.62611 c -76.94938,0 -139.40625,62.42561 -139.40625,139.375 0,76.94938 62.45686,139.40625 139.40625,139.40625 76.94938,0 139.40624,-62.45687 139.40625,-139.40625 0,-76.94938 -62.45687,-139.375 -139.40625,-139.375 z"
       id="path3548"
       transform="matrix(1.0498028,0,0,1.0498028,-23.72514,-24.65855)" />
    <path
       style="fill:url(#radialGradient2432);fill-opacity:1;stroke:#000000;stroke-width:5.42710686;stroke-linecap:round;stroke-linejoin:miter;stroke-miterlimit:4;stroke-opacity:0.36267604;stroke-dasharray:none"
       d="m 305.06607,174.54658 c -83.5225,0 -151.31453,67.75809 -151.31453,151.28059 0,83.52251 67.79202,151.31453 151.31453,151.31453 83.5225,0 151.31452,-67.79202 151.31453,-151.31453 0,-83.5225 -67.79203,-151.28059 -151.31453,-151.28059 z"
       id="path2430" />
    <path
       style="opacity:0.25;fill:url(#radialGradient3231);fill-opacity:1;stroke:none"
       d="m 301.53458,183.2804 c -64.12388,0.41957 -123.88194,50.00758 -136.0253,112.88953 -1.04649,4.99566 -1.77468,10.1846 -2.29809,15.29195 68.35756,35.36752 150.68402,38.55585 224.3316,19.0236 20.53514,-5.87162 40.49207,-14.19621 58.65811,-25.57004 -8.33964,-63.30877 -64.51525,-116.8416 -128.5546,-121.09233 -5.35314,-0.48806 -10.73708,-0.68049 -16.11172,-0.54271 z"
       id="path2434" />
    <path
       style="fill:url(#radialGradient3623);fill-opacity:1;stroke:#000000;stroke-width:3.9244864;stroke-linecap:round;stroke-linejoin:miter;stroke-miterlimit:4;stroke-opacity:0.36267604;stroke-dasharray:none"
       d="m 305.07601,216.45337 c -60.39736,0 -109.42404,48.99277 -109.42404,109.39013 0,60.39735 49.02668,109.42404 109.42404,109.42404 60.39736,0 109.42404,-49.02669 109.42405,-109.42404 0,-60.39736 -49.02669,-109.39013 -109.42405,-109.39013 z m 0,38.83774 c 38.95405,0 70.55239,31.59835 70.55239,70.55239 -10e-6,38.95404 -31.59834,70.55239 -70.55239,70.55239 -38.95405,0 -70.58631,-31.59835 -70.58631,-70.55239 0,-38.95404 31.63226,-70.55239 70.58631,-70.55239 z m -8.14066,22.11546 c -5.52435,0 -9.97231,4.44796 -9.97231,9.97231 l 0,76.96316 c 0,5.52435 4.44796,9.97231 9.97231,9.97231 l 16.28132,0 c 5.52435,0 9.97231,-4.44796 9.97231,-9.97231 l 0,-76.96316 c 0,-5.52435 -4.44796,-9.97231 -9.97231,-9.97231 l -16.28132,0 z"
       id="path2833" />
    <path
       style="font-size:medium;font-style:normal;font-variant:normal;font-weight:normal;font-stretch:normal;text-indent:0;text-align:start;text-decoration:none;line-height:normal;letter-spacing:normal;word-spacing:normal;text-transform:none;direction:ltr;block-progression:tb;writing-mode:lr-tb;text-anchor:start;opacity:0.3;color:#000000;fill:#000000;fill-opacity:1;stroke:none;stroke-width:3.9244864;marker:none;visibility:visible;display:inline;overflow:visible;filter:url(#filter3642);enable-background:accumulate;font-family:Bitstream Vera Sans;-inkscape-font-specification:Bitstream Vera Sans"
       d="m 306.15625,212.53125 c -52.53802,0.28691 -101.28221,40.6672 -111.8125,91.96875 -10.5894,46.40089 10.12505,98.01333 50.28125,123.59375 37.20333,24.58303 88.9111,25.74414 126.5,1.5 38.79851,-23.92204 61.64156,-71.70249 54.1441,-117.05305 -6.57311,-45.05188 -41.04178,-84.64504 -85.35933,-95.95837 -10.96892,-2.98758 -22.36734,-4.36963 -33.75352,-4.05108 z m 4.21875,11.875 c 44.02004,-0.14284 85.94039,30.71358 99.03498,72.79243 13.08909,38.49553 0.88901,84.16505 -29.72248,111.02007 -30.41804,28.19464 -78.24021,35.18675 -115.25,17.125 -33.83192,-15.25365 -58.02243,-49.85125 -60.37606,-87.02675 -3.46815,-36.07467 13.58959,-72.91692 43.09481,-93.72325 18.35172,-13.27469 40.42965,-20.69428 63.21875,-20.1875 z"
       id="path3628" />
  </g>
</svg>
