<?xml version="1.0" encoding="UTF-8" standalone="no"?>
<!-- Created with Inkscape (http://www.inkscape.org/) -->

<svg
   xmlns:dc="http://purl.org/dc/elements/1.1/"
   xmlns:cc="http://creativecommons.org/ns#"
   xmlns:rdf="http://www.w3.org/1999/02/22-rdf-syntax-ns#"
   xmlns:svg="http://www.w3.org/2000/svg"
   xmlns="http://www.w3.org/2000/svg"
   xmlns:xlink="http://www.w3.org/1999/xlink"
   xmlns:sodipodi="http://sodipodi.sourceforge.net/DTD/sodipodi-0.dtd"
   xmlns:inkscape="http://www.inkscape.org/namespaces/inkscape"
   width="320"
   height="320"
   id="svg2"
   sodipodi:version="0.32"
   inkscape:version="0.47 r22583"
   sodipodi:docname="Warning.svg"
   inkscape:output_extension="org.inkscape.output.svg.inkscape"
   version="1.0">
  <defs
     id="defs4">
    <linearGradient
       id="linearGradient3269">
      <stop
         id="stop3271"
         offset="0"
         style="stop-color:#ffffff;stop-opacity:1;" />
      <stop
         style="stop-color:#8793b4;stop-opacity:1;"
         offset="0.50120121"
         id="stop3273" />
      <stop
         id="stop3275"
         offset="1"
         style="stop-color:#161640;stop-opacity:1;" />
    </linearGradient>
    <radialGradient
       inkscape:collect="always"
       xlink:href="#linearGradient3269"
       id="radialGradient3325"
       gradientUnits="userSpaceOnUse"
       gradientTransform="matrix(0.6083335,0.4750004,-0.6154347,0.7881878,90.490086,29.911693)"
       cx="2.0203052"
       cy="145.74869"
       fx="2.0203052"
       fy="145.74869"
       r="15.152288" />
    <linearGradient
       id="linearGradient3272">
      <stop
         id="stop3274"
         offset="0"
         style="stop-color:#ffffff;stop-opacity:1;" />
      <stop
         style="stop-color:#ffffff;stop-opacity:0.47058824;"
         offset="0.5884158"
         id="stop3276" />
      <stop
         id="stop3278"
         offset="1"
         style="stop-color:#ffffff;stop-opacity:0.15686275;" />
    </linearGradient>
    <linearGradient
       id="linearGradient3166">
      <stop
         style="stop-color:#fffed5;stop-opacity:1;"
         offset="0"
         id="stop3168" />
      <stop
         id="stop3174"
         offset="0.24137931"
         style="stop-color:#fffa3d;stop-opacity:1;" />
      <stop
         style="stop-color:#888a04;stop-opacity:1;"
         offset="1"
         id="stop3170" />
    </linearGradient>
    <inkscape:perspective
       sodipodi:type="inkscape:persp3d"
       inkscape:vp_x="0 : 526.18109 : 1"
       inkscape:vp_y="0 : 1000 : 0"
       inkscape:vp_z="744.09448 : 526.18109 : 1"
       inkscape:persp3d-origin="372.04724 : 350.78739 : 1"
       id="perspective10" />
    <radialGradient
       inkscape:collect="always"
       xlink:href="#linearGradient3272"
       id="radialGradient3687"
       gradientUnits="userSpaceOnUse"
       gradientTransform="matrix(1.0812413,-0.90606501,0.98957133,1.1808923,53.453938,273.96029)"
       cx="116.9056"
       cy="86.495285"
       fx="116.9056"
       fy="86.495285"
       r="138.84375" />
    <filter
       inkscape:collect="always"
       id="filter3803">
      <feGaussianBlur
         inkscape:collect="always"
         stdDeviation="4.3046232"
         id="feGaussianBlur3805" />
    </filter>
    <radialGradient
       inkscape:collect="always"
       xlink:href="#linearGradient3166"
       id="radialGradient3807"
       gradientUnits="userSpaceOnUse"
       gradientTransform="matrix(0.37500109,1.0817328,-1.5828311,0.54871564,1096.8132,129.44519)"
       cx="-120.66913"
       cy="512.35571"
       fx="-120.66913"
       fy="512.35571"
       r="144.23438" />
  </defs>
  <sodipodi:namedview
     id="base"
     pagecolor="#ffffff"
     bordercolor="#666666"
     borderopacity="1.0"
     inkscape:pageopacity="0.0"
     inkscape:pageshadow="2"
     inkscape:zoom="0.24748737"
     inkscape:cx="-1095.8796"
     inkscape:cy="-172.98685"
     inkscape:document-units="px"
     inkscape:current-layer="layer1"
     showgrid="false"
     inkscape:window-width="1920"
     inkscape:window-height="1134"
     inkscape:window-x="0"
     inkscape:window-y="26"
     inkscape:snap-global="false"
     inkscape:window-maximized="0" />
  <metadata
     id="metadata7">
    <rdf:RDF>
      <cc:Work
         rdf:about="">
        <dc:format>image/svg+xml</dc:format>
        <dc:type
           rdf:resource="http://purl.org/dc/dcmitype/StillImage" />
        <dc:title />
      </cc:Work>
    </rdf:RDF>
  </metadata>
  <g
     inkscape:label="Ebene 1"
     inkscape:groupmode="layer"
     id="layer1"
     transform="translate(-150.51273,-167.46855)">
    <path
       style="font-size:medium;font-style:normal;font-variant:normal;font-weight:normal;font-stretch:normal;text-indent:0;text-align:start;text-decoration:none;line-height:normal;letter-spacing:normal;word-spacing:normal;text-transform:none;direction:ltr;block-progression:tb;writing-mode:lr-tb;text-anchor:start;opacity:0.2;color:#000000;fill:#000000;fill-opacity:1;fill-rule:nonzero;stroke:none;stroke-width:15;marker:none;visibility:visible;display:inline;overflow:visible;filter:url(#filter3803);enable-background:accumulate;font-family:Bitstream Vera Sans;-inkscape-font-specification:Bitstream Vera Sans"
       d="m 315.15625,183.65625 0,0.0312 c -8.92338,0.32053 -15.7559,5.5626 -20.0625,11.09375 -4.33297,5.56502 -7.07155,11.63157 -9.53125,15.96875 -0.006,0.0108 -0.0251,0.0205 -0.0312,0.0312 -39.56564,68.99066 -80.01361,137.59605 -119,207 l -0.3438,0.59385 -0.21875,0.625 c -6.15498,17.67564 9.07017,36.76481 27.625,34.5 0.0515,-0.006 0.10468,0.007 0.15625,0 83.81164,0.22848 167.67419,0.38003 251.5,-0.125 l 0.5625,0 0.53125,-0.0937 C 464.53334,450.51211 474.89053,428.4385 464,413.0625 436.24092,363.86477 407.44461,315.16449 379.46875,266.15625 l 0,-0.0625 -0.0312,-0.0312 c -14.1101,-24.04551 -27.7007,-48.74866 -42.625,-72.71875 l -0.375,-0.59375 -0.5,-0.53125 c -5.21843,-5.65132 -12.66537,-8.93488 -20.5625,-8.5625 -0.0211,0.001 -0.0414,-10e-4 -0.0625,0 -0.0528,0.003 -0.10338,-0.003 -0.15625,0 l -5e-5,-5e-5 z"
       id="path3689"
       sodipodi:nodetypes="ccssscccscccccccccccsscc"
       transform="matrix(0.97804111,0,0,0.97804111,5.9502709,22.334123)" />
    <path
       style="fill:url(#radialGradient3807);fill-opacity:1;stroke:#ff0707;stroke-width:20;stroke-linecap:round;stroke-linejoin:miter;stroke-miterlimit:4;stroke-opacity:0.62500000000000000;stroke-dasharray:none"
       d="m 306.66908,191.41816 c -12.63923,0.33181 -17.6821,13.49752 -22.9795,22.82464 -38.73317,67.53976 -78.30489,134.62855 -116.39136,202.43045 -4.23708,12.16785 7.21006,26.26513 20.11093,23.98134 82.01824,0.22366 164.07204,0.38299 246.06907,-0.11102 12.36102,-1.88181 20.00004,-18.15994 11.97577,-28.4908 -27.10142,-48.03216 -55.2444,-95.66395 -82.64224,-143.65962 -13.86832,-23.63347 -27.13705,-47.73394 -41.59431,-70.95392 -3.66879,-3.97312 -9.12915,-6.32343 -14.54836,-6.02107 z"
       id="path2430" />
    <g
       transform="matrix(0.94061767,0,0,0.90279238,24.131072,18.939901)"
       style="font-size:248.28295898px;font-style:normal;font-variant:normal;font-weight:normal;font-stretch:normal;text-align:start;line-height:125%;writing-mode:lr-tb;text-anchor:start;fill:#000000;fill-opacity:1;stroke:none;font-family:Times New Roman;-inkscape-font-specification:Times New Roman"
       id="text3655">
      <path
         d="m 300.28125,245.15625 c -12.84134,0.85743 -19.03044,15.82282 -16.26183,27.17677 3.63238,35.03149 7.59609,70.0275 11.38683,105.04198 4.9432,2.35904 12.26798,0.53306 12.78125,-5.625 2.80321,-35.80138 8.83591,-71.4476 10.84375,-107.34375 -0.32513,-9.9165 -7.98831,-20.32867 -18.75,-19.25 z M 300.625,398.625 c -13.67808,-0.42365 -22.29826,18.17999 -13.09375,28.25 7.69959,10.88355 27.16113,7.3244 30.40625,-5.6875 3.79456,-10.90474 -5.80083,-23.38301 -17.3125,-22.5625 z"
         id="path3818" />
    </g>
    <path
       style="opacity:0.25;fill:url(#radialGradient3687);fill-opacity:1;stroke:none"
       d="m 307.55543,207.31133 c -7.97472,4.4289 -8.49183,14.93169 -14.18129,21.37728 -19.68078,34.18323 -39.70258,68.09258 -58.89673,102.49774 47.04673,10.94421 97.17901,8.94259 143.34415,-5.16528 -23.40163,-39.57348 -44.55943,-80.54649 -69.9605,-118.832 l -0.30563,0.12226 z"
       id="path2434" />
  </g>
</svg>
