<?xml version="1.0" encoding="UTF-8" standalone="no"?>
<!-- Created with Inkscape (http://www.inkscape.org/) -->

<svg
   xmlns:dc="http://purl.org/dc/elements/1.1/"
   xmlns:cc="http://creativecommons.org/ns#"
   xmlns:rdf="http://www.w3.org/1999/02/22-rdf-syntax-ns#"
   xmlns:svg="http://www.w3.org/2000/svg"
   xmlns="http://www.w3.org/2000/svg"
   xmlns:xlink="http://www.w3.org/1999/xlink"
   xmlns:sodipodi="http://sodipodi.sourceforge.net/DTD/sodipodi-0.dtd"
   xmlns:inkscape="http://www.inkscape.org/namespaces/inkscape"
   width="320"
   height="320"
   id="svg2"
   sodipodi:version="0.32"
   inkscape:version="0.47 r22583"
   sodipodi:docname="ZoomOut.svg"
   inkscape:output_extension="org.inkscape.output.svg.inkscape"
   version="1.0">
  <defs
     id="defs4">
    <linearGradient
       id="linearGradient3480">
      <stop
         id="stop3482"
         offset="0"
         style="stop-color:#ff9393;stop-opacity:1;" />
      <stop
         style="stop-color:#ff4949;stop-opacity:1;"
         offset="0.26206896"
         id="stop3496" />
      <stop
         id="stop3484"
         offset="1"
         style="stop-color:#c80000;stop-opacity:1;" />
    </linearGradient>
    <linearGradient
       id="linearGradient3416">
      <stop
         style="stop-color:#ffffff;stop-opacity:1;"
         offset="0"
         id="stop3418" />
      <stop
         style="stop-color:#ffffff;stop-opacity:0;"
         offset="1"
         id="stop3422" />
    </linearGradient>
    <linearGradient
       id="linearGradient3404">
      <stop
         id="stop3406"
         offset="0"
         style="stop-color:#000000;stop-opacity:0;" />
      <stop
         style="stop-color:#000000;stop-opacity:0;"
         offset="0.5"
         id="stop3410" />
      <stop
         id="stop3408"
         offset="1"
         style="stop-color:#000000;stop-opacity:1;" />
    </linearGradient>
    <linearGradient
       id="linearGradient3365">
      <stop
         style="stop-color:#b08123;stop-opacity:1;"
         offset="0"
         id="stop3367" />
      <stop
         id="stop3377"
         offset="0.36598176"
         style="stop-color:#c79940;stop-opacity:1;" />
      <stop
         id="stop3369"
         offset="0.38967475"
         style="stop-color:#ebd09d;stop-opacity:1;" />
      <stop
         style="stop-color:#4e547a;stop-opacity:1;"
         offset="0.44260192"
         id="stop3373" />
      <stop
         style="stop-color:#161640;stop-opacity:1;"
         offset="1"
         id="stop3371" />
    </linearGradient>
    <linearGradient
       id="linearGradient3331">
      <stop
         style="stop-color:#ffffff;stop-opacity:1;"
         offset="0"
         id="stop3333" />
      <stop
         id="stop3339"
         offset="0.40627211"
         style="stop-color:#f4dc95;stop-opacity:0.49803922;" />
      <stop
         style="stop-color:#f4dc95;stop-opacity:0;"
         offset="1"
         id="stop3335" />
    </linearGradient>
    <linearGradient
       id="linearGradient3269">
      <stop
         id="stop3271"
         offset="0"
         style="stop-color:#ffffff;stop-opacity:1;" />
      <stop
         style="stop-color:#8793b4;stop-opacity:1;"
         offset="0.50120121"
         id="stop3273" />
      <stop
         id="stop3275"
         offset="1"
         style="stop-color:#161640;stop-opacity:1;" />
    </linearGradient>
    <radialGradient
       inkscape:collect="always"
       xlink:href="#linearGradient3269"
       id="radialGradient3325"
       gradientUnits="userSpaceOnUse"
       gradientTransform="matrix(0.6083335,0.4750004,-0.6154347,0.7881878,90.490086,29.911693)"
       cx="2.0203052"
       cy="145.74869"
       fx="2.0203052"
       fy="145.74869"
       r="15.152288" />
    <linearGradient
       id="linearGradient3272">
      <stop
         id="stop3274"
         offset="0"
         style="stop-color:#ffffff;stop-opacity:1;" />
      <stop
         style="stop-color:#bbd5c1;stop-opacity:1;"
         offset="0.5884158"
         id="stop3276" />
      <stop
         id="stop3278"
         offset="1"
         style="stop-color:#71c351;stop-opacity:1;" />
    </linearGradient>
    <linearGradient
       id="linearGradient3166">
      <stop
         style="stop-color:#d5ffff;stop-opacity:1;"
         offset="0"
         id="stop3168" />
      <stop
         id="stop3174"
         offset="0.24137931"
         style="stop-color:#87b492;stop-opacity:1;" />
      <stop
         style="stop-color:#396a25;stop-opacity:1;"
         offset="1"
         id="stop3170" />
    </linearGradient>
    <inkscape:perspective
       sodipodi:type="inkscape:persp3d"
       inkscape:vp_x="0 : 526.18109 : 1"
       inkscape:vp_y="0 : 1000 : 0"
       inkscape:vp_z="744.09448 : 526.18109 : 1"
       inkscape:persp3d-origin="372.04724 : 350.78739 : 1"
       id="perspective10" />
    <filter
       inkscape:collect="always"
       id="filter3383">
      <feGaussianBlur
         inkscape:collect="always"
         stdDeviation="4.8342829"
         id="feGaussianBlur3385" />
    </filter>
    <radialGradient
       inkscape:collect="always"
       xlink:href="#linearGradient3480"
       id="radialGradient3500"
       gradientUnits="userSpaceOnUse"
       gradientTransform="matrix(3.7918535,2.3051364,-1.6056404,2.6412116,-1107.736,-1144.4021)"
       cx="388.55649"
       cy="163.59795"
       fx="388.55649"
       fy="163.59795"
       r="31.147089" />
    <radialGradient
       inkscape:collect="always"
       xlink:href="#linearGradient3480"
       id="radialGradient3502"
       gradientUnits="userSpaceOnUse"
       gradientTransform="matrix(4.4433052,9.3582492e-7,-1.04151e-6,4.9450992,-1635.6195,-641.29949)"
       cx="373.41327"
       cy="167.72707"
       fx="373.41327"
       fy="167.72707"
       r="31.147089" />
    <radialGradient
       inkscape:collect="always"
       xlink:href="#linearGradient3416"
       id="radialGradient3505"
       gradientUnits="userSpaceOnUse"
       gradientTransform="matrix(0.1746776,0.2626466,0.512903,-0.4109473,100.57993,427.79203)"
       cx="-76.426811"
       cy="333.60074"
       fx="-76.426811"
       fy="333.60074"
       r="69.28125" />
    <radialGradient
       inkscape:collect="always"
       xlink:href="#linearGradient3404"
       id="radialGradient3508"
       gradientUnits="userSpaceOnUse"
       gradientTransform="matrix(1.360321,-7.7581535e-2,-0.2880401,-0.6392859,427.23325,499.8683)"
       cx="-39.632404"
       cy="351.98849"
       fx="-39.632404"
       fy="351.98849"
       r="69.28125" />
    <radialGradient
       inkscape:collect="always"
       xlink:href="#linearGradient3331"
       id="radialGradient3511"
       gradientUnits="userSpaceOnUse"
       gradientTransform="matrix(1.8319726,0.1139688,-0.1086445,1.7463873,-200.14518,-231.93224)"
       cx="287.50708"
       cy="274.46075"
       fx="287.50708"
       fy="274.46075"
       r="88.634109" />
    <radialGradient
       inkscape:collect="always"
       xlink:href="#linearGradient3331"
       id="radialGradient3514"
       gradientUnits="userSpaceOnUse"
       gradientTransform="matrix(0.4895959,0.4903407,-0.1071982,0.1070353,233.35047,167.45962)"
       cx="364.35959"
       cy="280.03323"
       fx="364.35959"
       fy="280.03323"
       r="88.634109" />
    <linearGradient
       inkscape:collect="always"
       xlink:href="#linearGradient3365"
       id="linearGradient3517"
       gradientUnits="userSpaceOnUse"
       x1="419.16095"
       y1="415.44797"
       x2="199.35327"
       y2="196.64275" />
    <filter
       inkscape:collect="always"
       id="filter3224"
       x="-0.046599359"
       width="1.0931987"
       y="-0.15827155"
       height="1.3165431">
      <feGaussianBlur
         inkscape:collect="always"
         stdDeviation="3.5577879"
         id="feGaussianBlur3226" />
    </filter>
  </defs>
  <sodipodi:namedview
     id="base"
     pagecolor="#ffffff"
     bordercolor="#666666"
     borderopacity="1.0"
     inkscape:pageopacity="0.0"
     inkscape:pageshadow="2"
     inkscape:zoom="1.4"
     inkscape:cx="-9.3443957"
     inkscape:cy="153.16149"
     inkscape:document-units="px"
     inkscape:current-layer="layer5"
     showgrid="false"
     inkscape:window-width="1920"
     inkscape:window-height="1134"
     inkscape:window-x="-4"
     inkscape:window-y="-4"
     inkscape:window-maximized="1" />
  <metadata
     id="metadata7">
    <rdf:RDF>
      <cc:Work
         rdf:about="">
        <dc:format>image/svg+xml</dc:format>
        <dc:type
           rdf:resource="http://purl.org/dc/dcmitype/StillImage" />
      </cc:Work>
    </rdf:RDF>
  </metadata>
  <g
     inkscape:groupmode="layer"
     id="layer5"
     inkscape:label="Shadows"
     style="display:inline">
    <path
       style="opacity:0.2;fill:#000000;fill-opacity:1;fill-rule:evenodd;stroke:none;display:inline;filter:url(#filter3383)"
       d="m 115.24604,64.875 c -35.479404,0.36711 -67.671284,30.26781 -69.937504,65.8125 -2.62204,27.27429 11.60202,56.42608 37.5625,67.0625 22.231914,10.09547 49.764084,7.63362 69.781254,-6.40625 3.89424,1.33671 10.06561,6.21961 5.84375,10.46875 -2.60661,3.81229 -0.30147,8.71816 3.50216,10.53664 18.59439,19.26121 36.6196,39.08282 55.87284,57.65086 3.91547,-5.99705 11.11727,-8.23226 17.6875,-9.875 1.59592,-5.56313 3.47933,-11.33081 8.21875,-14.78125 3.26819,-6.84904 -5.96515,-9.94791 -9.125,-14.34375 -16.78639,-17.01431 -32.40811,-35.41496 -50.28125,-51.375 -4.55157,6.75985 -15.45466,0.39321 -13.09375,-6.75 2.66913,-5.82449 7.35421,-10.58572 8.94897,-16.93478 12.87468,-33.42987 -4.8273,-77.10269 -40.16772,-87.53397 -7.96544,-2.66471 -16.40757,-3.82022 -24.8125,-3.53125 z m 1,31.0625 c 17.92273,-0.40891 35.74709,13.37566 36.9375,31.625 2.9922,24.39405 -19.84432,49.28306 -44.875,45.3125 -21.075504,-2.30025 -37.907764,-25.47303 -31.156254,-46.03125 4.2155,-17.55561 20.63522,-31.68176 39.093754,-30.90625 z"
       id="path3379"
       transform="matrix(1.2529657,0,0,1.2479592,-9.8462007,-45.428156)" />
    <path
       id="path2447"
       d="M 2.1623214,230.65824 L 2.1623214,233.74854 L 2.1623214,236.83883 C 6.4799214,251.32051 -8.6431286,285.24281 14.523481,280.87546 C 24.890471,281.11046 72.267951,280.87546 182.84774,280.87546 C 180.2985,264.18798 189.61998,246.16628 180.04716,230.65824 C 118.76751,226.72087 63.941641,225.69856 2.1623214,230.65824 z"
       style="opacity:0.2;fill:#000000;fill-opacity:1;stroke:none;stroke-width:3.87212873000000000;stroke-miterlimit:4;stroke-dasharray:none;stroke-opacity:0.68661972000000004;display:inline;filter:url(#filter3224)"
       sodipodi:nodetypes="ccccccc" />
  </g>
  <g
     inkscape:groupmode="layer"
     id="layer4"
     inkscape:label="Symbol"
     style="display:inline">
    <path
       id="rect3451"
       d="M 12.238959,204.82403 L 12.238959,207.91433 L 12.238959,211.00462 C 16.556563,225.4863 1.4335129,259.4086 24.600123,255.04125 C 34.967115,255.27625 82.344597,255.04125 192.92438,255.04125 C 190.37514,238.35377 199.69662,220.33207 190.1238,204.82403 C 128.84415,200.88666 74.018282,199.86435 12.238959,204.82403 z"
       style="fill:url(#radialGradient3500);fill-opacity:1;stroke:url(#radialGradient3502);stroke-width:3.87212873;stroke-miterlimit:4;stroke-dasharray:none;stroke-opacity:0.68661972;display:inline"
       sodipodi:nodetypes="ccccccc" />
  </g>
  <g
     inkscape:label="Zoom"
     inkscape:groupmode="layer"
     id="layer1"
     transform="translate(-150.51273,-167.46855)"
     style="display:inline">
    <use
       x="0"
       y="0"
       xlink:href="#path3259"
       id="use3299"
       transform="translate(183.2039,-533.59478)"
       width="320"
       height="320" />
    <g
       id="g3519"
       transform="matrix(1.378904,0,0,1.3811501,-91.927531,-117.928)">
      <path
         id="path2424"
         d="M 233.51489,229.11447 C 203.55297,256.99235 207.95652,311.55296 242.74143,330.78419 C 264.45808,343.97909 295.10772,343.10483 316.32352,326.82311 C 322.53062,328.8754 331.32242,334.47043 327.61851,342.30896 C 326.54191,343.76971 324.23597,346.86846 327.27548,347.45052 C 345.5103,366.36697 363.47224,386.04725 382.13369,404.24431 C 386.03373,399.99909 391.91086,398.28156 396.9112,396.86643 C 398.68332,392.28664 399.42744,386.74158 404.23681,384.16237 C 407.09187,380.5119 400.34026,379.34772 399.139,376.5349 C 381.84019,359.83319 366.06749,340.6339 348.53336,324.78673 C 339.10977,331.70249 326.73818,318.03753 333.16706,308.8022 C 357.05868,276.76483 342.33779,225.82978 305.8472,213.15018 C 282.0533,203.99451 251.89076,209.55672 233.51489,229.11447 z M 251.23721,243.20784 C 272.06251,223.00974 311.34798,231.29237 319.50901,258.45338 C 329.28265,283.41933 308.1616,316.32577 280.41616,317.00187 C 254.77619,319.31527 231.05252,294.50675 237.13133,268.73504 C 238.82462,259.12648 243.89969,250.00885 251.23721,243.20784 z"
         style="fill:url(#linearGradient3517);fill-opacity:1;fill-rule:evenodd;stroke:#000000;stroke-width:3;stroke-linecap:butt;stroke-linejoin:miter;stroke-miterlimit:4;stroke-dasharray:none;stroke-opacity:0.38380283" />
      <path
         sodipodi:nodetypes="ccccccccc"
         id="path3323"
         d="M 337.23148,328.3123 L 334.41898,331.09355 C 335.42536,333.8326 335.62739,336.8594 334.66898,340.03105 C 332.25306,343.67025 339.37963,345.72525 340.82523,348.9998 C 355.1652,363.68345 368.33903,379.56712 383.82523,392.8123 C 387.86076,390.44684 394.48292,390.5229 394.76273,384.53105 C 395.20601,382.03067 400.02426,379.50433 395.76273,377.84355 C 379.06979,362.53339 365.11038,343.37386 347.79398,329.2498 C 344.09831,330.35007 340.4384,329.85403 337.23148,328.3123 z"
         style="fill:url(#radialGradient3514);fill-opacity:1;fill-rule:evenodd;stroke:none;stroke-width:3;stroke-linecap:butt;stroke-linejoin:miter;stroke-miterlimit:4;stroke-dasharray:none;stroke-opacity:0.38380283" />
      <path
         sodipodi:nodetypes="ccccsscccccccc"
         style="fill:url(#radialGradient3511);fill-opacity:1;fill-rule:evenodd;stroke:#a97b58;stroke-width:3;stroke-linecap:butt;stroke-linejoin:miter;stroke-miterlimit:4;stroke-dasharray:none;stroke-opacity:0.68661972"
         d="M 283.38773,211.9373 C 282.5275,211.93145 281.68746,211.94101 280.82523,211.96855 C 247.30251,212.07385 217.67005,243.56517 220.41898,277.21855 C 221.13325,299.6157 236.01958,321.93749 258.16898,327.9373 C 276.29038,333.99548 297.83942,331.53308 312.85648,319.71855 C 319.46109,314.52244 324.82816,308.18354 329.79398,301.4998 C 351.24333,272.63009 336.33092,224.15345 301.16898,214.6248 C 295.39409,212.8423 289.40936,211.97823 283.38773,211.9373 z M 279.41898,222.9373 C 280.14421,222.92663 280.87609,222.94252 281.60648,222.96855 C 304.1146,222.56692 326.4822,239.88751 328.41898,263.0623 C 332.62319,293.75177 303.80404,324.80237 272.54398,319.9373 C 246.1605,317.18568 224.91857,288.5887 232.48148,262.6873 C 237.14001,241.02561 256.93678,223.26812 279.41898,222.9373 z"
         id="path3347" />
      <path
         sodipodi:nodetypes="cscscc"
         id="path3391"
         d="M 296.98265,313.83028 C 276.60194,324.59127 251.79449,317.33938 241.60795,297.65815 C 238.82289,292.2772 237.42591,286.51833 237.27079,280.77379 C 260.45315,297.87767 279.51416,300.50525 294.5746,292.52695 C 301.47744,288.87016 313.36361,284.41938 319.4506,281.9346 C 317.7224,294.92368 309.72059,307.10467 296.98265,313.83028 z"
         style="fill:url(#radialGradient3508);fill-opacity:1;stroke:none;stroke-width:3;stroke-miterlimit:4;stroke-dasharray:none;stroke-opacity:0.68661972" />
      <path
         id="path3412"
         d="M 298.76172,239.7469 C 279.53244,229.69457 256.12652,236.46889 246.51548,254.85402 C 243.88777,259.88061 242.56971,265.26023 242.42336,270.62647 C 253.22457,250.72039 280.49442,244.33728 303.63257,256.43302 C 310.15008,259.84012 315.64578,264.36382 319.96031,269.54211 C 318.32975,257.40841 310.78001,246.0296 298.76172,239.7469 z"
         style="fill:url(#radialGradient3505);fill-opacity:1;stroke:none;stroke-width:3;stroke-miterlimit:4;stroke-dasharray:none;stroke-opacity:0.68661972" />
    </g>
  </g>
</svg>
