<?xml version="1.0" encoding="UTF-8" standalone="no"?>
<!-- Created with Inkscape (http://www.inkscape.org/) -->

<svg
   xmlns:dc="http://purl.org/dc/elements/1.1/"
   xmlns:cc="http://creativecommons.org/ns#"
   xmlns:rdf="http://www.w3.org/1999/02/22-rdf-syntax-ns#"
   xmlns:svg="http://www.w3.org/2000/svg"
   xmlns="http://www.w3.org/2000/svg"
   xmlns:xlink="http://www.w3.org/1999/xlink"
   xmlns:sodipodi="http://sodipodi.sourceforge.net/DTD/sodipodi-0.dtd"
   xmlns:inkscape="http://www.inkscape.org/namespaces/inkscape"
   width="320"
   height="320"
   id="svg2"
   sodipodi:version="0.32"
   inkscape:version="0.47 r22583"
   sodipodi:docname="ZoomOutButton.svg"
   inkscape:output_extension="org.inkscape.output.svg.inkscape"
   version="1.0">
  <defs
     id="defs4">
    <linearGradient
       id="linearGradient3480">
      <stop
         id="stop3482"
         offset="0"
         style="stop-color:#ff9393;stop-opacity:1;" />
      <stop
         style="stop-color:#ff4949;stop-opacity:1;"
         offset="0.26206896"
         id="stop3496" />
      <stop
         id="stop3484"
         offset="1"
         style="stop-color:#c80000;stop-opacity:1;" />
    </linearGradient>
    <linearGradient
       id="linearGradient3416">
      <stop
         style="stop-color:#ffffff;stop-opacity:1;"
         offset="0"
         id="stop3418" />
      <stop
         style="stop-color:#ffffff;stop-opacity:0;"
         offset="1"
         id="stop3422" />
    </linearGradient>
    <linearGradient
       id="linearGradient3404">
      <stop
         id="stop3406"
         offset="0"
         style="stop-color:#000000;stop-opacity:0;" />
      <stop
         style="stop-color:#000000;stop-opacity:0;"
         offset="0.5"
         id="stop3410" />
      <stop
         id="stop3408"
         offset="1"
         style="stop-color:#000000;stop-opacity:1;" />
    </linearGradient>
    <linearGradient
       id="linearGradient3365">
      <stop
         style="stop-color:#b08123;stop-opacity:1;"
         offset="0"
         id="stop3367" />
      <stop
         id="stop3377"
         offset="0.36598176"
         style="stop-color:#c79940;stop-opacity:1;" />
      <stop
         id="stop3369"
         offset="0.38967475"
         style="stop-color:#ebd09d;stop-opacity:1;" />
      <stop
         style="stop-color:#4e547a;stop-opacity:1;"
         offset="0.44260192"
         id="stop3373" />
      <stop
         style="stop-color:#161640;stop-opacity:1;"
         offset="1"
         id="stop3371" />
    </linearGradient>
    <linearGradient
       id="linearGradient3331">
      <stop
         style="stop-color:#ffffff;stop-opacity:1;"
         offset="0"
         id="stop3333" />
      <stop
         id="stop3339"
         offset="0.40627211"
         style="stop-color:#f4dc95;stop-opacity:0.49803922;" />
      <stop
         style="stop-color:#f4dc95;stop-opacity:0;"
         offset="1"
         id="stop3335" />
    </linearGradient>
    <linearGradient
       id="linearGradient3269">
      <stop
         id="stop3271"
         offset="0"
         style="stop-color:#ffffff;stop-opacity:1;" />
      <stop
         style="stop-color:#8793b4;stop-opacity:1;"
         offset="0.50120121"
         id="stop3273" />
      <stop
         id="stop3275"
         offset="1"
         style="stop-color:#161640;stop-opacity:1;" />
    </linearGradient>
    <radialGradient
       inkscape:collect="always"
       xlink:href="#linearGradient3269"
       id="radialGradient3325"
       gradientUnits="userSpaceOnUse"
       gradientTransform="matrix(0.6083335,0.4750004,-0.6154347,0.7881878,90.490086,29.911693)"
       cx="2.0203052"
       cy="145.74869"
       fx="2.0203052"
       fy="145.74869"
       r="15.152288" />
    <linearGradient
       id="linearGradient3272">
      <stop
         id="stop3274"
         offset="0"
         style="stop-color:#ffffff;stop-opacity:1;" />
      <stop
         style="stop-color:#bbd5c1;stop-opacity:1;"
         offset="0.5884158"
         id="stop3276" />
      <stop
         id="stop3278"
         offset="1"
         style="stop-color:#71c351;stop-opacity:1;" />
    </linearGradient>
    <linearGradient
       id="linearGradient3166">
      <stop
         style="stop-color:#d5ffff;stop-opacity:1;"
         offset="0"
         id="stop3168" />
      <stop
         id="stop3174"
         offset="0.24137931"
         style="stop-color:#87b492;stop-opacity:1;" />
      <stop
         style="stop-color:#396a25;stop-opacity:1;"
         offset="1"
         id="stop3170" />
    </linearGradient>
    <inkscape:perspective
       sodipodi:type="inkscape:persp3d"
       inkscape:vp_x="0 : 526.18109 : 1"
       inkscape:vp_y="0 : 1000 : 0"
       inkscape:vp_z="744.09448 : 526.18109 : 1"
       inkscape:persp3d-origin="372.04724 : 350.78739 : 1"
       id="perspective10" />
    <radialGradient
       inkscape:collect="always"
       xlink:href="#linearGradient3166"
       id="radialGradient2432"
       gradientUnits="userSpaceOnUse"
       gradientTransform="matrix(0.2760087,0.4901916,-1.4925249,0.8403855,1040.0088,-101.64622)"
       cx="-120.66913"
       cy="512.35571"
       fx="-120.66913"
       fy="512.35571"
       r="144.23438" />
    <radialGradient
       inkscape:collect="always"
       xlink:href="#linearGradient3272"
       id="radialGradient3231"
       gradientUnits="userSpaceOnUse"
       gradientTransform="matrix(1.1055172,-0.9264079,1.0117891,1.2074056,50.662198,263.5516)"
       cx="116.9056"
       cy="86.495285"
       fx="116.9056"
       fy="86.495285"
       r="138.84375" />
    <filter
       inkscape:collect="always"
       id="filter3550">
      <feGaussianBlur
         inkscape:collect="always"
         stdDeviation="4.2569531"
         id="feGaussianBlur3552" />
    </filter>
    <filter
       inkscape:collect="always"
       id="filter3383">
      <feGaussianBlur
         inkscape:collect="always"
         stdDeviation="4.8342829"
         id="feGaussianBlur3385" />
    </filter>
    <radialGradient
       inkscape:collect="always"
       xlink:href="#linearGradient3480"
       id="radialGradient3500"
       gradientUnits="userSpaceOnUse"
       gradientTransform="matrix(2.9378053,1.785945,-1.2439982,2.0463252,-705.61264,-661.21079)"
       cx="388.55649"
       cy="163.59795"
       fx="388.55649"
       fy="163.59795"
       r="31.147089" />
    <radialGradient
       inkscape:collect="always"
       xlink:href="#linearGradient3480"
       id="radialGradient3502"
       gradientUnits="userSpaceOnUse"
       gradientTransform="matrix(3.442529,7.2504684e-7,-8.0692825e-7,3.8313027,-1114.5997,-271.42319)"
       cx="373.41327"
       cy="167.72707"
       fx="373.41327"
       fy="167.72707"
       r="31.147089" />
    <radialGradient
       inkscape:collect="always"
       xlink:href="#linearGradient3416"
       id="radialGradient3505"
       gradientUnits="userSpaceOnUse"
       gradientTransform="matrix(0.1746776,0.2626466,0.512903,-0.4109473,100.57993,427.79203)"
       cx="-76.426811"
       cy="333.60074"
       fx="-76.426811"
       fy="333.60074"
       r="69.28125" />
    <radialGradient
       inkscape:collect="always"
       xlink:href="#linearGradient3404"
       id="radialGradient3508"
       gradientUnits="userSpaceOnUse"
       gradientTransform="matrix(1.360321,-7.7581535e-2,-0.2880401,-0.6392859,427.23325,499.8683)"
       cx="-39.632404"
       cy="351.98849"
       fx="-39.632404"
       fy="351.98849"
       r="69.28125" />
    <radialGradient
       inkscape:collect="always"
       xlink:href="#linearGradient3331"
       id="radialGradient3511"
       gradientUnits="userSpaceOnUse"
       gradientTransform="matrix(1.8319726,0.1139688,-0.1086445,1.7463873,-200.14518,-231.93224)"
       cx="287.50708"
       cy="274.46075"
       fx="287.50708"
       fy="274.46075"
       r="88.63411" />
    <radialGradient
       inkscape:collect="always"
       xlink:href="#linearGradient3331"
       id="radialGradient3514"
       gradientUnits="userSpaceOnUse"
       gradientTransform="matrix(0.4895959,0.4903407,-0.1071982,0.1070353,233.35047,167.45962)"
       cx="364.35959"
       cy="280.03323"
       fx="364.35959"
       fy="280.03323"
       r="88.63411" />
    <linearGradient
       inkscape:collect="always"
       xlink:href="#linearGradient3365"
       id="linearGradient3517"
       gradientUnits="userSpaceOnUse"
       x1="419.16095"
       y1="415.44797"
       x2="199.35327"
       y2="196.64275" />
    <filter
       inkscape:collect="always"
       id="filter3597">
      <feGaussianBlur
         inkscape:collect="always"
         stdDeviation="1.8749599"
         id="feGaussianBlur3599" />
    </filter>
    <filter
       inkscape:collect="always"
       id="filter3605">
      <feGaussianBlur
         inkscape:collect="always"
         stdDeviation="3.5934673"
         id="feGaussianBlur3607" />
    </filter>
  </defs>
  <sodipodi:namedview
     id="base"
     pagecolor="#ffffff"
     bordercolor="#666666"
     borderopacity="1.0"
     inkscape:pageopacity="0.0"
     inkscape:pageshadow="2"
     inkscape:zoom="1.4"
     inkscape:cx="136.01274"
     inkscape:cy="10.143894"
     inkscape:document-units="px"
     inkscape:current-layer="layer2"
     showgrid="false"
     inkscape:window-width="1920"
     inkscape:window-height="1134"
     inkscape:window-x="-4"
     inkscape:window-y="-4"
     inkscape:window-maximized="1" />
  <metadata
     id="metadata7">
    <rdf:RDF>
      <cc:Work
         rdf:about="">
        <dc:format>image/svg+xml</dc:format>
        <dc:type
           rdf:resource="http://purl.org/dc/dcmitype/StillImage" />
      </cc:Work>
    </rdf:RDF>
  </metadata>
  <g
     inkscape:groupmode="layer"
     id="layer2"
     inkscape:label="Button"
     style="display:inline">
    <path
       transform="translate(-150.51273,-167.46855)"
       style="opacity:0.3;fill:#000000;fill-opacity:1;stroke:#000000;stroke-width:5;stroke-linecap:round;stroke-linejoin:miter;stroke-miterlimit:4;stroke-dasharray:none;stroke-opacity:0.36267604;filter:url(#filter3550)"
       d="M 324.25897,203.62611 C 247.30959,203.62611 184.85272,266.05172 184.85272,343.00111 C 184.85272,419.95049 247.30958,482.40736 324.25897,482.40736 C 401.20835,482.40736 463.66521,419.95049 463.66522,343.00111 C 463.66522,266.05173 401.20835,203.62611 324.25897,203.62611 z"
       id="path3548" />
    <path
       transform="translate(-150.51273,-167.46855)"
       style="opacity:1;fill:url(#radialGradient2432);fill-opacity:1;stroke:#000000;stroke-width:5;stroke-linecap:round;stroke-linejoin:miter;stroke-miterlimit:4;stroke-dasharray:none;stroke-opacity:0.36267604"
       d="M 305.06607,186.45352 C 228.11669,186.45352 165.65982,248.87913 165.65982,325.82851 C 165.65982,402.77789 228.11668,465.23476 305.06607,465.23476 C 382.01545,465.23476 444.47231,402.77789 444.47232,325.82851 C 444.47232,248.87913 382.01545,186.45352 305.06607,186.45352 z"
       id="path2430" />
    <path
       transform="translate(-150.51273,-167.46855)"
       style="opacity:0.25;fill:url(#radialGradient3231);fill-opacity:1;stroke:none;stroke-width:5;stroke-linecap:round;stroke-linejoin:miter;stroke-miterlimit:4;stroke-dasharray:none;stroke-opacity:0.36267603999999998"
       d="M 301.8125,194.5 C 242.7351,194.88655 187.67993,240.57204 176.49224,298.50526 C 175.5281,303.10776 174.85722,307.88834 174.375,312.59375 C 237.3529,345.17788 313.20037,348.1153 381.05197,330.12021 C 399.97102,324.71068 418.35736,317.04123 435.09375,306.5625 C 427.41043,248.23606 375.65578,198.9162 316.65625,195 C 311.7244,194.55035 306.76417,194.37306 301.8125,194.5 z"
       id="path2434" />
  </g>
  <g
     inkscape:groupmode="layer"
     id="layer5"
     inkscape:label="Shadows"
     style="display:inline">
    <path
       style="opacity:0.3;fill:#000000;fill-opacity:1;fill-rule:evenodd;stroke:none;stroke-width:3;stroke-linecap:butt;stroke-linejoin:miter;stroke-miterlimit:4;stroke-dasharray:none;stroke-opacity:0.38380283;display:inline;filter:url(#filter3383)"
       d="M 115.24604,64.875 C 79.766636,65.24211 47.574756,95.14281 45.308536,130.6875 C 42.686496,157.96179 56.910556,187.11358 82.871036,197.75 C 105.10295,207.84547 132.63512,205.38362 152.65229,191.34375 C 156.54653,192.68046 162.7179,197.56336 158.49604,201.8125 C 155.88943,205.62479 158.19457,210.53066 161.9982,212.34914 C 180.59259,231.61035 198.6178,251.43196 217.87104,270 C 221.78651,264.00295 228.98831,261.76774 235.55854,260.125 C 237.15446,254.56187 239.03787,248.79419 243.77729,245.34375 C 247.04548,238.49471 237.81214,235.39584 234.65229,231 C 217.8659,213.98569 202.24418,195.58504 184.37104,179.625 C 179.81947,186.38485 168.91638,180.01821 171.27729,172.875 C 173.94642,167.05051 178.6315,162.28928 180.22626,155.94022 C 193.10094,122.51035 175.39896,78.83753 140.05854,68.40625 C 132.0931,65.74154 123.65097,64.58603 115.24604,64.875 z M 116.24604,95.9375 C 134.16877,95.52859 151.99313,109.31316 153.18354,127.5625 C 156.17574,151.95655 133.33922,176.84556 108.30854,172.875 C 87.233036,170.57475 70.400776,147.40197 77.152286,126.84375 C 81.367786,109.28814 97.787506,95.16199 116.24604,95.9375 z"
       id="path3379"
       transform="matrix(1.1530722,0,0,1.1502752,-6.888248,-40.574306)" />
    <path
       style="opacity:0.5;fill:#000000;fill-opacity:1;stroke:none;stroke-width:5;stroke-linecap:round;stroke-linejoin:miter;stroke-miterlimit:4;stroke-dasharray:none;stroke-opacity:0.36267604;display:inline;filter:url(#filter3597)"
       d="M 18.468498,228.776 C 28.809028,244.20072 42.156978,257.44467 57.655998,267.68225 C 75.577445,268.93766 105.83036,267.68225 156.5935,267.68225 C 154.61846,254.75332 161.85396,240.79113 154.43725,228.776 C 140.94243,229.48701 101.88317,228.77601 18.468498,228.776 z"
       id="path3592"
       sodipodi:nodetypes="ccccc"
       transform="matrix(0.9026409,0,0,1,15.369505,0)" />
    <path
       style="opacity:0.2;fill:#000000;fill-opacity:1;stroke:none;stroke-width:7.18277073;stroke-miterlimit:4;stroke-dasharray:none;stroke-opacity:0.68661972;display:inline;filter:url(#filter3605)"
       d="M 24.674716,226.93304 L 24.674716,228.12054 L 24.674716,230.52679 C 28.019846,241.74672 16.319736,268.03547 34.268466,264.65179 C 43.573716,264.65178 52.869466,264.65179 62.174716,264.65179 C 47.392976,254.60379 34.652766,241.7659 24.674716,226.93304 z"
       id="path3580"
       sodipodi:nodetypes="cccccc"
       transform="matrix(1.345868,0,0,1.4603201,-4.7185334,-111.96185)" />
  </g>
  <g
     inkscape:groupmode="layer"
     id="layer4"
     inkscape:label="Symbol"
     style="display:inline">
    <path
       transform="translate(-150.51273,-167.46855)"
       id="rect3451"
       d="M 162.10767,384.12592 L 162.10767,386.52018 L 162.10767,388.91444 C 165.45281,400.13438 153.73596,426.41628 171.6847,423.0326 C 179.71671,423.21467 216.42325,423.0326 302.09689,423.0326 C 300.12182,410.10368 307.3438,396.14105 299.92709,384.12592 C 252.4496,381.07537 209.97229,380.28332 162.10767,384.12592 z"
       style="display:inline;fill:url(#radialGradient3500);fill-opacity:1;stroke:url(#radialGradient3502);stroke-width:3;stroke-miterlimit:4;stroke-dasharray:none;stroke-opacity:0.68661972000000004"
       sodipodi:nodetypes="ccccccc" />
  </g>
  <g
     inkscape:label="Zoom"
     inkscape:groupmode="layer"
     id="layer1"
     transform="translate(-150.51273,-167.46855)"
     style="display:inline">
    <g
       id="g3519"
       transform="matrix(1.378904,0,0,1.3811501,-91.927531,-117.928)">
      <path
         id="path2424"
         d="M 233.51489,229.11447 C 203.55297,256.99235 207.95652,311.55296 242.74143,330.78419 C 264.45808,343.97909 295.10772,343.10483 316.32352,326.82311 C 322.53062,328.8754 331.32242,334.47043 327.61851,342.30896 C 326.54191,343.76971 324.23597,346.86846 327.27548,347.45052 C 345.5103,366.36697 363.47224,386.04725 382.13369,404.24431 C 386.03373,399.99909 391.91086,398.28156 396.9112,396.86643 C 398.68332,392.28664 399.42744,386.74158 404.23681,384.16237 C 407.09187,380.5119 400.34026,379.34772 399.139,376.5349 C 381.84019,359.83319 366.06749,340.6339 348.53336,324.78673 C 339.10977,331.70249 326.73818,318.03753 333.16706,308.8022 C 357.05868,276.76483 342.33779,225.82978 305.8472,213.15018 C 282.0533,203.99451 251.89076,209.55672 233.51489,229.11447 z M 251.23721,243.20784 C 272.06251,223.00974 311.34798,231.29237 319.50901,258.45338 C 329.28265,283.41933 308.1616,316.32577 280.41616,317.00187 C 254.77619,319.31527 231.05252,294.50675 237.13133,268.73504 C 238.82462,259.12648 243.89969,250.00885 251.23721,243.20784 z"
         style="fill:url(#linearGradient3517);fill-opacity:1;fill-rule:evenodd;stroke:#000000;stroke-width:3;stroke-linecap:butt;stroke-linejoin:miter;stroke-miterlimit:4;stroke-dasharray:none;stroke-opacity:0.38380283" />
      <path
         sodipodi:nodetypes="ccccccccc"
         id="path3323"
         d="M 337.23148,328.3123 L 334.41898,331.09355 C 335.42536,333.8326 335.62739,336.8594 334.66898,340.03105 C 332.25306,343.67025 339.37963,345.72525 340.82523,348.9998 C 355.1652,363.68345 368.33903,379.56712 383.82523,392.8123 C 387.86076,390.44684 394.48292,390.5229 394.76273,384.53105 C 395.20601,382.03067 400.02426,379.50433 395.76273,377.84355 C 379.06979,362.53339 365.11038,343.37386 347.79398,329.2498 C 344.09831,330.35007 340.4384,329.85403 337.23148,328.3123 z"
         style="fill:url(#radialGradient3514);fill-opacity:1;fill-rule:evenodd;stroke:none;stroke-width:3;stroke-linecap:butt;stroke-linejoin:miter;stroke-miterlimit:4;stroke-dasharray:none;stroke-opacity:0.38380283" />
      <path
         sodipodi:nodetypes="ccccsscccccccc"
         style="fill:url(#radialGradient3511);fill-opacity:1;fill-rule:evenodd;stroke:#a97b58;stroke-width:3;stroke-linecap:butt;stroke-linejoin:miter;stroke-miterlimit:4;stroke-dasharray:none;stroke-opacity:0.68661972"
         d="M 283.38773,211.9373 C 282.5275,211.93145 281.68746,211.94101 280.82523,211.96855 C 247.30251,212.07385 217.67005,243.56517 220.41898,277.21855 C 221.13325,299.6157 236.01958,321.93749 258.16898,327.9373 C 276.29038,333.99548 297.83942,331.53308 312.85648,319.71855 C 319.46109,314.52244 324.82816,308.18354 329.79398,301.4998 C 351.24333,272.63009 336.33092,224.15345 301.16898,214.6248 C 295.39409,212.8423 289.40936,211.97823 283.38773,211.9373 z M 279.41898,222.9373 C 280.14421,222.92663 280.87609,222.94252 281.60648,222.96855 C 304.1146,222.56692 326.4822,239.88751 328.41898,263.0623 C 332.62319,293.75177 303.80404,324.80237 272.54398,319.9373 C 246.1605,317.18568 224.91857,288.5887 232.48148,262.6873 C 237.14001,241.02561 256.93678,223.26812 279.41898,222.9373 z"
         id="path3347" />
      <path
         sodipodi:nodetypes="cscscc"
         id="path3391"
         d="M 296.98265,313.83028 C 276.60194,324.59127 251.79449,317.33938 241.60795,297.65815 C 238.82289,292.2772 237.42591,286.51833 237.27079,280.77379 C 260.45315,297.87767 279.51416,300.50525 294.5746,292.52695 C 301.47744,288.87016 313.36361,284.41938 319.4506,281.9346 C 317.7224,294.92368 309.72059,307.10467 296.98265,313.83028 z"
         style="fill:url(#radialGradient3508);fill-opacity:1;stroke:none;stroke-width:3;stroke-miterlimit:4;stroke-dasharray:none;stroke-opacity:0.68661972" />
      <path
         id="path3412"
         d="M 298.76172,239.7469 C 279.53244,229.69457 256.12652,236.46889 246.51548,254.85402 C 243.88777,259.88061 242.56971,265.26023 242.42336,270.62647 C 253.22457,250.72039 280.49442,244.33728 303.63257,256.43302 C 310.15008,259.84012 315.64578,264.36382 319.96031,269.54211 C 318.32975,257.40841 310.78001,246.0296 298.76172,239.7469 z"
         style="fill:url(#radialGradient3505);fill-opacity:1;stroke:none;stroke-width:3;stroke-miterlimit:4;stroke-dasharray:none;stroke-opacity:0.68661972" />
    </g>
  </g>
</svg>
