<?xml version="1.0" encoding="UTF-8" standalone="no"?>
<svg
   xmlns:dc="http://purl.org/dc/elements/1.1/"
   xmlns:cc="http://creativecommons.org/ns#"
   xmlns:rdf="http://www.w3.org/1999/02/22-rdf-syntax-ns#"
   xmlns:svg="http://www.w3.org/2000/svg"
   xmlns="http://www.w3.org/2000/svg"
   xmlns:sodipodi="http://sodipodi.sourceforge.net/DTD/sodipodi-0.dtd"
   xmlns:inkscape="http://www.inkscape.org/namespaces/inkscape"
   version="1.1"
   viewBox="0 0 26 26"
   enable-background="new 0 0 26 26"
   width="512px"
   height="512px"
   id="svg2"
   inkscape:version="0.92.2 (5c3e80d, 2017-08-06)"
   sodipodi:docname="CheckBoxTristate.svg"
   inkscape:export-filename="C:\Work\Develop\Acf\Include\iqtgui\Resources\Style\AcfDark\Images\CheckBoxChecked.png"
   inkscape:export-xdpi="7"
   inkscape:export-ydpi="7">
  <metadata
     id="metadata10">
    <rdf:RDF>
      <cc:Work
         rdf:about="">
        <dc:format>image/svg+xml</dc:format>
        <dc:type
           rdf:resource="http://purl.org/dc/dcmitype/StillImage" />
      </cc:Work>
    </rdf:RDF>
  </metadata>
  <defs
     id="defs8" />
  <sodipodi:namedview
     pagecolor="#ffffff"
     bordercolor="#666666"
     borderopacity="1"
     objecttolerance="10"
     gridtolerance="10"
     guidetolerance="10"
     inkscape:pageopacity="0"
     inkscape:pageshadow="2"
     inkscape:window-width="2560"
     inkscape:window-height="1378"
     id="namedview6"
     showgrid="false"
     inkscape:zoom="0.65186406"
     inkscape:cx="-507.71184"
     inkscape:cy="307.68906"
     inkscape:window-x="-8"
     inkscape:window-y="-8"
     inkscape:window-maximized="1"
     inkscape:current-layer="svg2" />
  <path
     d="m 2.3564423,11.765454 c 0.019967,-0.25921 0.017661,0.04491 0.017661,-0.151794 0,-0.196699 1.3633769,-1.383388 1.3633769,-1.383388 L 4.6299568,9.5286066 C 4.9996609,9.2379444 5.8365066,9.318026 6.1472404,9.7193092 l 0.4881465,0.6303968 3.9557581,5.213262 c 0.154332,0.196699 0.399308,-0.11787 0.399308,-0.11787 L 19.138918,3.9619756 19.45352,3.601521 19.49754,3.561003 c 0.308664,-0.3933976 2.260479,0.2280427 2.708957,0.5119996 l 1.150752,0.7286045 c 0.448478,0.2839566 0.308664,0.983494 0,1.3768917 v 0 L 11.010671,22.504501 c -0.154332,0.196699 -0.308664,0.295048 -0.540163,0.295048 -0.231498,0 -0.385831,-0.09835 -0.5401622,-0.295048 l -5.647335,-7.761268 z"
     id="path4"
     inkscape:connector-curvature="0"
     style="fill:#ac9d93;fill-opacity:0.28037384;stroke-width:0.82701164"
     inkscape:export-filename="C:\Work\Develop\Acf\Include\iqtgui\Resources\Style\AcfDark\Images\CheckBoxChecked.png"
     inkscape:export-xdpi="7"
     inkscape:export-ydpi="7"
     sodipodi:nodetypes="cscssccccccsscccsccc" />
</svg>
