<?xml version="1.0" encoding="UTF-8" standalone="no"?>
<svg
   xmlns:dc="http://purl.org/dc/elements/1.1/"
   xmlns:cc="http://creativecommons.org/ns#"
   xmlns:rdf="http://www.w3.org/1999/02/22-rdf-syntax-ns#"
   xmlns:svg="http://www.w3.org/2000/svg"
   xmlns="http://www.w3.org/2000/svg"
   xmlns:sodipodi="http://sodipodi.sourceforge.net/DTD/sodipodi-0.dtd"
   xmlns:inkscape="http://www.inkscape.org/namespaces/inkscape"
   version="1.1"
   viewBox="0 0 26 26"
   enable-background="new 0 0 26 26"
   width="512px"
   height="512px"
   id="svg2"
   inkscape:version="0.91pre3 r13670"
   sodipodi:docname="checked.svg"
   inkscape:export-filename="C:\Work\Develop\Acf\Include\iqtgui\Resources\Style\AcfDark\Images\CheckBoxChecked.png"
   inkscape:export-xdpi="7"
   inkscape:export-ydpi="7">
  <metadata
     id="metadata10">
    <rdf:RDF>
      <cc:Work
         rdf:about="">
        <dc:format>image/svg+xml</dc:format>
        <dc:type
           rdf:resource="http://purl.org/dc/dcmitype/StillImage" />
      </cc:Work>
    </rdf:RDF>
  </metadata>
  <defs
     id="defs8" />
  <sodipodi:namedview
     pagecolor="#ffffff"
     bordercolor="#666666"
     borderopacity="1"
     objecttolerance="10"
     gridtolerance="10"
     guidetolerance="10"
     inkscape:pageopacity="0"
     inkscape:pageshadow="2"
     inkscape:window-width="2560"
     inkscape:window-height="1378"
     id="namedview6"
     showgrid="false"
     inkscape:zoom="3.6875"
     inkscape:cx="230.46531"
     inkscape:cy="241.94512"
     inkscape:window-x="-8"
     inkscape:window-y="-8"
     inkscape:window-maximized="1"
     inkscape:current-layer="svg2" />
  <path
     d="m 2.5429535,11.414937 c 0.022086,-0.342628 0.019535,0.05936 0.019535,-0.200645 0,-0.26 1.5080685,-1.828587 1.5080685,-1.828587 L 5.0577499,8.4582314 C 5.4666897,8.0740299 6.3923477,8.1798822 6.7360588,8.7103062 l 0.5399523,0.8332683 4.3755729,6.8909835 c 0.170711,0.26 0.441685,-0.155804 0.441685,-0.155804 L 21.10651,1.10016 21.4545,0.6237048 21.50319,0.5701474 c 0.341422,-0.52000003 2.500378,0.30143088 2.996452,0.6767701 l 1.272878,0.9630824 c 0.496074,0.3753389 0.341422,1.2999999 0,1.8199999 l 0,0 -13.656887,21.5799992 c -0.170711,0.26 -0.341422,0.39 -0.597489,0.39 -0.256067,0 -0.426778,-0.13 -0.597488,-0.39 L 4.6739837,15.351017 Z"
     id="path4"
     inkscape:connector-curvature="0"
     style="fill:#aa4400"
     inkscape:export-filename="C:\Work\Develop\Acf\Include\iqtgui\Resources\Style\AcfDark\Images\CheckBoxChecked.png"
     inkscape:export-xdpi="7"
     inkscape:export-ydpi="7"
     sodipodi:nodetypes="cscssccccccsscccsccc" />
</svg>
