<?xml version="1.0" encoding="UTF-8" standalone="no"?>
<!-- Created with Inkscape (http://www.inkscape.org/) -->
<svg
   xmlns:dc="http://purl.org/dc/elements/1.1/"
   xmlns:cc="http://creativecommons.org/ns#"
   xmlns:rdf="http://www.w3.org/1999/02/22-rdf-syntax-ns#"
   xmlns:svg="http://www.w3.org/2000/svg"
   xmlns="http://www.w3.org/2000/svg"
   xmlns:xlink="http://www.w3.org/1999/xlink"
   xmlns:sodipodi="http://sodipodi.sourceforge.net/DTD/sodipodi-0.dtd"
   xmlns:inkscape="http://www.inkscape.org/namespaces/inkscape"
   width="239.88541"
   height="258.22198"
   id="svg2"
   sodipodi:version="0.32"
   inkscape:version="0.46"
   sodipodi:docname="AcfLogo3d.svg"
   inkscape:output_extension="org.inkscape.output.svg.inkscape"
   version="1.0"
   style="enable-background:new">
  <defs
     id="defs4">
    <linearGradient
       id="linearGradient5292">
      <stop
         id="stop5294"
         offset="0"
         style="stop-color:#000000;stop-opacity:0.11111111;" />
      <stop
         style="stop-color:#7f7f7f;stop-opacity:0.49803922;"
         offset="0.5"
         id="stop5296" />
      <stop
         id="stop5298"
         offset="1"
         style="stop-color:#ffffff;stop-opacity:0;" />
    </linearGradient>
    <linearGradient
       id="linearGradient5177">
      <stop
         style="stop-color:#ffffff;stop-opacity:1;"
         offset="0"
         id="stop5179" />
      <stop
         id="stop5185"
         offset="0.5"
         style="stop-color:#7f7f7f;stop-opacity:0.49803922;" />
      <stop
         style="stop-color:#ffffff;stop-opacity:0;"
         offset="1"
         id="stop5181" />
    </linearGradient>
    <linearGradient
       id="linearGradient5097">
      <stop
         id="stop5099"
         offset="0"
         style="stop-color:#ffffff;stop-opacity:1;" />
      <stop
         style="stop-color:#4c87c4;stop-opacity:1;"
         offset="0.10698436"
         id="stop5105" />
      <stop
         style="stop-color:#004389;stop-opacity:1;"
         offset="0.50289375"
         id="stop5101" />
      <stop
         id="stop5103"
         offset="1"
         style="stop-color:#cee7ff;stop-opacity:1;" />
    </linearGradient>
    <linearGradient
       id="linearGradient5085">
      <stop
         id="stop5087"
         offset="0"
         style="stop-color:#cccccc;stop-opacity:1;" />
      <stop
         style="stop-color:#ffffff;stop-opacity:1;"
         offset="0.04779983"
         id="stop5093" />
      <stop
         style="stop-color:#242a31;stop-opacity:1;"
         offset="0.13053861"
         id="stop5089" />
      <stop
         id="stop3443"
         offset="0.23136072"
         style="stop-color:#74a8de;stop-opacity:1;" />
      <stop
         style="stop-color:#0a3d6e;stop-opacity:1;"
         offset="0.34516305"
         id="stop3445" />
      <stop
         id="stop3447"
         offset="0.92367542"
         style="stop-color:#6c8fe9;stop-opacity:1;" />
      <stop
         id="stop5091"
         offset="1"
         style="stop-color:#2695ff;stop-opacity:1;" />
    </linearGradient>
    <linearGradient
       id="linearGradient5048">
      <stop
         id="stop5050"
         offset="0"
         style="stop-color:#ffffff;stop-opacity:0" />
      <stop
         style="stop-color:#0af27e;stop-opacity:1;"
         offset="0.7562812"
         id="stop5052" />
      <stop
         id="stop5054"
         offset="1"
         style="stop-color:#0af27e;stop-opacity:1;" />
    </linearGradient>
    <linearGradient
       id="linearGradient5030">
      <stop
         style="stop-color:#99ccff;stop-opacity:1;"
         offset="0"
         id="stop5032" />
      <stop
         id="stop5038"
         offset="0.52477914"
         style="stop-color:#004389;stop-opacity:1;" />
      <stop
         style="stop-color:#cee7ff;stop-opacity:1;"
         offset="1"
         id="stop5034" />
    </linearGradient>
    <linearGradient
       id="linearGradient3174">
      <stop
         style="stop-color:#ffe2c0;stop-opacity:1;"
         offset="0"
         id="stop3176" />
      <stop
         id="stop3182"
         offset="0.84038174"
         style="stop-color:#000000;stop-opacity:1;" />
      <stop
         style="stop-color:#000000;stop-opacity:1;"
         offset="1"
         id="stop3178" />
    </linearGradient>
    <linearGradient
       id="linearGradient3164">
      <stop
         style="stop-color:#ffffff;stop-opacity:1;"
         offset="0"
         id="stop3166" />
      <stop
         id="stop3172"
         offset="0.7562812"
         style="stop-color:#0af27e;stop-opacity:1;" />
      <stop
         style="stop-color:#0af27e;stop-opacity:1;"
         offset="1"
         id="stop3168" />
    </linearGradient>
    <inkscape:perspective
       sodipodi:type="inkscape:persp3d"
       inkscape:vp_x="0 : 526.18109 : 1"
       inkscape:vp_y="0 : 1000 : 0"
       inkscape:vp_z="744.09448 : 526.18109 : 1"
       inkscape:persp3d-origin="372.04724 : 350.78739 : 1"
       id="perspective10" />
    <inkscape:perspective
       id="perspective2390"
       inkscape:persp3d-origin="372.04724 : 350.78739 : 1"
       inkscape:vp_z="744.09448 : 526.18109 : 1"
       inkscape:vp_y="0 : 1000 : 0"
       inkscape:vp_x="0 : 526.18109 : 1"
       sodipodi:type="inkscape:persp3d" />
    <inkscape:perspective
       id="perspective3188"
       inkscape:persp3d-origin="372.04724 : 350.78739 : 1"
       inkscape:vp_z="744.09448 : 526.18109 : 1"
       inkscape:vp_y="0 : 1000 : 0"
       inkscape:vp_x="0 : 526.18109 : 1"
       sodipodi:type="inkscape:persp3d" />
    <inkscape:perspective
       id="perspective3324"
       inkscape:persp3d-origin="382.5 : 330 : 1"
       inkscape:vp_z="765 : 495 : 1"
       inkscape:vp_y="0 : 1000 : 0"
       inkscape:vp_x="0 : 495 : 1"
       sodipodi:type="inkscape:persp3d" />
    <radialGradient
       inkscape:collect="always"
       xlink:href="#linearGradient3164"
       id="radialGradient5163"
       gradientUnits="userSpaceOnUse"
       gradientTransform="matrix(0.618591,-0.7585158,0.582427,0.5281292,186.50458,605.52465)"
       cx="174.39394"
       cy="-2.8387027"
       fx="174.39394"
       fy="-2.8387027"
       r="110.768" />
    <radialGradient
       inkscape:collect="always"
       xlink:href="#linearGradient5177"
       id="radialGradient5183"
       cx="323.45715"
       cy="519.43292"
       fx="323.45715"
       fy="519.43292"
       r="102.018"
       gradientTransform="matrix(-0.699955,0.6760441,-1.4101436,-1.6455882,1293.0842,1156.5084)"
       gradientUnits="userSpaceOnUse" />
    <radialGradient
       inkscape:collect="always"
       xlink:href="#linearGradient3174"
       id="radialGradient5280"
       cx="381.02374"
       cy="-169.68698"
       fx="381.02374"
       fy="-169.68698"
       r="112.01563"
       gradientTransform="matrix(0.261429,0.309316,-0.8765459,0.7408427,132.67463,-171.02246)"
       gradientUnits="userSpaceOnUse" />
    <radialGradient
       inkscape:collect="always"
       xlink:href="#linearGradient3174"
       id="radialGradient5282"
       gradientUnits="userSpaceOnUse"
       gradientTransform="matrix(0.1163724,0.2539932,-1.1880709,0.5565313,130.82249,-182.93536)"
       cx="358.2023"
       cy="-194.25717"
       fx="358.2023"
       fy="-194.25717"
       r="112.01563" />
    <radialGradient
       inkscape:collect="always"
       xlink:href="#linearGradient5030"
       id="radialGradient5326"
       cx="341.59991"
       cy="545.31714"
       fx="341.59991"
       fy="545.31714"
       r="16.970562"
       gradientTransform="matrix(1.180655,1.0511828,-0.9676167,1.0039343,465.94629,-361.12277)"
       gradientUnits="userSpaceOnUse" />
    <linearGradient
       inkscape:collect="always"
       xlink:href="#linearGradient5085"
       id="linearGradient5328"
       gradientUnits="userSpaceOnUse"
       gradientTransform="matrix(0.9703046,0,0,0.9997678,15.044771,-236.89941)"
       x1="217.8187"
       y1="662.91699"
       x2="198.20229"
       y2="908.12939" />
    <filter
       inkscape:collect="always"
       id="filter3378">
      <feGaussianBlur
         inkscape:collect="always"
         stdDeviation="0.31256436"
         id="feGaussianBlur3380" />
    </filter>
    <filter
       inkscape:collect="always"
       id="filter3439">
      <feGaussianBlur
         inkscape:collect="always"
         stdDeviation="3.3145897"
         id="feGaussianBlur3441" />
    </filter>
    <radialGradient
       inkscape:collect="always"
       xlink:href="#linearGradient3174"
       id="radialGradient2459"
       gradientUnits="userSpaceOnUse"
       gradientTransform="matrix(0.1163724,0.2539932,-1.1880709,0.5565313,130.82249,-182.93536)"
       cx="358.2023"
       cy="-194.25717"
       fx="358.2023"
       fy="-194.25717"
       r="112.01563" />
    <radialGradient
       inkscape:collect="always"
       xlink:href="#linearGradient3174"
       id="radialGradient2461"
       gradientUnits="userSpaceOnUse"
       gradientTransform="matrix(0.261429,0.309316,-0.8765459,0.7408427,132.67463,-171.02246)"
       cx="381.02374"
       cy="-169.68698"
       fx="381.02374"
       fy="-169.68698"
       r="112.01563" />
  </defs>
  <sodipodi:namedview
     id="base"
     pagecolor="#ffffff"
     bordercolor="#666666"
     borderopacity="1.0"
     inkscape:pageopacity="0.0"
     inkscape:pageshadow="2"
     inkscape:zoom="2"
     inkscape:cx="120.43216"
     inkscape:cy="167.69229"
     inkscape:document-units="px"
     inkscape:current-layer="layer4"
     showgrid="true"
     inkscape:snap-global="false"
     showguides="true"
     inkscape:guide-bbox="true"
     inkscape:window-width="1920"
     inkscape:window-height="1134"
     inkscape:window-x="0"
     inkscape:window-y="26">
    <inkscape:grid
       type="xygrid"
       id="grid3176"
       visible="true"
       enabled="true" />
  </sodipodi:namedview>
  <metadata
     id="metadata7">
    <rdf:RDF>
      <cc:Work
         rdf:about="">
        <dc:format>image/svg+xml</dc:format>
        <dc:type
           rdf:resource="http://purl.org/dc/dcmitype/StillImage" />
      </cc:Work>
    </rdf:RDF>
  </metadata>
  <g
     inkscape:groupmode="layer"
     id="layer2"
     inkscape:label="Side"
     style="display:inline"
     transform="translate(-214.15812,-420.02424)">
    <path
       style="opacity:1;fill:url(#linearGradient5328);fill-opacity:1;stroke:#000000;stroke-width:1;stroke-miterlimit:4;stroke-dasharray:none;stroke-opacity:1;display:inline"
       d="M 247.86323,422.24594 C 244.15231,422.33446 239.49053,423.31021 234.73379,425.25513 C 229.2975,427.47787 223.48417,431.82516 219.72438,438.6895 C 216.06241,445.3753 214.45581,454.0049 215.14576,464.52726 C 215.14576,464.52726 214.66061,644.59581 214.66061,644.59581 L 214.66061,644.72078 L 214.66061,644.84575 C 214.66061,644.84575 214.39456,653.46288 219.36052,661.74807 C 223.88756,669.30098 230.91646,672.42403 240.58469,673.74648 L 268.35066,677.54439 L 273.61243,420.55829 L 247.86323,422.24594 z"
       id="path5040"
       sodipodi:nodetypes="cssccccszccc" />
  </g>
  <g
     inkscape:groupmode="layer"
     id="layer3"
     inkscape:label="Background"
     style="display:inline"
     transform="translate(-214.15812,-420.02424)">
    <path
       d="M 275.64236,424.97167 C 275.64236,424.97167 244.33397,418.46902 247.18018,456.48449 C 247.18018,456.48449 246.70581,639.51098 246.70581,639.51098 C 246.70581,639.51098 247.18018,664.52116 271.84741,661.51994 C 271.84741,661.51994 427.00044,631.50772 427.00044,631.50772 C 427.00044,631.50772 440.28279,629.00671 440.28279,612.49999 C 440.28279,612.49999 440.28279,464.48775 440.28279,464.48775 C 440.28279,464.48775 438.38531,448.48124 423.20548,446.48042 C 423.20548,446.48042 275.64236,424.97167 275.64236,424.97167 z"
       style="fill:url(#radialGradient5163);fill-opacity:1;stroke:none;stroke-width:1;stroke-miterlimit:4;stroke-dasharray:none;display:inline"
       sodipodi:nodetypes="ccccccccc"
       id="path5161" />
  </g>
  <g
     inkscape:label="Ebene 1"
     inkscape:groupmode="layer"
     id="layer1"
     style="display:inline"
     transform="translate(-214.15812,-420.02424)">
    <path
       sodipodi:type="arc"
       style="opacity:1;fill:url(#radialGradient5326);fill-opacity:1;fill-rule:nonzero;stroke:none;stroke-width:4;stroke-linecap:round;stroke-miterlimit:4;stroke-dasharray:none;stroke-dashoffset:0;stroke-opacity:1"
       id="path5318"
       sodipodi:cx="347.18942"
       sodipodi:cy="548.7254"
       sodipodi:rx="16.970562"
       sodipodi:ry="16.440233"
       d="M 364.15998,548.7254 A 16.970562,16.440233 0 1 1 330.21886,548.7254 A 16.970562,16.440233 0 1 1 364.15998,548.7254 z"
       transform="matrix(1.2452204,0,0,1.3661473,-83.759663,-202.32934)" />
    <path
       id="path5286"
       transform="matrix(0.9487393,0,0,1.0004071,23.200583,-0.2235684)"
       d="M 264.75,424.8125 C 261.62253,425.14365 258.11709,425.87012 254.53125,427.3125 C 248.85357,429.59631 242.77048,434.07214 238.84375,441.125 C 237.74049,443.10659 236.83371,445.24979 236.09375,447.5625 C 235.85172,450.2388 235.83144,453.20861 236.09375,456.53125 C 236.09376,456.53124 235.59375,639.46875 235.59375,639.46875 C 235.59376,639.46878 236.09185,663.73629 261,661.5625 C 260.47945,660.87045 260.04873,660.1153 259.59375,659.3125 C 257.66604,655.91112 257.40625,651.75 257.40625,651.75 C 257.40624,651.75004 257.3576,610.92839 257.3125,571.375 L 313.53125,569.25 C 318.76547,582.73442 331.39036,592.53125 346.3125,592.53125 C 365.99156,592.53126 381.4375,575.45086 381.4375,555.46875 C 381.43748,535.48669 365.99156,518.40625 346.3125,518.40625 C 330.03839,518.40629 316.48272,529.99686 312.28125,545.375 L 257.28125,543.84375 C 257.23915,506.91983 257.1875,467.71875 257.1875,467.71875 L 257.1875,467.3125 L 257.15625,466.90625 C 256.50915,458.59769 257.85517,453.89242 259.34375,451.21875 C 260.83233,448.54506 262.54097,447.33252 264.84375,446.40625 C 267.14652,445.47997 269.82078,445.23973 271.90625,445.21875 C 273.99171,445.19778 275.5,445.40625 275.5,445.40625 L 275.78125,445.46875 L 276.0625,445.5 C 276.0625,445.50001 430.8125,467.59375 430.8125,467.59375 L 430.875,467.59375 L 430.9375,467.59375 C 435.79586,468.20935 437.26353,470.17122 438.6875,472.625 C 439.11527,473.36213 439.38701,474.0107 439.625,474.59375 C 439.625,473.31786 439.625,464.53125 439.625,464.53125 C 439.62501,464.53124 437.625,448.53125 421.625,446.53125 C 421.62501,446.53124 266.09375,425.03125 266.09375,425.03125 C 266.09375,425.03125 265.54337,424.90881 264.75,424.8125 z M 346.34375,478.625 C 326.82732,478.62499 309.00854,484.722 294.0625,494.6875 L 305.15625,511.875 C 317.14006,503.88458 330.95494,499.15625 346.34375,499.15625 C 375.553,499.15623 399.40626,524.06407 399.40625,555.53125 C 399.40625,586.99843 375.55301,611.90625 346.34375,611.90625 C 331.73834,611.90624 315.1723,605.27919 302.6875,597.90625 L 292.46875,615.65625 C 306.9138,624.18679 326.0419,632.4375 346.34375,632.4375 C 383.76962,632.43751 414.47967,602.87604 419.0625,565.25 L 439.625,564.8125 C 439.625,557.72859 439.625,556.5529 439.625,548.59375 L 419.28125,547.40625 C 415.40735,508.9998 384.31341,478.625 346.34375,478.625 z M 346.3125,538.96875 C 354.52399,538.96879 361.15624,545.85444 361.15625,555.46875 C 361.15625,565.08309 354.52399,572 346.3125,572 C 338.10146,572.00001 331.18751,564.96562 331.1875,555.46875 C 331.18748,545.97144 338.10101,538.96875 346.3125,538.96875 z"
       style="fill:#4d0000;fill-opacity:0.49295774;stroke:none;stroke-width:20;stroke-opacity:1;filter:url(#filter3439)" />
    <g
       id="g5201"
       transform="matrix(0.9487393,0,0,1.0004072,-63.195077,656.63827)"
       style="fill:url(#radialGradient2461);fill-opacity:1;stroke:none">
      <path
         style="fill:url(#radialGradient2459);fill-opacity:1;stroke:none;stroke-width:20;stroke-opacity:1"
         d="M 354.78316,-236.01058 C 350.96467,-235.92204 346.21673,-235.2997 341.31441,-233.35433 C 335.71176,-231.13106 329.7205,-226.78277 325.84566,-219.91683 C 322.07161,-213.22947 320.41584,-204.59787 321.12691,-194.07308 C 321.12691,-194.07308 320.62691,-11.135575 320.62691,-11.135575 L 320.62691,-11.010575 L 320.62691,-10.885575 C 320.62691,-10.885545 320.62288,-2.4180651 325.47066,6.0206749 C 330.31844,14.459445 342.13374,22.696565 358.28316,20.833175 L 358.59566,20.801925 L 358.93941,20.739425 C 358.9394,20.739455 522.47066,-9.2605751 522.47066,-9.2605751 C 522.47065,-9.2605451 528.29171,-10.286675 533.75191,-14.479325 C 539.2121,-18.671945 544.65816,-27.026045 544.65816,-38.104325 C 544.65815,-38.104295 544.65816,-186.04183 544.65816,-186.04183 L 544.65816,-186.66683 L 544.59566,-187.29183 C 544.59565,-187.29183 543.87801,-193.24309 540.28316,-199.35433 C 536.6883,-205.46558 529.11398,-212.5786 517.90816,-213.97933 C 517.90815,-213.97933 364.18557,-235.19934 363.06441,-235.35433 C 363.0644,-235.35433 362.62397,-235.42321 362.50191,-235.44808 C 361.8366,-235.58361 359.7871,-235.96692 356.37691,-236.01058 C 355.87243,-236.01704 355.32866,-236.02323 354.78316,-236.01058 z M 358.47066,-215.91683 C 360.52856,-215.93726 362.00191,-215.72933 362.00191,-215.72933 L 362.28316,-215.66683 L 362.56441,-215.63558 C 362.5644,-215.63558 515.28316,-194.13558 515.28316,-194.13558 L 515.34566,-194.13558 L 515.40816,-194.13558 C 520.20233,-193.53631 521.62801,-191.61808 523.03316,-189.22933 C 524.25381,-187.15422 524.57937,-185.60516 524.65816,-185.16683 C 524.65815,-184.3447 524.65816,-149.94499 524.65816,-115.26058 L 503.87691,-116.44808 C 500.05421,-153.83665 469.37609,-183.41683 431.90816,-183.41683 C 412.64962,-183.41683 395.06295,-177.46196 380.31441,-167.76058 L 391.28316,-151.04183 C 403.10862,-158.82046 416.7227,-163.41683 431.90816,-163.41683 C 460.73144,-163.41684 484.28317,-139.17503 484.28316,-108.54183 C 484.28316,-77.908625 460.73145,-53.666825 431.90816,-53.666825 C 417.49574,-53.666835 401.16549,-60.114295 388.84566,-67.291825 L 378.75191,-50.010575 C 393.00607,-41.706115 411.87458,-33.666825 431.90816,-33.666825 C 468.83948,-33.666825 499.16714,-62.444245 503.68941,-99.073075 L 524.65816,-99.510575 C 524.65816,-69.867645 524.65816,-38.104325 524.65816,-38.104325 C 524.65815,-32.682575 523.10421,-31.536675 521.56441,-30.354325 C 520.0246,-29.171945 518.90816,-28.948075 518.90816,-28.948075 L 518.87691,-28.948075 L 518.84566,-28.916825 C 518.84565,-28.916795 360.80555,-2.8434751 359.50191,-2.6043251 C 349.65132,-1.4676951 348.21663,-4.1993151 346.31441,-7.5105751 C 344.41218,-10.821815 344.15816,-14.854325 344.15816,-14.854325 C 344.15816,-14.854315 344.10891,-54.599225 344.06441,-93.104325 L 399.53316,-95.166825 C 404.69821,-82.039785 417.15195,-72.510575 431.87691,-72.510575 C 451.29592,-72.510555 466.53316,-89.151815 466.53316,-108.60433 C 466.53313,-128.0568 451.29593,-144.66683 431.87691,-144.66683 C 415.81784,-144.66681 402.46036,-133.3874 398.31441,-118.41683 L 344.03316,-119.91683 C 343.99162,-155.86215 343.93941,-194.01058 343.93941,-194.01058 L 343.93941,-194.41683 L 343.90816,-194.82308 C 343.26961,-202.91144 344.5955,-207.47027 346.06441,-210.07308 C 347.53332,-212.6759 349.22956,-213.85886 351.50191,-214.76058 C 353.77425,-215.66231 356.41275,-215.89641 358.47066,-215.91683 z M 431.87691,-124.66683 C 439.97988,-124.66681 446.53315,-117.96383 446.53316,-108.60433 C 446.53315,-99.244805 439.97989,-92.510575 431.87691,-92.510575 C 423.77436,-92.510555 416.97067,-99.359155 416.97066,-108.60433 C 416.97065,-117.84993 423.77393,-124.66683 431.87691,-124.66683 z"
         id="path5203" />
    </g>
    <g
       id="g5187">
      <g
         id="g3303"
         transform="translate(-20.0878,563.60998)" />
      <g
         id="g3307"
         transform="translate(32.9955,542.80288)" />
      <g
         id="g3311"
         transform="translate(87.4955,545.55288)" />
      <g
         id="g3315"
         transform="translate(87.4955,545.55288)" />
      <g
         transform="translate(104.7455,494.26718)"
         id="g5148" />
    </g>
    <g
       id="g5205"
       transform="translate(32.9955,542.80288)" />
    <g
       id="g5209"
       transform="translate(87.4955,545.55288)" />
    <g
       id="g5213"
       transform="translate(87.4955,545.55288)" />
    <g
       transform="translate(104.7455,494.26718)"
       id="g5217" />
    <g
       style="fill:url(#radialGradient5280);fill-opacity:1;stroke:#ffffff;stroke-width:1.02645087;stroke-miterlimit:4;stroke-dasharray:none;stroke-opacity:1"
       transform="matrix(0.9487393,0,0,1.0004072,-63.195077,656.63827)"
       id="g3230">
      <path
         id="path3232"
         d="M 354.78316,-236.01058 C 350.96467,-235.92204 346.21673,-235.2997 341.31441,-233.35433 C 335.71176,-231.13106 329.7205,-226.78277 325.84566,-219.91683 C 322.07161,-213.22947 320.41584,-204.59787 321.12691,-194.07308 C 321.12691,-194.07308 320.62691,-11.135575 320.62691,-11.135575 L 320.62691,-11.010575 L 320.62691,-10.885575 C 320.62691,-10.885545 320.62288,-2.4180651 325.47066,6.0206749 C 330.31844,14.459445 342.13374,22.696565 358.28316,20.833175 L 358.59566,20.801925 L 358.93941,20.739425 C 358.9394,20.739455 522.47066,-9.2605751 522.47066,-9.2605751 C 522.47065,-9.2605451 528.29171,-10.286675 533.75191,-14.479325 C 539.2121,-18.671945 544.65816,-27.026045 544.65816,-38.104325 C 544.65815,-38.104295 544.65816,-186.04183 544.65816,-186.04183 L 544.65816,-186.66683 L 544.59566,-187.29183 C 544.59565,-187.29183 543.87801,-193.24309 540.28316,-199.35433 C 536.6883,-205.46558 529.11398,-212.5786 517.90816,-213.97933 C 517.90815,-213.97933 364.18557,-235.19934 363.06441,-235.35433 C 363.0644,-235.35433 362.62397,-235.42321 362.50191,-235.44808 C 361.8366,-235.58361 359.7871,-235.96692 356.37691,-236.01058 C 355.87243,-236.01704 355.32866,-236.02323 354.78316,-236.01058 z M 358.47066,-215.91683 C 360.52856,-215.93726 362.00191,-215.72933 362.00191,-215.72933 L 362.28316,-215.66683 L 362.56441,-215.63558 C 362.5644,-215.63558 515.28316,-194.13558 515.28316,-194.13558 L 515.34566,-194.13558 L 515.40816,-194.13558 C 520.20233,-193.53631 521.62801,-191.61808 523.03316,-189.22933 C 524.25381,-187.15422 524.57937,-185.60516 524.65816,-185.16683 C 524.65815,-184.3447 524.65816,-149.94499 524.65816,-115.26058 L 503.87691,-116.44808 C 500.05421,-153.83665 469.37609,-183.41683 431.90816,-183.41683 C 412.64962,-183.41683 395.06295,-177.46196 380.31441,-167.76058 L 391.28316,-151.04183 C 403.10862,-158.82046 416.7227,-163.41683 431.90816,-163.41683 C 460.73144,-163.41684 484.28317,-139.17503 484.28316,-108.54183 C 484.28316,-77.908625 460.73145,-53.666825 431.90816,-53.666825 C 417.49574,-53.666835 401.16549,-60.114295 388.84566,-67.291825 L 378.75191,-50.010575 C 393.00607,-41.706115 411.87458,-33.666825 431.90816,-33.666825 C 468.83948,-33.666825 499.16714,-62.444245 503.68941,-99.073075 L 524.65816,-99.510575 C 524.65816,-69.867645 524.65816,-38.104325 524.65816,-38.104325 C 524.65815,-32.682575 523.10421,-31.536675 521.56441,-30.354325 C 520.0246,-29.171945 518.90816,-28.948075 518.90816,-28.948075 L 518.87691,-28.948075 L 518.84566,-28.916825 C 518.84565,-28.916795 360.80555,-2.8434751 359.50191,-2.6043251 C 349.65132,-1.4676951 348.21663,-4.1993151 346.31441,-7.5105751 C 344.41218,-10.821815 344.15816,-14.854325 344.15816,-14.854325 C 344.15816,-14.854315 344.10891,-54.599225 344.06441,-93.104325 L 399.53316,-95.166825 C 404.69821,-82.039785 417.15195,-72.510575 431.87691,-72.510575 C 451.29592,-72.510555 466.53316,-89.151815 466.53316,-108.60433 C 466.53313,-128.0568 451.29593,-144.66683 431.87691,-144.66683 C 415.81784,-144.66681 402.46036,-133.3874 398.31441,-118.41683 L 344.03316,-119.91683 C 343.99162,-155.86215 343.93941,-194.01058 343.93941,-194.01058 L 343.93941,-194.41683 L 343.90816,-194.82308 C 343.26961,-202.91144 344.5955,-207.47027 346.06441,-210.07308 C 347.53332,-212.6759 349.22956,-213.85886 351.50191,-214.76058 C 353.77425,-215.66231 356.41275,-215.89641 358.47066,-215.91683 z M 431.87691,-124.66683 C 439.97988,-124.66681 446.53315,-117.96383 446.53316,-108.60433 C 446.53315,-99.244805 439.97989,-92.510575 431.87691,-92.510575 C 423.77436,-92.510555 416.97067,-99.359155 416.97066,-108.60433 C 416.97065,-117.84993 423.77393,-124.66683 431.87691,-124.66683 z"
         style="fill:url(#radialGradient5282);fill-opacity:1;stroke:#ffffff;stroke-width:1.02645087;stroke-miterlimit:4;stroke-dasharray:none;stroke-opacity:1" />
    </g>
  </g>
  <g
     inkscape:groupmode="layer"
     id="layer4"
     inkscape:label="Signature"
     transform="translate(-214.15812,-420.02424)">
    <path
       transform="matrix(0.9665599,1.5396183e-3,-1.4383731e-3,1.0345948,0,0)"
       style="font-size:8.00061035px;font-style:normal;font-variant:normal;font-weight:bold;font-stretch:normal;text-align:start;line-height:125%;writing-mode:lr-tb;text-anchor:start;fill:#000000;fill-opacity:0.1254902;stroke:none;stroke-width:1px;stroke-linecap:butt;stroke-linejoin:miter;stroke-opacity:1;display:inline;font-family:Bitstream Vera Sans;-inkscape-font-specification:Bitstream Vera Sans Bold"
       d="M 280.35626,601.98383 L 282.55565,596.25683 L 283.37212,596.25683 L 285.71605,601.98383 L 284.8527,601.98383 L 284.18468,600.24932 L 281.78996,600.24932 L 281.16101,601.98383 L 280.35626,601.98383 z M 282.00873,599.63208 L 283.95029,599.63208 L 283.35258,598.04603 C 283.17028,597.56422 283.03485,597.16836 282.9463,596.85843 C 282.87338,597.22565 282.77051,597.59027 282.63769,597.95227 L 282.00873,599.63208 z M 290.41562,599.97586 L 291.17349,600.16728 C 291.01462,600.78973 290.72879,601.26437 290.31601,601.59122 C 289.90321,601.91807 289.39861,602.08149 288.80222,602.08149 C 288.18498,602.08149 287.68299,601.95583 287.29624,601.70451 C 286.90949,601.45319 286.6152,601.08923 286.41336,600.61263 C 286.21153,600.13603 286.11061,599.62427 286.11061,599.07735 C 286.11061,598.48096 286.22455,597.96074 286.45243,597.51669 C 286.68031,597.07265 287.00455,596.73538 287.42516,596.50489 C 287.84576,596.27441 288.30869,596.15917 288.81394,596.15916 C 289.38689,596.15917 289.8687,596.30501 290.25936,596.5967 C 290.65001,596.88839 290.92217,597.29858 291.07583,597.82726 L 290.32968,598.00305 C 290.19685,597.58636 290.00413,597.28295 289.75151,597.09283 C 289.49888,596.90271 289.18115,596.80765 288.79831,596.80765 C 288.35817,596.80765 287.9903,596.91313 287.69471,597.12408 C 287.39911,597.33504 287.19142,597.61826 287.07162,597.97375 C 286.95182,598.32925 286.89191,598.69582 286.89192,599.07345 C 286.89191,599.56047 286.96288,599.98563 287.10482,600.34894 C 287.24676,600.71225 287.46748,600.98375 287.76698,601.16345 C 288.06648,601.34315 288.39073,601.433 288.73971,601.433 C 289.16422,601.433 289.52362,601.3106 289.81792,601.06579 C 290.11221,600.82098 290.31144,600.45767 290.41562,599.97586 L 290.41562,599.97586 z M 292.15013,601.98383 L 292.15013,596.25683 L 296.01371,596.25683 L 296.01371,596.93266 L 292.908,596.93266 L 292.908,598.70623 L 295.59571,598.70623 L 295.59571,599.38206 L 292.908,599.38206 L 292.908,601.98383 L 292.15013,601.98383 z M 299.77962,601.98383 L 299.12722,601.98383 L 299.12722,596.25683 L 299.8304,596.25683 L 299.8304,598.29995 C 300.1273,597.92753 300.50623,597.74132 300.96721,597.74131 C 301.22243,597.74132 301.46399,597.79275 301.69187,597.89562 C 301.91975,597.9985 302.10727,598.14304 302.25442,598.32925 C 302.40156,598.51547 302.5168,598.74009 302.60015,599.00313 C 302.68348,599.26617 302.72515,599.54744 302.72515,599.84694 C 302.72515,600.55794 302.54936,601.10746 302.19777,601.49551 C 301.84618,601.88356 301.42427,602.07758 300.93205,602.07758 C 300.44243,602.07758 300.05828,601.87314 299.77962,601.46425 L 299.77962,601.98383 z M 299.7718,599.8782 C 299.7718,600.37563 299.83952,600.73503 299.97494,600.9564 C 300.19631,601.31841 300.49582,601.49941 300.87345,601.49941 C 301.18076,601.49941 301.44641,601.36594 301.67039,601.09899 C 301.89436,600.83205 302.00635,600.43423 302.00635,599.90554 C 302.00635,599.36384 301.89892,598.96407 301.68406,598.70623 C 301.4692,598.4484 301.20941,598.31949 300.9047,598.31948 C 300.59739,598.31949 300.33174,598.45296 300.10777,598.7199 C 299.88379,598.98686 299.7718,599.37295 299.7718,599.8782 L 299.7718,599.8782 z M 303.55334,603.5816 L 303.47521,602.9214 C 303.62887,602.96307 303.76299,602.9839 303.87759,602.9839 C 304.03385,602.9839 304.15886,602.95786 304.25261,602.90577 C 304.34637,602.85368 304.4232,602.78076 304.4831,602.687 C 304.52737,602.61669 304.59899,602.44219 304.69796,602.16353 C 304.71098,602.12446 304.73182,602.06717 304.76047,601.99164 L 303.18613,597.83507 L 303.944,597.83507 L 304.80734,600.2376 C 304.91933,600.54231 305.0196,600.86265 305.10815,601.19861 C 305.18888,600.87567 305.28524,600.56054 305.39723,600.25322 L 306.28402,597.83507 L 306.9872,597.83507 L 305.40895,602.05414 C 305.23967,602.50991 305.10815,602.82373 305.01439,602.99562 C 304.88938,603.22741 304.74614,603.39734 304.58467,603.50543 C 304.4232,603.61351 304.23048,603.66755 304.0065,603.66755 C 303.87107,603.66755 303.72002,603.6389 303.55334,603.5816 L 303.55334,603.5816 z M 281.98529,611.98459 L 280.46564,606.25759 L 281.24305,606.25759 L 282.11421,610.01178 C 282.20796,610.40504 282.2887,610.7957 282.35641,611.18375 C 282.50226,610.57172 282.5882,610.21883 282.61425,610.12507 L 283.70417,606.25759 L 284.61831,606.25759 L 285.43868,609.15625 C 285.64442,609.87505 285.79287,610.55089 285.88403,611.18375 C 285.95694,610.82174 286.052,610.40634 286.1692,609.93756 L 287.06771,606.25759 L 287.82949,606.25759 L 286.25906,611.98459 L 285.52853,611.98459 L 284.32141,607.62097 C 284.21983,607.25637 284.15993,607.03239 284.14171,606.94905 C 284.0818,607.21209 284.02581,607.43607 283.97372,607.62097 L 282.75879,611.98459 L 281.98529,611.98459 z M 288.64205,611.98459 L 288.64205,611.18375 L 289.44289,611.18375 L 289.44289,611.98459 L 288.64205,611.98459 z M 295.6504,609.73832 L 295.6504,609.0664 L 298.07636,609.06249 L 298.07636,611.18765 C 297.70393,611.48455 297.31979,611.70788 296.92393,611.85763 C 296.52806,612.00738 296.12178,612.08225 295.70509,612.08225 C 295.14254,612.08225 294.63144,611.9618 294.17177,611.7209 C 293.7121,611.47999 293.36507,611.13166 293.13067,610.6759 C 292.89628,610.22013 292.77908,609.71098 292.77908,609.14843 C 292.77908,608.5911 292.89563,608.07088 293.12872,607.58777 C 293.36181,607.10466 293.69712,606.74591 294.13466,606.51151 C 294.57219,606.27713 295.07613,606.15993 295.64649,606.15993 C 296.06058,606.15993 296.43496,606.22699 296.76962,606.36111 C 297.10428,606.49524 297.36667,606.68211 297.55679,606.9217 C 297.74691,607.16131 297.89145,607.47383 297.99042,607.85927 L 297.30677,608.04679 C 297.22082,607.7551 297.11405,607.52592 296.98644,607.35924 C 296.85882,607.19256 296.67651,607.05909 296.43952,606.95881 C 296.20252,606.85855 295.93948,606.80842 295.6504,606.80841 C 295.30401,606.80842 295.00451,606.86116 294.75189,606.96663 C 294.49927,607.07211 294.29547,607.21079 294.14052,607.38268 C 293.98555,607.55457 293.8651,607.74338 293.77916,607.94912 C 293.63331,608.30332 293.56039,608.68747 293.56039,609.10156 C 293.56039,609.61201 293.64829,610.03913 293.82409,610.3829 C 293.99988,610.72668 294.25576,610.98191 294.59172,611.14859 C 294.92768,611.31527 295.28448,611.39861 295.66212,611.39861 C 295.99026,611.39861 296.3106,611.33545 296.62313,611.20914 C 296.93565,611.08283 297.17264,610.94805 297.33412,610.80481 L 297.33412,609.73832 L 295.6504,609.73832 z M 301.80712,611.47283 C 301.54668,611.6942 301.29601,611.85046 301.05511,611.94162 C 300.8142,612.03277 300.55572,612.07835 300.27966,612.07835 C 299.82389,612.07835 299.4736,611.96701 299.22879,611.74434 C 298.98398,611.52166 298.86158,611.23714 298.86158,610.89076 C 298.86158,610.68762 298.90781,610.50206 299.00026,610.33407 C 299.09272,610.16609 299.21382,610.03132 299.36357,609.92974 C 299.51332,609.82818 299.68195,609.75135 299.86947,609.69926 C 300.0075,609.6628 300.21585,609.62764 300.49452,609.59378 C 301.06227,609.52607 301.48027,609.44533 301.74852,609.35158 C 301.75112,609.25522 301.75242,609.19401 301.75242,609.16797 C 301.75242,608.88149 301.68601,608.67965 301.55319,608.56245 C 301.37349,608.40359 301.10654,608.32416 300.75235,608.32415 C 300.42159,608.32416 300.17743,608.3821 300.01987,608.49799 C 299.86231,608.61389 299.74576,608.81899 299.67023,609.11328 L 298.98268,609.01952 C 299.04519,608.72523 299.14806,608.48758 299.2913,608.30657 C 299.43454,608.12557 299.64159,607.98624 299.91244,607.88857 C 300.18329,607.79091 300.49712,607.74208 300.85392,607.74208 C 301.20811,607.74208 301.49589,607.78375 301.71727,607.86709 C 301.93863,607.95043 302.10141,608.05526 302.20558,608.18156 C 302.30976,608.30788 302.38268,608.4674 302.42435,608.66012 C 302.44779,608.77992 302.45951,608.99608 302.45951,609.3086 L 302.45951,610.24617 C 302.45951,610.89987 302.47448,611.31331 302.50444,611.4865 C 302.53438,611.65969 302.59363,611.82572 302.68218,611.98459 L 301.94775,611.98459 C 301.87483,611.83874 301.82795,611.66816 301.80712,611.47283 L 301.80712,611.47283 z M 301.74852,609.9024 C 301.49329,610.00658 301.11045,610.09512 300.59999,610.16804 C 300.31091,610.20972 300.10646,610.25659 299.98666,610.30868 C 299.86686,610.36077 299.77441,610.43695 299.7093,610.53721 C 299.64419,610.63748 299.61164,610.74882 299.61164,610.87122 C 299.61164,611.05874 299.6826,611.215 299.82454,611.34001 C 299.96648,611.46502 300.17418,611.52752 300.44764,611.52752 C 300.71849,611.52752 300.95939,611.46827 301.17035,611.34977 C 301.3813,611.23128 301.53626,611.06916 301.63523,610.86341 C 301.71075,610.70454 301.74851,610.47015 301.74852,610.16023 L 301.74852,609.9024 z M 303.55334,611.98459 L 303.55334,607.83583 L 304.1862,607.83583 L 304.1862,608.42572 C 304.49091,607.96996 304.93105,607.74208 305.50662,607.74208 C 305.75663,607.74208 305.98647,607.78701 306.19612,607.87685 C 306.40577,607.96671 306.56268,608.08456 306.66686,608.2304 C 306.77103,608.37624 306.84395,608.54943 306.88563,608.74997 C 306.91167,608.88019 306.92469,609.10807 306.92469,609.43361 L 306.92469,611.98459 L 306.22152,611.98459 L 306.22152,609.46096 C 306.22151,609.17448 306.19417,608.96027 306.13948,608.81833 C 306.08478,608.6764 305.98777,608.56311 305.84844,608.47846 C 305.7091,608.39382 305.54568,608.3515 305.35817,608.3515 C 305.05866,608.3515 304.80018,608.44656 304.58272,608.63668 C 304.36525,608.8268 304.25652,609.1875 304.25652,609.71879 L 304.25652,611.98459 L 303.55334,611.98459 z M 309.54208,611.35563 L 309.64365,611.97678 C 309.44572,612.01845 309.26862,612.03928 309.11236,612.03928 C 308.85713,612.03928 308.6592,611.99891 308.51857,611.91818 C 308.37793,611.83744 308.27896,611.73131 308.22167,611.59979 C 308.16437,611.46827 308.13572,611.19156 308.13572,610.76965 L 308.13572,608.38275 L 307.62006,608.38275 L 307.62006,607.83583 L 308.13572,607.83583 L 308.13572,606.80841 L 308.835,606.38651 L 308.835,607.83583 L 309.54208,607.83583 L 309.54208,608.38275 L 308.835,608.38275 L 308.835,610.80872 C 308.83499,611.00925 308.84737,611.13817 308.87211,611.19547 C 308.89685,611.25276 308.93722,611.29834 308.99321,611.3322 C 309.0492,611.36605 309.12929,611.38298 309.23346,611.38298 C 309.31159,611.38298 309.41447,611.37387 309.54208,611.35563 L 309.54208,611.35563 z M 309.85461,611.98459 L 309.85461,611.41423 L 312.49543,608.38275 C 312.19593,608.39838 311.93158,608.40619 311.7024,608.40619 L 310.01087,608.40619 L 310.01087,607.83583 L 313.40175,607.83583 L 313.40175,608.30071 L 311.15549,610.93373 L 310.72186,611.41423 C 311.03699,611.39079 311.33258,611.37907 311.60865,611.37907 L 313.52676,611.37907 L 313.52676,611.98459 L 309.85461,611.98459 z M 314.22994,611.98459 L 314.22994,606.25759 L 314.93312,606.25759 L 314.93312,609.52346 L 316.59731,607.83583 L 317.50753,607.83583 L 315.92147,609.37501 L 317.6677,611.98459 L 316.80045,611.98459 L 315.42925,609.86333 L 314.93312,610.33993 L 314.93312,611.98459 L 314.22994,611.98459 z M 321.0664,610.64855 L 321.79301,610.7384 C 321.67842,611.16291 321.46616,611.49236 321.15625,611.72676 C 320.84632,611.96115 320.45046,612.07835 319.96866,612.07835 C 319.36184,612.07835 318.88068,611.89148 318.52519,611.51776 C 318.16969,611.14403 317.99194,610.6199 317.99194,609.94537 C 317.99194,609.2474 318.17164,608.7057 318.53105,608.32025 C 318.89045,607.9348 319.35663,607.74208 319.92959,607.74208 C 320.48432,607.74208 320.93748,607.9309 321.28907,608.30853 C 321.64065,608.68616 321.81645,609.21745 321.81645,609.9024 C 321.81645,609.94407 321.81515,610.00658 321.81255,610.08991 L 318.71856,610.08991 C 318.7446,610.54568 318.87352,610.89466 319.10531,611.13687 C 319.3371,611.37907 319.62618,611.50018 319.97256,611.50018 C 320.23039,611.50018 320.45046,611.43246 320.63277,611.29704 C 320.81507,611.16161 320.95961,610.94545 321.0664,610.64855 L 321.0664,610.64855 z M 318.75763,609.51174 L 321.07421,609.51174 C 321.04295,609.16276 320.95441,608.90102 320.80856,608.72653 C 320.58459,608.45568 320.2942,608.32025 319.9374,608.32025 C 319.61446,608.32025 319.34296,608.42833 319.12289,608.64449 C 318.90282,608.86066 318.78106,609.14974 318.75763,609.51174 L 318.75763,609.51174 z M 280.95396,621.98535 L 280.95396,616.25835 L 281.71183,616.25835 L 281.71183,619.09841 L 284.5558,616.25835 L 285.58322,616.25835 L 283.1807,618.57884 L 285.6887,621.98535 L 284.68862,621.98535 L 282.64941,619.08669 L 281.71183,620.00083 L 281.71183,621.98535 L 280.95396,621.98535 z M 286.43876,621.98535 L 286.43876,621.18451 L 287.2396,621.18451 L 287.2396,621.98535 L 286.43876,621.98535 z M 290.73596,621.98535 L 290.73596,616.25835 L 291.49383,616.25835 L 291.49383,621.30952 L 294.31436,621.30952 L 294.31436,621.98535 L 290.73596,621.98535 z M 297.97089,620.64931 L 298.6975,620.73916 C 298.58291,621.16368 298.37065,621.49313 298.06074,621.72752 C 297.75081,621.96191 297.35495,622.07911 296.87315,622.07911 C 296.26633,622.07911 295.78517,621.89225 295.42968,621.51852 C 295.07418,621.14479 294.89643,620.62067 294.89643,619.94613 C 294.89643,619.24817 295.07613,618.70646 295.43554,618.32101 C 295.79494,617.93557 296.26112,617.74284 296.83408,617.74284 C 297.38881,617.74284 297.84197,617.93166 298.19356,618.30929 C 298.54514,618.68693 298.72094,619.21822 298.72094,619.90316 C 298.72094,619.94483 298.71964,620.00734 298.71704,620.09068 L 295.62305,620.09068 C 295.64909,620.54644 295.77801,620.89543 296.0098,621.13763 C 296.24159,621.37984 296.53067,621.50094 296.87705,621.50094 C 297.13488,621.50094 297.35495,621.43323 297.53726,621.2978 C 297.71956,621.16237 297.8641,620.94621 297.97089,620.64931 L 297.97089,620.64931 z M 295.66212,619.51251 L 297.9787,619.51251 C 297.94744,619.16352 297.85889,618.90179 297.71305,618.72729 C 297.48908,618.45644 297.19869,618.32101 296.84189,618.32101 C 296.51895,618.32101 296.24745,618.42909 296.02738,618.64525 C 295.80731,618.86142 295.68555,619.1505 295.66212,619.51251 L 295.66212,619.51251 z M 299.58429,623.57532 L 299.58429,617.8366 L 300.22496,617.8366 L 300.22496,618.3757 C 300.37602,618.16475 300.5466,618.00654 300.73672,617.90106 C 300.92684,617.79558 301.15732,617.74284 301.42818,617.74284 C 301.78237,617.74284 302.09489,617.834 302.36575,618.0163 C 302.6366,618.19861 302.84104,618.45579 302.97908,618.78784 C 303.11711,619.1199 303.18612,619.48386 303.18613,619.87972 C 303.18612,620.30424 303.10995,620.68643 302.95759,621.02629 C 302.80523,621.36616 302.58386,621.6266 302.29348,621.8076 C 302.00309,621.98861 301.69773,622.07911 301.3774,622.07911 C 301.143,622.07911 300.9327,622.02963 300.74649,621.93066 C 300.56027,621.83169 300.40727,621.70668 300.28747,621.55563 L 300.28747,623.57532 L 299.58429,623.57532 z M 300.22106,619.93441 C 300.22106,620.46831 300.32914,620.86287 300.5453,621.1181 C 300.76146,621.37333 301.0232,621.50094 301.33052,621.50094 C 301.64304,621.50094 301.91064,621.36877 302.13331,621.10442 C 302.35598,620.84008 302.46732,620.43055 302.46732,619.87582 C 302.46732,619.34713 302.35859,618.95127 302.14113,618.68823 C 301.92366,618.42519 301.66387,618.29367 301.36177,618.29366 C 301.06227,618.29367 300.79727,618.43365 300.56679,618.71362 C 300.3363,618.99359 300.22106,619.40052 300.22106,619.93441 L 300.22106,619.93441 z M 303.75648,620.74698 L 304.45185,620.63759 C 304.49091,620.91626 304.59964,621.12982 304.77805,621.27827 C 304.95644,621.42672 305.20581,621.50094 305.52615,621.50094 C 305.84909,621.50094 306.08869,621.43518 306.24495,621.30366 C 306.40121,621.17214 306.47934,621.01783 306.47935,620.84073 C 306.47934,620.68187 306.41033,620.55686 306.2723,620.4657 C 306.17594,620.4032 305.93633,620.32377 305.55349,620.2274 C 305.03783,620.09719 304.68038,619.98455 304.48115,619.88949 C 304.28191,619.79443 304.13086,619.66291 304.02799,619.49493 C 303.92512,619.32695 303.87368,619.14139 303.87368,618.93824 C 303.87368,618.75334 303.916,618.5821 304.00064,618.42453 C 304.08528,618.26697 304.20053,618.1361 304.34637,618.03192 C 304.45575,617.95119 304.60485,617.88283 304.79367,617.82683 C 304.98249,617.77084 305.18498,617.74284 305.40114,617.74284 C 305.72668,617.74284 306.01251,617.78972 306.25863,617.88348 C 306.50474,617.97724 306.68639,618.1042 306.80359,618.26436 C 306.92078,618.42454 307.00152,618.63875 307.0458,618.90699 L 306.35824,619.00075 C 306.32699,618.78719 306.23649,618.62051 306.08674,618.50071 C 305.93699,618.38091 305.72538,618.32101 305.45192,618.32101 C 305.12898,618.32101 304.8985,618.3744 304.76047,618.48118 C 304.62243,618.58796 304.55342,618.71297 304.55342,618.85621 C 304.55342,618.94736 304.58207,619.0294 304.63936,619.10232 C 304.69666,619.17785 304.78651,619.24035 304.90891,619.28983 C 304.97923,619.31588 305.18628,619.37578 305.53006,619.46953 C 306.02749,619.60236 306.37452,619.71109 306.57115,619.79573 C 306.76778,619.88038 306.92209,620.00343 307.03408,620.1649 C 307.14606,620.32637 307.20205,620.52691 307.20206,620.76651 C 307.20205,621.0009 307.13369,621.22162 306.99696,621.42867 C 306.86023,621.63572 306.66295,621.79588 306.40512,621.90917 C 306.14729,622.02246 305.8556,622.07911 305.53006,622.07911 C 304.99095,622.07911 304.58011,621.96712 304.29754,621.74315 C 304.01497,621.51917 303.83461,621.18711 303.75648,620.74698 L 303.75648,620.74698 z M 308.04197,621.98535 L 308.04197,616.25835 L 308.74514,616.25835 L 308.74514,619.52423 L 310.40933,617.8366 L 311.31956,617.8366 L 309.7335,619.37578 L 311.47973,621.98535 L 310.61247,621.98535 L 309.24128,619.8641 L 308.74514,620.34069 L 308.74514,621.98535 L 308.04197,621.98535 z M 312.04227,617.06701 L 312.04227,616.25835 L 312.74545,616.25835 L 312.74545,617.06701 L 312.04227,617.06701 z M 312.04227,621.98535 L 312.04227,617.8366 L 312.74545,617.8366 L 312.74545,621.98535 L 312.04227,621.98535 z"
       id="text2443" />
    <path
       transform="matrix(0.9665599,1.5396183e-3,-1.4383731e-3,1.0345948,-1.5625,-1.5)"
       style="font-size:8.00061035px;font-style:normal;font-variant:normal;font-weight:bold;font-stretch:normal;text-align:start;line-height:125%;writing-mode:lr-tb;text-anchor:start;fill:#ffffff;fill-opacity:0.36619717;stroke:none;stroke-width:1px;stroke-linecap:butt;stroke-linejoin:miter;stroke-opacity:1;display:inline;filter:url(#filter3378);font-family:Bitstream Vera Sans;-inkscape-font-specification:Bitstream Vera Sans Bold"
       d="M 281.26465,602.80927 L 283.46403,597.08227 L 284.2805,597.08227 L 286.62443,602.80927 L 285.76108,602.80927 L 285.09306,601.07476 L 282.69835,601.07476 L 282.0694,602.80927 L 281.26465,602.80927 z M 282.91712,600.45752 L 284.85867,600.45752 L 284.26097,598.87146 C 284.07866,598.38966 283.94323,597.9938 283.85469,597.68387 C 283.78176,598.05109 283.67889,598.41571 283.54607,598.77771 L 282.91712,600.45752 z M 291.32401,600.8013 L 292.08188,600.99272 C 291.92301,601.61516 291.63718,602.08981 291.22439,602.41666 C 290.8116,602.7435 290.307,602.90693 289.7106,602.90693 C 289.09337,602.90693 288.59138,602.78127 288.20463,602.52995 C 287.81788,602.27863 287.52359,601.91467 287.32175,601.43807 C 287.11991,600.96147 287.01899,600.44971 287.01899,599.90279 C 287.01899,599.3064 287.13293,598.78618 287.36082,598.34213 C 287.5887,597.89809 287.91294,597.56082 288.33355,597.33033 C 288.75415,597.09985 289.21707,596.98461 289.72232,596.9846 C 290.29528,596.98461 290.77709,597.13045 291.16775,597.42214 C 291.5584,597.71383 291.83055,598.12402 291.98422,598.6527 L 291.23806,598.82849 C 291.10524,598.4118 290.91251,598.10839 290.6599,597.91827 C 290.40727,597.72815 290.08954,597.63309 289.7067,597.63309 C 289.26656,597.63309 288.89869,597.73857 288.6031,597.94952 C 288.3075,598.16048 288.0998,598.4437 287.98,598.79919 C 287.8602,599.15469 287.8003,599.52126 287.8003,599.89889 C 287.8003,600.38591 287.87127,600.81107 288.01321,601.17437 C 288.15515,601.53769 288.37587,601.80919 288.67537,601.98889 C 288.97487,602.16859 289.29911,602.25844 289.6481,602.25844 C 290.07261,602.25844 290.43201,602.13604 290.72631,601.89123 C 291.0206,601.64642 291.21983,601.28311 291.32401,600.8013 L 291.32401,600.8013 z M 293.05852,602.80927 L 293.05852,597.08227 L 296.92209,597.08227 L 296.92209,597.7581 L 293.81639,597.7581 L 293.81639,599.53167 L 296.50409,599.53167 L 296.50409,600.2075 L 293.81639,600.2075 L 293.81639,602.80927 L 293.05852,602.80927 z M 300.688,602.80927 L 300.03561,602.80927 L 300.03561,597.08227 L 300.73879,597.08227 L 300.73879,599.12539 C 301.03568,598.75297 301.41462,598.56676 301.87559,598.56675 C 302.13082,598.56676 302.37237,598.61819 302.60026,598.72106 C 302.82814,598.82394 303.01565,598.96848 303.1628,599.15469 C 303.30994,599.34091 303.42519,599.56553 303.50853,599.82857 C 303.59187,600.09161 303.63354,600.37288 303.63354,600.67238 C 303.63354,601.38338 303.45774,601.9329 303.10616,602.32095 C 302.75456,602.709 302.33266,602.90302 301.84044,602.90302 C 301.35081,602.90302 300.96667,602.69858 300.688,602.28969 L 300.688,602.80927 z M 300.68019,600.70364 C 300.68019,601.20107 300.7479,601.56047 300.88333,601.78184 C 301.1047,602.14385 301.4042,602.32485 301.78184,602.32485 C 302.08915,602.32485 302.35479,602.19138 302.57877,601.92443 C 302.80274,601.65749 302.91473,601.25967 302.91474,600.73098 C 302.91473,600.18928 302.8073,599.78951 302.59245,599.53167 C 302.37758,599.27384 302.1178,599.14493 301.81309,599.14492 C 301.50577,599.14493 301.24013,599.2784 301.01615,599.54534 C 300.79218,599.81229 300.68019,600.19839 300.68019,600.70364 L 300.68019,600.70364 z M 304.46173,604.40704 L 304.3836,603.74684 C 304.53725,603.78851 304.67138,603.80934 304.78597,603.80934 C 304.94223,603.80934 305.06724,603.7833 305.161,603.73121 C 305.25476,603.67912 305.33159,603.6062 305.39149,603.51244 C 305.43576,603.44213 305.50738,603.26763 305.60635,602.98897 C 305.61937,602.9499 305.6402,602.8926 305.66885,602.81708 L 304.09451,598.66051 L 304.85238,598.66051 L 305.71573,601.06304 C 305.82772,601.36775 305.92798,601.68809 306.01653,602.02405 C 306.09727,601.70111 306.19363,601.38598 306.30562,601.07866 L 307.19241,598.66051 L 307.89558,598.66051 L 306.31734,602.87958 C 306.14805,603.33535 306.01653,603.64917 305.92278,603.82106 C 305.79777,604.05285 305.65453,604.22278 305.49306,604.33087 C 305.33159,604.43895 305.13886,604.49299 304.91489,604.49299 C 304.77946,604.49299 304.62841,604.46434 304.46173,604.40704 L 304.46173,604.40704 z M 282.89368,612.81003 L 281.37403,607.08303 L 282.15143,607.08303 L 283.02259,610.83722 C 283.11635,611.23048 283.19708,611.62114 283.2648,612.00919 C 283.41064,611.39716 283.49659,611.04427 283.52263,610.95051 L 284.61256,607.08303 L 285.52669,607.08303 L 286.34707,609.98169 C 286.55281,610.70049 286.70125,611.37633 286.79241,612.00919 C 286.86533,611.64718 286.96039,611.23178 287.07759,610.763 L 287.9761,607.08303 L 288.73787,607.08303 L 287.16744,612.81003 L 286.43692,612.81003 L 285.22979,608.44641 C 285.12822,608.08181 285.06832,607.85783 285.05009,607.77449 C 284.99019,608.03753 284.93419,608.26151 284.88211,608.44641 L 283.66717,612.81003 L 282.89368,612.81003 z M 289.55044,612.81003 L 289.55044,612.00919 L 290.35128,612.00919 L 290.35128,612.81003 L 289.55044,612.81003 z M 296.55878,610.56376 L 296.55878,609.89184 L 298.98475,609.88793 L 298.98475,612.01309 C 298.61232,612.30999 298.22818,612.53331 297.83232,612.68307 C 297.43645,612.83282 297.03017,612.90769 296.61347,612.90769 C 296.05093,612.90769 295.53982,612.78724 295.08015,612.54634 C 294.62048,612.30543 294.27345,611.9571 294.03906,611.50133 C 293.80467,611.04557 293.68747,610.53642 293.68747,609.97387 C 293.68747,609.41654 293.80402,608.89632 294.03711,608.41321 C 294.2702,607.9301 294.60551,607.57135 295.04304,607.33695 C 295.48057,607.10257 295.98452,606.98537 296.55488,606.98536 C 296.96897,606.98537 297.34334,607.05243 297.67801,607.18655 C 298.01267,607.32068 298.27506,607.50755 298.46518,607.74714 C 298.65529,607.98675 298.79983,608.29927 298.89881,608.68471 L 298.21516,608.87223 C 298.12921,608.58054 298.02243,608.35136 297.89482,608.18468 C 297.7672,608.018 297.5849,607.88453 297.34791,607.78425 C 297.1109,607.68399 296.84786,607.63386 296.55878,607.63385 C 296.2124,607.63386 295.9129,607.6866 295.66028,607.79207 C 295.40765,607.89755 295.20386,608.03623 295.0489,608.20811 C 294.89394,608.38001 294.77349,608.56882 294.68755,608.77456 C 294.5417,609.12876 294.46878,609.5129 294.46878,609.927 C 294.46878,610.43745 294.55668,610.86457 294.73247,611.20834 C 294.90827,611.55212 295.16414,611.80735 295.50011,611.97403 C 295.83607,612.14071 296.19287,612.22405 296.5705,612.22405 C 296.89865,612.22405 297.21899,612.16089 297.53151,612.03458 C 297.84403,611.90827 298.08103,611.77349 298.24251,611.63025 L 298.24251,610.56376 L 296.55878,610.56376 z M 302.7155,612.29827 C 302.45506,612.51964 302.20439,612.6759 301.96349,612.76706 C 301.72259,612.85821 301.4641,612.90379 301.18804,612.90379 C 300.73228,612.90379 300.38199,612.79245 300.13718,612.56978 C 299.89237,612.3471 299.76997,612.06258 299.76997,611.71619 C 299.76997,611.51306 299.81619,611.32749 299.90865,611.15951 C 300.0011,610.99153 300.12221,610.85676 300.27196,610.75518 C 300.42171,610.65362 300.59034,610.57679 300.77785,610.5247 C 300.91588,610.48824 301.12423,610.45308 301.4029,610.41922 C 301.97065,610.35151 302.38865,610.27077 302.6569,610.17701 C 302.65951,610.08066 302.66081,610.01945 302.66081,609.99341 C 302.66081,609.70693 302.5944,609.50509 302.46158,609.38789 C 302.28187,609.22903 302.01493,609.1496 301.66073,609.14959 C 301.32998,609.1496 301.08582,609.20754 300.92826,609.32343 C 300.77069,609.43933 300.65415,609.64443 300.57862,609.93872 L 299.89107,609.84496 C 299.95357,609.55067 300.05644,609.31302 300.19969,609.13201 C 300.34292,608.95101 300.54997,608.81168 300.82083,608.71401 C 301.09168,608.61635 301.4055,608.56752 301.7623,608.56752 C 302.1165,608.56752 302.40428,608.60919 302.62565,608.69253 C 302.84702,608.77587 303.00979,608.8807 303.11397,609.007 C 303.21814,609.13332 303.29106,609.29284 303.33274,609.48556 C 303.35617,609.60536 303.36789,609.82152 303.3679,610.13404 L 303.3679,611.07161 C 303.36789,611.72531 303.38287,612.13875 303.41282,612.31194 C 303.44277,612.48513 303.50202,612.65116 303.59057,612.81003 L 302.85614,612.81003 C 302.78321,612.66418 302.73633,612.4936 302.7155,612.29827 L 302.7155,612.29827 z M 302.6569,610.72784 C 302.40167,610.83201 302.01883,610.92056 301.50838,610.99348 C 301.21929,611.03515 301.01485,611.08203 300.89505,611.13412 C 300.77525,611.18621 300.68279,611.26239 300.61769,611.36265 C 300.55258,611.46292 300.52002,611.57426 300.52002,611.69666 C 300.52002,611.88418 300.59099,612.04044 300.73293,612.16545 C 300.87487,612.29046 301.08256,612.35296 301.35602,612.35296 C 301.62688,612.35296 301.86778,612.29371 302.07874,612.17521 C 302.28969,612.05672 302.44465,611.89459 302.54361,611.68885 C 302.61914,611.52998 302.6569,611.29559 302.6569,610.98567 L 302.6569,610.72784 z M 304.46173,612.81003 L 304.46173,608.66127 L 305.09459,608.66127 L 305.09459,609.25116 C 305.3993,608.7954 305.83944,608.56752 306.415,608.56752 C 306.66502,608.56752 306.89485,608.61245 307.10451,608.70229 C 307.31416,608.79215 307.47107,608.90999 307.57525,609.05584 C 307.67942,609.20168 307.75234,609.37487 307.79401,609.57541 C 307.82005,609.70563 307.83308,609.93351 307.83308,610.25905 L 307.83308,612.81003 L 307.1299,612.81003 L 307.1299,610.2864 C 307.1299,609.99992 307.10255,609.78571 307.04786,609.64377 C 306.99317,609.50184 306.89616,609.38855 306.75683,609.3039 C 306.61749,609.21926 306.45407,609.17694 306.26655,609.17694 C 305.96705,609.17694 305.70857,609.272 305.4911,609.46212 C 305.27364,609.65224 305.16491,610.01294 305.16491,610.54423 L 305.16491,612.81003 L 304.46173,612.81003 z M 310.45047,612.18107 L 310.55204,612.80221 C 310.3541,612.84388 310.17701,612.86472 310.02075,612.86472 C 309.76552,612.86472 309.56759,612.82435 309.42695,612.74362 C 309.28631,612.66288 309.18735,612.55675 309.13005,612.42523 C 309.07276,612.29371 309.04411,612.017 309.04411,611.59509 L 309.04411,609.20819 L 308.52845,609.20819 L 308.52845,608.66127 L 309.04411,608.66127 L 309.04411,607.63385 L 309.74338,607.21194 L 309.74338,608.66127 L 310.45047,608.66127 L 310.45047,609.20819 L 309.74338,609.20819 L 309.74338,611.63416 C 309.74338,611.83469 309.75575,611.96361 309.78049,612.02091 C 309.80523,612.0782 309.8456,612.12378 309.9016,612.15763 C 309.95759,612.19149 310.03767,612.20842 310.14185,612.20842 C 310.21998,612.20842 310.32285,612.19931 310.45047,612.18107 L 310.45047,612.18107 z M 310.76299,612.81003 L 310.76299,612.23967 L 313.40382,609.20819 C 313.10431,609.22382 312.83997,609.23163 312.61079,609.23163 L 310.91925,609.23163 L 310.91925,608.66127 L 314.31014,608.66127 L 314.31014,609.12615 L 312.06387,611.75917 L 311.63025,612.23967 C 311.94537,612.21623 312.24097,612.20451 312.51703,612.20451 L 314.43515,612.20451 L 314.43515,612.81003 L 310.76299,612.81003 z M 315.13832,612.81003 L 315.13832,607.08303 L 315.8415,607.08303 L 315.8415,610.3489 L 317.50569,608.66127 L 318.41592,608.66127 L 316.82986,610.20045 L 318.57609,612.81003 L 317.70883,612.81003 L 316.33763,610.68877 L 315.8415,611.16537 L 315.8415,612.81003 L 315.13832,612.81003 z M 321.97478,611.47399 L 322.7014,611.56384 C 322.5868,611.98835 322.37455,612.3178 322.06463,612.5522 C 321.75471,612.78659 321.35885,612.90379 320.87704,612.90379 C 320.27022,612.90379 319.78907,612.71692 319.43357,612.3432 C 319.07808,611.96947 318.90033,611.44534 318.90033,610.77081 C 318.90033,610.07284 319.08003,609.53114 319.43943,609.14569 C 319.79883,608.76024 320.26501,608.56752 320.83798,608.56752 C 321.3927,608.56752 321.84586,608.75634 322.19746,609.13397 C 322.54904,609.5116 322.72484,610.04289 322.72484,610.72784 C 322.72484,610.76951 322.72353,610.83201 322.72093,610.91535 L 319.62695,610.91535 C 319.65299,611.37112 319.78191,611.7201 320.0137,611.96231 C 320.24548,612.20451 320.53457,612.32562 320.88095,612.32562 C 321.13878,612.32562 321.35885,612.2579 321.54116,612.12248 C 321.72346,611.98705 321.868,611.77089 321.97478,611.47399 L 321.97478,611.47399 z M 319.66601,610.33718 L 321.9826,610.33718 C 321.95134,609.9882 321.86279,609.72646 321.71695,609.55197 C 321.49297,609.28112 321.20259,609.14569 320.84579,609.14569 C 320.52285,609.14569 320.25134,609.25377 320.03127,609.46993 C 319.8112,609.68609 319.68945,609.97518 319.66601,610.33718 L 319.66601,610.33718 z M 281.86235,622.81079 L 281.86235,617.08379 L 282.62022,617.08379 L 282.62022,619.92385 L 285.46419,617.08379 L 286.49161,617.08379 L 284.08908,619.40428 L 286.59709,622.81079 L 285.59701,622.81079 L 283.55779,619.91213 L 282.62022,620.82626 L 282.62022,622.81079 L 281.86235,622.81079 z M 287.34714,622.81079 L 287.34714,622.00995 L 288.14799,622.00995 L 288.14799,622.81079 L 287.34714,622.81079 z M 291.64435,622.81079 L 291.64435,617.08379 L 292.40222,617.08379 L 292.40222,622.13496 L 295.22274,622.13496 L 295.22274,622.81079 L 291.64435,622.81079 z M 298.87927,621.47475 L 299.60589,621.5646 C 299.49129,621.98911 299.27904,622.31857 298.96912,622.55296 C 298.6592,622.78735 298.26334,622.90455 297.78153,622.90455 C 297.17471,622.90455 296.69356,622.71769 296.33806,622.34396 C 295.98257,621.97023 295.80482,621.4461 295.80482,620.77157 C 295.80482,620.07361 295.98452,619.5319 296.34392,619.14645 C 296.70332,618.76101 297.1695,618.56828 297.74247,618.56828 C 298.29719,618.56828 298.75035,618.7571 299.10195,619.13473 C 299.45353,619.51237 299.62932,620.04366 299.62933,620.7286 C 299.62932,620.77027 299.62802,620.83278 299.62542,620.91612 L 296.53144,620.91612 C 296.55748,621.37188 296.6864,621.72087 296.91818,621.96307 C 297.14997,622.20528 297.43906,622.32638 297.78544,622.32638 C 298.04327,622.32638 298.26334,622.25867 298.44565,622.12324 C 298.62795,621.98781 298.77249,621.77165 298.87927,621.47475 L 298.87927,621.47475 z M 296.5705,620.33795 L 298.88708,620.33795 C 298.85583,619.98896 298.76728,619.72723 298.62144,619.55273 C 298.39746,619.28188 298.10707,619.14645 297.75028,619.14645 C 297.42734,619.14645 297.15583,619.25453 296.93576,619.47069 C 296.71569,619.68686 296.59394,619.97594 296.5705,620.33795 L 296.5705,620.33795 z M 300.49268,624.40076 L 300.49268,618.66204 L 301.13335,618.66204 L 301.13335,619.20114 C 301.2844,618.99019 301.45499,618.83198 301.64511,618.7265 C 301.83522,618.62102 302.06571,618.56828 302.33657,618.56828 C 302.69076,618.56828 303.00328,618.65944 303.27414,618.84174 C 303.54499,619.02405 303.74943,619.28123 303.88747,619.61328 C 304.02549,619.94534 304.09451,620.3093 304.09451,620.70516 C 304.09451,621.12967 304.01833,621.51187 303.86598,621.85173 C 303.71362,622.1916 303.49225,622.45204 303.20187,622.63304 C 302.91148,622.81405 302.60612,622.90455 302.28578,622.90455 C 302.05139,622.90455 301.84108,622.85507 301.65487,622.7561 C 301.46866,622.65713 301.31565,622.53212 301.19585,622.38107 L 301.19585,624.40076 L 300.49268,624.40076 z M 301.12944,620.75985 C 301.12944,621.29375 301.23752,621.68831 301.45369,621.94354 C 301.66985,622.19877 301.93159,622.32638 302.2389,622.32638 C 302.55142,622.32638 302.81902,622.19421 303.0417,621.92986 C 303.26437,621.66552 303.3757,621.25599 303.37571,620.70126 C 303.3757,620.17257 303.26697,619.77671 303.04951,619.51366 C 302.83204,619.25063 302.57226,619.11911 302.27016,619.1191 C 301.97065,619.11911 301.70566,619.25909 301.47517,619.53906 C 301.24469,619.81903 301.12944,620.22596 301.12944,620.75985 L 301.12944,620.75985 z M 304.66487,621.57242 L 305.36023,621.46303 C 305.3993,621.7417 305.50803,621.95526 305.68643,622.10371 C 305.86483,622.25216 306.1142,622.32638 306.43454,622.32638 C 306.75747,622.32638 306.99708,622.26062 307.15334,622.1291 C 307.3096,621.99758 307.38773,621.84327 307.38773,621.66617 C 307.38773,621.50731 307.31871,621.3823 307.18069,621.29114 C 307.08432,621.22864 306.84472,621.14921 306.46188,621.05284 C 305.94622,620.92263 305.58877,620.80999 305.38953,620.71493 C 305.1903,620.61987 305.03925,620.48835 304.93637,620.32037 C 304.8335,620.15239 304.78207,619.96683 304.78207,619.76368 C 304.78207,619.57878 304.82439,619.40754 304.90903,619.24997 C 304.99367,619.09241 305.10891,618.96154 305.25476,618.85736 C 305.36414,618.77663 305.51324,618.70827 305.70206,618.65227 C 305.89087,618.59628 306.09336,618.56828 306.30953,618.56828 C 306.63507,618.56828 306.9209,618.61516 307.16701,618.70892 C 307.41312,618.80268 307.59478,618.92964 307.71198,619.0898 C 307.82917,619.24998 307.9099,619.46418 307.95418,619.73243 L 307.26663,619.82619 C 307.23537,619.61263 307.14487,619.44595 306.99512,619.32615 C 306.84537,619.20635 306.63377,619.14645 306.36031,619.14645 C 306.03737,619.14645 305.80688,619.19984 305.66885,619.30662 C 305.53082,619.4134 305.4618,619.53841 305.4618,619.68165 C 305.4618,619.7728 305.49045,619.85484 305.54775,619.92776 C 305.60504,620.00329 305.69489,620.06579 305.8173,620.11527 C 305.88762,620.14132 306.09466,620.20122 306.43844,620.29497 C 306.93587,620.4278 307.2829,620.53653 307.47954,620.62117 C 307.67616,620.70581 307.83047,620.82887 307.94246,620.99034 C 308.05445,621.15181 308.11044,621.35235 308.11044,621.59195 C 308.11044,621.82634 308.04208,622.04706 307.90535,622.25411 C 307.76862,622.46116 307.57134,622.62132 307.31351,622.73461 C 307.05567,622.8479 306.76399,622.90455 306.43844,622.90455 C 305.89934,622.90455 305.4885,622.79256 305.20593,622.56859 C 304.92335,622.34461 304.743,622.01255 304.66487,621.57242 L 304.66487,621.57242 z M 308.95035,622.81079 L 308.95035,617.08379 L 309.65353,617.08379 L 309.65353,620.34967 L 311.31772,618.66204 L 312.22795,618.66204 L 310.64189,620.20122 L 312.38811,622.81079 L 311.52086,622.81079 L 310.14966,620.68954 L 309.65353,621.16613 L 309.65353,622.81079 L 308.95035,622.81079 z M 312.95066,617.89245 L 312.95066,617.08379 L 313.65384,617.08379 L 313.65384,617.89245 L 312.95066,617.89245 z M 312.95066,622.81079 L 312.95066,618.66204 L 313.65384,618.66204 L 313.65384,622.81079 L 312.95066,622.81079 z"
       id="text3376" />
  </g>
</svg>
