<?xml version="1.0" encoding="UTF-8" standalone="no"?>
<!-- Created with Inkscape (http://www.inkscape.org/) -->
<svg
   xmlns:dc="http://purl.org/dc/elements/1.1/"
   xmlns:cc="http://creativecommons.org/ns#"
   xmlns:rdf="http://www.w3.org/1999/02/22-rdf-syntax-ns#"
   xmlns:svg="http://www.w3.org/2000/svg"
   xmlns="http://www.w3.org/2000/svg"
   xmlns:xlink="http://www.w3.org/1999/xlink"
   xmlns:sodipodi="http://sodipodi.sourceforge.net/DTD/sodipodi-0.dtd"
   xmlns:inkscape="http://www.inkscape.org/namespaces/inkscape"
   width="210mm"
   height="297mm"
   id="svg2"
   sodipodi:version="0.32"
   inkscape:version="0.46"
   sodipodi:docname="Logo3d.svg"
   inkscape:output_extension="org.inkscape.output.svg.inkscape"
   enable-background="new">
  <defs
     id="defs4">
    <linearGradient
       id="linearGradient5292">
      <stop
         id="stop5294"
         offset="0"
         style="stop-color:#000000;stop-opacity:0.11111111;" />
      <stop
         style="stop-color:#7f7f7f;stop-opacity:0.49803922;"
         offset="0.5"
         id="stop5296" />
      <stop
         id="stop5298"
         offset="1"
         style="stop-color:#ffffff;stop-opacity:0;" />
    </linearGradient>
    <linearGradient
       id="linearGradient5177">
      <stop
         style="stop-color:#ffffff;stop-opacity:1;"
         offset="0"
         id="stop5179" />
      <stop
         id="stop5185"
         offset="0.5"
         style="stop-color:#7f7f7f;stop-opacity:0.49803922;" />
      <stop
         style="stop-color:#ffffff;stop-opacity:0;"
         offset="1"
         id="stop5181" />
    </linearGradient>
    <linearGradient
       id="linearGradient5097">
      <stop
         id="stop5099"
         offset="0"
         style="stop-color:#ffffff;stop-opacity:1;" />
      <stop
         style="stop-color:#4c87c4;stop-opacity:1;"
         offset="0.10698436"
         id="stop5105" />
      <stop
         style="stop-color:#004389;stop-opacity:1;"
         offset="0.50289375"
         id="stop5101" />
      <stop
         id="stop5103"
         offset="1"
         style="stop-color:#cee7ff;stop-opacity:1;" />
    </linearGradient>
    <linearGradient
       id="linearGradient5085">
      <stop
         id="stop5087"
         offset="0"
         style="stop-color:#cccccc;stop-opacity:1;" />
      <stop
         style="stop-color:#ffffff;stop-opacity:1;"
         offset="0.04779983"
         id="stop5093" />
      <stop
         style="stop-color:#242a31;stop-opacity:1;"
         offset="0.13053861"
         id="stop5089" />
      <stop
         id="stop3443"
         offset="0.23136072"
         style="stop-color:#74a8de;stop-opacity:1;" />
      <stop
         style="stop-color:#0a3d6e;stop-opacity:1;"
         offset="0.34516305"
         id="stop3445" />
      <stop
         id="stop3447"
         offset="0.92367542"
         style="stop-color:#6c8fe9;stop-opacity:1;" />
      <stop
         id="stop5091"
         offset="1"
         style="stop-color:#2695ff;stop-opacity:1;" />
    </linearGradient>
    <linearGradient
       id="linearGradient5048">
      <stop
         id="stop5050"
         offset="0"
         style="stop-color:#ffffff;stop-opacity:0" />
      <stop
         style="stop-color:#0af27e;stop-opacity:1;"
         offset="0.7562812"
         id="stop5052" />
      <stop
         id="stop5054"
         offset="1"
         style="stop-color:#0af27e;stop-opacity:1;" />
    </linearGradient>
    <linearGradient
       id="linearGradient5030">
      <stop
         style="stop-color:#99ccff;stop-opacity:1;"
         offset="0"
         id="stop5032" />
      <stop
         id="stop5038"
         offset="0.52477914"
         style="stop-color:#004389;stop-opacity:1;" />
      <stop
         style="stop-color:#cee7ff;stop-opacity:1;"
         offset="1"
         id="stop5034" />
    </linearGradient>
    <linearGradient
       id="linearGradient3174">
      <stop
         style="stop-color:#ffe2c0;stop-opacity:1;"
         offset="0"
         id="stop3176" />
      <stop
         id="stop3182"
         offset="0.84038174"
         style="stop-color:#000000;stop-opacity:1;" />
      <stop
         style="stop-color:#000000;stop-opacity:1;"
         offset="1"
         id="stop3178" />
    </linearGradient>
    <linearGradient
       id="linearGradient3164">
      <stop
         style="stop-color:#ffffff;stop-opacity:1;"
         offset="0"
         id="stop3166" />
      <stop
         id="stop3172"
         offset="0.7562812"
         style="stop-color:#0af27e;stop-opacity:1;" />
      <stop
         style="stop-color:#0af27e;stop-opacity:1;"
         offset="1"
         id="stop3168" />
    </linearGradient>
    <inkscape:perspective
       sodipodi:type="inkscape:persp3d"
       inkscape:vp_x="0 : 526.18109 : 1"
       inkscape:vp_y="0 : 1000 : 0"
       inkscape:vp_z="744.09448 : 526.18109 : 1"
       inkscape:persp3d-origin="372.04724 : 350.78739 : 1"
       id="perspective10" />
    <inkscape:perspective
       id="perspective2390"
       inkscape:persp3d-origin="372.04724 : 350.78739 : 1"
       inkscape:vp_z="744.09448 : 526.18109 : 1"
       inkscape:vp_y="0 : 1000 : 0"
       inkscape:vp_x="0 : 526.18109 : 1"
       sodipodi:type="inkscape:persp3d" />
    <inkscape:perspective
       id="perspective3188"
       inkscape:persp3d-origin="372.04724 : 350.78739 : 1"
       inkscape:vp_z="744.09448 : 526.18109 : 1"
       inkscape:vp_y="0 : 1000 : 0"
       inkscape:vp_x="0 : 526.18109 : 1"
       sodipodi:type="inkscape:persp3d" />
    <inkscape:perspective
       id="perspective3324"
       inkscape:persp3d-origin="382.5 : 330 : 1"
       inkscape:vp_z="765 : 495 : 1"
       inkscape:vp_y="0 : 1000 : 0"
       inkscape:vp_x="0 : 495 : 1"
       sodipodi:type="inkscape:persp3d" />
    <radialGradient
       inkscape:collect="always"
       xlink:href="#linearGradient3164"
       id="radialGradient5163"
       gradientUnits="userSpaceOnUse"
       gradientTransform="matrix(0.618591,-0.7585158,0.582427,0.5281292,186.50458,605.52465)"
       cx="174.39394"
       cy="-2.8387027"
       fx="174.39394"
       fy="-2.8387027"
       r="110.768" />
    <radialGradient
       inkscape:collect="always"
       xlink:href="#linearGradient5177"
       id="radialGradient5183"
       cx="323.45715"
       cy="519.43292"
       fx="323.45715"
       fy="519.43292"
       r="102.018"
       gradientTransform="matrix(-0.699955,0.6760441,-1.4101436,-1.6455882,1293.0842,1156.5084)"
       gradientUnits="userSpaceOnUse" />
    <radialGradient
       inkscape:collect="always"
       xlink:href="#linearGradient3174"
       id="radialGradient5280"
       cx="381.02374"
       cy="-169.68698"
       fx="381.02374"
       fy="-169.68698"
       r="112.01563"
       gradientTransform="matrix(0.261429,0.309316,-0.8765459,0.7408427,132.67463,-171.02246)"
       gradientUnits="userSpaceOnUse" />
    <radialGradient
       inkscape:collect="always"
       xlink:href="#linearGradient3174"
       id="radialGradient5282"
       gradientUnits="userSpaceOnUse"
       gradientTransform="matrix(0.1163724,0.2539932,-1.1880709,0.5565313,130.82249,-182.93536)"
       cx="358.2023"
       cy="-194.25717"
       fx="358.2023"
       fy="-194.25717"
       r="112.01563" />
    <radialGradient
       inkscape:collect="always"
       xlink:href="#linearGradient5030"
       id="radialGradient5326"
       cx="341.59991"
       cy="545.31714"
       fx="341.59991"
       fy="545.31714"
       r="16.970562"
       gradientTransform="matrix(1.180655,1.0511828,-0.9676167,1.0039343,465.94629,-361.12277)"
       gradientUnits="userSpaceOnUse" />
    <linearGradient
       inkscape:collect="always"
       xlink:href="#linearGradient5085"
       id="linearGradient5328"
       gradientUnits="userSpaceOnUse"
       gradientTransform="matrix(0.9703046,0,0,0.9997678,15.044771,-236.89941)"
       x1="217.8187"
       y1="662.91699"
       x2="198.20229"
       y2="908.12939" />
    <filter
       inkscape:collect="always"
       id="filter3346">
      <feGaussianBlur
         inkscape:collect="always"
         stdDeviation="1.3721612"
         id="feGaussianBlur3348" />
    </filter>
    <filter
       inkscape:collect="always"
       id="filter3378">
      <feGaussianBlur
         inkscape:collect="always"
         stdDeviation="0.31256436"
         id="feGaussianBlur3380" />
    </filter>
    <filter
       inkscape:collect="always"
       id="filter3439">
      <feGaussianBlur
         inkscape:collect="always"
         stdDeviation="3.3145897"
         id="feGaussianBlur3441" />
    </filter>
  </defs>
  <sodipodi:namedview
     id="base"
     pagecolor="#ffffff"
     bordercolor="#666666"
     borderopacity="1.0"
     inkscape:pageopacity="0.0"
     inkscape:pageshadow="2"
     inkscape:zoom="2"
     inkscape:cx="155.10718"
     inkscape:cy="500.63516"
     inkscape:document-units="px"
     inkscape:current-layer="layer2"
     showgrid="true"
     inkscape:snap-global="false"
     showguides="true"
     inkscape:guide-bbox="true"
     inkscape:window-width="1911"
     inkscape:window-height="1126"
     inkscape:window-x="1"
     inkscape:window-y="0">
    <inkscape:grid
       type="xygrid"
       id="grid3176" />
  </sodipodi:namedview>
  <metadata
     id="metadata7">
    <rdf:RDF>
      <cc:Work
         rdf:about="">
        <dc:format>image/svg+xml</dc:format>
        <dc:type
           rdf:resource="http://purl.org/dc/dcmitype/StillImage" />
      </cc:Work>
    </rdf:RDF>
  </metadata>
  <g
     inkscape:groupmode="layer"
     id="layer2"
     inkscape:label="Side"
     style="display:inline">
    <path
       style="opacity:1;fill:url(#linearGradient5328);fill-opacity:1;stroke:none;stroke-width:20;stroke-opacity:1;display:inline"
       d="M 247.86323,422.24594 C 244.15231,422.33446 239.49053,423.31021 234.73379,425.25513 C 229.2975,427.47787 223.48417,431.82516 219.72438,438.6895 C 216.06241,445.3753 214.45581,454.0049 215.14576,464.52726 C 215.14576,464.52726 214.66061,644.59581 214.66061,644.59581 L 214.66061,644.72078 L 214.66061,644.84575 C 214.66061,644.84575 214.39456,653.46288 219.36052,661.74807 C 223.88756,669.30098 230.91646,672.42403 240.58469,673.74648 L 268.35066,677.54439 L 273.61243,420.55829 L 247.86323,422.24594 z"
       id="path5040"
       sodipodi:nodetypes="cssccccszccc" />
  </g>
  <g
     inkscape:groupmode="layer"
     id="layer3"
     inkscape:label="Background"
     style="display:inline">
    <path
       d="M 275.64236,424.97167 C 275.64236,424.97167 244.33397,418.46902 247.18018,456.48449 C 247.18018,456.48449 246.70581,639.51098 246.70581,639.51098 C 246.70581,639.51098 247.18018,664.52116 271.84741,661.51994 C 271.84741,661.51994 427.00044,631.50772 427.00044,631.50772 C 427.00044,631.50772 440.28279,629.00671 440.28279,612.49999 C 440.28279,612.49999 440.28279,464.48775 440.28279,464.48775 C 440.28279,464.48775 438.38531,448.48124 423.20548,446.48042 C 423.20548,446.48042 275.64236,424.97167 275.64236,424.97167 z"
       style="fill:url(#radialGradient5163);fill-opacity:1;stroke:none;stroke-width:1;stroke-miterlimit:4;stroke-dasharray:none;display:inline"
       sodipodi:nodetypes="ccccccccc"
       id="path5161" />
  </g>
  <g
     inkscape:label="Ebene 1"
     inkscape:groupmode="layer"
     id="layer1"
     style="display:inline">
    <path
       sodipodi:type="arc"
       style="opacity:1;fill:url(#radialGradient5326);fill-opacity:1;fill-rule:nonzero;stroke:none;stroke-width:4;stroke-linecap:round;stroke-miterlimit:4;stroke-dasharray:none;stroke-dashoffset:0;stroke-opacity:1"
       id="path5318"
       sodipodi:cx="347.18942"
       sodipodi:cy="548.7254"
       sodipodi:rx="16.970562"
       sodipodi:ry="16.440233"
       d="M 364.15998,548.7254 A 16.970562,16.440233 0 1 1 330.21886,548.7254 A 16.970562,16.440233 0 1 1 364.15998,548.7254 z"
       transform="matrix(1.2452204,0,0,1.3661473,-83.759663,-202.32934)" />
    <path
       id="path5286"
       transform="matrix(0.9487393,0,0,1.0004071,23.200583,-0.2235684)"
       d="M 264.75,424.8125 C 261.62253,425.14365 258.11709,425.87012 254.53125,427.3125 C 248.85357,429.59631 242.77048,434.07214 238.84375,441.125 C 237.74049,443.10659 236.83371,445.24979 236.09375,447.5625 C 235.85172,450.2388 235.83144,453.20861 236.09375,456.53125 C 236.09376,456.53124 235.59375,639.46875 235.59375,639.46875 C 235.59376,639.46878 236.09185,663.73629 261,661.5625 C 260.47945,660.87045 260.04873,660.1153 259.59375,659.3125 C 257.66604,655.91112 257.40625,651.75 257.40625,651.75 C 257.40624,651.75004 257.3576,610.92839 257.3125,571.375 L 313.53125,569.25 C 318.76547,582.73442 331.39036,592.53125 346.3125,592.53125 C 365.99156,592.53126 381.4375,575.45086 381.4375,555.46875 C 381.43748,535.48669 365.99156,518.40625 346.3125,518.40625 C 330.03839,518.40629 316.48272,529.99686 312.28125,545.375 L 257.28125,543.84375 C 257.23915,506.91983 257.1875,467.71875 257.1875,467.71875 L 257.1875,467.3125 L 257.15625,466.90625 C 256.50915,458.59769 257.85517,453.89242 259.34375,451.21875 C 260.83233,448.54506 262.54097,447.33252 264.84375,446.40625 C 267.14652,445.47997 269.82078,445.23973 271.90625,445.21875 C 273.99171,445.19778 275.5,445.40625 275.5,445.40625 L 275.78125,445.46875 L 276.0625,445.5 C 276.0625,445.50001 430.8125,467.59375 430.8125,467.59375 L 430.875,467.59375 L 430.9375,467.59375 C 435.79586,468.20935 437.26353,470.17122 438.6875,472.625 C 439.11527,473.36213 439.38701,474.0107 439.625,474.59375 C 439.625,473.31786 439.625,464.53125 439.625,464.53125 C 439.62501,464.53124 437.625,448.53125 421.625,446.53125 C 421.62501,446.53124 266.09375,425.03125 266.09375,425.03125 C 266.09375,425.03125 265.54337,424.90881 264.75,424.8125 z M 346.34375,478.625 C 326.82732,478.62499 309.00854,484.722 294.0625,494.6875 L 305.15625,511.875 C 317.14006,503.88458 330.95494,499.15625 346.34375,499.15625 C 375.553,499.15623 399.40626,524.06407 399.40625,555.53125 C 399.40625,586.99843 375.55301,611.90625 346.34375,611.90625 C 331.73834,611.90624 315.1723,605.27919 302.6875,597.90625 L 292.46875,615.65625 C 306.9138,624.18679 326.0419,632.4375 346.34375,632.4375 C 383.76962,632.43751 414.47967,602.87604 419.0625,565.25 L 439.625,564.8125 C 439.625,557.72859 439.625,556.5529 439.625,548.59375 L 419.28125,547.40625 C 415.40735,508.9998 384.31341,478.625 346.34375,478.625 z M 346.3125,538.96875 C 354.52399,538.96879 361.15624,545.85444 361.15625,555.46875 C 361.15625,565.08309 354.52399,572 346.3125,572 C 338.10146,572.00001 331.18751,564.96562 331.1875,555.46875 C 331.18748,545.97144 338.10101,538.96875 346.3125,538.96875 z"
       style="fill:#4d0000;fill-opacity:0.49295774;stroke:none;stroke-width:20;stroke-opacity:1;filter:url(#filter3439)" />
    <g
       id="g5201"
       transform="matrix(0.9487393,0,0,1.0004072,-63.195077,656.63827)"
       style="fill:url(#radialGradient5280);fill-opacity:1;stroke:none">
      <path
         style="fill:url(#radialGradient5282);fill-opacity:1;stroke:none;stroke-width:20;stroke-opacity:1"
         d="M 354.78316,-236.01058 C 350.96467,-235.92204 346.21673,-235.2997 341.31441,-233.35433 C 335.71176,-231.13106 329.7205,-226.78277 325.84566,-219.91683 C 322.07161,-213.22947 320.41584,-204.59787 321.12691,-194.07308 C 321.12691,-194.07308 320.62691,-11.135575 320.62691,-11.135575 L 320.62691,-11.010575 L 320.62691,-10.885575 C 320.62691,-10.885545 320.62288,-2.4180651 325.47066,6.0206749 C 330.31844,14.459445 342.13374,22.696565 358.28316,20.833175 L 358.59566,20.801925 L 358.93941,20.739425 C 358.9394,20.739455 522.47066,-9.2605751 522.47066,-9.2605751 C 522.47065,-9.2605451 528.29171,-10.286675 533.75191,-14.479325 C 539.2121,-18.671945 544.65816,-27.026045 544.65816,-38.104325 C 544.65815,-38.104295 544.65816,-186.04183 544.65816,-186.04183 L 544.65816,-186.66683 L 544.59566,-187.29183 C 544.59565,-187.29183 543.87801,-193.24309 540.28316,-199.35433 C 536.6883,-205.46558 529.11398,-212.5786 517.90816,-213.97933 C 517.90815,-213.97933 364.18557,-235.19934 363.06441,-235.35433 C 363.0644,-235.35433 362.62397,-235.42321 362.50191,-235.44808 C 361.8366,-235.58361 359.7871,-235.96692 356.37691,-236.01058 C 355.87243,-236.01704 355.32866,-236.02323 354.78316,-236.01058 z M 358.47066,-215.91683 C 360.52856,-215.93726 362.00191,-215.72933 362.00191,-215.72933 L 362.28316,-215.66683 L 362.56441,-215.63558 C 362.5644,-215.63558 515.28316,-194.13558 515.28316,-194.13558 L 515.34566,-194.13558 L 515.40816,-194.13558 C 520.20233,-193.53631 521.62801,-191.61808 523.03316,-189.22933 C 524.25381,-187.15422 524.57937,-185.60516 524.65816,-185.16683 C 524.65815,-184.3447 524.65816,-149.94499 524.65816,-115.26058 L 503.87691,-116.44808 C 500.05421,-153.83665 469.37609,-183.41683 431.90816,-183.41683 C 412.64962,-183.41683 395.06295,-177.46196 380.31441,-167.76058 L 391.28316,-151.04183 C 403.10862,-158.82046 416.7227,-163.41683 431.90816,-163.41683 C 460.73144,-163.41684 484.28317,-139.17503 484.28316,-108.54183 C 484.28316,-77.908625 460.73145,-53.666825 431.90816,-53.666825 C 417.49574,-53.666835 401.16549,-60.114295 388.84566,-67.291825 L 378.75191,-50.010575 C 393.00607,-41.706115 411.87458,-33.666825 431.90816,-33.666825 C 468.83948,-33.666825 499.16714,-62.444245 503.68941,-99.073075 L 524.65816,-99.510575 C 524.65816,-69.867645 524.65816,-38.104325 524.65816,-38.104325 C 524.65815,-32.682575 523.10421,-31.536675 521.56441,-30.354325 C 520.0246,-29.171945 518.90816,-28.948075 518.90816,-28.948075 L 518.87691,-28.948075 L 518.84566,-28.916825 C 518.84565,-28.916795 360.80555,-2.8434751 359.50191,-2.6043251 C 349.65132,-1.4676951 348.21663,-4.1993151 346.31441,-7.5105751 C 344.41218,-10.821815 344.15816,-14.854325 344.15816,-14.854325 C 344.15816,-14.854315 344.10891,-54.599225 344.06441,-93.104325 L 399.53316,-95.166825 C 404.69821,-82.039785 417.15195,-72.510575 431.87691,-72.510575 C 451.29592,-72.510555 466.53316,-89.151815 466.53316,-108.60433 C 466.53313,-128.0568 451.29593,-144.66683 431.87691,-144.66683 C 415.81784,-144.66681 402.46036,-133.3874 398.31441,-118.41683 L 344.03316,-119.91683 C 343.99162,-155.86215 343.93941,-194.01058 343.93941,-194.01058 L 343.93941,-194.41683 L 343.90816,-194.82308 C 343.26961,-202.91144 344.5955,-207.47027 346.06441,-210.07308 C 347.53332,-212.6759 349.22956,-213.85886 351.50191,-214.76058 C 353.77425,-215.66231 356.41275,-215.89641 358.47066,-215.91683 z M 431.87691,-124.66683 C 439.97988,-124.66681 446.53315,-117.96383 446.53316,-108.60433 C 446.53315,-99.244805 439.97989,-92.510575 431.87691,-92.510575 C 423.77436,-92.510555 416.97067,-99.359155 416.97066,-108.60433 C 416.97065,-117.84993 423.77393,-124.66683 431.87691,-124.66683 z"
         id="path5203" />
    </g>
    <g
       id="g5187">
      <g
         id="g3303"
         transform="translate(-20.0878,563.60998)" />
      <g
         id="g3307"
         transform="translate(32.9955,542.80288)" />
      <g
         id="g3311"
         transform="translate(87.4955,545.55288)" />
      <g
         id="g3315"
         transform="translate(87.4955,545.55288)" />
      <g
         transform="translate(104.7455,494.26718)"
         id="g5148" />
    </g>
    <path
       id="path5175"
       sodipodi:nodetypes="ccccccccc"
       style="fill:none;fill-opacity:1;stroke:url(#radialGradient5183);stroke-width:6;stroke-miterlimit:4;stroke-dasharray:none;filter:url(#filter3346)"
       d="M 279.91042,429.42675 C 279.91042,429.42675 248.68339,422.89679 251.52222,461.07202 C 251.52222,461.07202 251.04909,644.86766 251.04909,644.86766 C 251.04909,644.86766 251.52222,669.98293 276.12533,666.96909 C 276.12533,666.96909 430.87513,636.83076 430.87513,636.83076 C 430.87513,636.83076 444.12295,634.31923 444.12295,617.74315 C 444.12295,617.74315 444.12295,469.1089 444.12295,469.1089 C 444.12295,469.1089 442.23041,453.03513 427.09003,451.0259 C 427.09003,451.0259 279.91042,429.42675 279.91042,429.42675 z" />
    <g
       id="g5205"
       transform="translate(32.9955,542.80288)" />
    <g
       id="g5209"
       transform="translate(87.4955,545.55288)" />
    <g
       id="g5213"
       transform="translate(87.4955,545.55288)" />
    <g
       transform="translate(104.7455,494.26718)"
       id="g5217" />
  </g>
  <g
     inkscape:groupmode="layer"
     id="layer4"
     inkscape:label="Signature">
    <text
       xml:space="preserve"
       style="font-size:8.00061035px;font-style:normal;font-variant:normal;font-weight:bold;font-stretch:normal;text-align:start;line-height:125%;writing-mode:lr-tb;text-anchor:start;opacity:1;fill:#000000;fill-opacity:0.1254902;stroke:none;stroke-width:1px;stroke-linecap:butt;stroke-linejoin:miter;stroke-opacity:1;display:inline;font-family:Bitstream Vera Sans;-inkscape-font-specification:Bitstream Vera Sans Bold"
       x="280.36798"
       y="601.98383"
       id="text2443"
       transform="matrix(0.9665599,1.5396183e-3,-1.4383731e-3,1.0345948,0,0)"
       sodipodi:linespacing="125%"><tspan
         sodipodi:role="line"
         id="tspan2445"
         x="280.36798"
         y="601.98383">ACF by</tspan><tspan
         sodipodi:role="line"
         x="280.36798"
         y="611.98456"
         id="tspan3359">W. Gantzke</tspan><tspan
         sodipodi:role="line"
         x="280.36798"
         y="621.98535"
         id="tspan3361">K. Lepski</tspan></text>
    <text
       sodipodi:linespacing="125%"
       transform="matrix(0.9665599,1.5396183e-3,-1.4383731e-3,1.0345948,-1.5625,-1.5)"
       id="text3376"
       y="602.80927"
       x="281.27637"
       style="font-size:8.00061035000000050px;font-style:normal;font-variant:normal;font-weight:bold;font-stretch:normal;text-align:start;line-height:125%;writing-mode:lr-tb;text-anchor:start;fill:#ffffff;fill-opacity:0.36619717;stroke:none;stroke-width:1px;stroke-linecap:butt;stroke-linejoin:miter;stroke-opacity:1;display:inline;filter:url(#filter3378);font-family:Bitstream Vera Sans;-inkscape-font-specification:Bitstream Vera Sans Bold"
       xml:space="preserve"><tspan
         y="602.80927"
         x="281.27637"
         id="tspan3378"
         sodipodi:role="line">ACF by</tspan><tspan
         id="tspan3380"
         y="612.81006"
         x="281.27637"
         sodipodi:role="line">W. Gantzke</tspan><tspan
         id="tspan3382"
         y="622.81079"
         x="281.27637"
         sodipodi:role="line">K. Lepski</tspan></text>
  </g>
</svg>
